<svg id="svg" xmlns="http://www.w3.org/2000/svg" xmlns:xlink="http://www.w3.org/1999/xlink" width="400" height="400" viewBox="0, 0, 400,400"><g id="svgg"><path id="path0" d="M291.797 21.429 C 266.239 27.289,245.395 48.454,241.223 72.782 L 240.315 78.076 249.671 87.671 C 283.703 122.574,297.701 166.332,289.793 213.091 C 284.804 242.594,274.027 263.849,250.861 289.881 C 246.060 295.275,245.558 295.138,257.555 291.710 C 316.666 274.823,354.645 210.157,340.912 149.779 L 339.644 144.204 341.474 143.001 C 355.086 134.048,364.824 121.519,369.502 106.942 L 371.161 101.774 375.407 101.336 C 389.006 99.932,400.018 84.031,400.002 65.820 L 400.000 64.063 384.436 64.063 L 368.871 64.063 368.026 61.501 C 358.955 34.015,321.889 14.531,291.797 21.429 M323.112 52.036 C 330.202 55.401,331.209 65.891,324.875 70.402 C 315.666 76.959,303.569 66.949,308.784 57.088 C 311.789 51.405,317.522 49.384,323.112 52.036 M112.597 207.325 C 50.561 269.362,-0.063 320.479,0.098 320.920 C 0.500 322.022,16.341 335.937,17.192 335.938 C 17.569 335.938,19.920 334.140,22.415 331.943 C 46.931 310.361,83.588 300.728,114.453 307.755 C 146.904 315.143,176.230 312.323,202.135 299.324 C 269.816 265.360,291.613 178.803,247.861 117.747 C 242.982 110.939,227.730 94.531,226.281 94.531 C 225.790 94.531,174.632 145.288,112.597 207.325 M220.703 313.412 C 219.414 314.276,214.797 316.717,210.442 318.837 L 202.525 322.690 205.090 332.861 L 207.655 343.032 201.741 342.805 L 195.827 342.578 194.072 334.895 C 191.932 325.526,192.980 326.277,185.079 328.451 C 181.423 329.457,176.676 330.521,174.530 330.817 C 168.597 331.633,168.667 330.804,172.947 349.414 L 176.854 366.406 203.686 366.406 C 224.455 366.406,231.090 366.645,233.045 367.462 C 236.695 368.987,240.521 373.685,241.110 377.364 L 241.606 380.469 253.225 380.469 L 264.844 380.469 264.809 376.367 C 264.791 374.111,264.305 370.947,263.730 369.336 L 262.684 366.406 266.529 366.406 C 273.526 366.406,278.902 370.476,280.678 377.119 L 281.574 380.469 293.131 380.469 L 304.688 380.469 304.688 377.095 C 304.688 363.299,292.747 348.488,278.179 344.214 C 274.763 343.212,269.865 342.969,253.077 342.969 L 232.218 342.969 228.383 327.594 C 224.268 311.098,224.237 311.042,220.703 313.412 " stroke="none" fill="#ffffff" fill-rule="evenodd"></path></g></svg>