<svg id="svg" xmlns="http://www.w3.org/2000/svg" xmlns:xlink="http://www.w3.org/1999/xlink" width="400" height="400" viewBox="0, 0, 400,400"><g id="svgg"><path id="path0" d="M194.793 0.489 C 194.694 0.588,193.955 0.793,193.152 0.945 C 187.584 1.996,182.959 3.384,181.787 4.357 C 181.312 4.751,180.923 4.883,180.923 4.649 C 180.923 4.415,180.162 4.766,179.231 5.429 C 178.300 6.092,177.347 6.595,177.113 6.548 C 175.778 6.277,163.932 17.861,96.835 85.046 C 34.025 147.939,19.804 162.603,19.368 164.923 C 19.336 165.092,18.817 166.338,18.214 167.692 C 17.199 169.970,15.708 174.457,14.956 177.495 C 13.081 185.068,14.797 197.371,18.910 205.846 C 19.731 207.538,21.046 210.031,21.831 211.385 C 23.958 215.051,172.110 363.030,174.769 364.144 C 175.954 364.640,177.338 365.404,177.846 365.842 C 179.147 366.964,187.516 370.433,187.928 370.021 C 188.115 369.834,189.048 370.004,190.002 370.398 C 191.450 370.999,198.159 371.859,200.308 371.720 C 204.879 371.424,210.493 370.488,211.759 369.810 C 212.399 369.468,212.923 369.343,212.923 369.533 C 212.923 369.722,213.754 369.448,214.769 368.923 C 215.785 368.398,216.615 368.120,216.615 368.306 C 216.615 368.492,217.308 368.190,218.154 367.636 C 219.000 367.081,219.692 366.817,219.692 367.048 C 219.692 367.279,220.497 366.896,221.480 366.196 C 222.463 365.496,223.635 364.923,224.084 364.923 C 224.534 364.923,259.194 330.654,301.108 288.769 L 377.314 212.615 379.972 207.077 C 386.161 194.184,386.879 174.267,381.399 167.538 C 381.054 167.115,381.014 166.760,381.309 166.750 C 381.605 166.739,381.419 166.393,380.897 165.980 C 380.375 165.568,379.460 164.262,378.862 163.077 C 378.265 161.892,377.094 159.954,376.261 158.769 C 374.496 156.259,228.304 9.846,227.562 9.846 C 227.288 9.846,225.702 8.889,224.037 7.718 C 219.257 4.359,212.862 1.874,206.462 0.891 C 204.241 0.550,195.049 0.233,194.793 0.489 M204.308 32.150 C 206.549 32.558,212.734 38.579,280.492 106.309 C 333.707 159.502,352.366 178.520,353.248 180.463 C 354.765 183.805,354.781 188.096,353.288 191.487 C 352.013 194.386,206.593 340.337,205.785 339.529 C 205.561 339.304,204.889 339.381,204.294 339.700 C 202.363 340.733,198.618 340.876,196.515 339.998 C 195.385 339.526,194.462 339.270,194.462 339.430 C 194.462 341.077,47.980 195.291,46.239 191.912 C 44.906 189.325,45.119 182.929,46.645 179.692 C 49.025 174.642,195.077 29.618,195.077 32.303 C 195.077 32.509,195.562 32.390,196.154 32.040 C 197.070 31.498,201.021 31.552,204.308 32.150 M154.691 91.041 C 128.755 103.840,137.122 141.833,165.878 141.844 C 194.505 141.854,203.192 103.563,177.419 90.973 C 173.562 89.089,172.695 88.913,166.462 88.750 L 159.692 88.573 154.691 91.041 M224.371 90.174 C 196.746 101.644,204.349 141.912,234.123 141.827 C 263.304 141.744,271.239 103.011,244.596 90.702 C 238.609 87.935,230.286 87.718,224.371 90.174 M116.615 142.598 C 97.306 150.412,96.128 176.099,114.660 185.223 C 135.877 195.668,157.134 169.918,143.088 150.785 C 137.320 142.927,125.123 139.155,116.615 142.598 M267.635 142.674 C 246.896 150.995,247.686 179.871,268.834 186.472 C 292.061 193.721,309.108 163.713,291.008 147.439 C 284.803 141.860,274.764 139.813,267.635 142.674 M189.950 157.498 C 174.355 161.002,162.223 172.242,156.238 188.730 C 153.217 197.053,151.163 200.445,144.550 208.032 C 130.091 224.619,127.565 244.558,137.625 262.690 C 147.196 279.941,169.604 289.327,189.231 284.308 C 192.416 283.493,196.057 283.077,200.000 283.077 C 203.943 283.077,207.584 283.493,210.769 284.308 C 255.709 295.801,286.354 243.486,255.450 208.032 C 248.837 200.445,246.783 197.053,243.762 188.730 C 235.156 165.023,213.192 152.275,189.950 157.498 " stroke="none" fill="#ffffff" fill-rule="evenodd"></path></g></svg>