<svg id="svg" xmlns="http://www.w3.org/2000/svg" xmlns:xlink="http://www.w3.org/1999/xlink" width="400" height="400" viewBox="0, 0, 400,400"><g id="svgg"><path id="path0" d="M307.975 12.196 C 304.000 14.224,303.224 15.646,294.901 36.150 L 287.109 55.345 283.474 56.999 C 268.588 63.771,254.200 79.348,248.494 94.869 C 244.941 104.535,244.397 108.421,243.844 128.125 C 243.223 150.286,242.530 152.792,235.120 159.724 C 228.610 165.813,225.988 166.596,209.766 167.293 C 162.301 169.332,126.799 191.152,107.055 230.421 C 96.816 250.787,95.703 258.141,95.703 305.469 L 95.703 344.922 97.570 350.391 C 98.596 353.398,100.352 357.617,101.471 359.766 C 102.591 361.914,103.626 363.936,103.772 364.258 C 104.325 365.481,44.338 364.934,40.105 363.677 C 24.039 358.906,18.823 338.260,30.685 326.398 C 35.246 321.837,39.738 320.146,48.832 319.566 C 60.205 318.840,64.053 315.750,64.060 307.342 C 64.067 296.793,53.867 292.782,36.429 296.477 C -5.704 305.403,-13.443 364.543,25.000 383.812 C 35.942 389.296,29.464 389.034,154.167 389.049 L 266.538 389.063 266.270 375.977 C 265.806 353.328,260.882 348.437,238.549 348.438 C 216.908 348.438,217.706 349.850,217.136 310.547 L 216.694 280.078 214.572 273.661 C 208.229 254.479,191.886 241.582,171.775 239.886 C 161.971 239.059,157.356 235.832,156.538 229.229 C 154.062 209.267,194.533 214.866,217.858 237.713 C 234.761 254.270,239.105 267.120,239.637 302.148 L 239.996 325.781 245.862 325.781 C 268.825 325.781,289.063 345.543,289.063 367.967 C 289.063 372.103,293.018 378.536,297.800 382.177 C 311.601 392.685,341.643 391.943,351.405 380.853 C 363.908 366.649,353.703 341.406,335.457 341.406 L 333.594 341.406 333.594 314.594 L 333.594 287.782 336.773 283.540 C 357.663 255.658,366.351 225.102,366.413 179.297 L 366.437 162.109 376.763 154.688 C 394.578 141.882,393.242 144.000,397.694 121.502 C 401.836 100.571,401.738 100.337,384.545 89.863 C 375.045 84.076,373.442 82.795,371.431 79.383 C 363.674 66.217,348.505 55.783,332.570 52.652 L 325.892 51.340 325.641 35.100 C 325.367 17.358,325.238 16.841,320.127 13.025 C 317.330 10.937,311.257 10.522,307.975 12.196 M353.750 90.160 C 362.765 94.851,362.260 106.603,352.876 110.492 C 348.087 112.477,343.926 111.263,340.371 106.844 C 333.254 97.996,343.721 84.942,353.750 90.160 " stroke="none" fill="#ffffff" fill-rule="evenodd"></path></g></svg>