<svg id="svg" xmlns="http://www.w3.org/2000/svg" xmlns:xlink="http://www.w3.org/1999/xlink" width="400" height="400" viewBox="0, 0, 400,400"><g id="svgg"><path id="path0" d="M214.278 31.624 C 203.599 34.001,199.977 36.719,176.361 60.075 C 164.434 71.872,153.814 82.995,152.760 84.793 C 142.590 102.146,144.442 130.227,156.843 146.717 C 174.103 169.668,209.992 168.731,227.008 144.885 C 233.352 135.995,234.482 131.749,235.207 114.063 C 236.075 92.878,238.575 85.643,248.438 75.781 C 252.585 71.633,261.547 65.625,263.586 65.625 C 263.848 65.625,264.063 68.843,264.063 72.777 L 264.063 79.928 259.405 84.143 C 251.088 91.670,249.810 95.427,249.127 114.350 C 248.631 128.089,248.307 130.868,246.566 136.328 C 238.858 160.501,216.275 177.273,191.356 177.330 L 185.446 177.344 155.418 195.033 C 103.870 225.399,88.724 235.169,80.197 243.554 C 60.813 262.617,53.497 292.729,62.096 318.065 C 63.171 321.235,64.054 323.889,64.057 323.963 C 64.060 324.037,53.428 324.213,40.430 324.354 C 14.445 324.635,13.389 324.816,7.211 330.037 C -4.862 340.242,-1.563 360.606,13.281 367.506 C 16.918 369.197,204.444 370.195,210.291 368.555 C 218.471 366.261,222.816 354.857,218.639 346.649 C 213.307 336.172,195.944 325.000,184.992 325.000 C 183.207 325.000,183.218 324.908,185.537 320.333 C 195.206 301.252,192.089 275.041,178.161 258.313 C 174.229 253.592,174.113 254.253,179.742 249.299 L 184.484 245.125 186.757 247.302 C 200.329 260.305,208.882 291.686,203.487 308.684 C 203.040 310.093,203.696 310.156,218.656 310.156 L 234.292 310.156 234.529 334.180 C 234.802 361.930,235.098 363.203,242.197 367.178 L 245.703 369.141 276.953 369.141 C 307.945 369.141,308.231 369.126,311.523 367.367 C 328.502 358.297,315.310 332.736,290.284 326.218 C 287.764 325.561,285.547 324.870,285.359 324.682 C 285.035 324.358,287.113 305.874,287.971 301.441 C 288.228 300.115,289.555 298.588,291.648 297.212 C 329.863 272.080,334.018 215.347,299.989 183.335 L 293.750 177.466 293.750 163.414 L 293.750 149.363 319.336 149.010 C 347.722 148.619,348.548 148.499,359.694 143.119 C 373.223 136.588,377.826 131.838,389.598 112.259 C 401.000 93.298,402.042 89.876,398.521 82.977 C 395.098 76.271,392.346 75.267,376.172 74.828 C 354.553 74.240,350.454 72.205,329.315 51.558 C 307.503 30.255,310.044 31.002,258.594 30.741 C 227.254 30.583,218.141 30.764,214.278 31.624 M313.355 66.054 C 319.000 68.973,320.526 76.829,316.367 81.566 C 311.765 86.807,304.705 87.016,300.514 82.036 C 293.164 73.301,303.204 60.804,313.355 66.054 " stroke="none" fill="#ffffff" fill-rule="evenodd"></path></g></svg>