<?xml version="1.0" encoding="utf-8"?>
<!-- Generator: Adobe Illustrator 26.0.1, SVG Export Plug-In . SVG Version: 6.00 Build 0)  -->
<svg version="1.1" id="svg" xmlns="http://www.w3.org/2000/svg" xmlns:xlink="http://www.w3.org/1999/xlink" x="0px" y="0px"
	 viewBox="0 0 400 400" style="enable-background:new 0 0 400 400;" xml:space="preserve">
<style type="text/css">
	.st0{fill-rule:evenodd;clip-rule:evenodd;fill:#FFFFFF;}
</style>
<g id="svgg">
	<path id="path0" class="st0" d="M197.1,7.2c-0.4,0.9-1.2,3.4-1.7,5.4c-0.5,2-1.2,4.1-1.5,4.7c-0.3,0.5-1,3.9-1.5,7.4
		c-0.6,3.5-1.3,7.3-1.6,8.3c-3.7,11.4,0,42.4,6.9,57.4c1,2.1,1.8,4.1,1.8,4.5c0,0.3,0.3,0.6,0.6,0.6s0.6,0.3,0.6,0.7
		c0,1.1,4.1,7.4,6.3,9.8l2,2.2l-3,5.8c-5.2,10-7.4,18.1-8.2,30.5c-0.6,9.4-1.1,10.1-11.9,16.1c-4.6,2.6-9.3,5.2-10.5,5.9
		c-3.7,2.2-11.3,7.1-13.2,8.4c-3.1,2.2-12.3,8.9-12.6,9.2c-0.2,0.2-2.3,1.9-4.7,3.9c-15.3,12.4-32.9,35.8-37.2,49.4
		c-0.4,1.4-1,2.7-1.2,3.1c-0.3,0.3-0.9,2.4-1.5,4.6s-1.3,4.4-1.6,5c-0.3,0.6-1,4.2-1.5,8c-0.5,3.8-1.3,8.3-1.6,10
		c-0.3,1.6-0.6,12.4-0.6,23.8v20.9h-4.5c-17,0-31.6,7.8-39.3,21c-11.6,19.8-3.3,47.2,17.3,57.1c2.3,1.1,4.7,2.3,5.4,2.7
		c0.9,0.5,31.6,0.7,117.5,0.9l116.3,0.2l3.8-1.8c19.2-9,20.4-36.3,2-47.1c-6.6-3.9-8.4-4.1-41.9-4.1h-30.4l1.2-7.5
		c2.6-15.7,1.2-28.4-4.2-38.8c-0.9-1.7,0.4-3.5,2.3-3.5c0.3,0,3.9-1.9,8.1-4.2l7.6-4.2l0.9,1.6c0.5,0.9,1.3,2.7,1.7,4.1
		c0.4,1.4,1,2.7,1.3,3.1c1.9,2.4,4.8,17.6,5.5,28.4c0,0.1,8.4,0.1,18.6,0l18.6-0.2l0.8-3.4c0.5-1.9,1.1-3.9,1.4-4.6
		c0.3-0.7,1-3.4,1.6-6.2c0.6-2.7,1.3-5.6,1.6-6.5c0.6-1.7,2.8-15.7,3.6-23.7c0.7-6.1,0.7-22.9,0-27.4c-1.5-10.4-5.1-24.5-6.8-26.8
		c-1.1-1.4-2.4-7.6-2.4-11c0-7.9,2.3-11.7,11-18.3c26.5-20,30.8-26.9,30.8-48.9c0-12.7-1.1-17.2-6.4-27c-9-16.5-30.5-33-48.9-37.6
		c-2.2-0.5-4.3-1.2-4.6-1.4c-0.6-0.4-7.1-1.4-14-2.2c-3.4-0.4-3.5-0.4-3.5-2.2c0-3.7-6.5-19.3-9.9-23.5c-0.3-0.4-2.4-3.1-4.7-5.9
		c-7.7-9.8-15.9-17-30.1-26.2c-1.3-0.9-4.9-2.8-8-4.3c-3.1-1.5-6.3-3.1-7.1-3.6c-0.8-0.4-2.6-1.2-3.9-1.6s-3.1-1.1-4-1.6
		C200.9,4.9,198,5.3,197.1,7.2 M293.4,107.1c4.6,3.3,5.7,8.3,3,13.5c-4.6,9.1-18.4,6.5-19.4-3.6
		C276.2,107.5,285.8,101.6,293.4,107.1"/>
</g>
</svg>
