<svg id="Capa_1" enable-background="new 0 0 510 510" height="512" viewBox="0 0 510 510" width="512" xmlns="http://www.w3.org/2000/svg" xmlns:xlink="http://www.w3.org/1999/xlink"><linearGradient id="lg1"><stop offset="0" stop-color="#ffc2b5"/><stop offset=".2441" stop-color="#ffbbb3"/><stop offset=".6097" stop-color="#ffa6af"/><stop offset="1" stop-color="#ff89a8"/></linearGradient><linearGradient id="SVGID_1_" gradientUnits="userSpaceOnUse" x1="213.346" x2="403.752" xlink:href="#lg1" y1="396.903" y2="396.903"/><linearGradient id="SVGID_2_" gradientUnits="userSpaceOnUse" x1="250.433" x2="460.325" xlink:href="#lg1" y1="409.391" y2="409.391"/><linearGradient id="lg2"><stop offset="0" stop-color="#ffdcbd"/><stop offset=".0028" stop-color="#ffdcbd"/><stop offset="1" stop-color="#ffa9b1"/></linearGradient><linearGradient id="SVGID_3_" gradientUnits="userSpaceOnUse" x1="0" x2="537.21" xlink:href="#lg2" y1="419.484" y2="419.484"/><linearGradient id="SVGID_4_" gradientUnits="userSpaceOnUse" x1="17.997" x2="290.88" xlink:href="#lg2" y1="356.673" y2="356.673"/><linearGradient id="lg3"><stop offset="0" stop-color="#feb237"/><stop offset="1" stop-color="#fd6930"/></linearGradient><linearGradient id="SVGID_5_" gradientUnits="userSpaceOnUse" x1="97.175" x2="537.176" xlink:href="#lg3" y1="176.678" y2="176.678"/><linearGradient id="SVGID_6_" gradientUnits="userSpaceOnUse" x1="18.102" x2="444.461" xlink:href="#lg3" y1="176.671" y2="176.671"/><linearGradient id="lg4"><stop offset="0" stop-color="#fff9df"/><stop offset=".593" stop-color="#ffe177"/><stop offset="1" stop-color="#feb237"/></linearGradient><linearGradient id="SVGID_7_" gradientUnits="userSpaceOnUse" x1="68" x2="420.511" xlink:href="#lg4" y1="226.866" y2="226.866"/><linearGradient id="SVGID_8_" gradientUnits="userSpaceOnUse" x1="68" x2="420.511" xlink:href="#lg4" y1="152.921" y2="152.921"/><linearGradient id="SVGID_10_" gradientUnits="userSpaceOnUse" x1="68" x2="420.511" xlink:href="#lg4" y1="72.602" y2="72.602"/><linearGradient id="SVGID_12_" gradientUnits="userSpaceOnUse" x1="193.594" x2="403.69" y1="226.866" y2="226.866"><stop offset="0" stop-color="#ffe177"/><stop offset="1" stop-color="#feb237"/></linearGradient><g><g><g><g><path d="m391.649 330.779-144.767 43.639c-1.365.411-2.735.79-4.103 1.178v88.443c3.981-1.409 7.952-2.871 11.901-4.429l144.805-57.127c15.33-6.048 25.642-22.775 25.642-41.593-.001-20.35-16.532-35.219-33.478-30.111z" fill="url(#SVGID_1_)"/><path d="m441.256 336.464-144.767 43.639c-17.703 5.336-35.682 8.712-53.711 10.191v93.036c20.798-4.079 41.369-10.089 61.509-18.034l144.805-57.127c15.33-6.048 25.642-22.775 25.642-41.593 0-20.351-16.532-35.22-33.478-30.112z" fill="url(#SVGID_2_)"/><path d="m0 366.971v25.608c0 41.246 27.167 77.564 66.733 89.213l47.845 14.087c74.279 21.869 152.416 18.274 224.975-10.352l144.805-57.127c15.33-6.048 25.642-22.775 25.642-41.593 0-20.35-16.532-35.219-33.477-30.111l-144.767 43.639c-67.185 20.252-138.347 12.548-201.158-21.78l-84.051-45.935c-21.657-11.834-46.547 6.534-46.547 34.351z" fill="url(#SVGID_3_)"/><path d="m41.596 294.685c29.221-14.771 64.624-9.106 87.776 14.047l8.141 8.141c30.534 30.534 71.947 47.688 115.129 47.688h34.193c23.615 0 42.759 19.144 42.759 42.759 0 10.766-8.728 19.493-19.493 19.493h-245.608c-35.618-.001-64.493-28.875-64.493-64.494 0-28.585 16.085-54.739 41.596-67.634z" fill="url(#SVGID_4_)"/></g></g></g><g><path d="m346.805 0c-37.29.058-70.477 17.605-91.805 44.876-21.328-27.271-54.516-44.818-91.807-44.876-65.063-.1-117.416 54.128-116.891 119.189.812 100.618 51.349 151.559 136.28 211.184l.219.154c43.333 30.421 101.079 30.441 144.433.049 85.036-59.612 135.649-110.686 136.465-211.377.526-65.067-51.824-119.3-116.894-119.199z" fill="url(#SVGID_5_)"/><path d="m346.805 0c-6.795.011-13.451.609-19.927 1.733 55.418 9.72 97.271 59.253 96.8 117.465-.816 100.691-51.429 151.765-136.465 211.377-15.924 11.164-33.793 18.207-52.174 21.165 31.632 5.091 64.788-1.952 92.194-21.165 85.036-59.612 135.649-110.686 136.464-211.377.528-65.067-51.822-119.299-116.892-119.198z" fill="url(#SVGID_6_)"/><g><g><path d="m255 141.708c-28.163 0-54.64 10.968-74.555 30.882-19.914 19.914-30.882 46.392-30.882 74.555 0 17.516 4.388 34.868 12.69 50.181 3.994 7.368 10.995 12.529 19.208 14.159 8.159 1.62 16.537-.454 22.984-5.69 14.436-11.724 31.918-17.921 50.555-17.921 18.636 0 36.118 6.197 50.554 17.921 5.012 4.07 11.191 6.23 17.527 6.23 2.565 0 5.156-.354 7.706-1.079 7.471-2.124 13.641-7.392 17.296-14.246 8.287-15.54 12.554-33.095 12.346-50.82-.329-27.994-11.433-54.201-31.264-73.793-19.828-19.591-46.168-30.379-74.165-30.379z" fill="url(#SVGID_7_)"/><circle cx="137.412" cy="152.921" fill="url(#SVGID_8_)" r="37.269"/><circle cx="372.588" cy="152.921" fill="url(#SVGID_8_)" r="37.269"/><g fill="url(#SVGID_10_)"><circle cx="309.656" cy="72.602" r="37.269"/><circle cx="200.344" cy="72.602" r="37.269"/></g></g><path d="m329.165 172.085c-19.829-19.589-46.168-30.378-74.166-30.378-6.782 0-13.465.642-19.983 1.886 20.37 3.879 39.116 13.66 54.128 28.491 19.831 19.592 30.935 45.799 31.264 73.793.209 17.725-4.058 35.28-12.346 50.82-1.385 2.597-3.132 4.965-5.173 7.022.899.671 1.788 1.361 2.664 2.073 5.012 4.07 11.191 6.23 17.527 6.23 2.565 0 5.156-.354 7.706-1.079 7.471-2.124 13.641-7.392 17.296-14.246 8.287-15.54 12.554-33.095 12.346-50.82-.328-27.992-11.431-54.2-31.263-73.792z" fill="url(#SVGID_12_)"/></g></g></g></svg>