<?xml version="1.0" encoding="utf-8"?>
<!-- Generator: Adobe Illustrator 26.5.0, SVG Export Plug-In . SVG Version: 6.00 Build 0)  -->
<svg version="1.1" id="Layer_1" xmlns="http://www.w3.org/2000/svg" xmlns:xlink="http://www.w3.org/1999/xlink" x="0px" y="0px"
	 viewBox="0 0 512 512" style="enable-background:new 0 0 512 512;" xml:space="preserve">
<style type="text/css">
	.st0{fill:#FFFFFF;}
</style>
<path class="st0" d="M341.7,426.7c0,47.1-38.2,85.3-85.3,85.3S171,473.8,171,426.7s38.2-85.3,85.3-85.3S341.7,379.5,341.7,426.7z"/>
<path class="st0" d="M256.3,85.3c-11.8,0-21.3-9.6-21.3-21.3V21.3C235,9.6,244.6,0,256.3,0c11.8,0,21.3,9.6,21.3,21.3V64
	C277.7,75.8,268.1,85.3,256.3,85.3z"/>
<path class="st0" d="M456.4,360.8c-32.3-27.3-50.8-67.1-50.8-109.3V192c0-82.3-67-149.3-149.3-149.3C174,42.7,107,109.7,107,192
	v59.5c0,42.2-18.5,82.1-50.9,109.5c-8.3,7.1-13.1,17.4-13.1,28.4c0,20.6,16.7,37.3,37.3,37.3h352c20.6,0,37.3-16.7,37.3-37.3
	C469.7,378.4,464.9,368.1,456.4,360.8z"/>
<path class="st0" d="M340.8,426.2c0,47.1-38.2,85.3-85.3,85.3s-85.3-38.2-85.3-85.3s38.2-85.3,85.3-85.3S340.8,379,340.8,426.2z"/>
<path class="st0" d="M255.5,84.8c-11.8,0-21.3-9.6-21.3-21.3V20.8c0-11.8,9.6-21.3,21.3-21.3c11.8,0,21.3,9.6,21.3,21.3v42.7
	C276.8,75.3,267.3,84.8,255.5,84.8z"/>
<path class="st0" d="M455.6,360.3c-32.3-27.3-50.8-67.1-50.8-109.3v-59.5c0-82.3-67-149.3-149.3-149.3c-82.3,0-149.3,67-149.3,149.3
	V251c0,42.2-18.5,82.1-50.9,109.5c-8.3,7.1-13.1,17.4-13.1,28.4c0,20.6,16.7,37.3,37.3,37.3h352c20.6,0,37.3-16.7,37.3-37.3
	C468.8,377.9,464.1,367.6,455.6,360.3z"/>
</svg>
