<?xml version="1.0" encoding="utf-8"?>
<!-- Generator: Adobe Illustrator 26.5.0, SVG Export Plug-In . SVG Version: 6.00 Build 0)  -->
<svg version="1.1" id="Layer_3" xmlns="http://www.w3.org/2000/svg" xmlns:xlink="http://www.w3.org/1999/xlink" x="0px" y="0px"
	 viewBox="0 0 512 512" style="enable-background:new 0 0 512 512;" xml:space="preserve">
<style type="text/css">
	.st0{fill:#7E8083;}
</style>
<path class="st0" d="M437.6,112h-68.7l-8-24c-7.9-23.9-30.3-40-55.4-40h-98.8c-25.2,0-47.5,16.1-55.4,40l-8,24H74.4
	C42.2,112,16,138.2,16,170.4v235.2c0.1,32.2,26.2,58.3,58.4,58.4h363.2c32.2-0.1,58.3-26.2,58.4-58.4V170.4
	C495.9,138.1,469.8,112,437.6,112z M464,405.6c0,14.6-11.8,26.4-26.4,26.4H74.4C59.8,432,48,420.2,48,405.6V170.4
	c0.1-14.6,11.9-26.4,26.4-26.4h80.2c6.9,0,13-4.4,15.2-10.9l11.7-35c3.6-10.8,13.7-18.1,25.1-18.1h98.8c11.4,0,21.5,7.3,25.1,18.1
	l11.7,35c2.2,6.5,8.3,10.9,15.2,10.9h80.2c14.6,0,26.4,11.8,26.4,26.4V405.6z"/>
<path class="st0" d="M256,160c-66.3,0-120,53.7-120,120s53.7,120,120,120s120-53.7,120-120C375.9,213.8,322.2,160.1,256,160z
	 M256,368c-48.6,0-88-39.4-88-88s39.4-88,88-88s88,39.4,88,88C343.9,328.6,304.6,367.9,256,368z"/>
<circle class="st0" cx="416" cy="192" r="16"/>
</svg>
