<?xml version="1.0" encoding="utf-8"?>
<!-- Generator: Adobe Illustrator 26.5.0, SVG Export Plug-In . SVG Version: 6.00 Build 0)  -->
<svg version="1.1" id="Layer_1" xmlns="http://www.w3.org/2000/svg" xmlns:xlink="http://www.w3.org/1999/xlink" x="0px" y="0px"
	 viewBox="0 0 512 512" style="enable-background:new 0 0 512 512;" xml:space="preserve">
<style type="text/css">
	.st0{fill:#65676B;}
</style>
<g>
	<g>
		<g>
			<path class="st0" d="M256,452c-2.9,0-138.7,0-138.7,0c-8.8,0-16.1-4.1-19.6-11c-3.5-6.9-2.5-15.2,2.7-22.3l17.4-23.7
				C81,358.4,60,308.4,60,256c0-108.1,87.9-196,196-196c108.1,0,196,87.9,196,196C452,364.1,364.1,452,256,452L256,452z M256,422
				c91.5,0,166-74.4,166-166c0-91.5-74.5-166-166-166c-91.5,0-166,74.4-166,166c0,48.3,21,94.2,57.7,125.8l10.5,9.1L135.4,422
				L256,422z"/>
		</g>
		<g>
			<g>
				<path class="st0" d="M203.8,256c0,11.5-9.3,20.9-20.9,20.9c-11.5,0-20.9-9.3-20.9-20.9c0-11.5,9.3-20.9,20.9-20.9
					C194.4,235.1,203.8,244.5,203.8,256L203.8,256z"/>
			</g>
			<g>
				<circle class="st0" cx="256" cy="256" r="20.9"/>
			</g>
			<g>
				<circle class="st0" cx="329.1" cy="256" r="20.9"/>
			</g>
		</g>
	</g>
</g>
</svg>
