<?xml version="1.0" encoding="utf-8"?>
<!-- Generator: Adobe Illustrator 26.5.0, SVG Export Plug-In . SVG Version: 6.00 Build 0)  -->
<svg version="1.1" id="Layer_1" xmlns="http://www.w3.org/2000/svg" xmlns:xlink="http://www.w3.org/1999/xlink" x="0px" y="0px"
	 viewBox="0 0 96 96" style="enable-background:new 0 0 96 96;" xml:space="preserve">
<style type="text/css">
	.st0{fill-rule:evenodd;clip-rule:evenodd;fill:#242424;}
</style>
<g>
	<path class="st0" d="M48,0.5C21.8,0.5,0.5,21.8,0.5,48S21.8,95.5,48,95.5S95.5,74.2,95.5,48S74.2,0.5,48,0.5z M73,11.2
		c11.8,8,19.5,21.5,19.5,36.8c0,5.8-1.1,11.3-3.1,16.4c-8.4-9.3-22.7-7-19.3,1.5c2.3,5.6,0,14.8-2.5,22.1C61.6,90.9,55,92.5,48,92.5
		C23.4,92.5,3.5,72.6,3.5,48c0-11.5,4.4-22.1,11.6-30c0.1,0.4,0.2,0.7,0.3,1.1c2.9,13,3.2,34.6,31.7,37.1c23.1,2,21.1-9.3,14-8.9
		C47.4,48,38.7,30.7,50.2,22.7C56.4,18.4,65.6,14.9,73,11.2z"/>
</g>
</svg>
