<?xml version="1.0" encoding="UTF-8" standalone="no"?>
<svg xmlns="http://www.w3.org/2000/svg" version="1.2" baseProfile="tiny" viewBox="0.00 0.00 1448.00 1448.00">
<g stroke-width="2.00" fill="none" stroke-linecap="butt">
<path stroke="#0508aa" vector-effect="non-scaling-stroke" d="
  M 1083.19 816.43
  Q 1082.66 816.80 1082.46 817.88
  A 0.48 0.47 -57.3 0 1 1081.61 818.07
  L 1081.00 817.23
  Q 1080.74 816.87 1080.30 816.87
  L 992.49 816.89
  A 1.75 1.68 30.7 0 0 991.72 817.07
  L 989.35 818.24
  A 0.25 0.25 0.0 0 1 989.03 817.87
  L 990.57 815.61"
/>
<path stroke="#7e03bd" vector-effect="non-scaling-stroke" d="
  M 990.57 815.61
  Q 995.61 812.28 1002.91 808.14
  Q 1008.92 804.74 1011.43 798.71
  Q 1012.79 795.44 1012.78 789.09
  Q 1012.77 695.55 1012.80 602.00
  Q 1012.80 590.39 1003.61 584.64
  Q 966.26 561.29 903.21 523.66
  C 896.20 519.48 890.07 517.10 883.08 521.04
  Q 877.29 524.31 856.50 537.47"
/>
<path stroke="#7c08a9" vector-effect="non-scaling-stroke" d="
  M 856.50 537.47
  L 821.85 559.08"
/>
<path stroke="#7b0a9f" vector-effect="non-scaling-stroke" d="
  M 821.85 559.08
  Q 801.11 571.94 781.74 583.72
  Q 774.83 587.91 767.49 591.44"
/>
<path stroke="#7a0d8a" vector-effect="non-scaling-stroke" d="
  M 767.49 591.44
  Q 749.60 599.14 729.77 597.64"
/>
<path stroke="#7c2a84" vector-effect="non-scaling-stroke" d="
  M 729.77 597.64
  Q 721.84 597.42 713.97 595.16"
/>
<path stroke="#7b3277" vector-effect="non-scaling-stroke" d="
  M 713.97 595.16
  Q 701.50 591.66 690.35 584.92"
/>
<path stroke="#78355e" vector-effect="non-scaling-stroke" d="
  M 690.35 584.92
  L 678.36 577.99"
/>
<path stroke="#7b3c5e" vector-effect="non-scaling-stroke" d="
  M 678.36 577.99
  L 611.27 535.80"
/>
<path stroke="#7d4c5e" vector-effect="non-scaling-stroke" d="
  M 611.27 535.80
  Q 601.82 529.74 592.38 523.62
  C 584.16 518.31 578.43 517.02 569.90 522.11
  Q 496.98 565.68 465.87 585.37
  Q 462.17 587.71 459.65 593.74"
/>
<path stroke="#7b3c5e" vector-effect="non-scaling-stroke" d="
  M 459.65 593.74
  Q 457.83 597.98 457.83 600.25
  Q 457.87 690.53 457.85 780.80
  Q 457.85 793.42 458.58 796.14
  Q 460.72 804.21 468.96 808.76"
/>
<path stroke="#0508aa" vector-effect="non-scaling-stroke" d="
  M 468.96 808.76
  L 469.85 811.05
  Q 470.09 811.64 470.58 811.25
  Q 471.81 810.28 472.60 811.66
  Q 472.87 812.12 473.40 812.21
  Q 474.39 812.36 474.93 813.24
  Q 475.03 813.40 474.92 813.56
  Q 474.78 813.76 474.53 813.89
  A 0.34 0.33 23.9 0 0 474.77 814.51
  L 476.22 814.15
  Q 476.28 814.13 476.32 814.18
  Q 476.42 814.27 476.48 814.38
  Q 476.65 814.65 476.94 814.76
  Q 477.28 814.90 477.66 814.88
  A 0.93 0.93 0.0 0 1 478.40 816.45
  Q 477.00 817.91 474.25 817.92
  Q 431.25 818.00 388.25 817.57
  Q 385.93 817.55 383.59 817.51
  Q 383.15 817.50 383.11 817.94
  Q 383.10 818.11 383.12 818.30
  Q 383.28 817.85 382.97 817.60
  Q 382.63 817.32 382.63 817.77
  L 382.63 818.25
  Q 382.63 818.35 382.55 818.29
  Q 382.45 818.20 382.28 818.24
  Q 382.13 818.27 382.13 818.43
  L 382.13 819.38
  Q 382.13 819.38 382.10 819.38
  Q 382.09 819.38 382.08 819.39
  Q 382.04 819.40 382.05 819.35
  Q 382.53 816.67 381.48 816.93"
/>
<path stroke="#f26519" vector-effect="non-scaling-stroke" d="
  M 690.35 584.92
  L 689.28 586.19
  Q 688.94 586.59 688.94 587.11
  L 689.20 674.53
  Q 689.20 674.70 689.32 674.82
  L 689.56 675.06
  Q 689.88 675.38 689.88 675.83
  Q 689.87 693.41 689.89 711.01
  Q 689.89 711.93 690.36 713.40
  Q 690.75 714.60 690.68 715.88
  Q 690.66 716.34 690.27 716.58
  Q 689.28 717.18 689.80 718.12"
/>
<path stroke="#f7b480" vector-effect="non-scaling-stroke" d="
  M 689.80 718.12
  Q 680.79 728.53 677.44 742.26"
/>
<path stroke="#f26519" vector-effect="non-scaling-stroke" d="
  M 677.44 742.26
  Q 675.78 746.96 675.99 751.96"
/>
<path stroke="#f7b480" vector-effect="non-scaling-stroke" d="
  M 675.99 751.96
  L 676.23 762.55"
/>
<path stroke="#f26519" vector-effect="non-scaling-stroke" d="
  M 676.23 762.55
  Q 675.73 767.90 677.97 772.66"
/>
<path stroke="#f7b480" vector-effect="non-scaling-stroke" d="
  M 677.97 772.66
  Q 684.86 796.36 706.22 807.54"
/>
<path stroke="#f26519" vector-effect="non-scaling-stroke" d="
  M 706.22 807.54
  Q 708.48 809.22 711.45 809.44"
/>
<path stroke="#f7b480" vector-effect="non-scaling-stroke" d="
  M 711.45 809.44
  L 716.99 811.06"
/>
<path stroke="#f26519" vector-effect="non-scaling-stroke" d="
  M 716.99 811.06
  Q 724.81 813.57 732.26 811.98"
/>
<path stroke="#f7b480" vector-effect="non-scaling-stroke" d="
  M 732.26 811.98
  L 734.08 811.63"
/>
<path stroke="#f0412d" vector-effect="non-scaling-stroke" d="
  M 734.08 811.63
  L 734.11 953.52"
/>
<path stroke="#f25e26" vector-effect="non-scaling-stroke" d="
  M 734.11 953.52
  L 733.37 965.35
  A 1.52 1.51 -81.7 0 1 731.53 966.73
  L 722.27 964.66
  Q 721.66 964.52 721.43 963.93
  Q 721.08 963.06 719.37 963.43"
/>
<path stroke="#7d3d40" vector-effect="non-scaling-stroke" d="
  M 719.37 963.43
  L 595.13 886.66"
/>
<path stroke="#7b3b4d" vector-effect="non-scaling-stroke" d="
  M 595.13 886.66
  L 571.66 871.99"
/>
<path stroke="#f17000" vector-effect="non-scaling-stroke" d="
  M 571.66 871.99
  Q 562.89 864.58 552.62 858.95
  Q 552.30 858.78 552.35 858.40
  Q 552.40 857.99 552.00 857.90
  Q 551.16 857.70 550.93 856.83
  Q 550.79 856.33 551.22 856.02
  Q 553.15 854.64 553.85 853.24
  Q 554.96 850.98 556.58 849.86
  A 0.70 0.67 -17.2 0 0 556.88 849.32
  Q 556.88 849.11 556.88 848.90
  Q 556.88 848.49 557.17 848.20
  L 560.57 844.81
  Q 560.86 844.52 560.86 844.10
  Q 560.85 843.88 560.89 843.68
  Q 560.96 843.32 561.31 842.99
  Q 563.77 840.77 565.97 838.33
  Q 566.32 837.94 567.46 836.02
  Q 568.22 834.75 569.64 833.89
  Q 569.88 833.75 569.88 833.46
  L 569.88 832.93
  Q 569.88 832.50 570.18 832.20
  L 573.70 828.69
  Q 573.88 828.51 573.88 828.25
  L 573.88 827.94
  Q 573.88 827.51 574.18 827.21
  L 577.57 823.80
  Q 577.86 823.51 577.86 823.10
  Q 577.85 822.88 577.89 822.68
  Q 577.96 822.32 578.31 821.99
  Q 580.79 819.76 582.99 817.30
  Q 583.40 816.85 584.46 815.06
  Q 585.08 814.03 586.08 813.29
  Q 586.45 813.01 586.60 812.57
  Q 587.39 810.28 589.60 808.97
  Q 589.88 808.81 589.88 808.49
  L 589.88 807.93
  Q 589.88 807.50 590.18 807.20
  L 593.70 803.69
  Q 593.87 803.51 593.88 803.27
  Q 593.88 803.08 593.90 802.89
  Q 593.95 802.41 594.30 802.07
  L 598.92 797.49
  Q 599.62 796.80 599.62 797.78
  L 599.62 798.97
  Q 599.62 799.17 599.54 798.98
  Q 599.19 798.12 599.82 797.24
  Q 600.24 796.65 600.26 797.37
  L 600.45 809.63"
/>
<path stroke="#f7b480" vector-effect="non-scaling-stroke" d="
  M 600.45 809.63
  L 668.66 809.68
  Q 669.09 809.68 669.09 809.25
  L 669.08 786.29
  Q 669.07 785.75 668.54 785.75
  L 626.25 785.75
  Q 625.71 785.75 625.71 785.21
  L 625.71 686.53"
/>
<path stroke="#f68700" vector-effect="non-scaling-stroke" d="
  M 611.27 535.80
  L 611.44 536.51
  Q 611.52 536.85 611.17 536.88
  L 610.57 536.94
  Q 610.12 536.99 610.12 537.44
  L 610.12 595.95
  Q 610.12 596.38 610.43 596.69
  Q 610.69 596.93 610.87 597.21
  Q 611.18 597.69 611.17 598.37
  Q 611.06 631.36 611.14 664.53"
/>
<path stroke="#fccb80" vector-effect="non-scaling-stroke" d="
  M 611.14 664.53
  L 601.03 664.54
  Q 600.50 664.54 600.49 665.07
  L 600.41 670.80"
/>
<path stroke="#f68700" vector-effect="non-scaling-stroke" d="
  M 600.41 670.80
  L 459.65 593.74"
/>
<path stroke="#0a108d" vector-effect="non-scaling-stroke" d="
  M 1083.20 878.20
  Q 1082.68 879.15 1082.56 880.30
  Q 1082.52 880.64 1082.88 882.41
  Q 1083.14 883.68 1082.50 884.93
  Q 1082.28 885.37 1082.33 885.85
  Q 1082.39 886.49 1081.97 887.04
  Q 1081.79 887.29 1081.70 887.00
  L 1080.98 884.58
  A 0.65 0.65 0.0 0 0 1080.36 884.12
  L 885.75 884.12
  Q 885.34 884.12 884.98 884.31
  Q 883.95 884.83 882.82 884.46
  Q 882.49 884.35 882.21 884.57
  Q 879.80 886.45 876.24 886.69"
/>
<path stroke="#fabb80" vector-effect="non-scaling-stroke" d="
  M 600.41 670.80
  L 600.45 809.63"
/>
<path stroke="#7e434d" vector-effect="non-scaling-stroke" d="
  M 571.66 871.99
  L 468.96 808.76"
/>
<path stroke="#fba9a6" vector-effect="non-scaling-stroke" d="
  M 734.74 701.36
  Q 726.63 700.61 718.73 701.59"
/>
<path stroke="#f65b3f" vector-effect="non-scaling-stroke" d="
  M 713.97 595.16
  L 712.12 594.97
  A 0.12 0.12 0.0 0 0 712.05 595.20
  L 712.36 595.38
  Q 712.72 595.60 713.14 595.57
  Q 715.28 595.46 716.27 596.79
  Q 716.92 597.66 716.91 599.82
  Q 716.82 629.08 716.89 637.50
  Q 716.90 637.75 717.23 638.01
  Q 717.63 638.30 717.62 638.79
  Q 717.57 666.22 717.95 693.65
  C 717.97 695.33 717.49 697.22 717.37 699.01
  A 0.86 0.84 18.0 0 0 717.77 699.78
  Q 719.07 700.57 718.73 701.59"
/>
<path stroke="#fab199" vector-effect="non-scaling-stroke" d="
  M 718.73 701.59
  Q 701.52 704.89 689.80 718.12"
/>
<path stroke="#f6118d" vector-effect="non-scaling-stroke" d="
  M 859.91 675.21
  L 825.14 694.26
  Q 824.44 694.64 824.31 693.85
  Q 824.17 693.01 823.43 692.64
  A 0.96 0.96 0.0 0 1 822.88 691.77
  L 822.88 644.74
  Q 822.88 644.25 822.42 644.09
  Q 821.92 643.90 821.88 642.99
  Q 821.88 642.99 821.88 642.98
  L 821.85 559.08"
/>
<path stroke="#f6118d" vector-effect="non-scaling-stroke" d="
  M 884.74 661.58
  Q 884.33 663.79 885.19 665.34
  Q 886.12 667.02 886.17 667.13
  Q 886.98 669.00 888.70 672.04
  Q 889.21 672.95 890.36 675.66
  C 891.72 678.88 891.12 683.46 891.12 686.93
  Q 891.12 687.49 891.51 687.88
  L 892.82 689.21
  Q 893.12 689.52 893.12 689.94
  L 893.12 694.99
  Q 893.12 695.52 893.52 695.86
  Q 894.46 696.65 894.10 697.94
  Q 893.96 698.45 894.33 698.82
  Q 895.04 699.53 895.05 700.25
  Q 895.15 704.80 895.15 709.36
  Q 895.15 709.72 895.43 709.93
  Q 895.58 710.05 895.71 710.21
  Q 895.91 710.45 895.92 710.84
  Q 896.10 715.95 896.20 721.03
  Q 896.20 721.54 896.51 721.94
  Q 898.43 724.51 898.27 726.74
  Q 897.89 732.00 898.66 735.70
  Q 899.09 737.80 899.07 739.32
  Q 899.05 741.08 899.14 742.85
  Q 899.17 743.32 899.39 743.73
  Q 900.40 745.56 900.12 747.75
  Q 899.54 752.41 901.25 756.63
  Q 901.32 756.78 901.47 756.86
  Q 901.59 756.92 901.70 756.98
  Q 902.08 757.19 902.08 757.61
  Q 902.15 761.61 902.12 765.63
  Q 902.11 767.68 902.93 769.46
  Q 903.78 771.29 904.67 773.10
  Q 906.29 776.38 906.12 780.02
  A 0.89 0.88 19.0 0 0 906.50 780.78
  Q 907.20 781.25 907.17 781.99
  Q 907.05 784.88 907.28 786.86
  Q 907.34 787.35 907.63 787.75
  Q 908.28 788.65 908.15 789.72
  Q 908.09 790.26 908.43 790.68
  L 909.45 791.91
  Q 909.88 792.44 909.88 791.76
  L 909.88 789.20
  Q 909.88 788.20 910.51 788.98
  Q 911.11 789.73 911.11 791.01
  Q 911.13 798.73 911.12 806.46
  A 0.42 0.42 0.0 0 0 911.45 806.87
  Q 911.93 806.97 912.10 807.57
  A 0.76 0.54 -61.6 0 1 912.12 807.74
  L 912.12 812.98
  Q 912.12 813.45 912.41 813.83
  Q 915.57 817.95 915.10 823.17
  Q 915.06 823.59 915.41 823.81
  L 915.70 824.00
  Q 916.12 824.27 916.12 824.78
  L 916.12 830.90
  Q 916.12 831.49 916.53 831.91
  L 917.82 833.21
  Q 918.12 833.52 918.12 833.94
  L 918.12 841.57
  Q 918.12 841.70 918.24 841.76
  L 918.78 842.05
  A 0.30 0.26 9.3 0 1 918.92 842.22
  L 923.52 857.22"
/>
<path stroke="#7f118e" vector-effect="non-scaling-stroke" d="
  M 923.52 857.22
  L 876.24 886.69"
/>
<path stroke="#811381" vector-effect="non-scaling-stroke" d="
  M 876.24 886.69
  L 856.56 898.83"
/>
<path stroke="#f4166e" vector-effect="non-scaling-stroke" d="
  M 856.56 898.83
  L 856.88 898.14
  Q 857.06 897.74 857.49 897.64
  Q 858.63 897.36 858.85 896.19
  Q 858.90 895.89 859.21 895.87
  Q 859.44 895.86 859.70 895.90
  Q 860.38 896.00 860.07 895.38
  L 858.37 891.97
  Q 858.19 891.61 858.15 891.20
  Q 857.93 888.43 858.10 887.24
  Q 858.32 885.74 857.83 884.99
  Q 857.67 884.74 857.92 884.59
  Q 858.10 884.47 858.11 884.25
  Q 858.18 881.23 858.09 869.55
  A 0.62 0.61 -78.3 0 0 857.74 869.01
  L 857.26 868.79
  Q 856.84 868.59 856.91 868.13
  Q 857.84 862.26 856.10 856.72
  Q 855.95 856.25 855.53 855.97
  Q 854.91 855.56 855.04 854.75
  Q 855.53 851.67 854.15 849.38
  Q 852.94 847.38 853.54 843.37
  Q 853.55 843.31 853.51 843.27
  L 853.24 843.00
  Q 853.09 842.85 853.06 842.65
  Q 852.56 839.01 850.49 835.87
  Q 850.23 835.47 850.19 834.99
  L 849.97 831.43
  Q 849.93 830.93 849.57 830.58
  Q 848.56 829.64 848.89 828.17
  Q 848.99 827.72 848.74 827.34
  C 847.99 826.17 847.16 825.01 847.19 823.54
  Q 847.28 817.84 847.40 812.05
  Q 847.40 811.66 847.80 811.63
  L 852.71 811.32
  Q 853.04 811.29 852.83 811.03
  C 852.65 810.81 852.23 810.65 851.93 810.66
  Q 848.32 810.83 849.59 809.98"
/>
<path stroke="#fa89c1" vector-effect="non-scaling-stroke" d="
  M 849.59 809.98
  L 890.44 809.95
  Q 890.99 809.95 890.99 809.40
  L 891.07 789.04
  Q 891.07 788.51 890.54 788.51
  L 834.96 788.53
  A 0.44 0.44 0.0 0 1 834.62 787.80
  L 889.41 722.36
  Q 889.74 721.97 889.74 721.46
  L 889.74 703.64
  Q 889.74 703.05 889.14 703.05
  L 804.96 703.05
  Q 804.17 703.05 804.17 703.85
  L 804.08 724.51"
/>
<path stroke="#f4166e" vector-effect="non-scaling-stroke" d="
  M 804.08 724.51
  L 803.70 707.75
  A 1.00 1.00 0.0 0 0 802.23 706.89
  L 785.07 716.13"
/>
<path stroke="#fa89c1" vector-effect="non-scaling-stroke" d="
  M 785.07 716.13
  L 785.12 703.57
  A 0.53 0.53 0.0 0 0 784.59 703.03
  L 771.32 703.02"
/>
<path stroke="#f4166e" vector-effect="non-scaling-stroke" d="
  M 771.32 703.02
  Q 771.37 702.50 770.55 702.17
  Q 770.12 702.00 770.12 701.53
  Q 770.09 684.64 770.12 667.75
  Q 770.12 667.19 769.49 666.87
  Q 769.11 666.67 769.11 666.24
  L 769.11 592.73
  Q 769.11 592.39 768.77 592.39
  Q 768.62 592.39 768.47 592.39
  Q 768.35 592.39 768.43 592.30
  Q 768.52 592.21 768.62 592.13
  Q 768.92 591.86 768.56 591.66
  Q 768.05 591.38 767.49 591.44"
/>
<path stroke="#810aac" vector-effect="non-scaling-stroke" d="
  M 990.57 815.61
  L 987.08 817.68"
/>
<path stroke="#f90aab" vector-effect="non-scaling-stroke" d="
  M 987.08 817.68
  L 985.91 816.96
  Q 985.22 816.53 985.43 817.31
  Q 985.62 818.05 984.80 817.95
  A 0.64 0.63 41.8 0 1 984.73 816.70
  Q 985.50 816.53 985.40 815.68
  Q 985.35 815.24 985.03 814.93
  C 984.44 814.35 984.22 814.15 984.17 813.25
  Q 983.87 806.99 983.87 800.71
  Q 983.87 800.26 983.45 800.07
  Q 982.71 799.75 982.78 799.00
  Q 983.29 793.12 981.88 788.51
  Q 981.80 788.24 981.33 788.01
  A 0.83 0.82 -76.3 0 1 980.89 787.28
  L 980.89 783.02
  Q 980.89 782.55 980.53 782.24
  Q 979.63 781.47 979.84 780.31
  Q 979.92 779.85 979.62 779.49
  Q 978.51 778.19 978.82 776.00
  Q 979.57 770.75 977.79 765.33
  Q 977.73 765.14 977.53 765.12
  Q 977.39 765.10 977.26 764.99
  Q 976.94 764.70 976.94 764.26
  C 977.02 759.75 974.83 756.29 972.96 752.33
  Q 972.73 751.86 972.86 751.35
  Q 973.29 749.66 972.23 748.63
  Q 971.88 748.29 971.88 747.80
  Q 971.90 741.90 971.85 736.00
  Q 971.82 733.19 970.10 731.66
  Q 969.73 731.32 969.81 730.83
  Q 970.26 727.94 969.38 725.27
  Q 968.93 723.93 968.93 722.67
  Q 968.92 721.31 968.75 719.96
  Q 968.69 719.50 968.39 719.15
  Q 967.55 718.16 967.92 716.78
  A 0.53 0.52 -70.6 0 0 967.63 716.16
  Q 966.53 715.66 966.91 714.41
  A 0.13 0.12 22.0 0 0 966.84 714.26
  L 966.33 714.02
  A 0.70 0.67 -79.8 0 1 965.93 713.42
  Q 965.85 711.01 965.88 708.60
  Q 965.89 708.34 965.77 708.17
  Q 965.61 707.93 965.37 707.74
  Q 965.00 707.42 964.98 706.93
  L 964.83 702.33
  Q 964.81 701.79 964.47 701.36
  Q 963.64 700.32 963.88 699.07
  Q 963.99 698.55 963.60 698.18
  L 962.15 696.80
  Q 961.84 696.51 961.91 696.09
  Q 962.04 695.27 961.37 694.98
  Q 960.89 694.77 960.89 694.26
  L 960.88 680.27
  A 1.48 1.45 24.6 0 0 960.53 679.35
  Q 959.42 678.07 959.89 676.23
  Q 960.12 675.31 959.21 674.92
  A 0.68 0.68 0.0 0 1 958.81 674.19
  Q 959.51 669.89 956.97 666.48
  A 1.22 1.20 32.8 0 1 956.75 665.51
  Q 957.47 662.12 955.92 659.23
  A 1.65 1.60 -56.3 0 1 955.74 658.24
  Q 956.49 652.35 954.96 646.71
  Q 954.85 646.30 954.46 646.09
  Q 953.65 645.67 953.90 644.76
  A 0.52 0.52 0.0 0 0 953.51 644.11
  Q 953.35 644.07 953.22 643.97
  Q 952.89 643.69 952.89 643.25
  L 952.89 638.79
  Q 952.89 638.41 952.59 638.17
  Q 951.75 637.48 951.88 635.75
  Q 952.09 633.19 951.80 625.35
  Q 951.78 624.81 951.30 625.07
  L 884.74 661.58"
/>
<path stroke="#f80ca1" vector-effect="non-scaling-stroke" d="
  M 884.74 661.58
  L 859.91 675.21"
/>
<path stroke="#f90aab" vector-effect="non-scaling-stroke" d="
  M 859.91 675.21
  L 860.04 657.47
  Q 860.04 657.18 859.79 657.03
  Q 859.68 656.97 859.56 656.92
  Q 859.12 656.74 859.12 656.26
  L 859.12 553.73
  Q 859.12 553.20 858.63 552.98
  Q 858.13 552.76 858.12 552.25
  Q 858.04 548.07 858.16 538.69
  Q 858.17 538.13 857.62 538.00
  Q 856.81 537.80 856.50 537.47"
/>
<path stroke="#0a108d" vector-effect="non-scaling-stroke" d="
  M 595.13 886.66
  Q 595.45 887.70 596.46 888.18
  A 1.02 1.01 -32.2 0 1 596.02 890.11
  L 384.64 890.13
  A 1.01 1.00 18.9 0 0 383.85 890.51
  L 382.73 891.94
  Q 382.29 892.51 382.10 891.81
  Q 381.77 890.59 381.92 889.30
  Q 381.97 888.86 381.91 888.42
  L 381.47 885.04"
/>
<path stroke="#f98cac" vector-effect="non-scaling-stroke" d="
  M 771.32 703.02
  L 761.97 703.05
  Q 761.50 703.05 761.50 703.52
  L 761.50 716.48
  Q 761.50 717.12 761.09 716.63
  Q 750.63 704.30 734.74 701.36"
/>
<path stroke="#f43653" vector-effect="non-scaling-stroke" d="
  M 734.74 701.36
  L 736.31 701.33
  Q 737.00 701.32 736.52 700.83
  Q 735.12 699.39 735.12 697.88
  Q 735.13 666.71 735.11 635.55
  Q 735.11 635.37 734.99 635.24
  L 734.66 634.91
  Q 734.37 634.63 734.37 634.22
  L 734.37 599.52
  A 0.56 0.56 0.0 0 0 733.84 598.96
  Q 731.72 598.86 729.77 597.64"
/>
<path stroke="#f17000" vector-effect="non-scaling-stroke" d="
  M 678.36 577.99
  L 678.24 578.47
  Q 678.12 578.96 677.90 578.51
  Q 677.60 577.93 676.83 578.51
  Q 676.10 579.06 676.10 579.98
  L 676.10 624.25
  Q 676.10 624.63 676.37 624.89
  L 676.59 625.11
  A 0.72 0.70 23.2 0 1 676.80 625.61
  L 676.99 711.07
  Q 676.99 712.96 675.33 712.06
  L 628.04 686.28
  A 0.78 0.77 -52.9 0 0 627.13 686.41
  Q 626.60 686.92 625.71 686.53"
/>
<path stroke="#fabb80" vector-effect="non-scaling-stroke" d="
  M 625.71 686.53
  L 625.68 665.09
  Q 625.68 664.55 625.14 664.55
  L 611.14 664.53"
/>
<path stroke="#f98cac" vector-effect="non-scaling-stroke" d="
  M 785.07 716.13
  L 785.07 809.39
  A 0.56 0.55 -89.5 0 1 784.51 809.95
  L 762.24 809.93
  A 0.70 0.69 0.0 0 1 761.54 809.24
  L 761.53 796.75
  Q 761.53 795.93 760.99 796.54
  Q 755.44 802.86 748.18 806.99"
/>
<path stroke="#fab199" vector-effect="non-scaling-stroke" d="
  M 748.18 806.99
  L 743.53 809.06"
/>
<path stroke="#f98cac" vector-effect="non-scaling-stroke" d="
  M 743.53 809.06
  L 734.08 811.63"
/>
<path stroke="#fab199" vector-effect="non-scaling-stroke" d="
  M 732.26 811.98
  L 716.99 811.06"
/>
<path stroke="#fab199" vector-effect="non-scaling-stroke" d="
  M 711.45 809.44
  L 706.22 807.54"
/>
<path stroke="#fab199" vector-effect="non-scaling-stroke" d="
  M 677.97 772.66
  L 676.23 762.55"
/>
<path stroke="#fab199" vector-effect="non-scaling-stroke" d="
  M 675.99 751.96
  L 677.44 742.26"
/>
<path stroke="#813366" vector-effect="non-scaling-stroke" d="
  M 719.37 963.43
  Q 726.64 968.55 734.31 969.37"
/>
<path stroke="#f4166e" vector-effect="non-scaling-stroke" d="
  M 826.01 724.54
  Q 830.91 725.58 835.94 724.99
  Q 836.43 724.94 836.52 725.42
  Q 837.40 730.17 837.12 735.01
  Q 837.08 735.70 837.68 736.05
  Q 838.09 736.29 838.11 736.77
  L 838.62 749.19"
/>
<path stroke="#7f166d" vector-effect="non-scaling-stroke" d="
  M 856.56 898.83
  Q 794.65 937.84 746.80 966.33
  Q 741.64 969.39 734.31 969.37"
/>
<path stroke="#f43653" vector-effect="non-scaling-stroke" d="
  M 734.31 969.37
  Q 734.41 968.82 733.70 968.64
  Q 733.62 968.62 733.68 968.57
  Q 733.78 968.47 733.86 968.37
  Q 734.25 967.87 734.25 967.58
  L 734.11 953.52"
/>
<path stroke="#f43e46" vector-effect="non-scaling-stroke" d="
  M 743.53 809.06
  Q 746.07 808.98 748.18 806.99"
/>
<path stroke="#800f98" vector-effect="non-scaling-stroke" d="
  M 987.08 817.68
  L 923.52 857.22"
/>
<path stroke="#f98cac" vector-effect="non-scaling-stroke" d="
  M 849.59 809.98
  L 803.69 809.96
  A 0.34 0.34 0.0 0 1 803.35 809.61
  L 803.40 791.75
  Q 803.40 791.22 803.73 790.82
  L 838.62 749.19"
/>
<path stroke="#fa89c1" vector-effect="non-scaling-stroke" d="
  M 838.62 749.19
  L 858.90 725.00
  A 0.30 0.30 0.0 0 0 858.67 724.51
  L 826.01 724.54"
/>
<path stroke="#f98cac" vector-effect="non-scaling-stroke" d="
  M 826.01 724.54
  L 804.08 724.51"
/>
<path stroke="#fab199" vector-effect="non-scaling-stroke" d="
  M 708.79 732.00
  Q 705.34 735.17 704.05 739.25"
/>
<path stroke="#f7b480" vector-effect="non-scaling-stroke" d="
  M 704.05 739.25
  L 702.11 743.45"
/>
<path stroke="#fab199" vector-effect="non-scaling-stroke" d="
  M 702.11 743.45
  Q 700.30 746.78 700.54 750.67"
/>
<path stroke="#f7b480" vector-effect="non-scaling-stroke" d="
  M 700.54 750.67
  L 700.31 760.09"
/>
<path stroke="#fab199" vector-effect="non-scaling-stroke" d="
  M 700.31 760.09
  Q 699.96 765.05 702.13 769.49"
/>
<path stroke="#f7b480" vector-effect="non-scaling-stroke" d="
  M 702.13 769.49
  L 704.15 773.97"
/>
<path stroke="#fab199" vector-effect="non-scaling-stroke" d="
  M 704.15 773.97
  Q 704.75 775.99 706.05 777.24"
/>
<path stroke="#f7b480" vector-effect="non-scaling-stroke" d="
  M 706.05 777.24
  Q 709.85 782.93 715.79 786.45"
/>
<path stroke="#fab199" vector-effect="non-scaling-stroke" d="
  M 715.79 786.45
  Q 717.69 788.34 720.24 788.48"
/>
<path stroke="#f7b480" vector-effect="non-scaling-stroke" d="
  M 720.24 788.48
  Q 726.47 791.12 734.09 790.52"
/>
<path stroke="#f98cac" vector-effect="non-scaling-stroke" d="
  M 734.09 790.52
  L 741.77 789.09"
/>
<path stroke="#fab199" vector-effect="non-scaling-stroke" d="
  M 741.77 789.09
  Q 744.84 788.79 746.68 786.96"
/>
<path stroke="#f98cac" vector-effect="non-scaling-stroke" d="
  M 746.68 786.96
  Q 753.62 782.84 757.77 776.54"
/>
<path stroke="#fab199" vector-effect="non-scaling-stroke" d="
  M 757.77 776.54
  Q 759.54 774.45 760.28 771.81"
/>
<path stroke="#f98cac" vector-effect="non-scaling-stroke" d="
  M 760.28 771.81
  Q 767.92 751.64 756.36 734.19"
/>
<path stroke="#fba9a6" vector-effect="non-scaling-stroke" d="
  M 756.36 734.19
  Q 756.01 734.30 756.12 733.98
  Q 756.18 733.78 756.04 733.62
  Q 739.58 716.09 716.75 725.76
  Q 713.85 726.98 708.79 732.00"
/>
<path stroke="#f43653" vector-effect="non-scaling-stroke" d="
  M 756.36 734.19
  L 754.94 733.43
  Q 754.46 733.18 753.99 733.44
  L 734.86 744.02
  A 0.86 0.84 -14.4 0 0 734.42 744.74
  L 734.21 752.68"
/>
<path stroke="#f25e26" vector-effect="non-scaling-stroke" d="
  M 734.21 752.68
  Q 732.37 748.64 733.17 744.85
  A 1.21 1.20 20.3 0 0 732.57 743.55
  L 710.83 731.55
  Q 710.42 731.32 709.99 731.50
  L 708.79 732.00"
/>
<path stroke="#f0412d" vector-effect="non-scaling-stroke" d="
  M 734.21 752.68
  L 734.09 790.52"
/>
<path stroke="#f26519" vector-effect="non-scaling-stroke" d="
  M 720.24 788.48
  Q 718.19 786.80 715.79 786.45"
/>
<path stroke="#f26519" vector-effect="non-scaling-stroke" d="
  M 706.05 777.24
  Q 705.88 775.40 704.15 773.97"
/>
<path stroke="#f26519" vector-effect="non-scaling-stroke" d="
  M 702.13 769.49
  L 700.31 760.09"
/>
<path stroke="#f26519" vector-effect="non-scaling-stroke" d="
  M 700.54 750.67
  Q 702.06 747.01 702.11 743.45"
/>
<path stroke="#f26519" vector-effect="non-scaling-stroke" d="
  M 704.05 739.25
  L 708.79 732.00"
/>
<path stroke="#f43e46" vector-effect="non-scaling-stroke" d="
  M 760.28 771.81
  Q 758.30 773.99 757.77 776.54"
/>
<path stroke="#f43e46" vector-effect="non-scaling-stroke" d="
  M 746.68 786.96
  Q 744.20 787.32 741.77 789.09"
/>
<path stroke="#8689c0" vector-effect="non-scaling-stroke" d="
  M 887.67 1098.01
  L 887.64 1108.66
  A 0.52 0.51 -0.0 0 0 888.16 1109.17
  L 907.03 1109.19
  A 0.47 0.47 0.0 0 0 907.50 1108.72
  L 907.50 979.71
  Q 907.50 979.18 906.96 979.18
  L 888.07 979.19
  Q 887.59 979.19 887.59 979.68
  L 887.66 1030.01
  A 0.25 0.25 0.0 0 1 887.22 1030.18
  Q 874.34 1016.09 856.58 1017.15
  C 814.43 1019.65 801.96 1075.59 831.78 1101.03
  C 848.09 1114.94 872.78 1114.65 887.13 1097.81
  A 0.31 0.31 0.0 0 1 887.67 1098.01"
/>
<path stroke="#8689c0" vector-effect="non-scaling-stroke" d="
  M 479.43 1088.71
  A 0.43 0.43 0.0 0 1 479.00 1088.28
  L 479.01 986.86
  A 0.43 0.43 0.0 0 0 478.58 986.43
  L 458.17 986.41
  A 0.43 0.43 0.0 0 0 457.74 986.84
  L 457.77 1108.56
  A 0.43 0.43 0.0 0 0 458.20 1108.99
  L 515.22 1109.01
  A 0.43 0.43 0.0 0 0 515.65 1108.58
  L 515.67 1089.14
  A 0.43 0.43 0.0 0 0 515.24 1088.71
  L 479.43 1088.71"
/>
<path stroke="#8689c0" vector-effect="non-scaling-stroke" d="
  M 593.19 1030.18
  C 578.61 1013.25 553.54 1013.16 537.30 1027.46
  C 507.89 1053.36 521.10 1109.26 563.38 1110.95
  Q 580.71 1111.64 593.37 1097.84
  A 0.22 0.22 0.0 0 1 593.75 1097.99
  L 593.74 1108.71
  Q 593.74 1109.17 594.21 1109.17
  L 612.99 1109.19
  A 0.68 0.68 0.0 0 0 613.67 1108.51
  L 613.68 1019.51
  Q 613.68 1018.85 613.01 1018.86
  L 594.26 1018.96
  Q 593.72 1018.96 593.72 1019.49
  L 593.72 1029.99
  Q 593.72 1030.79 593.19 1030.18"
/>
<path stroke="#8689c0" vector-effect="non-scaling-stroke" d="
  M 781.90 1030.23
  C 769.03 1015.99 750.32 1013.36 733.71 1021.97
  C 708.43 1035.06 703.37 1070.69 718.82 1092.73
  C 733.79 1114.11 763.82 1117.80 781.90 1097.86
  Q 782.33 1097.39 782.33 1098.02
  L 782.34 1108.64
  Q 782.34 1109.19 782.89 1109.19
  L 801.66 1109.14
  Q 802.20 1109.13 802.20 1108.59
  L 802.20 1019.48
  Q 802.20 1019.01 801.73 1019.01
  L 782.99 1018.88
  Q 782.35 1018.88 782.35 1019.51
  L 782.32 1030.07
  Q 782.31 1030.69 781.90 1030.23"
/>
<path stroke="#070a9e" vector-effect="non-scaling-stroke" d="
  M 1012.53 1018.86
  L 1006.17 1018.87"
/>
<path stroke="#8689c0" vector-effect="non-scaling-stroke" d="
  M 1006.17 1018.87
  L 993.57 1018.91
  Q 992.98 1018.92 992.98 1019.50
  L 993.05 1030.02
  A 0.26 0.25 -66.7 0 1 992.61 1030.20
  Q 976.02 1012.14 951.63 1018.94
  C 948.88 1019.70 944.26 1021.75 941.51 1023.66
  C 920.68 1038.19 914.25 1066.54 926.93 1088.75
  C 940.58 1112.66 973.28 1119.84 992.43 1097.82
  A 0.26 0.26 0.0 0 1 992.89 1097.99
  L 992.80 1108.46
  A 0.66 0.66 0.0 0 0 993.46 1109.12
  L 1012.27 1109.12
  Q 1012.77 1109.12 1012.77 1108.63
  Q 1012.78 1063.86 1012.77 1019.10
  Q 1012.77 1019.05 1012.73 1019.02
  Q 1012.63 1018.94 1012.53 1018.86"
/>
<path stroke="#8080dd" vector-effect="non-scaling-stroke" d="
  M 1006.17 1018.87
  L 1012.53 1018.86"
/>
<path stroke="#8689c0" vector-effect="non-scaling-stroke" d="
  M 655.62 1091.13
  A 0.35 0.35 0.0 0 1 655.35 1090.55
  L 701.93 1034.91
  A 0.35 0.35 0.0 0 0 702.01 1034.68
  L 701.99 1019.25
  A 0.35 0.35 0.0 0 0 701.64 1018.90
  L 630.10 1018.88
  A 0.35 0.35 0.0 0 0 629.75 1019.23
  L 629.74 1036.64
  A 0.35 0.35 0.0 0 0 630.09 1036.99
  L 675.48 1036.99
  A 0.35 0.35 0.0 0 1 675.75 1037.56
  L 629.11 1093.27
  A 0.35 0.35 0.0 0 0 629.03 1093.50
  L 629.02 1108.82
  A 0.35 0.35 0.0 0 0 629.37 1109.17
  L 702.66 1109.18
  A 0.35 0.35 0.0 0 0 703.01 1108.83
  L 703.01 1091.43
  A 0.35 0.35 0.0 0 0 702.66 1091.08
  L 655.62 1091.13"
/>
<path stroke="#8689c0" vector-effect="non-scaling-stroke" d="
  M 862.4400 1093.0400
  A 29.04 26.84 90.0 0 0 889.2800 1064.0000
  A 29.04 26.84 90.0 0 0 862.4400 1034.9600
  A 29.04 26.84 90.0 0 0 835.6000 1064.0000
  A 29.04 26.84 90.0 0 0 862.4400 1093.0400"
/>
<path stroke="#8689c0" vector-effect="non-scaling-stroke" d="
  M 568.4900 1093.0500
  A 29.05 26.86 90.0 0 0 595.3500 1064.0000
  A 29.05 26.86 90.0 0 0 568.4900 1034.9500
  A 29.05 26.86 90.0 0 0 541.6300 1064.0000
  A 29.05 26.86 90.0 0 0 568.4900 1093.0500"
/>
<path stroke="#8080dd" vector-effect="non-scaling-stroke" d="
  M 746.41 1037.27
  Q 743.79 1037.92 741.80 1039.79"
/>
<path stroke="#8689c0" vector-effect="non-scaling-stroke" d="
  M 741.80 1039.79
  Q 730.05 1049.18 730.33 1064.76
  Q 730.54 1076.28 737.29 1083.96
  C 748.57 1096.79 769.16 1095.48 778.44 1081.78
  Q 782.03 1076.47 783.13 1070.15
  C 787.09 1047.32 769.11 1028.78 746.41 1037.27"
/>
<path stroke="#070a9e" vector-effect="non-scaling-stroke" d="
  M 741.80 1039.79
  L 746.41 1037.27"
/>
<path stroke="#8689c0" vector-effect="non-scaling-stroke" d="
  M 948.09 1043.97
  C 933.49 1060.87 942.56 1092.04 966.41 1092.79
  C 975.94 1093.09 985.51 1088.78 990.17 1080.37
  C 997.13 1067.82 995.86 1049.92 983.90 1040.70
  C 973.06 1032.34 957.13 1033.50 948.09 1043.97"
/>
</g>
<path fill="#0101bb" d="
  M 1083.19 816.43
  Q 1082.66 816.80 1082.46 817.88
  A 0.48 0.47 -57.3 0 1 1081.61 818.07
  L 1081.00 817.23
  Q 1080.74 816.87 1080.30 816.87
  L 992.49 816.89
  A 1.75 1.68 30.7 0 0 991.72 817.07
  L 989.35 818.24
  A 0.25 0.25 0.0 0 1 989.03 817.87
  L 990.57 815.61
  Q 995.61 812.28 1002.91 808.14
  Q 1008.92 804.74 1011.43 798.71
  Q 1012.79 795.44 1012.78 789.09
  Q 1012.77 695.55 1012.80 602.00
  Q 1012.80 590.39 1003.61 584.64
  Q 966.26 561.29 903.21 523.66
  C 896.20 519.48 890.07 517.10 883.08 521.04
  Q 877.29 524.31 856.50 537.47
  L 821.85 559.08
  Q 801.11 571.94 781.74 583.72
  Q 774.83 587.91 767.49 591.44
  Q 749.60 599.14 729.77 597.64
  Q 721.84 597.42 713.97 595.16
  Q 701.50 591.66 690.35 584.92
  L 678.36 577.99
  L 611.27 535.80
  Q 601.82 529.74 592.38 523.62
  C 584.16 518.31 578.43 517.02 569.90 522.11
  Q 496.98 565.68 465.87 585.37
  Q 462.17 587.71 459.65 593.74
  Q 457.83 597.98 457.83 600.25
  Q 457.87 690.53 457.85 780.80
  Q 457.85 793.42 458.58 796.14
  Q 460.72 804.21 468.96 808.76
  L 469.85 811.05
  Q 470.09 811.64 470.58 811.25
  Q 471.81 810.28 472.60 811.66
  Q 472.87 812.12 473.40 812.21
  Q 474.39 812.36 474.93 813.24
  Q 475.03 813.40 474.92 813.56
  Q 474.78 813.76 474.53 813.89
  A 0.34 0.33 23.9 0 0 474.77 814.51
  L 476.22 814.15
  Q 476.28 814.13 476.32 814.18
  Q 476.42 814.27 476.48 814.38
  Q 476.65 814.65 476.94 814.76
  Q 477.28 814.90 477.66 814.88
  A 0.93 0.93 0.0 0 1 478.40 816.45
  Q 477.00 817.91 474.25 817.92
  Q 431.25 818.00 388.25 817.57
  Q 385.93 817.55 383.59 817.51
  Q 383.15 817.50 383.11 817.94
  Q 383.10 818.11 383.12 818.30
  Q 383.28 817.85 382.97 817.60
  Q 382.63 817.32 382.63 817.77
  L 382.63 818.25
  Q 382.63 818.35 382.55 818.29
  Q 382.45 818.20 382.28 818.24
  Q 382.13 818.27 382.13 818.43
  L 382.13 819.38
  Q 382.13 819.38 382.10 819.38
  Q 382.09 819.38 382.08 819.39
  Q 382.04 819.40 382.05 819.35
  Q 382.53 816.67 381.48 816.93
  Q 381.45 672.87 381.54 528.75
  C 381.55 505.20 397.65 485.12 420.21 479.70
  Q 426.28 478.24 439.41 478.24
  Q 737.21 478.23 1035.00 478.24
  Q 1040.95 478.24 1047.95 480.58
  C 1065.20 486.33 1077.74 499.98 1081.83 517.57
  Q 1083.20 523.44 1083.20 534.54
  Q 1083.19 675.52 1083.19 816.43
  Z"
/>
<path fill="#f89600" d="
  M 611.27 535.80
  L 611.44 536.51
  Q 611.52 536.85 611.17 536.88
  L 610.57 536.94
  Q 610.12 536.99 610.12 537.44
  L 610.12 595.95
  Q 610.12 596.38 610.43 596.69
  Q 610.69 596.93 610.87 597.21
  Q 611.18 597.69 611.17 598.37
  Q 611.06 631.36 611.14 664.53
  L 601.03 664.54
  Q 600.50 664.54 600.49 665.07
  L 600.41 670.80
  L 459.65 593.74
  Q 462.17 587.71 465.87 585.37
  Q 496.98 565.68 569.90 522.11
  C 578.43 517.02 584.16 518.31 592.38 523.62
  Q 601.82 529.74 611.27 535.80
  Z"
/>
<path fill="#fa05bf" d="
  M 990.57 815.61
  L 987.08 817.68
  L 985.91 816.96
  Q 985.22 816.53 985.43 817.31
  Q 985.62 818.05 984.80 817.95
  A 0.64 0.63 41.8 0 1 984.73 816.70
  Q 985.50 816.53 985.40 815.68
  Q 985.35 815.24 985.03 814.93
  C 984.44 814.35 984.22 814.15 984.17 813.25
  Q 983.87 806.99 983.87 800.71
  Q 983.87 800.26 983.45 800.07
  Q 982.71 799.75 982.78 799.00
  Q 983.29 793.12 981.88 788.51
  Q 981.80 788.24 981.33 788.01
  A 0.83 0.82 -76.3 0 1 980.89 787.28
  L 980.89 783.02
  Q 980.89 782.55 980.53 782.24
  Q 979.63 781.47 979.84 780.31
  Q 979.92 779.85 979.62 779.49
  Q 978.51 778.19 978.82 776.00
  Q 979.57 770.75 977.79 765.33
  Q 977.73 765.14 977.53 765.12
  Q 977.39 765.10 977.26 764.99
  Q 976.94 764.70 976.94 764.26
  C 977.02 759.75 974.83 756.29 972.96 752.33
  Q 972.73 751.86 972.86 751.35
  Q 973.29 749.66 972.23 748.63
  Q 971.88 748.29 971.88 747.80
  Q 971.90 741.90 971.85 736.00
  Q 971.82 733.19 970.10 731.66
  Q 969.73 731.32 969.81 730.83
  Q 970.26 727.94 969.38 725.27
  Q 968.93 723.93 968.93 722.67
  Q 968.92 721.31 968.75 719.96
  Q 968.69 719.50 968.39 719.15
  Q 967.55 718.16 967.92 716.78
  A 0.53 0.52 -70.6 0 0 967.63 716.16
  Q 966.53 715.66 966.91 714.41
  A 0.13 0.12 22.0 0 0 966.84 714.26
  L 966.33 714.02
  A 0.70 0.67 -79.8 0 1 965.93 713.42
  Q 965.85 711.01 965.88 708.60
  Q 965.89 708.34 965.77 708.17
  Q 965.61 707.93 965.37 707.74
  Q 965.00 707.42 964.98 706.93
  L 964.83 702.33
  Q 964.81 701.79 964.47 701.36
  Q 963.64 700.32 963.88 699.07
  Q 963.99 698.55 963.60 698.18
  L 962.15 696.80
  Q 961.84 696.51 961.91 696.09
  Q 962.04 695.27 961.37 694.98
  Q 960.89 694.77 960.89 694.26
  L 960.88 680.27
  A 1.48 1.45 24.6 0 0 960.53 679.35
  Q 959.42 678.07 959.89 676.23
  Q 960.12 675.31 959.21 674.92
  A 0.68 0.68 0.0 0 1 958.81 674.19
  Q 959.51 669.89 956.97 666.48
  A 1.22 1.20 32.8 0 1 956.75 665.51
  Q 957.47 662.12 955.92 659.23
  A 1.65 1.60 -56.3 0 1 955.74 658.24
  Q 956.49 652.35 954.96 646.71
  Q 954.85 646.30 954.46 646.09
  Q 953.65 645.67 953.90 644.76
  A 0.52 0.52 0.0 0 0 953.51 644.11
  Q 953.35 644.07 953.22 643.97
  Q 952.89 643.69 952.89 643.25
  L 952.89 638.79
  Q 952.89 638.41 952.59 638.17
  Q 951.75 637.48 951.88 635.75
  Q 952.09 633.19 951.80 625.35
  Q 951.78 624.81 951.30 625.07
  L 884.74 661.58
  L 859.91 675.21
  L 860.04 657.47
  Q 860.04 657.18 859.79 657.03
  Q 859.68 656.97 859.56 656.92
  Q 859.12 656.74 859.12 656.26
  L 859.12 553.73
  Q 859.12 553.20 858.63 552.98
  Q 858.13 552.76 858.12 552.25
  Q 858.04 548.07 858.16 538.69
  Q 858.17 538.13 857.62 538.00
  Q 856.81 537.80 856.50 537.47
  Q 877.29 524.31 883.08 521.04
  C 890.07 517.10 896.20 519.48 903.21 523.66
  Q 966.26 561.29 1003.61 584.64
  Q 1012.80 590.39 1012.80 602.00
  Q 1012.77 695.55 1012.78 789.09
  Q 1012.79 795.44 1011.43 798.71
  Q 1008.92 804.74 1002.91 808.14
  Q 995.61 812.28 990.57 815.61
  Z"
/>
<path fill="#f47700" d="
  M 611.27 535.80
  L 678.36 577.99
  L 678.24 578.47
  Q 678.12 578.96 677.90 578.51
  Q 677.60 577.93 676.83 578.51
  Q 676.10 579.06 676.10 579.98
  L 676.10 624.25
  Q 676.10 624.63 676.37 624.89
  L 676.59 625.11
  A 0.72 0.70 23.2 0 1 676.80 625.61
  L 676.99 711.07
  Q 676.99 712.96 675.33 712.06
  L 628.04 686.28
  A 0.78 0.77 -52.9 0 0 627.13 686.41
  Q 626.60 686.92 625.71 686.53
  L 625.68 665.09
  Q 625.68 664.55 625.14 664.55
  L 611.14 664.53
  Q 611.06 631.36 611.17 598.37
  Q 611.18 597.69 610.87 597.21
  Q 610.69 596.93 610.43 596.69
  Q 610.12 596.38 610.12 595.95
  L 610.12 537.44
  Q 610.12 536.99 610.57 536.94
  L 611.17 536.88
  Q 611.52 536.85 611.44 536.51
  L 611.27 535.80
  Z"
/>
<path fill="#f70f97" d="
  M 856.50 537.47
  Q 856.81 537.80 857.62 538.00
  Q 858.17 538.13 858.16 538.69
  Q 858.04 548.07 858.12 552.25
  Q 858.13 552.76 858.63 552.98
  Q 859.12 553.20 859.12 553.73
  L 859.12 656.26
  Q 859.12 656.74 859.56 656.92
  Q 859.68 656.97 859.79 657.03
  Q 860.04 657.18 860.04 657.47
  L 859.91 675.21
  L 825.14 694.26
  Q 824.44 694.64 824.31 693.85
  Q 824.17 693.01 823.43 692.64
  A 0.96 0.96 0.0 0 1 822.88 691.77
  L 822.88 644.74
  Q 822.88 644.25 822.42 644.09
  Q 821.92 643.90 821.88 642.99
  Q 821.88 642.99 821.88 642.98
  L 821.85 559.08
  L 856.50 537.47
  Z"
/>
<path fill="#f51382" d="
  M 821.85 559.08
  L 821.88 642.98
  Q 821.88 642.99 821.88 642.99
  Q 821.92 643.90 822.42 644.09
  Q 822.88 644.25 822.88 644.74
  L 822.88 691.77
  A 0.96 0.96 0.0 0 0 823.43 692.64
  Q 824.17 693.01 824.31 693.85
  Q 824.44 694.64 825.14 694.26
  L 859.91 675.21
  L 884.74 661.58
  Q 884.33 663.79 885.19 665.34
  Q 886.12 667.02 886.17 667.13
  Q 886.98 669.00 888.70 672.04
  Q 889.21 672.95 890.36 675.66
  C 891.72 678.88 891.12 683.46 891.12 686.93
  Q 891.12 687.49 891.51 687.88
  L 892.82 689.21
  Q 893.12 689.52 893.12 689.94
  L 893.12 694.99
  Q 893.12 695.52 893.52 695.86
  Q 894.46 696.65 894.10 697.94
  Q 893.96 698.45 894.33 698.82
  Q 895.04 699.53 895.05 700.25
  Q 895.15 704.80 895.15 709.36
  Q 895.15 709.72 895.43 709.93
  Q 895.58 710.05 895.71 710.21
  Q 895.91 710.45 895.92 710.84
  Q 896.10 715.95 896.20 721.03
  Q 896.20 721.54 896.51 721.94
  Q 898.43 724.51 898.27 726.74
  Q 897.89 732.00 898.66 735.70
  Q 899.09 737.80 899.07 739.32
  Q 899.05 741.08 899.14 742.85
  Q 899.17 743.32 899.39 743.73
  Q 900.40 745.56 900.12 747.75
  Q 899.54 752.41 901.25 756.63
  Q 901.32 756.78 901.47 756.86
  Q 901.59 756.92 901.70 756.98
  Q 902.08 757.19 902.08 757.61
  Q 902.15 761.61 902.12 765.63
  Q 902.11 767.68 902.93 769.46
  Q 903.78 771.29 904.67 773.10
  Q 906.29 776.38 906.12 780.02
  A 0.89 0.88 19.0 0 0 906.50 780.78
  Q 907.20 781.25 907.17 781.99
  Q 907.05 784.88 907.28 786.86
  Q 907.34 787.35 907.63 787.75
  Q 908.28 788.65 908.15 789.72
  Q 908.09 790.26 908.43 790.68
  L 909.45 791.91
  Q 909.88 792.44 909.88 791.76
  L 909.88 789.20
  Q 909.88 788.20 910.51 788.98
  Q 911.11 789.73 911.11 791.01
  Q 911.13 798.73 911.12 806.46
  A 0.42 0.42 0.0 0 0 911.45 806.87
  Q 911.93 806.97 912.10 807.57
  A 0.76 0.54 -61.6 0 1 912.12 807.74
  L 912.12 812.98
  Q 912.12 813.45 912.41 813.83
  Q 915.57 817.95 915.10 823.17
  Q 915.06 823.59 915.41 823.81
  L 915.70 824.00
  Q 916.12 824.27 916.12 824.78
  L 916.12 830.90
  Q 916.12 831.49 916.53 831.91
  L 917.82 833.21
  Q 918.12 833.52 918.12 833.94
  L 918.12 841.57
  Q 918.12 841.70 918.24 841.76
  L 918.78 842.05
  A 0.30 0.26 9.3 0 1 918.92 842.22
  L 923.52 857.22
  L 876.24 886.69
  L 856.56 898.83
  L 856.88 898.14
  Q 857.06 897.74 857.49 897.64
  Q 858.63 897.36 858.85 896.19
  Q 858.90 895.89 859.21 895.87
  Q 859.44 895.86 859.70 895.90
  Q 860.38 896.00 860.07 895.38
  L 858.37 891.97
  Q 858.19 891.61 858.15 891.20
  Q 857.93 888.43 858.10 887.24
  Q 858.32 885.74 857.83 884.99
  Q 857.67 884.74 857.92 884.59
  Q 858.10 884.47 858.11 884.25
  Q 858.18 881.23 858.09 869.55
  A 0.62 0.61 -78.3 0 0 857.74 869.01
  L 857.26 868.79
  Q 856.84 868.59 856.91 868.13
  Q 857.84 862.26 856.10 856.72
  Q 855.95 856.25 855.53 855.97
  Q 854.91 855.56 855.04 854.75
  Q 855.53 851.67 854.15 849.38
  Q 852.94 847.38 853.54 843.37
  Q 853.55 843.31 853.51 843.27
  L 853.24 843.00
  Q 853.09 842.85 853.06 842.65
  Q 852.56 839.01 850.49 835.87
  Q 850.23 835.47 850.19 834.99
  L 849.97 831.43
  Q 849.93 830.93 849.57 830.58
  Q 848.56 829.64 848.89 828.17
  Q 848.99 827.72 848.74 827.34
  C 847.99 826.17 847.16 825.01 847.19 823.54
  Q 847.28 817.84 847.40 812.05
  Q 847.40 811.66 847.80 811.63
  L 852.71 811.32
  Q 853.04 811.29 852.83 811.03
  C 852.65 810.81 852.23 810.65 851.93 810.66
  Q 848.32 810.83 849.59 809.98
  L 890.44 809.95
  Q 890.99 809.95 890.99 809.40
  L 891.07 789.04
  Q 891.07 788.51 890.54 788.51
  L 834.96 788.53
  A 0.44 0.44 0.0 0 1 834.62 787.80
  L 889.41 722.36
  Q 889.74 721.97 889.74 721.46
  L 889.74 703.64
  Q 889.74 703.05 889.14 703.05
  L 804.96 703.05
  Q 804.17 703.05 804.17 703.85
  L 804.08 724.51
  L 803.70 707.75
  A 1.00 1.00 0.0 0 0 802.23 706.89
  L 785.07 716.13
  L 785.12 703.57
  A 0.53 0.53 0.0 0 0 784.59 703.03
  L 771.32 703.02
  Q 771.37 702.50 770.55 702.17
  Q 770.12 702.00 770.12 701.53
  Q 770.09 684.64 770.12 667.75
  Q 770.12 667.19 769.49 666.87
  Q 769.11 666.67 769.11 666.24
  L 769.11 592.73
  Q 769.11 592.39 768.77 592.39
  Q 768.62 592.39 768.47 592.39
  Q 768.35 592.39 768.43 592.30
  Q 768.52 592.21 768.62 592.13
  Q 768.92 591.86 768.56 591.66
  Q 768.05 591.38 767.49 591.44
  Q 774.83 587.91 781.74 583.72
  Q 801.11 571.94 821.85 559.08
  Z"
/>
<path fill="#ee6800" d="
  M 678.36 577.99
  L 690.35 584.92
  L 689.28 586.19
  Q 688.94 586.59 688.94 587.11
  L 689.20 674.53
  Q 689.20 674.70 689.32 674.82
  L 689.56 675.06
  Q 689.88 675.38 689.88 675.83
  Q 689.87 693.41 689.89 711.01
  Q 689.89 711.93 690.36 713.40
  Q 690.75 714.60 690.68 715.88
  Q 690.66 716.34 690.27 716.58
  Q 689.28 717.18 689.80 718.12
  Q 680.79 728.53 677.44 742.26
  Q 675.78 746.96 675.99 751.96
  L 676.23 762.55
  Q 675.73 767.90 677.97 772.66
  Q 684.86 796.36 706.22 807.54
  Q 708.48 809.22 711.45 809.44
  L 716.99 811.06
  Q 724.81 813.57 732.26 811.98
  L 734.08 811.63
  L 734.11 953.52
  L 733.37 965.35
  A 1.52 1.51 -81.7 0 1 731.53 966.73
  L 722.27 964.66
  Q 721.66 964.52 721.43 963.93
  Q 721.08 963.06 719.37 963.43
  L 595.13 886.66
  L 571.66 871.99
  Q 562.89 864.58 552.62 858.95
  Q 552.30 858.78 552.35 858.40
  Q 552.40 857.99 552.00 857.90
  Q 551.16 857.70 550.93 856.83
  Q 550.79 856.33 551.22 856.02
  Q 553.15 854.64 553.85 853.24
  Q 554.96 850.98 556.58 849.86
  A 0.70 0.67 -17.2 0 0 556.88 849.32
  Q 556.88 849.11 556.88 848.90
  Q 556.88 848.49 557.17 848.20
  L 560.57 844.81
  Q 560.86 844.52 560.86 844.10
  Q 560.85 843.88 560.89 843.68
  Q 560.96 843.32 561.31 842.99
  Q 563.77 840.77 565.97 838.33
  Q 566.32 837.94 567.46 836.02
  Q 568.22 834.75 569.64 833.89
  Q 569.88 833.75 569.88 833.46
  L 569.88 832.93
  Q 569.88 832.50 570.18 832.20
  L 573.70 828.69
  Q 573.88 828.51 573.88 828.25
  L 573.88 827.94
  Q 573.88 827.51 574.18 827.21
  L 577.57 823.80
  Q 577.86 823.51 577.86 823.10
  Q 577.85 822.88 577.89 822.68
  Q 577.96 822.32 578.31 821.99
  Q 580.79 819.76 582.99 817.30
  Q 583.40 816.85 584.46 815.06
  Q 585.08 814.03 586.08 813.29
  Q 586.45 813.01 586.60 812.57
  Q 587.39 810.28 589.60 808.97
  Q 589.88 808.81 589.88 808.49
  L 589.88 807.93
  Q 589.88 807.50 590.18 807.20
  L 593.70 803.69
  Q 593.87 803.51 593.88 803.27
  Q 593.88 803.08 593.90 802.89
  Q 593.95 802.41 594.30 802.07
  L 598.92 797.49
  Q 599.62 796.80 599.62 797.78
  L 599.62 798.97
  Q 599.62 799.17 599.54 798.98
  Q 599.19 798.12 599.82 797.24
  Q 600.24 796.65 600.26 797.37
  L 600.45 809.63
  L 668.66 809.68
  Q 669.09 809.68 669.09 809.25
  L 669.08 786.29
  Q 669.07 785.75 668.54 785.75
  L 626.25 785.75
  Q 625.71 785.75 625.71 785.21
  L 625.71 686.53
  Q 626.60 686.92 627.13 686.41
  A 0.78 0.77 -52.9 0 1 628.04 686.28
  L 675.33 712.06
  Q 676.99 712.96 676.99 711.07
  L 676.80 625.61
  A 0.72 0.70 23.2 0 0 676.59 625.11
  L 676.37 624.89
  Q 676.10 624.63 676.10 624.25
  L 676.10 579.98
  Q 676.10 579.06 676.83 578.51
  Q 677.60 577.93 677.90 578.51
  Q 678.12 578.96 678.24 578.47
  L 678.36 577.99
  Z"
/>
<path fill="#f56232" d="
  M 690.35 584.92
  Q 701.50 591.66 713.97 595.16
  L 712.12 594.97
  A 0.12 0.12 0.0 0 0 712.05 595.20
  L 712.36 595.38
  Q 712.72 595.60 713.14 595.57
  Q 715.28 595.46 716.27 596.79
  Q 716.92 597.66 716.91 599.82
  Q 716.82 629.08 716.89 637.50
  Q 716.90 637.75 717.23 638.01
  Q 717.63 638.30 717.62 638.79
  Q 717.57 666.22 717.95 693.65
  C 717.97 695.33 717.49 697.22 717.37 699.01
  A 0.86 0.84 18.0 0 0 717.77 699.78
  Q 719.07 700.57 718.73 701.59
  Q 701.52 704.89 689.80 718.12
  Q 689.28 717.18 690.27 716.58
  Q 690.66 716.34 690.68 715.88
  Q 690.75 714.60 690.36 713.40
  Q 689.89 711.93 689.89 711.01
  Q 689.87 693.41 689.88 675.83
  Q 689.88 675.38 689.56 675.06
  L 689.32 674.82
  Q 689.20 674.70 689.20 674.53
  L 688.94 587.11
  Q 688.94 586.59 689.28 586.19
  L 690.35 584.92
  Z"
/>
<path fill="#f21959" d="
  M 767.49 591.44
  Q 768.05 591.38 768.56 591.66
  Q 768.92 591.86 768.62 592.13
  Q 768.52 592.21 768.43 592.30
  Q 768.35 592.39 768.47 592.39
  Q 768.62 592.39 768.77 592.39
  Q 769.11 592.39 769.11 592.73
  L 769.11 666.24
  Q 769.11 666.67 769.49 666.87
  Q 770.12 667.19 770.12 667.75
  Q 770.09 684.64 770.12 701.53
  Q 770.12 702.00 770.55 702.17
  Q 771.37 702.50 771.32 703.02
  L 761.97 703.05
  Q 761.50 703.05 761.50 703.52
  L 761.50 716.48
  Q 761.50 717.12 761.09 716.63
  Q 750.63 704.30 734.74 701.36
  L 736.31 701.33
  Q 737.00 701.32 736.52 700.83
  Q 735.12 699.39 735.12 697.88
  Q 735.13 666.71 735.11 635.55
  Q 735.11 635.37 734.99 635.24
  L 734.66 634.91
  Q 734.37 634.63 734.37 634.22
  L 734.37 599.52
  A 0.56 0.56 0.0 0 0 733.84 598.96
  Q 731.72 598.86 729.77 597.64
  Q 749.60 599.14 767.49 591.44
  Z"
/>
<path fill="#f47700" d="
  M 459.65 593.74
  L 600.41 670.80
  L 600.45 809.63
  L 600.26 797.37
  Q 600.24 796.65 599.82 797.24
  Q 599.19 798.12 599.54 798.98
  Q 599.62 799.17 599.62 798.97
  L 599.62 797.78
  Q 599.62 796.80 598.92 797.49
  L 594.30 802.07
  Q 593.95 802.41 593.90 802.89
  Q 593.88 803.08 593.88 803.27
  Q 593.87 803.51 593.70 803.69
  L 590.18 807.20
  Q 589.88 807.50 589.88 807.93
  L 589.88 808.49
  Q 589.88 808.81 589.60 808.97
  Q 587.39 810.28 586.60 812.57
  Q 586.45 813.01 586.08 813.29
  Q 585.08 814.03 584.46 815.06
  Q 583.40 816.85 582.99 817.30
  Q 580.79 819.76 578.31 821.99
  Q 577.96 822.32 577.89 822.68
  Q 577.85 822.88 577.86 823.10
  Q 577.86 823.51 577.57 823.80
  L 574.18 827.21
  Q 573.88 827.51 573.88 827.94
  L 573.88 828.25
  Q 573.88 828.51 573.70 828.69
  L 570.18 832.20
  Q 569.88 832.50 569.88 832.93
  L 569.88 833.46
  Q 569.88 833.75 569.64 833.89
  Q 568.22 834.75 567.46 836.02
  Q 566.32 837.94 565.97 838.33
  Q 563.77 840.77 561.31 842.99
  Q 560.96 843.32 560.89 843.68
  Q 560.85 843.88 560.86 844.10
  Q 560.86 844.52 560.57 844.81
  L 557.17 848.20
  Q 556.88 848.49 556.88 848.90
  Q 556.88 849.11 556.88 849.32
  A 0.70 0.67 -17.2 0 1 556.58 849.86
  Q 554.96 850.98 553.85 853.24
  Q 553.15 854.64 551.22 856.02
  Q 550.79 856.33 550.93 856.83
  Q 551.16 857.70 552.00 857.90
  Q 552.40 857.99 552.35 858.40
  Q 552.30 858.78 552.62 858.95
  Q 562.89 864.58 571.66 871.99
  L 468.96 808.76
  Q 460.72 804.21 458.58 796.14
  Q 457.85 793.42 457.85 780.80
  Q 457.87 690.53 457.83 600.25
  Q 457.83 597.98 459.65 593.74
  Z"
/>
<path fill="#f6534c" d="
  M 713.97 595.16
  Q 721.84 597.42 729.77 597.64
  Q 731.72 598.86 733.84 598.96
  A 0.56 0.56 0.0 0 1 734.37 599.52
  L 734.37 634.22
  Q 734.37 634.63 734.66 634.91
  L 734.99 635.24
  Q 735.11 635.37 735.11 635.55
  Q 735.13 666.71 735.12 697.88
  Q 735.12 699.39 736.52 700.83
  Q 737.00 701.32 736.31 701.33
  L 734.74 701.36
  Q 726.63 700.61 718.73 701.59
  Q 719.07 700.57 717.77 699.78
  A 0.86 0.84 18.0 0 1 717.37 699.01
  C 717.49 697.22 717.97 695.33 717.95 693.65
  Q 717.57 666.22 717.62 638.79
  Q 717.63 638.30 717.23 638.01
  Q 716.90 637.75 716.89 637.50
  Q 716.82 629.08 716.91 599.82
  Q 716.92 597.66 716.27 596.79
  Q 715.28 595.46 713.14 595.57
  Q 712.72 595.60 712.36 595.38
  L 712.05 595.20
  A 0.12 0.12 0.0 0 1 712.12 594.97
  L 713.97 595.16
  Z"
/>
<path fill="#f70f97" d="
  M 987.08 817.68
  L 923.52 857.22
  L 918.92 842.22
  A 0.30 0.26 9.3 0 0 918.78 842.05
  L 918.24 841.76
  Q 918.12 841.70 918.12 841.57
  L 918.12 833.94
  Q 918.12 833.52 917.82 833.21
  L 916.53 831.91
  Q 916.12 831.49 916.12 830.90
  L 916.12 824.78
  Q 916.12 824.27 915.70 824.00
  L 915.41 823.81
  Q 915.06 823.59 915.10 823.17
  Q 915.57 817.95 912.41 813.83
  Q 912.12 813.45 912.12 812.98
  L 912.12 807.74
  A 0.76 0.54 -61.6 0 0 912.10 807.57
  Q 911.93 806.97 911.45 806.87
  A 0.42 0.42 0.0 0 1 911.12 806.46
  Q 911.13 798.73 911.11 791.01
  Q 911.11 789.73 910.51 788.98
  Q 909.88 788.20 909.88 789.20
  L 909.88 791.76
  Q 909.88 792.44 909.45 791.91
  L 908.43 790.68
  Q 908.09 790.26 908.15 789.72
  Q 908.28 788.65 907.63 787.75
  Q 907.34 787.35 907.28 786.86
  Q 907.05 784.88 907.17 781.99
  Q 907.20 781.25 906.50 780.78
  A 0.89 0.88 19.0 0 1 906.12 780.02
  Q 906.29 776.38 904.67 773.10
  Q 903.78 771.29 902.93 769.46
  Q 902.11 767.68 902.12 765.63
  Q 902.15 761.61 902.08 757.61
  Q 902.08 757.19 901.70 756.98
  Q 901.59 756.92 901.47 756.86
  Q 901.32 756.78 901.25 756.63
  Q 899.54 752.41 900.12 747.75
  Q 900.40 745.56 899.39 743.73
  Q 899.17 743.32 899.14 742.85
  Q 899.05 741.08 899.07 739.32
  Q 899.09 737.80 898.66 735.70
  Q 897.89 732.00 898.27 726.74
  Q 898.43 724.51 896.51 721.94
  Q 896.20 721.54 896.20 721.03
  Q 896.10 715.95 895.92 710.84
  Q 895.91 710.45 895.71 710.21
  Q 895.58 710.05 895.43 709.93
  Q 895.15 709.72 895.15 709.36
  Q 895.15 704.80 895.05 700.25
  Q 895.04 699.53 894.33 698.82
  Q 893.96 698.45 894.10 697.94
  Q 894.46 696.65 893.52 695.86
  Q 893.12 695.52 893.12 694.99
  L 893.12 689.94
  Q 893.12 689.52 892.82 689.21
  L 891.51 687.88
  Q 891.12 687.49 891.12 686.93
  C 891.12 683.46 891.72 678.88 890.36 675.66
  Q 889.21 672.95 888.70 672.04
  Q 886.98 669.00 886.17 667.13
  Q 886.12 667.02 885.19 665.34
  Q 884.33 663.79 884.74 661.58
  L 951.30 625.07
  Q 951.78 624.81 951.80 625.35
  Q 952.09 633.19 951.88 635.75
  Q 951.75 637.48 952.59 638.17
  Q 952.89 638.41 952.89 638.79
  L 952.89 643.25
  Q 952.89 643.69 953.22 643.97
  Q 953.35 644.07 953.51 644.11
  A 0.52 0.52 0.0 0 1 953.90 644.76
  Q 953.65 645.67 954.46 646.09
  Q 954.85 646.30 954.96 646.71
  Q 956.49 652.35 955.74 658.24
  A 1.65 1.60 -56.3 0 0 955.92 659.23
  Q 957.47 662.12 956.75 665.51
  A 1.22 1.20 32.8 0 0 956.97 666.48
  Q 959.51 669.89 958.81 674.19
  A 0.68 0.68 0.0 0 0 959.21 674.92
  Q 960.12 675.31 959.89 676.23
  Q 959.42 678.07 960.53 679.35
  A 1.48 1.45 24.6 0 1 960.88 680.27
  L 960.89 694.26
  Q 960.89 694.77 961.37 694.98
  Q 962.04 695.27 961.91 696.09
  Q 961.84 696.51 962.15 696.80
  L 963.60 698.18
  Q 963.99 698.55 963.88 699.07
  Q 963.64 700.32 964.47 701.36
  Q 964.81 701.79 964.83 702.33
  L 964.98 706.93
  Q 965.00 707.42 965.37 707.74
  Q 965.61 707.93 965.77 708.17
  Q 965.89 708.34 965.88 708.60
  Q 965.85 711.01 965.93 713.42
  A 0.70 0.67 -79.8 0 0 966.33 714.02
  L 966.84 714.26
  A 0.13 0.12 22.0 0 1 966.91 714.41
  Q 966.53 715.66 967.63 716.16
  A 0.53 0.52 -70.6 0 1 967.92 716.78
  Q 967.55 718.16 968.39 719.15
  Q 968.69 719.50 968.75 719.96
  Q 968.92 721.31 968.93 722.67
  Q 968.93 723.93 969.38 725.27
  Q 970.26 727.94 969.81 730.83
  Q 969.73 731.32 970.10 731.66
  Q 971.82 733.19 971.85 736.00
  Q 971.90 741.90 971.88 747.80
  Q 971.88 748.29 972.23 748.63
  Q 973.29 749.66 972.86 751.35
  Q 972.73 751.86 972.96 752.33
  C 974.83 756.29 977.02 759.75 976.94 764.26
  Q 976.94 764.70 977.26 764.99
  Q 977.39 765.10 977.53 765.12
  Q 977.73 765.14 977.79 765.33
  Q 979.57 770.75 978.82 776.00
  Q 978.51 778.19 979.62 779.49
  Q 979.92 779.85 979.84 780.31
  Q 979.63 781.47 980.53 782.24
  Q 980.89 782.55 980.89 783.02
  L 980.89 787.28
  A 0.83 0.82 -76.3 0 0 981.33 788.01
  Q 981.80 788.24 981.88 788.51
  Q 983.29 793.12 982.78 799.00
  Q 982.71 799.75 983.45 800.07
  Q 983.87 800.26 983.87 800.71
  Q 983.87 806.99 984.17 813.25
  C 984.22 814.15 984.44 814.35 985.03 814.93
  Q 985.35 815.24 985.40 815.68
  Q 985.50 816.53 984.73 816.70
  A 0.64 0.63 41.8 0 0 984.80 817.95
  Q 985.62 818.05 985.43 817.31
  Q 985.22 816.53 985.91 816.96
  L 987.08 817.68
  Z"
/>
<path fill="#ffffff" d="
  M 611.14 664.53
  L 625.14 664.55
  Q 625.68 664.55 625.68 665.09
  L 625.71 686.53
  L 625.71 785.21
  Q 625.71 785.75 626.25 785.75
  L 668.54 785.75
  Q 669.07 785.75 669.08 786.29
  L 669.09 809.25
  Q 669.09 809.68 668.66 809.68
  L 600.45 809.63
  L 600.41 670.80
  L 600.49 665.07
  Q 600.50 664.54 601.03 664.54
  L 611.14 664.53
  Z"
/>
<path fill="#ffffff" d="
  M 734.74 701.36
  Q 750.63 704.30 761.09 716.63
  Q 761.50 717.12 761.50 716.48
  L 761.50 703.52
  Q 761.50 703.05 761.97 703.05
  L 771.32 703.02
  L 784.59 703.03
  A 0.53 0.53 0.0 0 1 785.12 703.57
  L 785.07 716.13
  L 785.07 809.39
  A 0.56 0.55 -89.5 0 1 784.51 809.95
  L 762.24 809.93
  A 0.70 0.69 0.0 0 1 761.54 809.24
  L 761.53 796.75
  Q 761.53 795.93 760.99 796.54
  Q 755.44 802.86 748.18 806.99
  L 743.53 809.06
  L 734.08 811.63
  L 732.26 811.98
  L 716.99 811.06
  L 711.45 809.44
  L 706.22 807.54
  Q 684.86 796.36 677.97 772.66
  L 676.23 762.55
  L 675.99 751.96
  L 677.44 742.26
  Q 680.79 728.53 689.80 718.12
  Q 701.52 704.89 718.73 701.59
  Q 726.63 700.61 734.74 701.36
  Z
  M 708.79 732.00
  Q 705.34 735.17 704.05 739.25
  L 702.11 743.45
  Q 700.30 746.78 700.54 750.67
  L 700.31 760.09
  Q 699.96 765.05 702.13 769.49
  L 704.15 773.97
  Q 704.75 775.99 706.05 777.24
  Q 709.85 782.93 715.79 786.45
  Q 717.69 788.34 720.24 788.48
  Q 726.47 791.12 734.09 790.52
  L 741.77 789.09
  Q 744.84 788.79 746.68 786.96
  Q 753.62 782.84 757.77 776.54
  Q 759.54 774.45 760.28 771.81
  Q 767.92 751.64 756.36 734.19
  Q 756.01 734.30 756.12 733.98
  Q 756.18 733.78 756.04 733.62
  Q 739.58 716.09 716.75 725.76
  Q 713.85 726.98 708.79 732.00
  Z"
/>
<path fill="#ffffff" d="
  M 849.59 809.98
  L 803.69 809.96
  A 0.34 0.34 0.0 0 1 803.35 809.61
  L 803.40 791.75
  Q 803.40 791.22 803.73 790.82
  L 838.62 749.19
  L 858.90 725.00
  A 0.30 0.30 0.0 0 0 858.67 724.51
  L 826.01 724.54
  L 804.08 724.51
  L 804.17 703.85
  Q 804.17 703.05 804.96 703.05
  L 889.14 703.05
  Q 889.74 703.05 889.74 703.64
  L 889.74 721.46
  Q 889.74 721.97 889.41 722.36
  L 834.62 787.80
  A 0.44 0.44 0.0 0 0 834.96 788.53
  L 890.54 788.51
  Q 891.07 788.51 891.07 789.04
  L 890.99 809.40
  Q 890.99 809.95 890.44 809.95
  L 849.59 809.98
  Z"
/>
<path fill="#f21959" d="
  M 804.08 724.51
  L 826.01 724.54
  Q 830.91 725.58 835.94 724.99
  Q 836.43 724.94 836.52 725.42
  Q 837.40 730.17 837.12 735.01
  Q 837.08 735.70 837.68 736.05
  Q 838.09 736.29 838.11 736.77
  L 838.62 749.19
  L 803.73 790.82
  Q 803.40 791.22 803.40 791.75
  L 803.35 809.61
  A 0.34 0.34 0.0 0 0 803.69 809.96
  L 849.59 809.98
  Q 848.32 810.83 851.93 810.66
  C 852.23 810.65 852.65 810.81 852.83 811.03
  Q 853.04 811.29 852.71 811.32
  L 847.80 811.63
  Q 847.40 811.66 847.40 812.05
  Q 847.28 817.84 847.19 823.54
  C 847.16 825.01 847.99 826.17 848.74 827.34
  Q 848.99 827.72 848.89 828.17
  Q 848.56 829.64 849.57 830.58
  Q 849.93 830.93 849.97 831.43
  L 850.19 834.99
  Q 850.23 835.47 850.49 835.87
  Q 852.56 839.01 853.06 842.65
  Q 853.09 842.85 853.24 843.00
  L 853.51 843.27
  Q 853.55 843.31 853.54 843.37
  Q 852.94 847.38 854.15 849.38
  Q 855.53 851.67 855.04 854.75
  Q 854.91 855.56 855.53 855.97
  Q 855.95 856.25 856.10 856.72
  Q 857.84 862.26 856.91 868.13
  Q 856.84 868.59 857.26 868.79
  L 857.74 869.01
  A 0.62 0.61 -78.3 0 1 858.09 869.55
  Q 858.18 881.23 858.11 884.25
  Q 858.10 884.47 857.92 884.59
  Q 857.67 884.74 857.83 884.99
  Q 858.32 885.74 858.10 887.24
  Q 857.93 888.43 858.15 891.20
  Q 858.19 891.61 858.37 891.97
  L 860.07 895.38
  Q 860.38 896.00 859.70 895.90
  Q 859.44 895.86 859.21 895.87
  Q 858.90 895.89 858.85 896.19
  Q 858.63 897.36 857.49 897.64
  Q 857.06 897.74 856.88 898.14
  L 856.56 898.83
  Q 794.65 937.84 746.80 966.33
  Q 741.64 969.39 734.31 969.37
  Q 734.41 968.82 733.70 968.64
  Q 733.62 968.62 733.68 968.57
  Q 733.78 968.47 733.86 968.37
  Q 734.25 967.87 734.25 967.58
  L 734.11 953.52
  L 734.08 811.63
  L 743.53 809.06
  Q 746.07 808.98 748.18 806.99
  Q 755.44 802.86 760.99 796.54
  Q 761.53 795.93 761.53 796.75
  L 761.54 809.24
  A 0.70 0.69 0.0 0 0 762.24 809.93
  L 784.51 809.95
  A 0.56 0.55 -89.5 0 0 785.07 809.39
  L 785.07 716.13
  L 802.23 706.89
  A 1.00 1.00 0.0 0 1 803.70 707.75
  L 804.08 724.51
  Z"
/>
<path fill="#f6534c" d="
  M 756.36 734.19
  L 754.94 733.43
  Q 754.46 733.18 753.99 733.44
  L 734.86 744.02
  A 0.86 0.84 -14.4 0 0 734.42 744.74
  L 734.21 752.68
  Q 732.37 748.64 733.17 744.85
  A 1.21 1.20 20.3 0 0 732.57 743.55
  L 710.83 731.55
  Q 710.42 731.32 709.99 731.50
  L 708.79 732.00
  Q 713.85 726.98 716.75 725.76
  Q 739.58 716.09 756.04 733.62
  Q 756.18 733.78 756.12 733.98
  Q 756.01 734.30 756.36 734.19
  Z"
/>
<path fill="#f51382" d="
  M 826.01 724.54
  L 858.67 724.51
  A 0.30 0.30 0.0 0 1 858.90 725.00
  L 838.62 749.19
  L 838.11 736.77
  Q 838.09 736.29 837.68 736.05
  Q 837.08 735.70 837.12 735.01
  Q 837.40 730.17 836.52 725.42
  Q 836.43 724.94 835.94 724.99
  Q 830.91 725.58 826.01 724.54
  Z"
/>
<path fill="#ee6800" d="
  M 734.21 752.68
  L 734.09 790.52
  Q 726.47 791.12 720.24 788.48
  Q 718.19 786.80 715.79 786.45
  Q 709.85 782.93 706.05 777.24
  Q 705.88 775.40 704.15 773.97
  L 702.13 769.49
  L 700.31 760.09
  L 700.54 750.67
  Q 702.06 747.01 702.11 743.45
  L 704.05 739.25
  L 708.79 732.00
  L 709.99 731.50
  Q 710.42 731.32 710.83 731.55
  L 732.57 743.55
  A 1.21 1.20 20.3 0 1 733.17 744.85
  Q 732.37 748.64 734.21 752.68
  Z"
/>
<path fill="#f56232" d="
  M 708.79 732.00
  L 704.05 739.25
  Q 705.34 735.17 708.79 732.00
  Z"
/>
<path fill="#f21959" d="
  M 756.36 734.19
  Q 767.92 751.64 760.28 771.81
  Q 758.30 773.99 757.77 776.54
  Q 753.62 782.84 746.68 786.96
  Q 744.20 787.32 741.77 789.09
  L 734.09 790.52
  L 734.21 752.68
  L 734.42 744.74
  A 0.86 0.84 -14.4 0 1 734.86 744.02
  L 753.99 733.44
  Q 754.46 733.18 754.94 733.43
  L 756.36 734.19
  Z"
/>
<path fill="#f56232" d="
  M 677.44 742.26
  L 675.99 751.96
  Q 675.78 746.96 677.44 742.26
  Z"
/>
<path fill="#f56232" d="
  M 702.11 743.45
  Q 702.06 747.01 700.54 750.67
  Q 700.30 746.78 702.11 743.45
  Z"
/>
<path fill="#f56232" d="
  M 700.31 760.09
  L 702.13 769.49
  Q 699.96 765.05 700.31 760.09
  Z"
/>
<path fill="#f56232" d="
  M 676.23 762.55
  L 677.97 772.66
  Q 675.73 767.90 676.23 762.55
  Z"
/>
<path fill="#f56232" d="
  M 760.28 771.81
  Q 759.54 774.45 757.77 776.54
  Q 758.30 773.99 760.28 771.81
  Z"
/>
<path fill="#f56232" d="
  M 704.15 773.97
  Q 705.88 775.40 706.05 777.24
  Q 704.75 775.99 704.15 773.97
  Z"
/>
<path fill="#f56232" d="
  M 715.79 786.45
  Q 718.19 786.80 720.24 788.48
  Q 717.69 788.34 715.79 786.45
  Z"
/>
<path fill="#f56232" d="
  M 746.68 786.96
  Q 744.84 788.79 741.77 789.09
  Q 744.20 787.32 746.68 786.96
  Z"
/>
<path fill="#f56232" d="
  M 748.18 806.99
  Q 746.07 808.98 743.53 809.06
  L 748.18 806.99
  Z"
/>
<path fill="#f56232" d="
  M 706.22 807.54
  L 711.45 809.44
  Q 708.48 809.22 706.22 807.54
  Z"
/>
<path fill="#080e99" d="
  M 468.96 808.76
  L 571.66 871.99
  L 595.13 886.66
  Q 595.45 887.70 596.46 888.18
  A 1.02 1.01 -32.2 0 1 596.02 890.11
  L 384.64 890.13
  A 1.01 1.00 18.9 0 0 383.85 890.51
  L 382.73 891.94
  Q 382.29 892.51 382.10 891.81
  Q 381.77 890.59 381.92 889.30
  Q 381.97 888.86 381.91 888.42
  L 381.47 885.04
  L 381.48 816.93
  Q 382.53 816.67 382.05 819.35
  Q 382.04 819.40 382.08 819.39
  Q 382.09 819.38 382.10 819.38
  Q 382.13 819.38 382.13 819.38
  L 382.13 818.43
  Q 382.13 818.27 382.28 818.24
  Q 382.45 818.20 382.55 818.29
  Q 382.63 818.35 382.63 818.25
  L 382.63 817.77
  Q 382.63 817.32 382.97 817.60
  Q 383.28 817.85 383.12 818.30
  Q 383.10 818.11 383.11 817.94
  Q 383.15 817.50 383.59 817.51
  Q 385.93 817.55 388.25 817.57
  Q 431.25 818.00 474.25 817.92
  Q 477.00 817.91 478.40 816.45
  A 0.93 0.93 0.0 0 0 477.66 814.88
  Q 477.28 814.90 476.94 814.76
  Q 476.65 814.65 476.48 814.38
  Q 476.42 814.27 476.32 814.18
  Q 476.28 814.13 476.22 814.15
  L 474.77 814.51
  A 0.34 0.33 23.9 0 1 474.53 813.89
  Q 474.78 813.76 474.92 813.56
  Q 475.03 813.40 474.93 813.24
  Q 474.39 812.36 473.40 812.21
  Q 472.87 812.12 472.60 811.66
  Q 471.81 810.28 470.58 811.25
  Q 470.09 811.64 469.85 811.05
  L 468.96 808.76
  Z"
/>
<path fill="#f56232" d="
  M 716.99 811.06
  L 732.26 811.98
  Q 724.81 813.57 716.99 811.06
  Z"
/>
<path fill="#080e99" d="
  M 990.57 815.61
  L 989.03 817.87
  A 0.25 0.25 0.0 0 0 989.35 818.24
  L 991.72 817.07
  A 1.75 1.68 30.7 0 1 992.49 816.89
  L 1080.30 816.87
  Q 1080.74 816.87 1081.00 817.23
  L 1081.61 818.07
  A 0.48 0.47 -57.3 0 0 1082.46 817.88
  Q 1082.66 816.80 1083.19 816.43
  L 1083.20 878.20
  Q 1082.68 879.15 1082.56 880.30
  Q 1082.52 880.64 1082.88 882.41
  Q 1083.14 883.68 1082.50 884.93
  Q 1082.28 885.37 1082.33 885.85
  Q 1082.39 886.49 1081.97 887.04
  Q 1081.79 887.29 1081.70 887.00
  L 1080.98 884.58
  A 0.65 0.65 0.0 0 0 1080.36 884.12
  L 885.75 884.12
  Q 885.34 884.12 884.98 884.31
  Q 883.95 884.83 882.82 884.46
  Q 882.49 884.35 882.21 884.57
  Q 879.80 886.45 876.24 886.69
  L 923.52 857.22
  L 987.08 817.68
  L 990.57 815.61
  Z"
/>
<path fill="#0c1280" d="
  M 1083.20 878.20
  Q 1083.23 1001.88 1083.19 1125.53
  Q 1083.18 1135.20 1081.96 1140.61
  C 1076.41 1165.08 1055.06 1180.12 1030.25 1180.11
  Q 732.91 1180.03 435.58 1180.02
  Q 426.86 1180.02 422.00 1179.03
  C 402.47 1175.05 387.29 1159.91 382.84 1140.97
  Q 381.48 1135.16 381.47 1124.42
  Q 381.42 1004.73 381.47 885.04
  L 381.91 888.42
  Q 381.97 888.86 381.92 889.30
  Q 381.77 890.59 382.10 891.81
  Q 382.29 892.51 382.73 891.94
  L 383.85 890.51
  A 1.01 1.00 18.9 0 1 384.64 890.13
  L 596.02 890.11
  A 1.02 1.01 -32.2 0 0 596.46 888.18
  Q 595.45 887.70 595.13 886.66
  L 719.37 963.43
  Q 726.64 968.55 734.31 969.37
  Q 741.64 969.39 746.80 966.33
  Q 794.65 937.84 856.56 898.83
  L 876.24 886.69
  Q 879.80 886.45 882.21 884.57
  Q 882.49 884.35 882.82 884.46
  Q 883.95 884.83 884.98 884.31
  Q 885.34 884.12 885.75 884.12
  L 1080.36 884.12
  A 0.65 0.65 0.0 0 1 1080.98 884.58
  L 1081.70 887.00
  Q 1081.79 887.29 1081.97 887.04
  Q 1082.39 886.49 1082.33 885.85
  Q 1082.28 885.37 1082.50 884.93
  Q 1083.14 883.68 1082.88 882.41
  Q 1082.52 880.64 1082.56 880.30
  Q 1082.68 879.15 1083.20 878.20
  Z
  M 887.67 1098.01
  L 887.64 1108.66
  A 0.52 0.51 -0.0 0 0 888.16 1109.17
  L 907.03 1109.19
  A 0.47 0.47 0.0 0 0 907.50 1108.72
  L 907.50 979.71
  Q 907.50 979.18 906.96 979.18
  L 888.07 979.19
  Q 887.59 979.19 887.59 979.68
  L 887.66 1030.01
  A 0.25 0.25 0.0 0 1 887.22 1030.18
  Q 874.34 1016.09 856.58 1017.15
  C 814.43 1019.65 801.96 1075.59 831.78 1101.03
  C 848.09 1114.94 872.78 1114.65 887.13 1097.81
  A 0.31 0.31 0.0 0 1 887.67 1098.01
  Z
  M 479.43 1088.71
  A 0.43 0.43 0.0 0 1 479.00 1088.28
  L 479.01 986.86
  A 0.43 0.43 0.0 0 0 478.58 986.43
  L 458.17 986.41
  A 0.43 0.43 0.0 0 0 457.74 986.84
  L 457.77 1108.56
  A 0.43 0.43 0.0 0 0 458.20 1108.99
  L 515.22 1109.01
  A 0.43 0.43 0.0 0 0 515.65 1108.58
  L 515.67 1089.14
  A 0.43 0.43 0.0 0 0 515.24 1088.71
  L 479.43 1088.71
  Z
  M 593.19 1030.18
  C 578.61 1013.25 553.54 1013.16 537.30 1027.46
  C 507.89 1053.36 521.10 1109.26 563.38 1110.95
  Q 580.71 1111.64 593.37 1097.84
  A 0.22 0.22 0.0 0 1 593.75 1097.99
  L 593.74 1108.71
  Q 593.74 1109.17 594.21 1109.17
  L 612.99 1109.19
  A 0.68 0.68 0.0 0 0 613.67 1108.51
  L 613.68 1019.51
  Q 613.68 1018.85 613.01 1018.86
  L 594.26 1018.96
  Q 593.72 1018.96 593.72 1019.49
  L 593.72 1029.99
  Q 593.72 1030.79 593.19 1030.18
  Z
  M 781.90 1030.23
  C 769.03 1015.99 750.32 1013.36 733.71 1021.97
  C 708.43 1035.06 703.37 1070.69 718.82 1092.73
  C 733.79 1114.11 763.82 1117.80 781.90 1097.86
  Q 782.33 1097.39 782.33 1098.02
  L 782.34 1108.64
  Q 782.34 1109.19 782.89 1109.19
  L 801.66 1109.14
  Q 802.20 1109.13 802.20 1108.59
  L 802.20 1019.48
  Q 802.20 1019.01 801.73 1019.01
  L 782.99 1018.88
  Q 782.35 1018.88 782.35 1019.51
  L 782.32 1030.07
  Q 782.31 1030.69 781.90 1030.23
  Z
  M 1012.53 1018.86
  L 1006.17 1018.87
  L 993.57 1018.91
  Q 992.98 1018.92 992.98 1019.50
  L 993.05 1030.02
  A 0.26 0.25 -66.7 0 1 992.61 1030.20
  Q 976.02 1012.14 951.63 1018.94
  C 948.88 1019.70 944.26 1021.75 941.51 1023.66
  C 920.68 1038.19 914.25 1066.54 926.93 1088.75
  C 940.58 1112.66 973.28 1119.84 992.43 1097.82
  A 0.26 0.26 0.0 0 1 992.89 1097.99
  L 992.80 1108.46
  A 0.66 0.66 0.0 0 0 993.46 1109.12
  L 1012.27 1109.12
  Q 1012.77 1109.12 1012.77 1108.63
  Q 1012.78 1063.86 1012.77 1019.10
  Q 1012.77 1019.05 1012.73 1019.02
  Q 1012.63 1018.94 1012.53 1018.86
  Z
  M 655.62 1091.13
  A 0.35 0.35 0.0 0 1 655.35 1090.55
  L 701.93 1034.91
  A 0.35 0.35 0.0 0 0 702.01 1034.68
  L 701.99 1019.25
  A 0.35 0.35 0.0 0 0 701.64 1018.90
  L 630.10 1018.88
  A 0.35 0.35 0.0 0 0 629.75 1019.23
  L 629.74 1036.64
  A 0.35 0.35 0.0 0 0 630.09 1036.99
  L 675.48 1036.99
  A 0.35 0.35 0.0 0 1 675.75 1037.56
  L 629.11 1093.27
  A 0.35 0.35 0.0 0 0 629.03 1093.50
  L 629.02 1108.82
  A 0.35 0.35 0.0 0 0 629.37 1109.17
  L 702.66 1109.18
  A 0.35 0.35 0.0 0 0 703.01 1108.83
  L 703.01 1091.43
  A 0.35 0.35 0.0 0 0 702.66 1091.08
  L 655.62 1091.13
  Z"
/>
<path fill="#f6534c" d="
  M 734.11 953.52
  L 734.25 967.58
  Q 734.25 967.87 733.86 968.37
  Q 733.78 968.47 733.68 968.57
  Q 733.62 968.62 733.70 968.64
  Q 734.41 968.82 734.31 969.37
  Q 726.64 968.55 719.37 963.43
  Q 721.08 963.06 721.43 963.93
  Q 721.66 964.52 722.27 964.66
  L 731.53 966.73
  A 1.52 1.51 -81.7 0 0 733.37 965.35
  L 734.11 953.52
  Z"
/>
<path fill="#ffffff" d="
  M 887.67 1098.01
  A 0.31 0.31 0.0 0 0 887.13 1097.81
  C 872.78 1114.65 848.09 1114.94 831.78 1101.03
  C 801.96 1075.59 814.43 1019.65 856.58 1017.15
  Q 874.34 1016.09 887.22 1030.18
  A 0.25 0.25 0.0 0 0 887.66 1030.01
  L 887.59 979.68
  Q 887.59 979.19 888.07 979.19
  L 906.96 979.18
  Q 907.50 979.18 907.50 979.71
  L 907.50 1108.72
  A 0.47 0.47 0.0 0 1 907.03 1109.19
  L 888.16 1109.17
  A 0.52 0.51 -0.0 0 1 887.64 1108.66
  L 887.67 1098.01
  Z
  M 862.4400 1093.0400
  A 29.04 26.84 90.0 0 0 889.2800 1064.0000
  A 29.04 26.84 90.0 0 0 862.4400 1034.9600
  A 29.04 26.84 90.0 0 0 835.6000 1064.0000
  A 29.04 26.84 90.0 0 0 862.4400 1093.0400
  Z"
/>
<path fill="#ffffff" d="
  M 479.43 1088.71
  L 515.24 1088.71
  A 0.43 0.43 0.0 0 1 515.67 1089.14
  L 515.65 1108.58
  A 0.43 0.43 0.0 0 1 515.22 1109.01
  L 458.20 1108.99
  A 0.43 0.43 0.0 0 1 457.77 1108.56
  L 457.74 986.84
  A 0.43 0.43 0.0 0 1 458.17 986.41
  L 478.58 986.43
  A 0.43 0.43 0.0 0 1 479.01 986.86
  L 479.00 1088.28
  A 0.43 0.43 0.0 0 0 479.43 1088.71
  Z"
/>
<path fill="#ffffff" d="
  M 593.72 1029.99
  L 593.72 1019.49
  Q 593.72 1018.96 594.26 1018.96
  L 613.01 1018.86
  Q 613.68 1018.85 613.68 1019.51
  L 613.67 1108.51
  A 0.68 0.68 0.0 0 1 612.99 1109.19
  L 594.21 1109.17
  Q 593.74 1109.17 593.74 1108.71
  L 593.75 1097.99
  A 0.22 0.22 0.0 0 0 593.37 1097.84
  Q 580.71 1111.64 563.38 1110.95
  C 521.10 1109.26 507.89 1053.36 537.30 1027.46
  C 553.54 1013.16 578.61 1013.25 593.19 1030.18
  Q 593.72 1030.79 593.72 1029.99
  Z
  M 568.4900 1093.0500
  A 29.05 26.86 90.0 0 0 595.3500 1064.0000
  A 29.05 26.86 90.0 0 0 568.4900 1034.9500
  A 29.05 26.86 90.0 0 0 541.6300 1064.0000
  A 29.05 26.86 90.0 0 0 568.4900 1093.0500
  Z"
/>
<path fill="#ffffff" d="
  M 782.32 1030.07
  L 782.35 1019.51
  Q 782.35 1018.88 782.99 1018.88
  L 801.73 1019.01
  Q 802.20 1019.01 802.20 1019.48
  L 802.20 1108.59
  Q 802.20 1109.13 801.66 1109.14
  L 782.89 1109.19
  Q 782.34 1109.19 782.34 1108.64
  L 782.33 1098.02
  Q 782.33 1097.39 781.90 1097.86
  C 763.82 1117.80 733.79 1114.11 718.82 1092.73
  C 703.37 1070.69 708.43 1035.06 733.71 1021.97
  C 750.32 1013.36 769.03 1015.99 781.90 1030.23
  Q 782.31 1030.69 782.32 1030.07
  Z
  M 746.41 1037.27
  Q 743.79 1037.92 741.80 1039.79
  Q 730.05 1049.18 730.33 1064.76
  Q 730.54 1076.28 737.29 1083.96
  C 748.57 1096.79 769.16 1095.48 778.44 1081.78
  Q 782.03 1076.47 783.13 1070.15
  C 787.09 1047.32 769.11 1028.78 746.41 1037.27
  Z"
/>
<path fill="#ffffff" d="
  M 1006.17 1018.87
  L 1012.53 1018.86
  Q 1012.63 1018.94 1012.73 1019.02
  Q 1012.77 1019.05 1012.77 1019.10
  Q 1012.78 1063.86 1012.77 1108.63
  Q 1012.77 1109.12 1012.27 1109.12
  L 993.46 1109.12
  A 0.66 0.66 0.0 0 1 992.80 1108.46
  L 992.89 1097.99
  A 0.26 0.26 0.0 0 0 992.43 1097.82
  C 973.28 1119.84 940.58 1112.66 926.93 1088.75
  C 914.25 1066.54 920.68 1038.19 941.51 1023.66
  C 944.26 1021.75 948.88 1019.70 951.63 1018.94
  Q 976.02 1012.14 992.61 1030.20
  A 0.26 0.25 -66.7 0 0 993.05 1030.02
  L 992.98 1019.50
  Q 992.98 1018.92 993.57 1018.91
  L 1006.17 1018.87
  Z
  M 948.09 1043.97
  C 933.49 1060.87 942.56 1092.04 966.41 1092.79
  C 975.94 1093.09 985.51 1088.78 990.17 1080.37
  C 997.13 1067.82 995.86 1049.92 983.90 1040.70
  C 973.06 1032.34 957.13 1033.50 948.09 1043.97
  Z"
/>
<path fill="#0101bb" d="
  M 1012.53 1018.86
  L 1006.17 1018.87
  L 1012.53 1018.86
  Z"
/>
<path fill="#ffffff" d="
  M 655.62 1091.13
  L 702.66 1091.08
  A 0.35 0.35 0.0 0 1 703.01 1091.43
  L 703.01 1108.83
  A 0.35 0.35 0.0 0 1 702.66 1109.18
  L 629.37 1109.17
  A 0.35 0.35 0.0 0 1 629.02 1108.82
  L 629.03 1093.50
  A 0.35 0.35 0.0 0 1 629.11 1093.27
  L 675.75 1037.56
  A 0.35 0.35 0.0 0 0 675.48 1036.99
  L 630.09 1036.99
  A 0.35 0.35 0.0 0 1 629.74 1036.64
  L 629.75 1019.23
  A 0.35 0.35 0.0 0 1 630.10 1018.88
  L 701.64 1018.90
  A 0.35 0.35 0.0 0 1 701.99 1019.25
  L 702.01 1034.68
  A 0.35 0.35 0.0 0 1 701.93 1034.91
  L 655.35 1090.55
  A 0.35 0.35 0.0 0 0 655.62 1091.13
  Z"
/>
<ellipse fill="#0c1280" cx="0.00" cy="0.00" transform="translate(568.49,1064.00) rotate(90.0)" rx="29.05" ry="26.86"/>
<path fill="#0c1280" d="
  M 741.80 1039.79
  L 746.41 1037.27
  C 769.11 1028.78 787.09 1047.32 783.13 1070.15
  Q 782.03 1076.47 778.44 1081.78
  C 769.16 1095.48 748.57 1096.79 737.29 1083.96
  Q 730.54 1076.28 730.33 1064.76
  Q 730.05 1049.18 741.80 1039.79
  Z"
/>
<ellipse fill="#0c1280" cx="0.00" cy="0.00" transform="translate(862.44,1064.00) rotate(90.0)" rx="29.04" ry="26.84"/>
<path fill="#0c1280" d="
  M 966.41 1092.79
  C 942.56 1092.04 933.49 1060.87 948.09 1043.97
  C 957.13 1033.50 973.06 1032.34 983.90 1040.70
  C 995.86 1049.92 997.13 1067.82 990.17 1080.37
  C 985.51 1088.78 975.94 1093.09 966.41 1092.79
  Z"
/>
<path fill="#0101bb" d="
  M 746.41 1037.27
  L 741.80 1039.79
  Q 743.79 1037.92 746.41 1037.27
  Z"
/>
</svg>
