<?xml version="1.0" encoding="UTF-8" standalone="no"?>
<svg xmlns="http://www.w3.org/2000/svg" version="1.2" baseProfile="tiny" viewBox="0.00 0.00 1448.00 1448.00">
<g stroke-width="2.00" fill="none" stroke-linecap="butt">
<path stroke="#e68080" vector-effect="non-scaling-stroke" d="
  M 670.38 931.52
  A 0.32 0.32 0.0 0 0 670.63 931.41
  L 727.51 866.26
  A 0.32 0.32 0.0 0 0 727.27 865.73
  L 567.25 865.76
  A 0.32 0.32 0.0 0 1 566.93 865.44
  L 566.93 547.33
  A 0.32 0.32 0.0 0 0 566.61 547.01
  L 501.51 547.01
  A 0.32 0.32 0.0 0 0 501.19 547.33
  L 501.19 931.20
  A 0.32 0.32 0.0 0 0 501.51 931.52
  L 670.38 931.52"
/>
<path stroke="#e68080" vector-effect="non-scaling-stroke" d="
  M 793.93 802.72
  A 0.32 0.32 0.0 0 0 794.38 802.73
  L 962.85 638.00
  A 0.32 0.32 0.0 0 0 962.95 637.78
  L 962.94 547.67
  A 0.32 0.32 0.0 0 0 962.40 547.44
  L 793.82 705.45
  A 0.32 0.32 0.0 0 1 793.38 705.44
  L 633.70 547.47
  A 0.32 0.32 0.0 0 0 633.15 547.70
  L 633.15 802.63
  A 0.32 0.32 0.0 0 0 633.47 802.95
  L 693.13 802.86
  A 0.32 0.32 0.0 0 0 693.45 802.54
  L 693.45 701.59
  A 0.32 0.32 0.0 0 1 694.00 701.37
  L 793.93 802.72"
/>
<path stroke="#e68080" vector-effect="non-scaling-stroke" d="
  M 962.95 728.78
  A 0.31 0.31 0.0 0 0 962.41 728.57
  L 902.80 795.79
  A 0.31 0.31 0.0 0 0 902.72 796.00
  L 902.72 931.21
  A 0.31 0.31 0.0 0 0 903.03 931.52
  L 962.64 931.52
  A 0.31 0.31 0.0 0 0 962.95 931.21
  L 962.95 728.78"
/>
<path stroke="#e68080" vector-effect="non-scaling-stroke" d="
  M 976.23 983.29
  A 0.27 0.27 0.0 0 0 975.96 983.02
  L 958.52 983.02
  A 0.27 0.27 0.0 0 0 958.25 983.29
  L 958.25 1109.99
  A 0.27 0.27 0.0 0 0 958.52 1110.26
  L 975.96 1110.26
  A 0.27 0.27 0.0 0 0 976.23 1109.99
  L 976.23 983.29"
/>
<path stroke="#e68080" vector-effect="non-scaling-stroke" d="
  M 993.31 1109.95
  A 0.49 0.49 0.0 0 0 993.80 1110.44
  L 1010.71 1110.47
  A 0.49 0.49 0.0 0 0 1011.20 1109.98
  L 1011.20 983.61
  A 0.49 0.49 0.0 0 0 1010.71 983.12
  L 993.81 983.14
  A 0.49 0.49 0.0 0 0 993.32 983.63
  L 993.31 1109.95"
/>
<path stroke="#e68080" vector-effect="non-scaling-stroke" d="
  M 767.39 1031.78
  Q 766.14 1029.00 763.69 1027.12
  Q 763.49 1026.96 763.40 1026.76
  Q 763.30 1026.55 763.24 1026.32
  Q 763.13 1025.93 762.94 1025.68
  Q 746.90 1004.80 730.93 983.83
  Q 730.65 983.46 730.19 983.46
  L 712.79 983.46
  Q 712.28 983.46 712.28 983.96
  L 712.28 1109.77
  Q 712.28 1110.26 712.77 1110.26
  L 731.49 1110.27
  Q 732.00 1110.27 732.00 1109.76
  L 732.00 1021.48
  A 0.27 0.27 0.0 0 1 732.49 1021.31
  L 775.23 1075.46
  A 0.74 0.74 0.0 0 0 776.40 1075.46
  L 819.12 1021.30
  A 0.30 0.30 0.0 0 1 819.65 1021.49
  L 819.65 1109.71
  Q 819.65 1110.26 820.20 1110.26
  L 838.77 1110.27
  Q 839.31 1110.27 839.31 1109.73
  L 839.30 984.01
  Q 839.30 983.46 838.76 983.46
  L 821.54 983.46
  Q 821.03 983.46 820.71 983.87
  L 776.01 1042.19
  A 0.39 0.39 0.0 0 1 775.36 1042.14
  Q 773.70 1039.03 771.07 1036.72
  Q 770.73 1036.43 770.58 1036.01
  Q 769.78 1033.82 767.96 1032.49
  Q 767.59 1032.21 767.39 1031.78"
/>
<path stroke="#e68080" vector-effect="non-scaling-stroke" d="
  M 478.29 1090.62
  A 0.32 0.32 0.0 0 1 477.97 1090.30
  L 477.98 990.81
  A 0.32 0.32 0.0 0 0 477.66 990.49
  L 457.26 990.48
  A 0.32 0.32 0.0 0 0 456.94 990.80
  L 456.95 1109.94
  A 0.32 0.32 0.0 0 0 457.27 1110.26
  L 513.89 1110.27
  A 0.32 0.32 0.0 0 0 514.21 1109.95
  L 514.22 1090.95
  A 0.32 0.32 0.0 0 0 513.90 1090.63
  L 478.29 1090.62"
/>
<path stroke="#e68080" vector-effect="non-scaling-stroke" d="
  M 529.87 1096.10
  Q 535.20 1103.62 543.57 1107.79
  Q 543.75 1107.88 543.95 1107.87
  Q 544.14 1107.87 544.34 1107.87
  Q 544.63 1107.87 544.90 1108.02
  Q 550.42 1111.04 557.73 1111.42
  Q 577.01 1112.40 589.99 1099.17
  Q 590.29 1098.87 590.29 1099.29
  L 590.27 1109.77
  Q 590.27 1110.27 590.77 1110.27
  L 609.42 1110.26
  Q 609.85 1110.26 609.85 1109.83
  L 609.85 1021.67
  A 0.43 0.43 0.0 0 0 609.42 1021.24
  L 590.78 1021.22
  Q 590.28 1021.22 590.28 1021.72
  L 590.23 1032.25
  A 0.49 0.49 0.0 0 1 589.38 1032.57
  Q 581.97 1024.37 571.42 1021.76
  Q 554.18 1017.51 539.66 1027.16
  Q 528.91 1034.30 523.67 1045.31
  Q 519.53 1054.00 519.58 1064.68
  Q 519.66 1078.00 525.82 1090.22
  C 526.92 1092.39 528.80 1094.59 529.87 1096.10"
/>
<path stroke="#e68080" vector-effect="non-scaling-stroke" d="
  M 651.79 1092.41
  A 0.35 0.35 0.0 0 1 651.52 1091.83
  L 697.51 1036.92
  A 0.35 0.35 0.0 0 0 697.59 1036.69
  L 697.58 1020.87
  A 0.35 0.35 0.0 0 0 697.23 1020.52
  L 626.02 1020.52
  A 0.35 0.35 0.0 0 0 625.67 1020.87
  L 625.68 1039.15
  A 0.35 0.35 0.0 0 0 626.03 1039.50
  L 670.77 1039.51
  A 0.35 0.35 0.0 0 1 671.05 1040.08
  L 625.75 1096.86
  A 0.35 0.35 0.0 0 0 625.67 1097.08
  L 625.67 1109.91
  A 0.35 0.35 0.0 0 0 626.02 1110.26
  L 697.22 1110.27
  A 0.35 0.35 0.0 0 0 697.57 1109.92
  L 697.59 1092.61
  A 0.35 0.35 0.0 0 0 697.24 1092.26
  L 651.79 1092.41"
/>
<path stroke="#e68080" vector-effect="non-scaling-stroke" d="
  M 921.23 1099.30
  L 921.25 1109.98
  Q 921.25 1110.46 921.73 1110.46
  L 940.18 1110.46
  Q 940.83 1110.46 940.83 1109.81
  L 940.83 1021.88
  Q 940.83 1021.42 940.38 1021.42
  L 921.79 1021.41
  Q 921.24 1021.41 921.24 1021.96
  L 921.24 1032.52
  A 0.30 0.29 21.9 0 1 920.74 1032.73
  Q 906.44 1019.10 888.00 1021.01
  Q 878.63 1021.98 870.63 1027.28
  Q 859.34 1034.76 854.04 1047.22
  Q 850.23 1056.17 850.68 1066.45
  C 851.39 1082.76 858.40 1098.87 873.03 1107.00
  Q 880.04 1110.89 887.67 1111.60
  C 899.93 1112.75 912.67 1108.40 920.92 1099.18
  Q 921.22 1098.84 921.23 1099.30"
/>
<path stroke="#e68080" vector-effect="non-scaling-stroke" d="
  M 584.87 1084.12
  Q 591.50 1075.56 590.96 1065.52
  Q 589.91 1046.15 572.95 1039.05
  C 569.74 1037.71 565.64 1037.89 562.21 1038.16
  Q 557.86 1038.51 554.44 1040.34
  Q 545.31 1045.25 541.43 1054.68
  Q 539.57 1059.19 539.39 1065.06
  Q 539.20 1071.29 540.58 1075.72
  Q 543.32 1084.51 551.31 1090.08
  Q 555.51 1093.00 560.20 1093.88
  Q 565.15 1094.81 570.10 1093.95
  Q 574.77 1093.14 578.37 1090.54
  Q 581.85 1088.04 584.87 1084.12"
/>
<path stroke="#e68080" vector-effect="non-scaling-stroke" d="
  M 912.37 1088.12
  Q 915.92 1084.89 918.18 1081.45
  Q 920.46 1077.98 921.41 1073.35
  Q 922.86 1066.24 921.35 1059.49
  Q 918.97 1048.83 910.87 1042.92
  Q 903.46 1037.50 894.69 1038.00
  Q 885.39 1038.53 878.29 1045.91
  Q 873.75 1050.63 872.61 1054.19
  Q 865.39 1076.59 881.92 1089.74
  Q 886.20 1093.15 891.03 1094.02
  Q 898.93 1095.44 906.66 1092.21
  Q 908.93 1091.27 912.37 1088.12"
/>
</g>
<path fill="#cd0000" d="
  M 1032.48 1180.02
  L 432.19 1180.01
  A 50.71 50.71 0.0 0 1 381.48 1129.30
  L 381.48 528.94
  A 50.71 50.71 0.0 0 1 432.19 478.23
  L 1032.48 478.23
  A 50.71 50.71 0.0 0 1 1083.19 528.94
  L 1083.19 1129.31
  A 50.71 50.71 0.0 0 1 1032.48 1180.02
  Z
  M 670.38 931.52
  A 0.32 0.32 0.0 0 0 670.63 931.41
  L 727.51 866.26
  A 0.32 0.32 0.0 0 0 727.27 865.73
  L 567.25 865.76
  A 0.32 0.32 0.0 0 1 566.93 865.44
  L 566.93 547.33
  A 0.32 0.32 0.0 0 0 566.61 547.01
  L 501.51 547.01
  A 0.32 0.32 0.0 0 0 501.19 547.33
  L 501.19 931.20
  A 0.32 0.32 0.0 0 0 501.51 931.52
  L 670.38 931.52
  Z
  M 793.93 802.72
  A 0.32 0.32 0.0 0 0 794.38 802.73
  L 962.85 638.00
  A 0.32 0.32 0.0 0 0 962.95 637.78
  L 962.94 547.67
  A 0.32 0.32 0.0 0 0 962.40 547.44
  L 793.82 705.45
  A 0.32 0.32 0.0 0 1 793.38 705.44
  L 633.70 547.47
  A 0.32 0.32 0.0 0 0 633.15 547.70
  L 633.15 802.63
  A 0.32 0.32 0.0 0 0 633.47 802.95
  L 693.13 802.86
  A 0.32 0.32 0.0 0 0 693.45 802.54
  L 693.45 701.59
  A 0.32 0.32 0.0 0 1 694.00 701.37
  L 793.93 802.72
  Z
  M 962.95 728.78
  A 0.31 0.31 0.0 0 0 962.41 728.57
  L 902.80 795.79
  A 0.31 0.31 0.0 0 0 902.72 796.00
  L 902.72 931.21
  A 0.31 0.31 0.0 0 0 903.03 931.52
  L 962.64 931.52
  A 0.31 0.31 0.0 0 0 962.95 931.21
  L 962.95 728.78
  Z
  M 976.23 983.29
  A 0.27 0.27 0.0 0 0 975.96 983.02
  L 958.52 983.02
  A 0.27 0.27 0.0 0 0 958.25 983.29
  L 958.25 1109.99
  A 0.27 0.27 0.0 0 0 958.52 1110.26
  L 975.96 1110.26
  A 0.27 0.27 0.0 0 0 976.23 1109.99
  L 976.23 983.29
  Z
  M 993.31 1109.95
  A 0.49 0.49 0.0 0 0 993.80 1110.44
  L 1010.71 1110.47
  A 0.49 0.49 0.0 0 0 1011.20 1109.98
  L 1011.20 983.61
  A 0.49 0.49 0.0 0 0 1010.71 983.12
  L 993.81 983.14
  A 0.49 0.49 0.0 0 0 993.32 983.63
  L 993.31 1109.95
  Z
  M 767.39 1031.78
  Q 766.14 1029.00 763.69 1027.12
  Q 763.49 1026.96 763.40 1026.76
  Q 763.30 1026.55 763.24 1026.32
  Q 763.13 1025.93 762.94 1025.68
  Q 746.90 1004.80 730.93 983.83
  Q 730.65 983.46 730.19 983.46
  L 712.79 983.46
  Q 712.28 983.46 712.28 983.96
  L 712.28 1109.77
  Q 712.28 1110.26 712.77 1110.26
  L 731.49 1110.27
  Q 732.00 1110.27 732.00 1109.76
  L 732.00 1021.48
  A 0.27 0.27 0.0 0 1 732.49 1021.31
  L 775.23 1075.46
  A 0.74 0.74 0.0 0 0 776.40 1075.46
  L 819.12 1021.30
  A 0.30 0.30 0.0 0 1 819.65 1021.49
  L 819.65 1109.71
  Q 819.65 1110.26 820.20 1110.26
  L 838.77 1110.27
  Q 839.31 1110.27 839.31 1109.73
  L 839.30 984.01
  Q 839.30 983.46 838.76 983.46
  L 821.54 983.46
  Q 821.03 983.46 820.71 983.87
  L 776.01 1042.19
  A 0.39 0.39 0.0 0 1 775.36 1042.14
  Q 773.70 1039.03 771.07 1036.72
  Q 770.73 1036.43 770.58 1036.01
  Q 769.78 1033.82 767.96 1032.49
  Q 767.59 1032.21 767.39 1031.78
  Z
  M 478.29 1090.62
  A 0.32 0.32 0.0 0 1 477.97 1090.30
  L 477.98 990.81
  A 0.32 0.32 0.0 0 0 477.66 990.49
  L 457.26 990.48
  A 0.32 0.32 0.0 0 0 456.94 990.80
  L 456.95 1109.94
  A 0.32 0.32 0.0 0 0 457.27 1110.26
  L 513.89 1110.27
  A 0.32 0.32 0.0 0 0 514.21 1109.95
  L 514.22 1090.95
  A 0.32 0.32 0.0 0 0 513.90 1090.63
  L 478.29 1090.62
  Z
  M 529.87 1096.10
  Q 535.20 1103.62 543.57 1107.79
  Q 543.75 1107.88 543.95 1107.87
  Q 544.14 1107.87 544.34 1107.87
  Q 544.63 1107.87 544.90 1108.02
  Q 550.42 1111.04 557.73 1111.42
  Q 577.01 1112.40 589.99 1099.17
  Q 590.29 1098.87 590.29 1099.29
  L 590.27 1109.77
  Q 590.27 1110.27 590.77 1110.27
  L 609.42 1110.26
  Q 609.85 1110.26 609.85 1109.83
  L 609.85 1021.67
  A 0.43 0.43 0.0 0 0 609.42 1021.24
  L 590.78 1021.22
  Q 590.28 1021.22 590.28 1021.72
  L 590.23 1032.25
  A 0.49 0.49 0.0 0 1 589.38 1032.57
  Q 581.97 1024.37 571.42 1021.76
  Q 554.18 1017.51 539.66 1027.16
  Q 528.91 1034.30 523.67 1045.31
  Q 519.53 1054.00 519.58 1064.68
  Q 519.66 1078.00 525.82 1090.22
  C 526.92 1092.39 528.80 1094.59 529.87 1096.10
  Z
  M 651.79 1092.41
  A 0.35 0.35 0.0 0 1 651.52 1091.83
  L 697.51 1036.92
  A 0.35 0.35 0.0 0 0 697.59 1036.69
  L 697.58 1020.87
  A 0.35 0.35 0.0 0 0 697.23 1020.52
  L 626.02 1020.52
  A 0.35 0.35 0.0 0 0 625.67 1020.87
  L 625.68 1039.15
  A 0.35 0.35 0.0 0 0 626.03 1039.50
  L 670.77 1039.51
  A 0.35 0.35 0.0 0 1 671.05 1040.08
  L 625.75 1096.86
  A 0.35 0.35 0.0 0 0 625.67 1097.08
  L 625.67 1109.91
  A 0.35 0.35 0.0 0 0 626.02 1110.26
  L 697.22 1110.27
  A 0.35 0.35 0.0 0 0 697.57 1109.92
  L 697.59 1092.61
  A 0.35 0.35 0.0 0 0 697.24 1092.26
  L 651.79 1092.41
  Z
  M 921.23 1099.30
  L 921.25 1109.98
  Q 921.25 1110.46 921.73 1110.46
  L 940.18 1110.46
  Q 940.83 1110.46 940.83 1109.81
  L 940.83 1021.88
  Q 940.83 1021.42 940.38 1021.42
  L 921.79 1021.41
  Q 921.24 1021.41 921.24 1021.96
  L 921.24 1032.52
  A 0.30 0.29 21.9 0 1 920.74 1032.73
  Q 906.44 1019.10 888.00 1021.01
  Q 878.63 1021.98 870.63 1027.28
  Q 859.34 1034.76 854.04 1047.22
  Q 850.23 1056.17 850.68 1066.45
  C 851.39 1082.76 858.40 1098.87 873.03 1107.00
  Q 880.04 1110.89 887.67 1111.60
  C 899.93 1112.75 912.67 1108.40 920.92 1099.18
  Q 921.22 1098.84 921.23 1099.30
  Z"
/>
<path fill="#ffffff" d="
  M 670.38 931.52
  L 501.51 931.52
  A 0.32 0.32 0.0 0 1 501.19 931.20
  L 501.19 547.33
  A 0.32 0.32 0.0 0 1 501.51 547.01
  L 566.61 547.01
  A 0.32 0.32 0.0 0 1 566.93 547.33
  L 566.93 865.44
  A 0.32 0.32 0.0 0 0 567.25 865.76
  L 727.27 865.73
  A 0.32 0.32 0.0 0 1 727.51 866.26
  L 670.63 931.41
  A 0.32 0.32 0.0 0 1 670.38 931.52
  Z"
/>
<path fill="#ffffff" d="
  M 793.93 802.72
  L 694.00 701.37
  A 0.32 0.32 0.0 0 0 693.45 701.59
  L 693.45 802.54
  A 0.32 0.32 0.0 0 1 693.13 802.86
  L 633.47 802.95
  A 0.32 0.32 0.0 0 1 633.15 802.63
  L 633.15 547.70
  A 0.32 0.32 0.0 0 1 633.70 547.47
  L 793.38 705.44
  A 0.32 0.32 0.0 0 0 793.82 705.45
  L 962.40 547.44
  A 0.32 0.32 0.0 0 1 962.94 547.67
  L 962.95 637.78
  A 0.32 0.32 0.0 0 1 962.85 638.00
  L 794.38 802.73
  A 0.32 0.32 0.0 0 1 793.93 802.72
  Z"
/>
<path fill="#ffffff" d="
  M 962.95 728.78
  L 962.95 931.21
  A 0.31 0.31 0.0 0 1 962.64 931.52
  L 903.03 931.52
  A 0.31 0.31 0.0 0 1 902.72 931.21
  L 902.72 796.00
  A 0.31 0.31 0.0 0 1 902.80 795.79
  L 962.41 728.57
  A 0.31 0.31 0.0 0 1 962.95 728.78
  Z"
/>
<rect fill="#ffffff" x="958.25" y="983.02" width="17.98" height="127.24" rx="0.27"/>
<path fill="#ffffff" d="
  M 993.31 1109.95
  L 993.32 983.63
  A 0.49 0.49 0.0 0 1 993.81 983.14
  L 1010.71 983.12
  A 0.49 0.49 0.0 0 1 1011.20 983.61
  L 1011.20 1109.98
  A 0.49 0.49 0.0 0 1 1010.71 1110.47
  L 993.80 1110.44
  A 0.49 0.49 0.0 0 1 993.31 1109.95
  Z"
/>
<path fill="#ffffff" d="
  M 767.96 1032.49
  Q 769.78 1033.82 770.58 1036.01
  Q 770.73 1036.43 771.07 1036.72
  Q 773.70 1039.03 775.36 1042.14
  A 0.39 0.39 0.0 0 0 776.01 1042.19
  L 820.71 983.87
  Q 821.03 983.46 821.54 983.46
  L 838.76 983.46
  Q 839.30 983.46 839.30 984.01
  L 839.31 1109.73
  Q 839.31 1110.27 838.77 1110.27
  L 820.20 1110.26
  Q 819.65 1110.26 819.65 1109.71
  L 819.65 1021.49
  A 0.30 0.30 0.0 0 0 819.12 1021.30
  L 776.40 1075.46
  A 0.74 0.74 0.0 0 1 775.23 1075.46
  L 732.49 1021.31
  A 0.27 0.27 0.0 0 0 732.00 1021.48
  L 732.00 1109.76
  Q 732.00 1110.27 731.49 1110.27
  L 712.77 1110.26
  Q 712.28 1110.26 712.28 1109.77
  L 712.28 983.96
  Q 712.28 983.46 712.79 983.46
  L 730.19 983.46
  Q 730.65 983.46 730.93 983.83
  Q 746.90 1004.80 762.94 1025.68
  Q 763.13 1025.93 763.24 1026.32
  Q 763.30 1026.55 763.40 1026.76
  Q 763.49 1026.96 763.69 1027.12
  Q 766.14 1029.00 767.39 1031.78
  Q 767.59 1032.21 767.96 1032.49
  Z"
/>
<path fill="#ffffff" d="
  M 478.29 1090.62
  L 513.90 1090.63
  A 0.32 0.32 0.0 0 1 514.22 1090.95
  L 514.21 1109.95
  A 0.32 0.32 0.0 0 1 513.89 1110.27
  L 457.27 1110.26
  A 0.32 0.32 0.0 0 1 456.95 1109.94
  L 456.94 990.80
  A 0.32 0.32 0.0 0 1 457.26 990.48
  L 477.66 990.49
  A 0.32 0.32 0.0 0 1 477.98 990.81
  L 477.97 1090.30
  A 0.32 0.32 0.0 0 0 478.29 1090.62
  Z"
/>
<path fill="#ffffff" d="
  M 529.87 1096.10
  C 528.80 1094.59 526.92 1092.39 525.82 1090.22
  Q 519.66 1078.00 519.58 1064.68
  Q 519.53 1054.00 523.67 1045.31
  Q 528.91 1034.30 539.66 1027.16
  Q 554.18 1017.51 571.42 1021.76
  Q 581.97 1024.37 589.38 1032.57
  A 0.49 0.49 0.0 0 0 590.23 1032.25
  L 590.28 1021.72
  Q 590.28 1021.22 590.78 1021.22
  L 609.42 1021.24
  A 0.43 0.43 0.0 0 1 609.85 1021.67
  L 609.85 1109.83
  Q 609.85 1110.26 609.42 1110.26
  L 590.77 1110.27
  Q 590.27 1110.27 590.27 1109.77
  L 590.29 1099.29
  Q 590.29 1098.87 589.99 1099.17
  Q 577.01 1112.40 557.73 1111.42
  Q 550.42 1111.04 544.90 1108.02
  Q 544.63 1107.87 544.34 1107.87
  Q 544.14 1107.87 543.95 1107.87
  Q 543.75 1107.88 543.57 1107.79
  Q 535.20 1103.62 529.87 1096.10
  Z
  M 584.87 1084.12
  Q 591.50 1075.56 590.96 1065.52
  Q 589.91 1046.15 572.95 1039.05
  C 569.74 1037.71 565.64 1037.89 562.21 1038.16
  Q 557.86 1038.51 554.44 1040.34
  Q 545.31 1045.25 541.43 1054.68
  Q 539.57 1059.19 539.39 1065.06
  Q 539.20 1071.29 540.58 1075.72
  Q 543.32 1084.51 551.31 1090.08
  Q 555.51 1093.00 560.20 1093.88
  Q 565.15 1094.81 570.10 1093.95
  Q 574.77 1093.14 578.37 1090.54
  Q 581.85 1088.04 584.87 1084.12
  Z"
/>
<path fill="#ffffff" d="
  M 651.79 1092.41
  L 697.24 1092.26
  A 0.35 0.35 0.0 0 1 697.59 1092.61
  L 697.57 1109.92
  A 0.35 0.35 0.0 0 1 697.22 1110.27
  L 626.02 1110.26
  A 0.35 0.35 0.0 0 1 625.67 1109.91
  L 625.67 1097.08
  A 0.35 0.35 0.0 0 1 625.75 1096.86
  L 671.05 1040.08
  A 0.35 0.35 0.0 0 0 670.77 1039.51
  L 626.03 1039.50
  A 0.35 0.35 0.0 0 1 625.68 1039.15
  L 625.67 1020.87
  A 0.35 0.35 0.0 0 1 626.02 1020.52
  L 697.23 1020.52
  A 0.35 0.35 0.0 0 1 697.58 1020.87
  L 697.59 1036.69
  A 0.35 0.35 0.0 0 1 697.51 1036.92
  L 651.52 1091.83
  A 0.35 0.35 0.0 0 0 651.79 1092.41
  Z"
/>
<path fill="#ffffff" d="
  M 920.92 1099.18
  C 912.67 1108.40 899.93 1112.75 887.67 1111.60
  Q 880.04 1110.89 873.03 1107.00
  C 858.40 1098.87 851.39 1082.76 850.68 1066.45
  Q 850.23 1056.17 854.04 1047.22
  Q 859.34 1034.76 870.63 1027.28
  Q 878.63 1021.98 888.00 1021.01
  Q 906.44 1019.10 920.74 1032.73
  A 0.30 0.29 21.9 0 0 921.24 1032.52
  L 921.24 1021.96
  Q 921.24 1021.41 921.79 1021.41
  L 940.38 1021.42
  Q 940.83 1021.42 940.83 1021.88
  L 940.83 1109.81
  Q 940.83 1110.46 940.18 1110.46
  L 921.73 1110.46
  Q 921.25 1110.46 921.25 1109.98
  L 921.23 1099.30
  Q 921.22 1098.84 920.92 1099.18
  Z
  M 912.37 1088.12
  Q 915.92 1084.89 918.18 1081.45
  Q 920.46 1077.98 921.41 1073.35
  Q 922.86 1066.24 921.35 1059.49
  Q 918.97 1048.83 910.87 1042.92
  Q 903.46 1037.50 894.69 1038.00
  Q 885.39 1038.53 878.29 1045.91
  Q 873.75 1050.63 872.61 1054.19
  Q 865.39 1076.59 881.92 1089.74
  Q 886.20 1093.15 891.03 1094.02
  Q 898.93 1095.44 906.66 1092.21
  Q 908.93 1091.27 912.37 1088.12
  Z"
/>
<path fill="#cd0000" d="
  M 584.87 1084.12
  Q 581.85 1088.04 578.37 1090.54
  Q 574.77 1093.14 570.10 1093.95
  Q 565.15 1094.81 560.20 1093.88
  Q 555.51 1093.00 551.31 1090.08
  Q 543.32 1084.51 540.58 1075.72
  Q 539.20 1071.29 539.39 1065.06
  Q 539.57 1059.19 541.43 1054.68
  Q 545.31 1045.25 554.44 1040.34
  Q 557.86 1038.51 562.21 1038.16
  C 565.64 1037.89 569.74 1037.71 572.95 1039.05
  Q 589.91 1046.15 590.96 1065.52
  Q 591.50 1075.56 584.87 1084.12
  Z"
/>
<path fill="#cd0000" d="
  M 912.37 1088.12
  Q 908.93 1091.27 906.66 1092.21
  Q 898.93 1095.44 891.03 1094.02
  Q 886.20 1093.15 881.92 1089.74
  Q 865.39 1076.59 872.61 1054.19
  Q 873.75 1050.63 878.29 1045.91
  Q 885.39 1038.53 894.69 1038.00
  Q 903.46 1037.50 910.87 1042.92
  Q 918.97 1048.83 921.35 1059.49
  Q 922.86 1066.24 921.41 1073.35
  Q 920.46 1077.98 918.18 1081.45
  Q 915.92 1084.89 912.37 1088.12
  Z"
/>
</svg>
