<?xml version="1.0" encoding="utf-8"?>
<!-- Generator: Adobe Illustrator 26.5.0, SVG Export Plug-In . SVG Version: 6.00 Build 0)  -->
<svg version="1.1" id="Layer_1" xmlns="http://www.w3.org/2000/svg" xmlns:xlink="http://www.w3.org/1999/xlink" x="0px" y="0px"
	 viewBox="0 0 512 512" style="enable-background:new 0 0 512 512;" xml:space="preserve">
<style type="text/css">
	.st0{fill:#65676B;}
</style>
<path class="st0" d="M476.2,223.5c-14-16.8-35.9-27.3-57.1-27.3h-56.2c12.7-20.2,22.2-40.5,28-59.8c8.9-29.5,8.5-55.2-0.9-74.3
	c-10.6-21.6-32.2-33.4-60.7-33.4c-6.5,0-12.3,3.9-14.8,9.9c-22.2,53.8-80.1,131.2-134.6,182.1c-5.6-19.3-23.4-33.5-44.5-33.5H66.9
	c-25.5,0-46.3,20.8-46.3,46.3v203.6c0,25.5,20.8,46.3,46.3,46.3h68.5c15.6,0,29.4-7.8,37.8-19.7c12.7,12.2,29.5,19.7,48,19.7h172.5
	c19.1,0,36-8.1,49.1-23.5c10.8-12.7,18.4-29.8,22.1-49.5L490.3,275C493.7,256.8,488.7,238.5,476.2,223.5z M149.7,437.1
	c0,7.9-6.4,14.3-14.3,14.3H66.9c-7.9,0-14.3-6.4-14.3-14.3V233.4c0-7.9,6.4-14.3,14.3-14.3h68.5c7.9,0,14.3,6.4,14.3,14.3V437.1z
	 M458.9,269.1l-25.4,135.4c-4.3,22.7-16.9,46.9-39.8,46.9H221.2c-21.8,0-39.5-19.7-39.5-43.9V261.7
	C242,211.7,309.6,125.7,339.4,61.4c15.9,2.7,20.3,11.5,21.9,14.8c10.4,21.1,1.8,69.5-41.7,126.2c-3.7,4.8-4.3,11.4-1.7,16.8
	s8.3,8.9,14.3,8.9h86.8c11.8,0,24.6,6.2,32.5,15.7C456.1,249.3,461,258,458.9,269.1L458.9,269.1z"/>
</svg>
