<?xml version="1.0" encoding="UTF-8" standalone="no"?>
<svg xmlns="http://www.w3.org/2000/svg" version="1.2" baseProfile="tiny" viewBox="0.00 0.00 2226.00 940.00">
<path fill="#ffd400" d="
  M 269.64 202.99
  Q 268.64 194.02 270.36 184.90
  C 271.88 176.86 273.16 168.76 274.43 160.67
  C 275.56 153.47 277.99 147.40 280.50 140.65
  A 0.54 0.54 0.0 0 1 281.54 140.77
  Q 281.69 142.10 281.37 143.74
  Q 277.58 163.27 276.27 183.09
  Q 275.68 192.04 274.72 198.08
  Q 273.54 205.54 272.20 212.97
  C 271.15 218.80 271.49 224.38 271.44 230.25
  C 271.31 243.12 269.59 258.74 264.40 270.66
  A 1.12 1.12 0.0 0 1 262.27 270.43
  Q 260.89 263.52 259.60 256.76
  C 252.37 218.81 231.33 190.21 204.31 163.53
  Q 189.18 148.59 160.22 120.53
  C 148.65 109.31 137.47 96.73 129.14 82.90
  Q 121.78 70.68 120.46 56.49
  C 118.77 38.27 120.36 17.46 128.33 0.71
  A 0.93 0.93 0.0 0 1 130.08 0.92
  Q 131.64 8.49 132.91 15.70
  C 137.22 39.99 149.46 60.23 165.81 78.22
  C 175.92 89.33 186.70 100.55 198.36 112.04
  C 218.09 131.48 238.72 150.20 254.65 173.07
  Q 264.21 186.80 268.97 203.13
  A 0.34 0.34 0.0 0 0 269.64 202.99
  Z"
/>
<path fill="#ffd400" d="
  M 423.14 106.63
  C 424.39 79.27 422.13 49.57 404.89 26.84
  A 1.28 1.27 53.4 0 1 405.15 25.05
  L 437.47 0.93
  A 0.76 0.75 -18.4 0 1 438.68 1.53
  L 438.78 126.76
  Q 438.78 128.85 437.52 127.18
  L 423.91 109.11
  A 3.85 3.83 -62.4 0 1 423.14 106.63
  Z"
/>
<path fill="#ffd400" d="
  M 478.47 26.68
  C 462.31 48.29 458.03 79.37 460.33 105.51
  C 460.46 106.92 459.36 109.15 458.35 110.49
  Q 452.34 118.53 446.22 126.47
  Q 445.72 127.12 445.35 127.37
  A 0.46 0.45 -17.5 0 1 444.63 127.00
  L 444.84 1.73
  A 0.81 0.81 0.0 0 1 446.13 1.09
  L 478.25 25.17
  A 1.09 1.08 36.9 0 1 478.47 26.68
  Z"
/>
<path fill="#ffd400" d="
  M 1177.46 213.75
  C 1145.60 208.79 1121.74 183.77 1116.56 152.92
  C 1109.77 112.45 1138.17 74.30 1178.29 68.57
  Q 1184.09 67.74 1198.25 67.74
  Q 1538.25 67.74 1878.25 67.74
  Q 1891.87 67.74 1898.19 68.84
  C 1956.56 78.99 1979.28 152.07 1936.95 193.34
  Q 1914.22 215.50 1880.96 214.84
  Q 1873.13 214.68 1873.05 214.68
  Q 1537.90 214.76 1202.75 214.68
  C 1194.35 214.67 1185.05 214.93 1177.46 213.75
  Z
  M 1838.57 100.11
  A 3.44 3.44 0.0 0 0 1835.13 96.67
  L 1830.47 96.67
  A 3.44 3.44 0.0 0 0 1827.03 100.11
  L 1827.03 181.77
  A 3.44 3.44 0.0 0 0 1830.47 185.21
  L 1835.13 185.21
  A 3.44 3.44 0.0 0 0 1838.57 181.77
  L 1838.57 100.11
  Z
  M 1208.89 123.15
  Q 1220.23 141.67 1231.32 160.35
  C 1234.20 165.20 1237.21 163.95 1239.75 159.73
  Q 1250.77 141.34 1261.91 122.94
  Q 1262.25 122.39 1262.25 123.03
  L 1262.28 182.60
  A 2.59 2.59 0.0 0 0 1264.85 185.19
  L 1271.36 185.23
  A 2.73 2.73 0.0 0 0 1274.11 182.50
  Q 1274.15 142.84 1274.11 103.25
  Q 1274.11 100.13 1271.35 100.07
  C 1268.33 100.00 1265.18 99.78 1262.19 100.40
  A 1.25 1.24 9.9 0 0 1261.39 100.96
  L 1235.59 143.76
  Q 1235.31 144.22 1235.02 143.76
  L 1209.14 100.86
  Q 1208.87 100.41 1208.36 100.33
  Q 1203.94 99.62 1199.45 100.16
  C 1197.63 100.37 1196.66 101.50 1196.65 103.25
  Q 1196.43 132.71 1196.64 179.60
  C 1196.66 182.53 1196.40 184.84 1199.73 185.12
  Q 1203.33 185.42 1206.39 185.09
  A 2.35 2.34 -3.1 0 0 1208.48 182.76
  L 1208.50 123.26
  Q 1208.50 122.51 1208.89 123.15
  Z
  M 1546.43 165.29
  L 1553.33 183.38
  A 2.76 2.76 0.0 0 0 1555.78 185.14
  C 1557.96 185.24 1562.32 185.74 1564.07 184.48
  Q 1565.87 183.17 1564.89 180.63
  Q 1549.83 141.86 1534.83 103.06
  C 1534.11 101.19 1533.25 100.16 1531.25 100.07
  C 1528.25 99.94 1523.73 99.08 1522.32 102.75
  Q 1513.47 125.74 1492.09 180.61
  C 1491.13 183.07 1492.70 184.98 1495.29 185.17
  Q 1498.77 185.43 1501.87 185.06
  A 1.94 1.92 -82.7 0 0 1503.43 183.84
  L 1510.48 165.40
  A 0.62 0.61 -79.5 0 1 1511.05 165.00
  L 1546.02 165.00
  Q 1546.33 165.00 1546.43 165.29
  Z
  M 1647.19 107.46
  A 7.38 7.38 0.0 0 0 1639.81 100.08
  A 7.38 7.38 0.0 0 0 1632.43 107.46
  A 7.38 7.38 0.0 0 0 1639.81 114.84
  A 7.38 7.38 0.0 0 0 1647.19 107.46
  Z
  M 1371.71 134.19
  C 1375.70 133.96 1383.57 135.00 1386.92 133.48
  Q 1387.44 133.25 1387.57 132.70
  C 1388.43 129.20 1389.56 122.79 1383.65 122.76
  Q 1377.70 122.73 1371.71 122.76
  A 0.48 0.48 0.0 0 1 1371.23 122.29
  L 1371.10 109.57
  A 2.75 2.74 -8.7 0 0 1367.55 106.97
  L 1361.28 108.87
  A 2.44 2.44 0.0 0 0 1359.54 111.21
  L 1359.51 122.24
  Q 1359.51 122.75 1359.01 122.75
  L 1350.05 122.76
  A 2.78 2.78 0.0 0 0 1347.33 124.97
  C 1346.94 126.90 1346.30 133.74 1349.51 134.00
  Q 1351.86 134.20 1359.03 134.03
  Q 1359.56 134.02 1359.56 134.55
  Q 1359.48 151.17 1359.41 167.73
  C 1359.34 184.16 1371.70 187.48 1385.46 185.10
  C 1389.12 184.47 1388.29 177.72 1387.41 175.64
  A 2.36 2.35 75.9 0 0 1385.02 174.20
  Q 1381.40 174.55 1377.35 174.70
  C 1370.54 174.96 1371.21 170.48 1371.22 164.98
  Q 1371.23 149.87 1371.17 134.76
  Q 1371.17 134.22 1371.71 134.19
  Z
  M 1295.24 159.79
  Q 1318.49 159.74 1341.76 159.79
  C 1343.81 159.79 1345.23 158.54 1345.35 156.40
  C 1346.51 136.59 1331.93 119.51 1311.31 121.67
  C 1288.03 124.12 1276.05 147.59 1285.59 168.41
  Q 1293.74 186.18 1315.51 186.39
  Q 1332.42 186.56 1342.27 172.34
  Q 1342.92 171.40 1342.42 169.89
  C 1341.78 167.96 1338.68 166.65 1336.75 165.57
  C 1334.53 164.33 1333.41 164.87 1331.98 166.86
  Q 1325.66 175.68 1314.26 175.11
  Q 1299.16 174.35 1294.83 160.35
  Q 1294.66 159.80 1295.24 159.79
  Z
  M 1445.43 178.89
  L 1445.50 182.29
  A 2.89 2.89 0.0 0 0 1448.11 185.10
  C 1450.70 185.35 1457.14 186.34 1457.14 182.00
  Q 1457.13 153.73 1457.07 125.64
  A 2.76 2.75 -86.7 0 0 1454.65 122.91
  C 1449.74 122.30 1445.34 121.46 1445.43 128.27
  Q 1445.45 129.90 1444.23 128.82
  C 1430.62 116.78 1408.63 120.13 1398.19 134.52
  C 1382.60 155.99 1397.23 186.02 1423.74 186.40
  Q 1435.66 186.57 1444.84 178.63
  Q 1445.41 178.13 1445.43 178.89
  Z
  M 1581.53 126.95
  L 1581.09 124.88
  A 2.69 2.68 83.7 0 0 1578.44 122.75
  C 1575.02 122.78 1570.01 121.38 1570.00 126.76
  Q 1569.96 153.84 1570.00 180.92
  C 1570.00 186.13 1574.27 185.42 1578.26 185.11
  C 1580.39 184.95 1581.47 183.60 1581.47 181.43
  Q 1581.48 168.78 1581.51 156.14
  Q 1581.54 146.78 1583.06 142.79
  Q 1586.90 132.75 1598.91 132.81
  C 1604.08 132.83 1608.31 135.01 1610.57 139.55
  Q 1611.98 142.38 1612.00 149.17
  Q 1612.04 165.56 1611.98 181.92
  A 3.22 3.22 0.0 0 0 1614.93 185.14
  C 1618.18 185.41 1623.70 186.38 1623.72 181.25
  Q 1623.76 166.83 1623.72 152.39
  Q 1623.70 142.47 1622.22 137.75
  C 1617.06 121.19 1595.58 116.24 1582.15 127.17
  Q 1581.66 127.58 1581.53 126.95
  Z
  M 1668.58 126.11
  L 1668.06 124.55
  A 2.56 2.55 -7.8 0 0 1665.75 122.80
  C 1662.86 122.67 1657.13 121.59 1657.09 126.25
  Q 1656.99 139.90 1657.16 181.50
  Q 1657.18 184.92 1660.50 185.14
  C 1663.80 185.36 1668.64 185.97 1668.62 181.60
  Q 1668.55 167.40 1668.68 153.22
  Q 1668.76 144.68 1670.33 141.02
  C 1674.20 131.95 1688.96 128.59 1693.63 139.30
  Q 1694.69 141.72 1694.72 147.59
  Q 1694.80 164.42 1694.72 181.25
  C 1694.70 186.28 1700.45 185.48 1703.67 185.12
  A 2.94 2.94 0.0 0 0 1706.28 182.18
  Q 1706.18 165.23 1706.37 148.00
  C 1706.43 141.83 1709.63 135.68 1715.55 133.42
  C 1723.89 130.25 1732.26 135.73 1732.37 145.01
  Q 1732.57 163.13 1732.51 181.25
  Q 1732.51 182.82 1733.24 184.31
  A 1.02 1.02 0.0 0 0 1733.96 184.87
  C 1736.57 185.41 1743.89 186.45 1743.96 182.02
  Q 1744.12 171.82 1744.00 146.28
  Q 1743.93 130.63 1732.32 124.44
  C 1722.08 118.97 1710.16 121.15 1702.20 129.64
  Q 1701.84 130.03 1701.50 129.62
  C 1693.55 119.99 1679.10 118.84 1669.37 126.35
  Q 1668.81 126.78 1668.58 126.11
  Z
  M 1803.93 178.48
  L 1804.41 183.64
  A 1.09 1.09 0.0 0 0 1805.18 184.58
  C 1807.87 185.40 1815.72 186.75 1815.72 182.00
  Q 1815.75 154.00 1815.63 126.00
  C 1815.61 121.70 1809.98 122.51 1806.77 123.05
  Q 1804.13 123.50 1803.90 128.61
  Q 1803.86 129.61 1803.10 128.96
  Q 1793.83 121.10 1782.23 121.45
  C 1760.64 122.11 1746.26 141.85 1751.70 162.68
  C 1757.78 185.95 1785.77 193.62 1803.82 178.43
  Q 1803.92 178.35 1803.93 178.48
  Z
  M 1882.49 168.41
  Q 1882.08 172.13 1878.25 173.72
  C 1871.45 176.52 1860.60 175.54 1857.13 167.64
  C 1856.26 165.67 1854.74 164.82 1852.75 165.65
  C 1850.96 166.40 1845.61 168.89 1846.72 172.01
  C 1853.69 191.54 1891.35 191.78 1893.82 169.39
  C 1895.72 152.07 1877.83 149.94 1865.48 146.49
  C 1859.42 144.80 1857.48 137.71 1863.25 134.48
  C 1868.99 131.26 1878.56 132.24 1882.04 138.95
  C 1884.29 143.27 1888.16 140.19 1891.33 138.08
  C 1895.90 135.02 1886.64 126.60 1883.68 124.83
  C 1875.25 119.81 1861.92 120.31 1854.31 127.17
  C 1846.03 134.63 1846.05 147.67 1855.72 154.03
  C 1860.74 157.32 1869.04 158.98 1875.49 160.83
  C 1879.33 161.93 1883.00 163.79 1882.49 168.41
  Z
  M 1645.55 126.12
  A 3.44 3.44 0.0 0 0 1642.11 122.68
  L 1637.47 122.68
  A 3.44 3.44 0.0 0 0 1634.03 126.12
  L 1634.03 181.78
  A 3.44 3.44 0.0 0 0 1637.47 185.22
  L 1642.11 185.22
  A 3.44 3.44 0.0 0 0 1645.55 181.78
  L 1645.55 126.12
  Z"
/>
<path fill="#ffd400" d="
  M 0.00 649.63
  L 0.00 636.23
  Q 2.63 599.80 22.49 567.19
  C 32.30 551.09 42.21 538.02 55.35 524.72
  C 106.23 473.23 164.91 430.96 216.00 379.75
  Q 238.42 357.28 256.31 331.08
  C 279.19 297.57 287.27 260.80 275.27 221.31
  C 274.11 217.48 273.92 215.20 275.29 211.69
  A 0.38 0.38 0.0 0 1 276.02 211.82
  Q 276.00 216.78 276.78 221.87
  Q 277.07 223.73 278.62 223.98
  Q 279.23 224.07 279.20 223.46
  C 278.81 214.81 278.13 205.56 278.23 197.56
  Q 278.59 168.47 285.10 139.85
  A 1.62 1.62 0.0 0 1 287.03 138.62
  C 295.04 140.38 303.68 142.50 311.81 141.88
  C 329.38 140.54 344.56 134.43 359.43 125.39
  C 361.37 124.22 363.40 123.68 365.52 123.15
  Q 391.88 116.58 418.17 110.09
  A 3.99 3.97 -24.8 0 1 422.36 111.62
  Q 429.87 121.99 437.97 132.79
  C 439.29 134.55 439.79 136.17 439.78 138.52
  Q 439.77 150.76 439.72 163.00
  C 439.69 169.81 433.12 175.67 427.85 179.26
  C 407.69 192.96 382.32 203.01 362.09 211.30
  C 359.48 212.37 357.58 215.15 355.73 217.54
  Q 330.42 250.07 305.15 282.63
  Q 303.25 285.07 304.54 286.80
  Q 305.30 287.80 306.07 286.81
  Q 333.39 251.64 359.90 217.35
  C 360.95 215.99 362.66 214.55 364.24 213.93
  C 389.46 203.93 417.23 193.03 437.72 175.52
  Q 438.28 175.05 438.28 175.78
  L 438.27 191.75
  A 2.79 2.79 0.0 0 1 436.72 194.25
  C 402.10 211.66 377.74 244.41 365.97 280.71
  A 0.68 0.67 -87.8 0 0 366.77 281.58
  Q 400.06 273.32 434.36 275.16
  A 0.67 0.67 0.0 0 0 434.56 273.84
  Q 412.06 268.08 388.82 268.54
  A 1.54 1.54 0.0 0 1 387.35 266.46
  Q 400.67 231.25 427.94 204.95
  C 432.01 201.02 434.01 198.96 437.53 196.54
  A 0.54 0.54 0.0 0 1 438.37 196.98
  Q 439.14 296.97 437.95 396.96
  A 0.84 0.84 0.0 0 1 436.66 397.66
  L 308.17 317.29
  A 1.13 1.13 0.0 0 0 306.48 318.53
  C 307.19 321.26 315.30 325.50 317.99 327.31
  A 0.45 0.45 0.0 0 1 317.74 328.13
  Q 312.46 328.09 306.98 328.26
  Q 306.60 328.27 306.32 328.44
  Q 305.91 328.68 305.77 328.89
  A 1.15 1.14 -72.6 0 0 306.70 330.67
  Q 313.78 330.79 320.83 330.74
  C 322.54 330.73 324.57 331.36 326.00 332.26
  Q 381.64 367.31 437.57 401.90
  C 439.18 402.90 439.76 404.92 439.76 406.91
  Q 439.76 451.42 439.76 495.81
  A 0.25 0.24 22.7 0 1 439.34 495.98
  Q 423.41 480.08 403.80 468.73
  C 401.87 467.61 401.14 465.67 401.06 463.34
  C 398.87 404.06 350.32 375.87 297.46 368.80
  Q 297.37 368.79 296.53 368.63
  Q 295.05 368.34 294.57 369.41
  A 1.19 1.19 0.0 0 0 295.51 371.08
  C 322.42 374.41 350.03 383.65 370.55 401.92
  C 372.11 403.31 373.12 406.37 373.22 408.73
  C 373.36 412.00 374.44 423.02 372.25 425.12
  A 0.79 0.78 -48.0 0 1 371.23 425.18
  L 367.47 422.32
  A 3.33 3.33 0.0 0 0 364.15 421.91
  C 344.51 430.29 330.21 422.70 317.94 407.49
  A 1.85 1.84 54.5 0 0 315.53 407.08
  L 313.06 408.61
  A 0.44 0.44 0.0 0 1 312.44 408.02
  C 318.73 396.52 327.41 393.11 338.59 388.74
  A 0.53 0.52 -46.8 0 0 338.56 387.75
  L 294.11 373.37
  A 1.71 1.70 -62.6 0 0 292.23 373.97
  C 288.49 378.95 289.73 383.80 291.23 390.26
  Q 292.37 395.19 294.51 399.91
  A 1.93 1.92 74.5 0 0 296.48 401.03
  C 300.53 400.56 304.29 399.33 308.24 397.33
  Q 317.45 392.66 326.78 387.94
  A 0.41 0.41 0.0 0 1 327.32 388.52
  L 327.12 388.85
  A 1.75 1.73 3.8 0 1 326.31 389.55
  C 318.20 393.02 305.55 401.20 303.63 410.04
  C 303.29 411.63 303.96 413.56 305.48 414.11
  C 308.85 415.32 310.41 415.86 312.29 419.20
  Q 315.50 424.91 320.91 428.70
  A 0.40 0.39 68.7 0 1 320.60 429.41
  L 315.40 428.26
  A 0.61 0.60 -16.3 0 0 314.84 429.28
  Q 330.04 444.37 347.98 454.82
  C 349.70 455.82 350.28 457.24 350.25 459.31
  Q 349.98 475.17 349.72 491.52
  A 0.62 0.62 0.0 0 0 350.87 491.84
  Q 356.73 481.67 362.55 471.07
  Q 371.23 455.26 375.27 442.03
  Q 375.43 441.51 375.81 441.90
  C 376.45 442.57 376.81 443.68 376.57 444.65
  C 372.07 463.12 362.35 478.52 353.66 494.64
  C 350.96 499.66 349.75 503.61 349.75 509.66
  Q 349.74 546.84 349.76 584.00
  C 349.77 588.55 354.78 592.27 357.78 595.16
  A 1.01 1.00 34.7 0 0 359.39 594.87
  L 363.93 585.32
  A 0.37 0.36 18.0 0 1 364.34 585.12
  L 364.67 585.19
  Q 364.95 585.25 364.83 585.50
  L 359.40 597.61
  A 7.38 7.36 -40.1 0 0 358.98 602.41
  Q 364.49 624.47 370.21 647.21
  C 370.84 649.73 373.57 653.54 370.99 655.62
  Q 370.50 656.01 370.48 656.63
  L 369.92 679.12
  A 0.73 0.73 0.0 0 0 371.37 679.28
  L 373.10 670.29
  A 0.50 0.49 34.9 0 1 374.01 670.13
  Q 378.44 677.46 379.42 685.99
  A 0.51 0.51 0.0 0 0 380.35 686.22
  C 383.15 682.07 386.33 676.40 390.71 673.76
  C 397.51 669.65 397.00 692.03 397.07 694.59
  A 0.48 0.47 65.2 0 0 397.90 694.90
  C 400.16 692.34 399.51 681.56 399.10 678.24
  C 398.41 672.76 395.76 666.50 394.14 660.63
  C 390.57 647.71 392.54 633.81 403.23 624.79
  A 0.40 0.40 0.0 0 1 403.82 625.33
  C 397.90 633.84 395.03 643.02 397.32 653.25
  Q 398.28 657.54 401.84 671.73
  Q 402.38 673.91 401.46 681.27
  A 0.32 0.32 0.0 0 0 402.04 681.49
  L 402.85 680.32
  Q 403.53 679.33 403.80 680.50
  L 407.26 695.53
  A 0.48 0.47 -44.2 0 0 408.18 695.54
  C 408.95 692.63 410.31 685.61 413.05 684.26
  Q 414.32 683.63 414.69 685.00
  Q 417.13 693.92 419.07 702.25
  C 419.28 703.16 420.20 704.22 421.07 704.86
  Q 430.95 712.18 436.41 723.30
  Q 438.05 726.65 439.86 729.93
  Q 440.24 730.62 440.51 729.88
  C 442.15 725.37 437.97 717.52 435.87 713.35
  Q 430.94 703.57 421.78 697.70
  A 3.52 3.50 -82.9 0 1 420.31 695.80
  L 414.20 676.64
  A 0.86 0.86 0.0 0 0 412.73 676.34
  Q 409.82 679.77 408.14 683.88
  A 0.61 0.61 0.0 0 1 406.96 683.72
  Q 405.88 673.57 413.76 667.29
  Q 414.74 666.50 414.86 667.76
  Q 416.23 681.87 424.65 693.24
  A 0.64 0.64 0.0 0 0 425.73 693.16
  Q 427.40 690.03 430.92 691.30
  A 0.87 0.87 0.0 0 0 432.03 690.78
  L 433.31 687.29
  A 0.56 0.56 0.0 0 1 434.29 687.16
  L 436.79 690.68
  A 1.29 1.29 0.0 0 0 439.04 690.41
  C 441.53 684.17 441.60 677.69 441.29 671.03
  C 441.01 665.01 438.39 659.39 436.19 653.78
  A 0.55 0.55 0.0 0 0 435.43 653.49
  Q 434.24 654.07 434.17 655.51
  A 0.48 0.47 20.4 0 1 433.40 655.86
  C 429.64 652.91 429.68 644.31 430.63 640.60
  Q 430.84 639.81 431.31 640.48
  L 432.88 642.69
  Q 434.73 645.29 436.14 642.43
  L 441.77 630.99
  Q 442.60 629.32 443.23 631.07
  Q 445.42 637.16 448.90 642.59
  A 1.65 1.64 53.3 0 0 451.35 642.95
  L 453.21 641.35
  A 0.47 0.46 -24.7 0 1 453.97 641.63
  Q 455.21 649.30 451.34 655.96
  A 0.47 0.46 -42.8 0 1 450.52 655.93
  L 449.30 653.48
  A 0.51 0.51 0.0 0 0 448.37 653.52
  C 446.36 658.69 443.63 664.19 443.40 669.72
  C 443.22 673.83 442.25 687.50 444.58 690.46
  A 1.33 1.32 43.9 0 0 446.70 690.42
  L 449.07 687.15
  A 0.64 0.63 -35.7 0 1 450.20 687.33
  L 451.23 690.69
  A 0.64 0.63 -12.8 0 0 451.93 691.13
  L 454.91 690.70
  Q 455.28 690.64 455.51 690.93
  L 457.54 693.51
  Q 457.98 694.07 458.42 693.51
  Q 466.82 682.76 468.30 669.13
  Q 468.65 665.87 471.05 668.11
  Q 477.63 674.25 476.93 683.50
  A 0.50 0.49 30.7 0 1 476.02 683.73
  L 471.44 676.67
  A 1.04 1.04 0.0 0 0 469.58 676.89
  Q 466.40 686.04 463.82 695.01
  C 463.53 696.04 462.77 697.04 461.78 697.72
  Q 447.78 707.51 443.68 724.33
  Q 442.97 727.25 443.74 730.07
  A 0.42 0.42 0.0 0 0 444.51 730.15
  C 449.66 720.31 453.75 711.43 463.35 704.99
  C 464.40 704.29 464.70 703.46 465.00 702.34
  Q 467.14 694.39 469.54 685.88
  A 1.70 1.64 -15.0 0 1 469.96 685.18
  Q 472.10 683.09 473.41 686.61
  Q 475.10 691.14 476.23 695.38
  A 0.71 0.70 -49.1 0 0 477.61 695.28
  Q 478.51 687.69 480.87 680.89
  Q 481.78 678.26 481.97 675.43
  Q 482.50 667.61 485.26 659.25
  Q 491.18 641.29 480.51 625.79
  Q 480.15 625.27 480.77 625.38
  Q 481.77 625.56 482.47 626.29
  C 490.54 634.65 492.32 644.97 490.68 656.09
  C 488.70 669.51 479.99 680.26 486.65 694.23
  A 0.32 0.32 0.0 0 0 487.26 694.07
  C 487.00 689.78 487.06 675.50 491.57 673.48
  Q 492.01 673.28 492.46 673.43
  C 496.51 674.74 501.67 682.75 503.78 686.27
  A 0.60 0.60 0.0 0 0 504.88 686.06
  Q 506.20 677.96 509.89 670.72
  C 512.16 666.27 511.67 659.92 511.44 655.09
  A 0.62 0.62 0.0 0 0 510.23 654.94
  L 503.06 678.77
  A 0.29 0.29 0.0 0 1 502.56 678.88
  C 499.02 674.93 496.85 671.41 491.20 670.30
  Q 490.54 670.17 490.92 669.61
  C 493.49 665.80 496.87 667.70 500.68 667.95
  C 506.27 668.32 506.26 659.72 506.54 656.31
  C 506.78 653.33 508.36 650.83 507.10 647.31
  Q 506.94 646.85 507.33 646.56
  C 510.74 644.02 505.81 634.70 503.95 632.18
  Q 503.67 631.79 504.11 631.62
  Q 504.42 631.49 504.56 631.65
  Q 506.73 634.03 508.48 637.19
  A 0.58 0.57 29.8 0 0 509.56 636.90
  L 509.45 632.73
  Q 509.44 632.42 509.75 632.52
  Q 509.88 632.56 510.01 632.60
  Q 510.05 632.61 510.05 632.75
  L 509.98 649.70
  A 0.54 0.54 0.0 0 0 511.04 649.84
  L 523.11 602.20
  A 6.97 6.94 40.4 0 0 522.74 597.72
  L 518.15 587.19
  Q 517.92 586.67 518.48 586.72
  Q 518.75 586.74 518.92 587.04
  Q 520.97 590.83 522.59 594.79
  A 1.01 1.01 0.0 0 0 524.20 595.16
  Q 527.13 592.54 529.91 589.45
  C 532.18 586.95 532.41 584.43 532.40 581.25
  Q 532.34 543.37 532.44 505.50
  C 532.45 502.95 531.95 500.41 530.68 497.98
  Q 524.39 485.93 517.88 474.00
  C 515.20 469.10 503.40 445.81 507.00 441.94
  A 0.71 0.71 0.0 0 1 508.22 442.27
  Q 509.80 449.44 513.14 456.16
  Q 521.43 472.87 531.42 488.84
  A 0.36 0.36 0.0 0 0 532.03 488.83
  Q 532.28 488.40 532.27 487.75
  Q 532.08 472.50 531.87 457.25
  C 531.85 456.12 533.44 454.75 534.56 454.10
  Q 551.26 444.32 565.21 430.86
  Q 565.86 430.23 564.96 430.14
  L 563.18 429.94
  A 0.58 0.57 30.6 0 1 562.91 428.90
  Q 568.06 425.30 570.91 419.82
  C 572.74 416.30 574.00 415.96 577.46 414.72
  C 579.17 414.11 579.90 412.00 579.50 410.19
  C 577.56 401.50 564.23 393.06 556.36 389.48
  Q 555.62 389.14 555.83 388.38
  Q 555.97 387.89 556.43 388.13
  C 568.16 394.27 577.55 400.08 585.53 401.31
  A 1.14 1.14 0.0 0 0 586.47 401.02
  Q 587.55 400.05 588.28 398.23
  Q 592.88 386.79 592.96 373.63
  A 1.33 1.32 84.7 0 1 594.02 372.34
  Q 595.72 372.00 595.32 374.26
  Q 581.96 450.46 567.73 526.32
  Q 567.31 528.55 568.86 526.89
  Q 568.96 526.77 569.56 525.63
  Q 573.21 518.61 576.77 511.61
  Q 577.95 509.28 578.00 511.90
  Q 578.27 525.73 578.86 540.87
  Q 579.04 545.42 580.94 548.09
  Q 586.67 556.12 592.27 563.12
  Q 593.19 564.27 594.01 563.04
  L 632.94 504.16
  A 0.35 0.33 -54.6 0 0 632.87 503.70
  Q 632.48 503.41 632.02 504.00
  Q 613.39 528.15 594.79 552.54
  A 1.38 1.37 43.3 0 1 592.65 552.60
  C 590.07 549.57 585.15 544.62 585.19 540.50
  Q 585.40 522.49 586.04 504.50
  Q 586.19 500.23 588.04 496.36
  Q 610.02 450.29 631.73 404.09
  Q 635.99 395.03 640.73 386.24
  Q 653.35 362.87 665.86 339.58
  A 0.70 0.69 -60.1 0 0 665.62 338.66
  C 651.15 329.58 642.38 315.30 635.24 300.25
  Q 634.46 298.60 634.92 297.49
  A 1.50 1.50 0.0 0 1 637.80 297.97
  Q 637.89 299.40 638.85 300.32
  A 1.95 1.63 76.7 0 0 639.17 300.56
  C 643.12 302.90 651.15 308.18 655.59 306.01
  A 1.65 1.64 44.1 0 0 655.54 303.03
  L 651.11 301.06
  A 1.27 1.27 0.0 0 1 650.90 298.85
  C 654.42 296.40 653.15 291.51 648.49 291.36
  C 645.72 291.27 639.86 290.67 637.44 291.76
  C 636.30 292.27 635.21 294.11 633.82 293.98
  A 1.10 1.10 0.0 0 1 632.92 292.45
  Q 635.18 287.27 640.87 286.41
  C 643.97 285.94 643.87 278.38 637.49 280.75
  Q 633.57 282.22 629.49 283.16
  A 0.86 0.84 66.6 0 1 628.58 282.79
  C 625.12 277.43 628.91 274.62 633.11 271.20
  Q 636.03 268.81 639.56 267.27
  Q 642.46 266.00 640.73 263.65
  A 1.57 1.56 -25.0 0 0 639.08 263.06
  L 624.14 266.81
  A 0.67 0.66 -29.2 0 1 623.49 266.63
  C 621.04 264.11 622.08 261.92 624.50 259.88
  Q 638.46 248.08 651.19 234.94
  Q 653.37 232.69 657.01 231.51
  C 662.66 229.67 668.84 234.36 671.59 238.90
  Q 676.10 246.36 675.85 255.12
  C 675.73 259.42 676.88 265.42 675.57 268.99
  Q 672.47 277.47 668.08 285.26
  A 2.34 2.34 0.0 0 0 668.00 287.40
  C 669.64 290.93 665.59 294.16 663.85 296.93
  C 661.25 301.08 659.77 303.63 659.92 308.19
  A 1.25 1.25 0.0 0 0 661.48 309.36
  C 663.82 308.77 665.46 303.36 666.25 301.17
  Q 667.16 298.61 669.02 295.64
  C 672.78 289.63 675.28 281.78 677.12 274.97
  C 680.79 261.33 682.06 250.73 675.33 238.42
  C 671.68 231.73 664.11 226.20 656.30 228.28
  C 652.43 229.32 647.87 233.37 644.40 236.89
  Q 633.52 247.91 621.85 257.68
  A 0.94 0.93 62.6 0 1 620.35 257.20
  Q 608.45 212.85 604.36 167.81
  C 603.66 160.14 601.86 151.05 601.36 142.60
  A 0.45 0.45 0.0 0 1 602.24 142.43
  C 603.85 147.01 604.99 150.69 607.73 155.08
  Q 611.18 160.63 612.98 166.97
  A 0.73 0.73 0.0 0 0 614.36 167.05
  C 621.66 149.07 632.23 128.23 653.07 123.41
  A 0.47 0.47 0.0 0 1 653.44 124.25
  C 646.90 128.81 642.03 135.67 640.66 143.83
  A 0.79 0.79 0.0 0 0 642.00 144.52
  C 646.17 140.34 650.24 135.32 656.61 135.24
  A 0.74 0.74 0.0 0 1 657.22 136.41
  L 646.90 150.84
  Q 645.78 152.42 647.71 152.31
  Q 666.94 151.19 684.75 158.53
  A 0.23 0.22 -51.5 0 1 684.79 158.92
  Q 681.40 161.26 677.51 162.57
  Q 672.89 164.11 671.30 165.12
  Q 667.82 167.30 665.06 170.22
  A 0.60 0.60 0.0 0 0 665.44 171.23
  Q 693.96 174.05 705.33 199.74
  C 712.04 214.92 713.51 230.41 713.52 247.63
  Q 713.53 264.09 711.04 281.99
  Q 710.63 285.00 713.15 287.34
  Q 756.42 327.46 769.59 384.87
  A 0.77 0.77 0.0 0 1 768.53 385.74
  L 754.10 379.20
  A 0.90 0.90 0.0 0 0 752.93 380.43
  Q 764.18 402.11 769.96 425.85
  Q 770.12 426.53 769.42 426.53
  L 767.19 426.53
  A 0.57 0.56 -4.4 0 0 766.63 427.18
  Q 767.03 429.61 768.08 433.00
  Q 771.39 443.75 768.89 455.49
  C 767.84 460.39 770.20 469.30 770.47 475.92
  A 0.41 0.41 0.0 0 1 769.92 476.32
  L 765.24 474.71
  Q 763.73 474.19 763.05 475.64
  Q 755.09 492.64 755.91 510.49
  C 756.76 529.27 757.09 546.36 753.38 566.01
  Q 746.90 600.32 724.34 626.64
  Q 722.62 628.65 721.22 626.40
  Q 716.23 618.37 710.15 610.34
  Q 708.84 608.62 707.63 608.27
  Q 706.14 607.85 706.68 609.31
  C 712.76 625.73 714.48 647.42 703.51 662.34
  Q 701.37 665.25 701.12 666.47
  C 696.23 690.04 690.96 712.78 693.56 737.05
  C 693.76 738.94 694.58 741.50 694.56 743.81
  A 0.41 0.41 0.0 0 1 693.79 744.01
  Q 678.94 717.40 680.07 686.79
  A 0.58 0.58 0.0 0 0 679.06 686.38
  C 668.86 697.55 662.69 713.88 660.98 728.68
  A 0.63 0.63 0.0 0 1 659.80 728.89
  L 657.22 723.78
  A 0.40 0.40 0.0 0 0 656.46 723.91
  Q 650.62 775.34 611.66 808.91
  Q 610.58 809.84 610.76 808.42
  Q 611.52 802.43 612.81 795.80
  Q 614.73 785.89 614.77 776.12
  A 0.96 0.96 0.0 0 0 613.70 775.16
  Q 613.44 775.19 613.08 775.57
  Q 596.01 794.00 585.89 811.46
  C 580.54 820.70 583.69 831.64 590.04 839.45
  Q 595.59 846.28 604.96 848.34
  A 0.44 0.44 0.0 0 1 605.01 849.18
  C 594.43 853.05 581.73 853.41 573.25 844.72
  A 0.68 0.67 22.4 0 0 572.09 845.20
  Q 572.37 863.68 558.51 875.42
  Q 557.00 876.70 556.84 874.72
  L 555.72 860.25
  A 1.05 1.01 -64.0 0 0 555.57 859.79
  Q 554.29 857.80 554.12 859.50
  Q 552.82 871.86 543.66 880.47
  A 0.50 0.49 62.3 0 1 542.84 880.21
  Q 541.96 876.10 541.06 871.72
  Q 540.91 870.99 540.73 870.99
  A 1.47 1.05 -83.4 0 0 539.60 872.24
  Q 538.20 880.77 543.12 887.66
  A 0.39 0.38 82.8 0 1 542.67 888.25
  Q 537.97 886.38 534.05 883.21
  A 0.61 0.61 0.0 0 0 533.06 883.63
  C 532.71 887.87 533.31 892.66 532.04 896.73
  A 0.55 0.55 0.0 0 1 530.99 896.74
  Q 529.62 892.70 526.56 889.70
  Q 525.28 888.44 525.12 890.23
  Q 523.64 906.05 528.99 920.93
  A 0.29 0.29 0.0 0 1 528.53 921.24
  Q 516.50 910.40 509.03 896.06
  A 0.81 0.80 45.6 0 0 507.61 896.04
  C 503.65 903.29 504.13 908.87 504.31 916.95
  A 0.33 0.33 0.0 0 1 503.70 917.13
  Q 495.95 903.91 492.47 888.99
  Q 492.17 887.71 491.67 888.93
  Q 481.65 913.14 486.18 938.99
  A 0.74 0.74 0.0 0 1 484.98 939.69
  C 474.32 930.83 467.53 915.05 463.67 902.12
  Q 462.51 898.20 461.67 902.20
  C 458.75 916.15 454.14 926.82 443.97 937.72
  Q 442.76 939.01 441.63 939.42
  A 1.01 1.01 0.0 0 1 440.59 939.22
  C 428.93 928.84 424.23 915.66 421.01 900.86
  A 0.62 0.62 0.0 0 0 419.82 900.79
  Q 416.63 909.76 413.26 918.01
  Q 408.38 929.96 398.26 939.71
  A 1.14 1.13 -14.7 0 1 396.37 938.61
  C 400.56 922.57 397.19 903.91 391.12 888.66
  A 0.49 0.49 0.0 0 0 390.18 888.73
  Q 386.62 904.02 379.08 917.80
  A 0.32 0.31 -29.6 0 1 378.49 917.64
  C 378.74 910.02 379.31 902.46 374.94 895.73
  A 0.59 0.59 0.0 0 0 373.92 895.77
  Q 366.31 910.04 354.55 921.09
  A 0.50 0.50 0.0 0 1 353.74 920.54
  C 357.38 911.43 359.18 899.59 357.55 889.98
  A 0.55 0.55 0.0 0 0 356.67 889.65
  Q 353.16 892.46 351.90 896.78
  A 0.52 0.52 0.0 0 1 350.90 896.78
  Q 349.20 890.70 350.30 884.55
  A 1.10 1.09 -14.4 0 0 348.53 883.51
  Q 344.77 886.54 340.24 888.13
  A 0.45 0.45 0.0 0 1 339.74 887.43
  Q 345.15 880.65 343.39 871.94
  A 0.81 0.80 -44.9 0 0 341.81 871.94
  L 340.21 879.54
  A 0.76 0.76 0.0 0 1 338.96 879.95
  Q 329.75 871.77 328.49 859.39
  A 0.63 0.63 0.0 0 0 327.23 859.39
  L 325.66 874.61
  A 0.76 0.76 0.0 0 1 324.61 875.24
  Q 322.65 874.41 320.91 872.58
  C 313.58 864.85 311.29 855.89 310.36 845.52
  A 0.83 0.83 0.0 0 0 308.91 845.04
  C 301.33 853.51 287.58 852.96 278.03 849.19
  A 0.48 0.48 0.0 0 1 278.09 848.27
  C 289.69 845.34 298.19 835.82 299.66 824.11
  C 300.71 815.66 294.68 807.12 289.84 800.63
  Q 279.95 787.35 269.57 775.41
  A 0.86 0.86 0.0 0 0 268.06 776.01
  Q 268.67 791.94 272.22 807.51
  Q 272.81 810.07 270.74 808.45
  Q 261.61 801.27 253.54 790.93
  Q 230.63 761.58 226.59 724.52
  Q 226.39 722.73 225.50 724.30
  L 223.01 728.72
  A 0.55 0.55 0.0 0 1 221.99 728.53
  Q 220.35 716.81 215.76 705.94
  A 0.72 0.71 -36.3 0 0 214.55 705.76
  C 208.23 713.24 204.03 720.81 199.37 729.37
  A 2.12 2.12 0.0 0 1 195.47 728.95
  C 191.24 714.39 188.22 696.34 191.02 681.77
  C 195.60 657.97 214.31 645.40 229.16 627.62
  C 236.47 618.88 239.97 612.28 241.14 601.49
  Q 241.32 599.83 242.67 598.28
  Q 243.10 597.79 243.39 598.38
  Q 246.74 605.09 248.73 612.19
  Q 250.37 618.04 251.04 612.00
  Q 252.38 599.75 251.14 584.40
  C 251.01 582.80 250.15 579.61 249.40 578.11
  C 235.34 550.14 215.50 528.63 192.01 506.17
  Q 190.92 505.13 192.02 504.10
  L 233.71 465.41
  Q 234.05 465.10 233.97 464.66
  L 232.60 456.97
  A 0.82 0.81 63.6 0 0 231.24 456.51
  C 214.48 472.03 197.46 487.00 179.47 500.75
  C 157.95 517.20 138.07 531.51 115.81 551.05
  Q 89.79 573.88 68.05 600.81
  C 48.68 624.80 32.09 653.99 27.08 684.50
  C 24.87 697.90 25.48 711.49 28.37 725.00
  Q 29.41 729.88 30.35 735.03
  A 0.47 0.47 0.0 0 1 29.55 735.43
  Q 26.93 732.60 25.04 728.87
  Q 18.57 716.09 12.88 702.94
  Q 1.82 677.39 0.00 649.63
  Z
  M 631.81 168.13
  Q 630.52 168.60 630.95 167.29
  Q 633.53 159.46 637.26 152.32
  Q 638.16 150.59 638.23 148.47
  Q 638.61 137.60 645.56 129.04
  A 0.38 0.37 10.4 0 0 645.15 128.45
  C 637.89 130.83 630.48 140.53 626.54 146.53
  C 621.08 154.84 616.51 165.01 613.80 174.99
  A 0.48 0.48 0.0 0 1 612.86 174.97
  L 611.37 168.26
  A 0.37 0.37 0.0 0 0 610.66 168.23
  C 608.17 176.55 610.32 187.65 611.40 196.33
  Q 611.61 198.05 613.01 197.03
  C 620.94 191.27 626.59 183.30 632.86 175.61
  Q 640.31 166.48 653.23 160.77
  Q 664.21 155.92 676.82 159.30
  Q 677.23 159.41 677.60 159.32
  Q 678.04 159.21 678.37 159.08
  A 0.47 0.47 0.0 0 0 678.34 158.20
  C 667.89 155.00 655.21 151.80 644.48 155.90
  Q 642.43 156.68 640.80 158.61
  C 638.96 160.78 634.21 167.25 631.81 168.13
  Z
  M 686.24 184.21
  L 684.88 206.96
  A 0.59 0.59 0.0 0 0 686.00 207.27
  L 694.82 190.37
  A 0.72 0.71 -43.5 0 1 696.10 190.40
  Q 708.03 216.35 701.78 243.66
  C 699.20 254.96 693.05 267.76 690.58 276.88
  Q 687.98 286.49 688.77 296.67
  A 0.92 0.92 0.0 0 0 690.51 297.00
  Q 695.25 287.36 696.94 276.76
  A 0.86 0.86 0.0 0 1 698.29 276.19
  L 708.07 283.16
  A 0.64 0.64 0.0 0 0 709.07 282.73
  Q 713.20 255.98 710.74 229.02
  C 708.24 201.54 694.49 171.55 661.56 173.61
  Q 659.81 173.72 660.77 172.25
  Q 663.75 167.72 669.09 164.30
  Q 669.64 163.95 669.59 163.33
  A 0.40 0.40 0.0 0 0 669.15 162.96
  Q 658.18 163.92 649.67 169.78
  Q 645.70 172.51 637.78 181.68
  C 629.88 190.83 620.94 199.29 613.51 208.79
  A 3.51 3.48 60.7 0 0 612.80 211.35
  L 614.34 224.51
  A 1.44 1.44 0.0 0 0 616.59 225.52
  C 619.77 223.30 622.35 221.11 625.25 217.88
  C 635.37 206.63 646.65 202.38 661.02 198.83
  C 670.02 196.61 677.47 190.17 685.51 183.84
  Q 686.30 183.22 686.24 184.21
  Z
  M 434.95 298.19
  C 397.44 288.83 361.45 300.85 335.77 328.73
  A 1.23 1.22 38.4 0 0 335.99 330.57
  L 343.98 335.93
  Q 345.19 336.74 345.96 335.51
  C 361.33 311.14 387.32 299.90 415.39 299.31
  Q 425.24 299.10 434.82 299.20
  A 0.51 0.51 0.0 0 0 434.95 298.19
  Z
  M 754.43 364.06
  A 1.61 1.61 0.0 0 1 752.67 364.53
  C 723.74 354.31 691.54 349.34 662.58 362.53
  C 661.64 362.95 660.91 363.74 661.30 364.77
  A 0.57 0.56 68.1 0 0 662.04 365.09
  C 693.08 352.04 728.53 357.69 758.08 372.71
  Q 758.50 372.92 758.88 372.97
  Q 759.48 373.04 759.74 372.96
  Q 760.71 372.64 760.49 371.64
  C 756.26 351.99 747.06 335.94 735.08 320.13
  Q 734.59 319.49 734.17 319.98
  A 0.38 0.37 -43.0 0 0 734.15 320.45
  Q 748.43 339.72 754.49 362.75
  Q 754.74 363.69 754.43 364.06
  Z
  M 715.55 322.52
  C 711.18 340.04 697.13 333.77 684.98 337.01
  C 674.83 339.73 666.58 349.74 662.18 359.31
  A 0.39 0.39 0.0 0 0 662.71 359.83
  Q 663.17 359.61 663.53 359.04
  C 670.16 348.43 679.79 339.34 693.11 339.82
  Q 700.06 340.08 700.83 339.98
  Q 712.74 338.41 716.06 325.88
  Q 716.52 324.13 716.41 322.60
  A 0.44 0.44 0.0 0 0 715.55 322.52
  Z
  M 757.79 410.36
  Q 758.08 411.67 756.77 411.39
  C 725.08 404.66 689.06 402.31 657.79 411.99
  C 656.74 412.32 655.68 412.99 654.99 413.74
  A 1.02 1.02 0.0 0 0 656.08 415.40
  C 679.53 407.33 706.05 408.20 729.70 411.75
  C 740.07 413.31 751.72 416.59 762.54 419.45
  A 0.64 0.64 0.0 0 0 763.33 418.70
  Q 758.56 395.54 745.02 376.20
  A 0.60 0.60 0.0 0 0 744.01 376.24
  Q 743.71 376.73 744.12 377.39
  Q 753.99 393.08 757.79 410.36
  Z
  M 696.06 380.15
  Q 696.13 379.60 695.85 379.17
  A 0.39 0.38 34.4 0 0 695.15 379.30
  C 693.07 389.26 686.47 391.36 677.33 392.07
  C 670.12 392.63 663.75 392.21 657.67 396.65
  Q 655.89 397.95 656.95 399.97
  Q 657.19 400.43 657.63 400.17
  Q 665.40 395.63 674.06 396.07
  Q 679.81 396.37 681.30 396.13
  Q 694.20 394.06 696.06 380.15
  Z
  M 296.37 485.10
  Q 295.96 484.86 295.68 484.31
  Q 288.39 469.68 268.93 431.30
  Q 266.30 426.11 263.35 421.06
  Q 263.13 420.68 262.79 420.96
  C 260.08 423.20 258.99 425.75 260.64 429.22
  Q 276.54 462.49 292.31 495.82
  C 294.84 501.18 294.80 505.40 294.94 511.26
  Q 295.27 525.62 295.47 540.08
  C 295.54 544.96 290.87 550.25 287.47 553.45
  A 0.61 0.61 0.0 0 1 286.57 553.38
  L 271.27 533.50
  A 0.46 0.46 0.0 0 0 270.45 533.80
  Q 270.66 538.32 273.10 542.18
  Q 279.62 552.50 286.94 563.59
  A 0.92 0.92 0.0 0 0 288.44 563.64
  L 300.72 547.61
  A 6.33 6.33 0.0 0 0 302.02 543.95
  L 303.07 507.00
  A 0.42 0.42 0.0 0 1 303.86 506.83
  L 314.35 527.76
  A 0.40 0.40 0.0 0 0 315.10 527.51
  L 288.75 383.53
  A 0.85 0.85 0.0 0 0 287.10 383.42
  Q 286.56 385.11 286.84 386.74
  Q 297.23 446.53 308.41 505.75
  A 0.52 0.51 29.0 0 1 307.42 506.03
  C 294.65 473.89 284.53 440.89 274.67 407.56
  A 0.87 0.86 60.9 0 0 273.27 407.16
  L 272.80 407.57
  A 1.27 1.26 61.4 0 0 272.42 408.88
  Q 283.57 447.17 296.73 484.81
  Q 296.95 485.45 296.37 485.10
  Z
  M 341.72 403.27
  L 343.38 399.60
  A 0.64 0.64 0.0 0 0 342.66 398.70
  Q 337.13 399.88 331.59 401.21
  C 329.37 401.74 328.28 402.80 328.02 405.01
  C 327.20 412.02 330.15 414.18 334.71 418.19
  Q 337.83 420.93 339.66 421.59
  C 353.47 426.62 371.58 418.08 365.96 400.91
  A 1.35 1.34 7.3 0 0 365.40 400.19
  C 358.59 395.86 348.88 395.19 343.05 401.47
  A 1.08 1.07 66.0 0 0 342.76 402.23
  Q 342.78 403.07 342.33 403.64
  A 0.36 0.36 0.0 0 1 341.72 403.27
  Z
  M 758.42 458.10
  A 1.66 1.66 0.0 0 1 756.41 459.32
  Q 729.70 452.74 702.01 452.42
  C 683.89 452.21 665.80 455.30 650.52 464.03
  C 648.27 465.31 647.66 466.26 647.69 468.79
  A 0.74 0.74 0.0 0 0 648.80 469.42
  Q 667.47 458.41 689.50 457.25
  Q 708.85 456.24 727.88 459.22
  C 738.82 460.94 750.72 464.29 761.90 467.60
  A 1.34 1.33 -81.7 0 0 763.61 466.32
  Q 763.72 442.89 751.55 423.50
  C 751.02 422.66 750.00 421.98 749.08 422.30
  A 0.55 0.55 0.0 0 0 748.80 423.11
  C 754.54 432.13 761.01 447.34 758.42 458.10
  Z
  M 687.26 435.14
  Q 687.39 434.17 687.19 433.53
  A 0.39 0.39 0.0 0 0 686.44 433.56
  C 683.28 448.05 671.75 446.84 660.28 447.64
  C 657.38 447.84 648.87 449.24 649.75 453.26
  A 0.62 0.62 0.0 0 0 650.60 453.70
  Q 653.44 452.49 656.47 451.76
  C 661.87 450.45 667.29 451.81 672.76 450.90
  Q 685.53 448.76 687.26 435.14
  Z
  M 684.60 550.62
  Q 682.46 549.95 680.51 548.19
  C 669.20 538.01 668.44 523.25 666.40 509.21
  C 665.34 501.96 663.42 495.06 658.86 490.40
  Q 652.83 484.26 647.35 477.80
  A 0.43 0.43 0.0 0 0 646.59 478.10
  Q 646.62 478.56 646.97 479.05
  Q 650.47 483.87 653.47 489.01
  C 658.99 498.45 658.46 506.82 656.02 517.27
  C 654.21 525.06 653.37 529.74 653.98 536.58
  A 0.33 0.32 16.7 0 1 653.45 536.86
  Q 644.96 530.19 641.38 520.03
  A 0.47 0.47 0.0 0 0 640.55 519.93
  C 639.12 522.02 638.84 523.95 640.29 526.23
  C 650.60 542.53 664.96 553.71 678.64 566.37
  C 688.32 575.32 696.07 586.08 700.94 598.35
  Q 702.62 602.56 706.18 605.08
  Q 710.47 608.12 710.54 608.18
  C 715.42 612.59 718.99 619.05 722.40 624.54
  A 0.56 0.56 0.0 0 0 723.32 624.58
  C 736.89 606.44 734.49 585.92 729.64 565.14
  Q 726.38 551.21 723.34 537.24
  C 718.03 512.81 719.84 489.25 731.28 466.85
  Q 731.52 466.38 731.47 465.86
  L 731.38 465.05
  A 0.54 0.53 -24.0 0 0 730.49 464.71
  C 727.86 467.06 725.28 470.45 722.32 471.85
  C 712.77 476.38 704.50 470.01 698.32 463.14
  C 695.26 459.73 692.92 460.69 688.95 460.86
  C 683.71 461.09 680.25 463.36 679.48 468.95
  A 2.08 2.06 -59.3 0 0 679.86 470.47
  C 688.30 482.03 702.44 486.18 711.92 496.57
  C 721.38 506.94 718.68 522.07 712.30 533.20
  A 0.35 0.35 0.0 0 1 711.66 532.96
  C 715.93 511.99 707.57 497.96 688.69 488.09
  C 678.00 482.50 669.34 477.62 665.86 467.07
  A 1.16 1.15 -21.4 0 0 664.27 466.38
  L 661.30 467.74
  A 1.59 1.58 60.6 0 0 660.65 470.07
  C 664.12 475.17 668.61 480.71 671.02 486.05
  Q 673.07 490.58 673.06 493.75
  C 672.98 516.64 670.47 534.14 685.02 549.95
  A 0.41 0.41 0.0 0 1 684.60 550.62
  Z
  M 720.65 465.91
  A 0.66 0.66 0.0 0 0 720.93 465.84
  L 724.21 464.20
  A 0.66 0.66 0.0 0 0 723.98 462.95
  L 707.84 461.34
  A 0.66 0.66 0.0 0 0 707.48 462.59
  L 714.17 465.98
  A 0.66 0.66 0.0 0 0 714.48 466.05
  L 720.65 465.91
  Z
  M 737.62 519.65
  Q 737.88 529.50 736.17 539.35
  A 0.51 0.50 64.3 0 0 737.11 539.68
  C 743.91 527.19 740.97 513.95 738.24 500.75
  C 736.30 491.35 737.99 478.75 739.43 468.28
  C 739.64 466.80 738.88 466.01 737.43 465.97
  Q 736.19 465.94 735.95 467.16
  Q 733.03 482.26 734.41 497.58
  C 735.08 505.07 737.42 512.27 737.62 519.65
  Z
  M 753.28 477.84
  C 752.75 475.23 751.89 467.45 747.47 469.00
  A 1.73 1.72 73.9 0 0 746.36 471.02
  L 753.19 499.75
  A 0.33 0.33 0.0 0 0 753.82 499.77
  C 755.28 495.10 755.81 491.15 754.88 486.08
  Q 754.12 481.95 753.28 477.84
  Z
  M 546.80 632.11
  Q 546.32 634.61 546.06 636.91
  A 0.49 0.49 0.0 0 0 547.00 637.14
  Q 558.34 606.46 569.78 575.69
  C 570.67 573.28 571.51 571.14 570.48 568.75
  Q 558.58 540.99 546.55 512.85
  A 0.49 0.49 0.0 0 0 545.63 512.91
  Q 545.56 513.15 545.63 513.50
  Q 550.73 537.57 556.05 561.60
  C 557.45 567.89 558.60 571.90 557.70 576.50
  Q 552.21 604.30 546.80 632.11
  Z
  M 336.56 515.16
  Q 336.82 513.97 336.56 513.00
  A 0.40 0.40 0.0 0 0 335.81 512.95
  Q 323.90 540.55 311.92 568.09
  C 310.73 570.83 311.05 572.36 312.02 575.00
  Q 323.33 605.67 334.65 636.33
  Q 335.01 637.29 335.56 637.89
  A 0.37 0.37 0.0 0 0 336.20 637.57
  Q 330.28 606.14 324.36 574.79
  C 324.06 573.16 324.19 570.96 324.55 569.34
  Q 330.57 542.25 336.56 515.16
  Z
  M 656.03 715.23
  L 656.94 716.32
  A 0.42 0.41 -67.9 0 0 657.67 716.01
  C 655.78 697.94 653.78 686.27 660.55 671.09
  Q 662.63 666.42 664.59 661.73
  Q 675.49 635.67 667.64 608.50
  A 0.29 0.28 21.8 0 1 668.16 608.28
  C 681.86 631.29 680.70 660.37 671.10 685.28
  C 665.37 700.15 660.50 710.88 658.84 721.65
  Q 658.79 722.00 658.94 722.33
  Q 659.21 722.90 659.94 722.40
  A 0.69 0.67 -13.4 0 0 660.21 721.98
  C 663.13 707.72 670.27 690.56 681.73 680.78
  Q 682.23 680.35 682.23 681.01
  Q 682.19 687.51 682.20 694.00
  Q 682.25 713.88 690.24 732.26
  A 0.52 0.52 0.0 0 0 691.23 732.03
  C 690.20 712.49 693.05 695.88 697.69 675.51
  Q 703.13 651.64 696.06 625.54
  Q 695.82 624.64 696.11 624.16
  A 0.61 0.61 0.0 0 1 697.15 624.16
  C 703.06 633.83 703.61 642.54 703.96 653.50
  A 0.41 0.40 72.8 0 0 704.58 653.83
  Q 705.06 653.53 705.13 652.74
  C 707.16 627.73 689.18 605.09 672.48 588.52
  Q 664.89 580.98 657.68 573.08
  C 646.97 561.34 639.41 546.82 633.27 532.26
  Q 632.82 531.20 631.87 531.84
  Q 627.75 534.58 629.14 538.63
  Q 629.21 538.85 632.26 544.36
  C 637.23 553.32 644.62 561.91 641.32 572.95
  A 0.47 0.46 51.1 0 1 640.41 572.85
  C 639.43 561.79 631.36 554.08 624.70 545.99
  A 0.69 0.69 0.0 0 0 623.64 545.99
  Q 621.05 549.18 624.26 552.01
  Q 626.77 554.22 632.67 562.31
  C 635.86 566.67 637.19 570.28 635.68 575.30
  C 634.99 577.60 632.54 580.97 632.19 583.50
  Q 629.61 602.54 633.89 621.26
  Q 639.22 644.55 644.98 667.76
  Q 649.78 687.15 650.54 696.64
  Q 653.88 738.35 633.43 772.78
  Q 628.29 781.43 619.13 790.74
  C 615.03 794.91 613.46 798.37 613.73 803.93
  A 0.38 0.38 0.0 0 0 614.37 804.19
  Q 652.56 768.29 655.07 715.55
  A 0.54 0.54 0.0 0 1 656.03 715.23
  Z
  M 617.91 570.19
  C 622.73 579.66 624.92 589.00 624.40 599.00
  Q 624.35 599.97 625.14 599.75
  A 0.44 0.41 -1.8 0 0 625.43 599.46
  Q 627.57 592.32 629.68 585.18
  Q 629.89 584.49 629.88 583.85
  Q 629.87 582.81 629.75 582.49
  C 626.82 574.60 621.32 567.33 619.65 558.85
  A 0.49 0.49 0.0 0 0 618.75 558.69
  Q 616.78 561.82 616.61 565.34
  Q 616.50 567.43 617.91 570.19
  Z
  M 525.95 600.03
  C 526.59 607.95 525.86 614.86 525.11 622.69
  A 0.51 0.51 0.0 0 0 526.10 622.92
  Q 529.71 613.23 529.06 602.66
  C 528.96 600.99 529.54 598.28 530.56 597.31
  C 539.67 588.73 548.96 578.76 554.14 567.22
  Q 554.36 566.73 553.82 566.78
  Q 553.00 566.86 552.53 567.57
  Q 541.34 584.45 526.99 597.21
  C 526.33 597.81 525.87 599.02 525.95 600.03
  Z
  M 353.61 602.71
  C 353.02 609.40 354.21 616.71 356.47 623.00
  A 0.58 0.57 55.2 0 0 357.45 623.18
  Q 357.59 623.01 357.50 622.50
  Q 356.02 614.39 356.13 606.15
  C 356.19 602.25 357.93 599.36 354.12 596.15
  C 344.41 587.99 338.23 579.39 329.45 567.11
  A 0.37 0.37 0.0 0 0 328.78 567.29
  Q 328.64 568.81 329.47 570.23
  Q 338.35 585.59 351.68 597.32
  C 353.31 598.75 353.82 600.36 353.61 602.71
  Z
  M 596.86 765.59
  C 603.82 744.69 610.13 725.20 602.70 702.53
  Q 602.22 701.06 601.49 700.92
  A 1.70 1.70 0.0 0 0 599.54 703.08
  Q 606.46 725.79 599.31 748.53
  Q 594.63 763.43 587.67 777.41
  C 587.25 778.26 586.88 780.15 585.80 780.83
  Q 585.03 781.30 585.09 780.40
  C 586.39 758.22 583.76 736.91 574.24 716.66
  Q 573.79 715.71 572.75 715.92
  Q 571.13 716.27 570.24 717.63
  Q 569.93 718.10 570.14 718.62
  C 579.65 741.99 584.09 764.31 578.51 789.20
  C 576.19 799.56 571.66 808.15 565.07 816.14
  C 563.28 818.31 562.50 819.82 563.10 822.48
  C 566.73 838.84 571.88 855.00 558.85 869.08
  A 1.19 1.19 0.0 0 0 560.05 871.03
  Q 561.30 870.67 562.65 868.88
  Q 570.91 857.88 570.31 843.99
  C 569.95 835.52 569.03 826.11 570.70 818.39
  C 573.04 807.52 579.33 797.87 586.66 789.65
  Q 596.23 778.91 605.81 768.16
  Q 614.86 758.02 618.36 752.62
  C 629.84 734.86 636.20 709.00 628.88 688.11
  A 0.43 0.42 13.7 0 1 629.59 687.68
  C 651.63 710.59 632.96 745.80 617.72 766.95
  Q 616.10 769.19 616.11 770.00
  Q 616.26 780.11 615.87 789.90
  A 0.46 0.45 -27.6 0 0 616.71 790.16
  Q 632.87 765.15 640.49 737.08
  C 642.22 730.70 643.75 722.31 643.24 716.51
  Q 642.21 704.76 637.80 677.86
  C 634.20 655.88 623.10 634.41 624.10 611.74
  A 0.51 0.50 52.2 0 0 623.10 611.61
  L 621.14 621.18
  A 0.75 0.45 64.5 0 1 620.11 620.50
  C 620.14 613.96 619.75 609.14 617.54 602.72
  C 616.16 598.72 612.24 589.80 613.22 585.85
  Q 614.94 578.91 615.75 571.99
  A 0.46 0.45 66.2 0 0 614.93 571.67
  Q 614.82 571.82 614.65 572.06
  Q 614.51 572.27 614.46 572.51
  Q 612.86 581.14 611.22 589.78
  Q 610.37 594.22 612.01 597.21
  C 618.21 608.52 622.99 628.80 608.26 635.75
  A 0.83 0.82 -47.7 0 0 608.33 637.27
  C 610.75 638.14 617.77 634.24 620.47 633.29
  Q 621.08 633.07 621.13 633.72
  Q 621.85 644.64 623.20 647.78
  C 628.84 660.88 635.63 673.61 637.91 687.40
  Q 638.83 692.98 635.52 688.40
  Q 632.49 684.22 627.32 679.64
  C 624.77 677.38 622.02 673.97 621.27 671.20
  Q 616.54 653.64 614.95 649.00
  Q 613.10 643.62 608.08 639.33
  Q 607.65 638.95 607.44 639.49
  C 605.81 643.79 608.49 648.56 610.96 652.77
  Q 613.25 656.70 614.90 663.62
  C 617.50 674.60 620.32 685.52 622.92 696.51
  Q 628.12 718.55 618.10 737.49
  C 613.88 745.47 607.46 754.92 600.94 762.45
  Q 599.29 764.36 597.28 765.90
  Q 596.58 766.43 596.86 765.59
  Z
  M 254.40 688.00
  C 246.05 714.77 256.34 745.79 275.01 765.73
  C 289.13 780.80 308.99 798.38 312.91 819.85
  C 314.20 826.88 312.94 835.71 312.59 843.49
  Q 311.87 859.33 321.95 870.89
  A 1.30 1.30 0.0 0 0 323.91 870.90
  Q 324.39 870.35 324.11 869.39
  Q 323.96 868.86 323.38 868.14
  C 312.23 854.25 316.35 838.49 319.99 822.81
  C 320.35 821.26 320.52 818.58 319.67 817.55
  C 298.44 791.87 299.00 755.63 310.75 726.00
  Q 312.13 722.52 313.44 718.99
  A 0.75 0.74 -65.3 0 0 313.11 718.08
  L 309.82 716.23
  A 0.86 0.86 0.0 0 0 308.63 716.58
  C 298.81 735.36 296.36 761.01 298.28 781.63
  A 0.42 0.42 0.0 0 1 297.49 781.86
  C 285.38 758.05 274.93 731.26 283.46 704.27
  Q 283.77 703.30 283.66 702.73
  Q 283.47 701.65 282.43 701.49
  A 1.84 1.83 13.1 0 0 280.40 702.75
  C 273.24 725.42 279.22 743.58 286.24 764.84
  A 0.39 0.39 0.0 0 1 285.69 765.30
  Q 285.06 764.97 284.44 764.30
  Q 272.73 751.84 264.88 736.61
  Q 255.22 717.85 260.19 697.17
  Q 266.85 669.45 268.81 661.75
  Q 270.14 656.53 273.19 650.49
  C 274.72 647.46 275.22 644.73 274.30 641.69
  Q 273.93 640.45 273.09 641.44
  C 263.86 652.27 266.47 667.90 257.10 678.10
  Q 251.96 683.71 246.91 689.41
  Q 246.42 689.97 245.78 690.13
  A 0.42 0.42 0.0 0 1 245.26 689.69
  C 245.88 682.98 247.36 677.35 250.10 670.68
  C 255.58 657.35 261.91 647.53 262.42 633.99
  A 0.67 0.67 0.0 0 1 263.38 633.41
  Q 267.38 635.35 271.74 637.04
  Q 273.03 637.55 274.05 636.95
  A 0.90 0.89 45.2 0 0 274.05 635.41
  Q 268.03 631.78 266.47 624.88
  A 0.50 0.50 0.0 0 0 265.52 624.81
  L 264.39 627.64
  A 0.40 0.40 0.0 0 1 263.63 627.55
  C 261.56 614.92 259.33 602.02 254.41 590.20
  Q 254.19 589.65 253.76 590.07
  Q 253.51 590.32 253.49 591.08
  Q 253.48 591.47 253.64 591.93
  C 258.69 606.06 258.22 617.34 255.59 632.94
  C 253.92 642.79 253.40 651.63 248.79 661.48
  Q 246.85 665.63 246.02 669.36
  Q 241.14 691.26 238.69 713.57
  C 237.92 720.66 238.14 729.18 239.70 735.29
  Q 248.09 768.13 267.02 796.17
  A 0.45 0.44 -58.8 0 0 267.83 795.97
  Q 267.90 795.36 267.76 794.52
  Q 265.80 783.28 266.63 771.91
  Q 266.66 771.46 266.95 771.11
  L 267.82 770.04
  Q 268.12 769.67 267.83 769.29
  C 251.13 747.60 232.06 712.29 253.61 687.56
  A 0.46 0.46 0.0 0 1 254.40 688.00
  Z
  M 611.65 626.66
  A 0.90 0.90 0.0 0 0 611.61 626.25
  L 609.74 621.11
  A 0.90 0.90 0.0 0 0 608.00 621.37
  L 607.40 632.11
  A 0.90 0.90 0.0 0 0 608.68 632.97
  L 610.59 632.05
  A 0.90 0.90 0.0 0 0 611.09 631.35
  L 611.65 626.66
  Z
  M 274.48 631.90
  L 274.20 623.00
  A 0.19 0.19 0.0 0 0 274.00 622.82
  L 273.95 622.82
  A 4.48 2.30 88.2 0 0 271.80 627.37
  L 271.81 627.69
  A 4.48 2.30 88.2 0 0 274.25 632.10
  L 274.30 632.09
  A 0.19 0.19 0.0 0 0 274.48 631.90
  Z
  M 388.68 878.47
  C 392.43 884.28 395.17 894.09 396.73 899.07
  Q 396.90 899.59 397.24 899.18
  Q 397.56 898.80 397.39 898.22
  Q 391.11 877.01 385.85 855.52
  Q 384.09 848.31 383.29 841.38
  Q 382.46 834.23 381.86 827.05
  Q 381.60 823.90 382.12 819.96
  C 382.78 814.96 382.48 809.80 383.96 805.25
  Q 387.45 794.49 394.15 786.43
  C 406.42 771.64 417.15 755.33 415.02 735.64
  Q 414.89 734.47 412.89 725.98
  Q 410.33 715.17 412.38 703.46
  A 0.48 0.47 -46.0 0 1 413.31 703.44
  Q 416.63 719.95 421.33 736.54
  Q 424.01 746.01 424.78 754.25
  C 426.97 777.85 404.78 788.55 396.13 807.10
  C 390.03 820.20 390.61 837.07 390.99 851.26
  C 391.53 871.50 402.01 889.90 403.93 909.95
  Q 404.87 919.79 403.26 929.46
  A 0.63 0.63 0.0 0 0 404.41 929.91
  Q 414.91 913.92 419.41 895.28
  A 0.39 0.39 0.0 0 0 418.72 894.96
  L 414.46 900.77
  A 0.47 0.47 0.0 0 1 413.68 900.25
  Q 425.88 880.86 418.51 859.81
  C 416.19 853.20 412.19 847.28 411.50 840.35
  C 410.23 827.54 416.98 815.72 421.79 804.27
  Q 425.99 794.28 427.42 788.84
  C 432.27 770.45 430.40 754.40 426.07 736.20
  Q 424.31 728.81 422.15 721.36
  A 0.48 0.48 0.0 0 1 422.98 720.92
  C 440.25 741.23 443.70 769.14 433.69 793.94
  Q 431.45 799.50 423.34 817.83
  Q 417.95 830.00 420.81 842.46
  C 424.72 859.54 427.16 870.27 423.18 884.45
  C 421.80 889.33 421.78 892.29 422.38 896.99
  C 424.19 911.38 429.66 926.42 440.25 936.46
  A 1.88 1.87 44.1 0 0 442.87 936.42
  C 454.16 925.03 459.93 908.49 460.89 892.74
  C 461.27 886.44 458.68 879.68 458.33 874.63
  C 457.46 862.21 460.49 853.48 462.72 842.53
  C 465.46 829.07 461.42 820.03 455.65 808.11
  C 441.01 777.83 437.86 749.33 459.04 721.61
  Q 459.26 721.33 459.54 721.16
  Q 459.98 720.90 460.14 720.87
  Q 461.32 720.67 461.02 721.83
  C 457.60 734.95 453.58 750.09 452.99 762.45
  C 452.25 777.76 455.54 790.06 461.62 804.78
  C 467.39 818.78 474.37 829.49 471.23 843.85
  C 470.10 849.05 466.49 855.11 464.87 859.88
  Q 457.50 881.60 469.87 900.60
  Q 470.21 901.12 469.59 901.08
  Q 468.98 901.04 468.50 900.47
  Q 465.89 897.33 464.11 894.12
  A 0.57 0.56 21.2 0 0 463.08 894.57
  C 467.58 907.72 471.62 920.53 479.96 931.93
  Q 480.12 932.14 480.32 932.25
  Q 480.64 932.41 480.78 932.42
  Q 481.51 932.42 481.34 931.72
  C 478.56 920.15 479.25 910.74 482.01 898.34
  C 485.16 884.12 490.45 872.41 492.29 858.73
  C 493.59 849.03 492.90 836.49 492.48 826.75
  Q 491.67 808.22 479.26 794.21
  Q 467.05 780.44 464.00 775.25
  C 457.51 764.20 458.45 753.53 461.20 741.99
  Q 465.86 722.41 470.36 703.05
  A 0.38 0.38 0.0 0 1 471.10 703.04
  Q 474.06 714.38 471.10 725.34
  Q 469.11 732.69 469.10 732.72
  C 465.91 749.64 473.59 765.48 484.12 778.89
  C 492.34 789.36 502.31 801.21 501.24 814.43
  Q 501.06 816.55 501.57 818.55
  Q 502.94 824.03 501.64 829.50
  Q 500.98 832.31 501.03 834.53
  Q 501.21 842.19 499.62 848.63
  Q 495.36 865.86 490.66 883.21
  A 0.36 0.35 68.9 0 0 491.30 883.50
  C 492.24 881.97 493.22 878.30 494.57 877.32
  Q 495.09 876.94 494.94 877.57
  C 492.65 886.89 496.86 899.46 500.89 907.74
  A 0.57 0.56 -58.6 0 0 501.96 907.48
  C 501.85 900.44 501.85 893.74 503.70 886.97
  C 510.81 860.93 527.18 839.12 544.72 819.07
  C 555.89 806.29 564.21 795.78 569.70 781.96
  C 577.60 762.10 576.44 741.68 569.32 721.75
  Q 568.65 719.90 568.61 719.82
  Q 567.93 718.78 566.27 719.28
  C 562.57 720.40 562.74 722.37 563.90 725.61
  C 570.10 743.03 572.13 759.46 564.41 776.00
  A 0.41 0.41 0.0 0 1 563.63 775.74
  C 564.81 770.37 566.18 764.75 566.19 759.33
  Q 566.20 741.34 560.07 724.60
  A 1.52 1.51 65.9 0 0 557.93 723.78
  L 551.51 727.19
  A 2.53 2.53 0.0 0 0 550.22 729.86
  C 553.06 745.97 552.77 760.54 543.32 774.31
  A 0.49 0.49 0.0 0 1 542.43 774.08
  Q 541.99 769.31 540.21 765.41
  Q 534.60 753.12 528.63 741.37
  A 1.61 1.60 -28.2 0 0 526.40 740.70
  L 520.13 744.27
  A 0.96 0.94 72.8 0 0 519.66 745.19
  Q 519.86 746.95 520.71 749.26
  Q 525.35 761.86 530.00 774.48
  C 534.54 786.79 542.32 793.73 550.52 802.51
  A 1.09 1.08 45.6 0 1 550.51 804.01
  L 543.02 811.72
  A 2.01 2.00 -42.6 0 1 540.03 811.60
  Q 531.81 801.63 526.61 789.32
  Q 512.45 755.71 507.45 719.64
  C 506.32 711.42 506.23 704.68 507.57 697.00
  A 0.30 0.30 0.0 0 1 508.16 697.01
  L 510.74 715.71
  A 0.58 0.58 0.0 0 0 511.90 715.64
  Q 512.17 699.85 511.80 683.74
  C 511.75 681.51 510.88 679.21 510.66 676.86
  A 0.70 0.70 0.0 0 0 509.32 676.67
  Q 506.12 684.71 506.91 693.29
  A 0.56 0.56 0.0 0 1 505.87 693.61
  Q 501.58 685.91 496.07 678.46
  C 495.40 677.56 494.33 676.70 493.49 675.99
  A 1.71 1.71 0.0 0 0 490.73 676.90
  C 488.32 686.85 489.15 697.19 489.79 707.29
  A 0.62 0.62 0.0 0 1 488.79 707.82
  Q 488.01 707.20 487.64 705.98
  Q 484.96 697.17 482.28 687.73
  Q 481.95 686.57 481.15 687.48
  Q 480.57 688.15 480.32 689.75
  Q 479.08 697.79 477.81 705.64
  A 0.63 0.61 83.9 0 1 477.45 706.10
  Q 476.59 706.47 476.35 705.47
  Q 474.43 697.32 472.65 689.02
  Q 472.32 687.50 470.89 688.12
  Q 470.75 688.19 470.46 689.25
  Q 468.57 696.22 466.92 703.25
  C 466.73 704.06 466.00 705.29 465.43 705.69
  C 452.71 714.61 446.63 727.80 442.38 742.32
  Q 442.13 743.17 441.89 742.32
  C 438.06 728.63 431.63 713.86 419.14 705.92
  A 3.73 3.72 -80.9 0 1 417.51 703.66
  L 413.74 688.32
  A 0.84 0.84 0.0 0 0 412.12 688.27
  Q 409.70 695.92 408.59 704.27
  Q 408.42 705.57 407.53 705.95
  A 0.62 0.62 0.0 0 1 406.67 705.48
  Q 405.20 696.89 403.82 688.50
  Q 403.73 687.92 403.28 687.57
  A 0.68 0.68 0.0 0 0 402.21 687.92
  Q 399.43 697.34 396.29 706.86
  Q 396.10 707.44 395.83 707.54
  A 0.87 0.87 0.0 0 1 394.68 706.68
  C 395.03 697.01 395.95 686.12 393.47 676.70
  A 1.56 1.56 0.0 0 0 391.18 675.75
  C 386.28 678.58 380.89 688.76 378.38 693.91
  A 0.52 0.52 0.0 0 1 377.40 693.66
  C 377.68 688.60 377.58 681.13 374.86 676.62
  A 0.43 0.43 0.0 0 0 374.09 676.69
  C 371.81 682.89 370.05 688.47 370.05 695.38
  Q 370.03 708.14 369.63 721.23
  A 0.53 0.52 53.7 0 0 370.66 721.39
  Q 373.90 709.64 374.84 697.48
  A 0.49 0.49 0.0 0 1 375.82 697.46
  Q 377.04 707.75 375.79 717.75
  Q 370.87 757.03 354.57 793.08
  Q 350.05 803.08 343.00 811.36
  A 1.74 1.74 0.0 0 1 340.46 811.49
  L 332.41 803.77
  A 1.11 1.11 0.0 0 1 332.37 802.21
  C 337.06 797.19 342.32 792.10 346.32 786.59
  Q 349.49 782.23 350.49 779.91
  Q 357.61 763.35 363.24 746.10
  A 0.82 0.81 -61.6 0 0 362.98 745.22
  Q 360.31 743.03 356.98 741.79
  Q 355.17 741.11 354.04 743.28
  Q 348.97 753.00 343.82 762.68
  Q 340.78 768.39 341.18 774.70
  Q 341.23 775.52 340.43 775.38
  Q 340.21 775.34 339.90 774.88
  C 330.07 760.21 330.68 746.97 333.04 730.21
  A 1.95 1.94 -71.4 0 0 332.06 728.23
  L 324.49 724.04
  A 1.30 1.30 0.0 0 0 322.64 724.73
  C 316.82 740.80 314.57 759.30 319.64 776.03
  A 0.29 0.29 0.0 0 1 319.36 776.40
  L 319.03 776.40
  Q 318.69 776.40 318.54 776.10
  C 310.41 759.33 313.14 742.25 319.03 725.31
  Q 319.72 723.31 319.35 722.10
  Q 318.69 719.93 316.04 720.10
  A 1.48 1.47 6.6 0 0 314.73 721.13
  Q 308.95 739.78 308.88 758.75
  C 308.77 786.83 329.27 808.49 346.62 828.13
  Q 358.04 841.05 369.12 860.86
  C 376.70 874.42 383.18 890.21 381.78 905.70
  A 0.30 0.30 0.0 0 0 382.35 905.87
  Q 389.09 893.05 388.34 878.58
  Q 388.31 877.90 388.68 878.47
  Z
  M 230.74 724.12
  C 229.29 711.27 230.08 698.68 232.60 685.99
  A 0.46 0.46 0.0 0 0 231.81 685.59
  L 227.09 690.77
  A 0.73 0.73 0.0 0 0 226.89 691.32
  Q 227.53 701.59 226.33 711.81
  A 1.66 1.63 -57.7 0 0 226.55 712.83
  Q 228.20 715.62 228.23 716.75
  C 229.00 750.05 243.81 781.14 268.04 803.78
  A 0.70 0.70 0.0 0 0 269.22 803.25
  C 269.19 801.37 268.44 799.65 267.05 798.18
  C 259.61 790.26 250.80 781.38 245.94 772.00
  C 238.52 757.66 232.55 740.22 230.74 724.12
  Z
  M 222.96 722.44
  Q 223.12 722.99 223.56 722.61
  Q 224.55 721.75 224.23 720.00
  Q 222.58 711.10 219.09 702.81
  A 0.83 0.83 0.0 0 0 218.08 702.34
  Q 216.99 702.67 217.38 703.95
  Q 219.90 712.16 222.96 722.44
  Z
  M 353.88 884.63
  L 354.88 880.16
  A 0.58 0.57 -70.4 0 0 354.58 879.52
  Q 353.70 879.09 353.07 879.51
  Q 352.60 879.82 352.46 880.73
  Q 351.74 885.48 351.87 889.90
  A 0.69 0.69 0.0 0 0 353.04 890.38
  L 358.30 885.39
  Q 358.84 884.88 359.05 885.60
  Q 359.59 887.50 359.59 889.51
  Q 359.59 898.43 359.30 907.03
  A 0.51 0.51 0.0 0 0 360.31 907.16
  Q 362.85 896.26 361.82 886.23
  C 361.32 881.43 366.23 880.75 369.57 879.31
  Q 370.05 879.10 369.75 878.67
  Q 365.34 872.30 360.39 866.35
  Q 345.05 847.93 328.96 828.77
  A 1.14 1.14 0.0 0 0 327.35 828.63
  Q 326.21 829.60 325.14 831.63
  Q 316.58 847.83 323.63 865.07
  A 0.49 0.49 0.0 0 0 324.56 865.00
  C 325.58 860.69 324.42 855.81 324.49 852.76
  Q 324.70 843.04 329.76 834.45
  Q 330.04 833.99 330.36 834.42
  Q 346.08 855.07 363.06 874.70
  Q 364.07 875.86 365.43 878.65
  A 0.64 0.63 63.6 0 1 365.15 879.49
  L 354.49 885.09
  Q 353.68 885.52 353.88 884.63
  Z
  M 559.32 856.67
  A 0.42 0.42 0.0 0 1 558.51 856.79
  Q 556.51 851.59 554.56 846.41
  Q 554.04 845.03 552.79 845.53
  A 0.83 0.82 64.4 0 0 552.38 846.70
  Q 557.32 855.39 558.29 865.32
  A 0.54 0.54 0.0 0 0 559.29 865.54
  C 564.65 856.39 563.89 836.18 555.69 828.67
  Q 555.09 828.11 554.56 828.74
  L 514.97 876.38
  Q 513.26 878.43 515.66 879.61
  C 517.27 880.41 522.38 881.68 522.01 884.50
  Q 521.05 891.75 521.87 899.00
  Q 521.95 899.71 522.33 900.04
  Q 522.71 900.36 522.74 899.86
  L 523.48 886.71
  A 1.13 1.12 -66.3 0 1 525.39 885.96
  L 530.17 890.63
  A 0.43 0.42 -58.4 0 0 530.87 890.46
  C 532.04 887.09 530.46 885.33 527.53 883.70
  Q 523.31 881.35 519.15 879.31
  A 1.33 1.32 32.3 0 1 518.69 877.29
  L 552.92 834.59
  A 1.20 1.19 -38.9 0 1 554.92 834.80
  Q 560.08 845.10 559.32 856.67
  Z
  M 334.28 866.41
  A 0.49 0.48 44.9 0 1 333.32 866.41
  C 332.38 860.53 332.42 855.04 331.96 849.34
  A 0.52 0.52 0.0 0 0 330.93 849.29
  Q 328.43 862.38 335.28 873.17
  Q 336.59 875.23 338.15 876.35
  Q 338.66 876.71 338.84 876.11
  C 340.34 871.08 338.35 864.20 337.50 858.99
  A 1.06 1.06 0.0 0 0 335.41 859.00
  L 334.28 866.41
  Z
  M 543.61 869.32
  Q 542.64 865.83 541.20 862.66
  Q 539.64 859.25 538.65 862.87
  Q 538.13 864.80 538.05 866.80
  A 0.43 0.43 0.0 0 0 538.83 867.05
  L 539.63 865.89
  A 0.91 0.91 0.0 0 1 541.26 866.15
  L 544.08 875.79
  A 0.67 0.66 -29.5 0 0 545.17 876.09
  C 550.63 871.00 549.91 866.09 548.88 859.24
  Q 548.67 857.88 547.43 857.88
  A 0.96 0.96 0.0 0 0 546.48 858.69
  L 544.79 869.25
  A 0.61 0.60 -48.3 0 1 543.61 869.32
  Z
  M 345.18 871.99
  A 0.58 0.58 0.0 0 0 346.32 871.88
  Q 346.72 867.18 345.07 862.69
  A 1.20 1.20 0.0 0 0 342.79 863.42
  L 345.18 871.99
  Z
  M 376.15 890.29
  A 1.00 1.00 0.0 0 0 374.61 891.52
  L 378.77 898.76
  Q 379.08 899.31 379.11 898.68
  Q 379.37 893.26 376.15 890.29
  Z
  M 505.75 893.76
  Q 505.47 895.00 506.48 894.22
  Q 508.26 892.83 509.11 890.71
  A 0.86 0.86 0.0 0 0 507.64 889.85
  Q 506.23 891.57 505.75 893.76
  Z
  M 510.38 894.41
  C 513.81 901.73 518.45 907.88 523.78 913.96
  A 0.49 0.49 0.0 0 0 524.64 913.64
  Q 524.65 912.04 523.34 910.60
  Q 516.28 902.84 511.08 893.72
  Q 510.98 893.55 510.81 893.66
  Q 510.69 893.74 510.55 893.82
  A 0.46 0.46 0.0 0 0 510.38 894.41
  Z
  M 358.6495 913.2771
  A 4.16 0.56 132.5 0 0 361.8729 910.5883
  A 4.16 0.56 132.5 0 0 364.2705 907.1429
  A 4.16 0.56 132.5 0 0 361.0471 909.8317
  A 4.16 0.56 132.5 0 0 358.6495 913.2771
  Z"
/>
<path fill="#ffd400" d="
  M 488.19 197.19
  C 473.29 190.17 460.77 183.94 449.52 174.52
  Q 446.07 171.64 444.25 167.25
  Q 442.95 164.14 442.86 158.62
  Q 442.62 143.89 442.74 139.25
  C 442.81 136.36 444.38 134.28 446.12 131.90
  Q 453.74 121.50 461.36 111.10
  A 2.96 2.94 25.0 0 1 464.47 109.98
  Q 491.14 116.62 517.97 123.39
  C 519.79 123.85 521.43 124.24 523.10 125.23
  C 545.07 138.22 569.69 146.71 595.29 138.61
  A 1.74 1.73 -14.3 0 1 597.52 139.93
  C 606.51 185.90 608.19 235.81 588.52 279.51
  Q 586.32 284.39 583.55 288.74
  A 0.50 0.50 0.0 0 1 582.73 288.78
  Q 554.31 252.29 526.01 215.48
  Q 523.41 212.10 520.21 210.87
  Q 503.95 204.60 488.19 197.19
  Z"
/>
<path fill="#ffd400" d="
  M 1515.27 153.09
  L 1528.39 118.78
  Q 1528.52 118.43 1528.66 118.78
  L 1541.68 152.80
  A 0.51 0.51 0.0 0 1 1541.20 153.49
  L 1515.56 153.50
  Q 1515.11 153.51 1515.27 153.09
  Z"
/>
<path fill="#ffd400" d="
  M 55.20 238.12
  C 50.87 201.95 80.98 185.34 100.65 157.41
  Q 107.72 147.38 107.48 135.00
  Q 107.46 134.08 108.70 133.13
  Q 109.06 132.85 109.27 133.25
  C 115.63 145.93 121.31 164.83 117.70 178.89
  C 111.18 204.33 78.43 214.92 67.61 240.91
  Q 63.46 250.88 63.78 262.02
  C 63.82 263.26 63.48 264.73 63.24 265.91
  A 0.40 0.40 0.0 0 1 62.48 265.98
  Q 56.91 252.40 55.20 238.12
  Z"
/>
<path fill="#ffd400" d="
  M 1295.39 145.68
  Q 1302.09 131.32 1316.50 132.96
  C 1325.30 133.96 1331.09 139.41 1333.20 147.83
  Q 1333.35 148.41 1332.75 148.41
  L 1295.25 148.44
  A 0.58 0.58 0.0 0 1 1294.68 147.75
  Q 1294.86 146.82 1295.39 145.68
  Z"
/>
<circle fill="#ffd400" cx="1424.49" cy="153.93" r="21.15"/>
<circle fill="#ffd400" cx="1783.12" cy="153.93" r="21.14"/>
<path fill="#ffd400" d="
  M 148.00 171.91
  Q 171.00 171.62 194.00 171.41
  C 195.85 171.39 197.03 171.99 198.33 173.42
  Q 205.15 180.94 211.31 188.06
  Q 212.37 189.28 210.76 189.46
  Q 180.52 192.81 150.80 191.30
  C 144.43 190.97 137.25 190.96 130.30 189.58
  A 1.21 1.20 -80.4 0 1 129.35 188.23
  L 131.35 174.88
  A 2.59 2.58 1.6 0 1 133.67 172.69
  Q 141.14 172.00 148.00 171.91
  Z"
/>
<path fill="#ffd400" d="
  M 448.15 274.49
  Q 448.21 274.63 448.27 274.76
  Q 448.38 275.03 448.67 275.03
  C 471.75 274.54 493.44 275.87 515.99 281.46
  A 0.84 0.83 9.0 0 0 517.03 280.71
  Q 517.10 279.69 516.70 278.50
  C 504.57 242.94 480.47 210.94 446.25 194.22
  A 2.52 2.50 -76.9 0 1 444.85 191.95
  L 444.94 175.75
  Q 444.95 174.71 445.73 175.40
  Q 456.44 184.89 469.10 191.50
  Q 493.37 204.17 519.05 213.70
  C 521.50 214.61 524.01 218.25 525.85 220.62
  Q 558.61 262.96 591.26 305.17
  A 1.37 1.36 -34.8 0 1 590.90 307.16
  L 446.79 397.48
  Q 444.74 398.77 444.74 396.34
  L 444.83 197.76
  Q 444.83 195.56 446.51 196.98
  Q 480.12 225.42 495.95 266.61
  A 1.29 1.29 0.0 0 1 494.73 268.37
  Q 471.14 268.07 448.33 274.12
  Q 448.01 274.20 448.15 274.49
  Z
  M 448.59 298.23
  Q 447.93 298.40 447.81 298.89
  A 0.47 0.47 0.0 0 0 448.31 299.47
  Q 468.26 297.56 487.99 301.75
  Q 520.12 308.58 537.84 336.13
  A 0.62 0.62 0.0 0 0 538.70 336.31
  L 547.38 330.56
  A 1.18 1.17 51.5 0 0 547.58 328.77
  C 521.22 301.04 486.59 288.36 448.59 298.23
  Z"
/>
<path fill="#ffd400" d="
  M 595.79 306.12
  Q 591.73 299.97 586.46 293.82
  C 585.57 292.78 585.31 291.48 586.03 290.15
  C 599.43 265.43 606.28 236.15 606.05 208.34
  A 0.50 0.50 0.0 0 1 607.04 208.24
  Q 608.50 215.93 609.98 224.00
  Q 616.45 259.08 629.20 292.37
  Q 636.24 310.76 648.06 326.63
  Q 648.81 327.65 647.55 327.72
  Q 646.32 327.78 644.50 327.80
  Q 604.94 328.26 565.74 327.88
  A 0.51 0.50 29.0 0 1 565.47 326.95
  L 595.41 307.89
  Q 596.50 307.20 595.79 306.12
  Z"
/>
<path fill="#ffd400" d="
  M 238.75 235.60
  C 188.52 237.34 138.19 237.89 87.90 238.50
  Q 85.45 238.53 86.76 236.46
  Q 87.79 234.82 90.14 232.64
  Q 96.62 226.63 103.01 220.52
  C 106.08 217.59 115.91 218.77 120.00 218.69
  Q 174.00 217.58 228.00 216.67
  Q 231.85 216.60 234.02 219.77
  Q 238.10 225.74 242.03 232.36
  Q 243.49 234.81 240.71 235.47
  Q 240.39 235.54 238.75 235.60
  Z"
/>
<path fill="#ffd400" d="
  M 43.55 228.13
  Q 43.95 227.29 44.34 226.76
  A 0.71 0.70 -28.7 0 1 45.61 227.13
  C 50.13 293.42 88.80 351.02 142.79 387.90
  Q 149.73 392.64 166.56 402.96
  Q 167.20 403.35 169.07 405.20
  Q 169.46 405.58 169.08 405.98
  Q 167.49 407.65 165.90 409.15
  Q 146.78 427.19 127.03 444.55
  Q 123.81 447.38 120.77 445.01
  C 107.45 434.63 90.30 417.07 76.67 401.60
  Q 53.47 375.27 40.50 343.27
  Q 16.84 284.90 43.55 228.13
  Z"
/>
<path fill="#ffd400" d="
  M 76.73 268.02
  L 249.14 265.06
  Q 251.50 265.02 251.69 267.38
  L 252.78 281.11
  A 3.00 2.99 -3.0 0 1 249.87 284.34
  Q 203.14 285.48 157.33 286.32
  C 148.80 286.48 139.97 286.08 131.28 286.41
  Q 104.35 287.45 77.61 286.45
  A 2.37 2.37 0.0 0 1 75.33 284.20
  L 74.63 270.27
  Q 74.52 268.06 76.73 268.02
  Z"
/>
<path fill="#ffd400" d="
  M 1752.54 540.07
  L 1571.52 540.04
  Q 1571.01 540.04 1571.01 539.52
  L 1571.02 510.33
  Q 1571.02 509.42 1571.92 509.42
  L 1785.76 509.44
  Q 1786.24 509.44 1786.26 509.92
  Q 1786.90 526.83 1785.87 540.74
  C 1780.87 607.96 1742.22 664.83 1681.67 694.18
  C 1649.86 709.60 1615.02 715.98 1579.01 716.22
  C 1512.36 716.68 1448.86 690.38 1405.04 639.47
  C 1358.57 585.48 1343.28 509.30 1359.51 440.25
  C 1375.58 371.92 1423.81 314.72 1490.08 289.03
  C 1588.69 250.79 1706.52 282.06 1760.99 376.50
  Q 1761.19 376.85 1760.84 377.06
  L 1732.95 393.69
  A 0.49 0.48 -29.8 0 1 1732.27 393.51
  Q 1708.28 349.86 1664.28 326.17
  C 1629.74 307.58 1591.37 301.55 1552.02 305.79
  C 1492.07 312.25 1438.17 346.41 1409.32 399.94
  C 1377.25 459.43 1377.75 534.26 1411.29 592.95
  C 1438.74 640.99 1488.17 673.51 1543.35 682.10
  C 1604.29 691.58 1670.16 678.40 1713.50 632.11
  C 1736.75 607.28 1750.33 574.71 1753.16 540.74
  Q 1753.22 540.07 1752.54 540.07
  Z"
/>
<rect fill="#ffd400" x="864.25" y="279.76" width="32.52" height="429.76" rx="0.60"/>
<path fill="#ffd400" d="
  M 1029.28 600.58
  L 987.81 709.21
  A 0.49 0.49 0.0 0 1 987.35 709.53
  L 954.02 709.52
  A 0.49 0.49 0.0 0 1 953.56 708.85
  L 1120.11 280.10
  A 0.49 0.49 0.0 0 1 1120.57 279.79
  L 1154.24 279.79
  A 0.49 0.49 0.0 0 1 1154.70 280.10
  L 1320.64 708.85
  A 0.49 0.49 0.0 0 1 1320.19 709.52
  L 1286.86 709.53
  A 0.49 0.49 0.0 0 1 1286.40 709.21
  L 1244.91 600.58
  A 0.49 0.49 0.0 0 0 1244.45 600.26
  L 1029.74 600.26
  A 0.49 0.49 0.0 0 0 1029.28 600.58
  Z
  M 1041.87 569.09
  A 0.32 0.32 0.0 0 0 1042.17 569.53
  L 1232.65 569.53
  A 0.32 0.32 0.0 0 0 1232.95 569.09
  L 1137.71 320.54
  A 0.32 0.32 0.0 0 0 1137.11 320.54
  L 1041.87 569.09
  Z"
/>
<path fill="#ffd400" d="
  M 2045.48 281.12
  C 2122.83 288.95 2184.88 340.90 2211.40 413.26
  C 2246.57 509.22 2216.34 626.84 2125.73 681.65
  C 2094.59 700.49 2059.15 709.46 2022.25 709.50
  Q 1942.10 709.57 1862.01 709.51
  A 0.28 0.28 0.0 0 1 1861.73 709.23
  L 1861.73 280.28
  Q 1861.73 279.82 1862.20 279.82
  Q 1935.96 279.63 2009.47 279.80
  Q 2032.97 279.85 2045.48 281.12
  Z
  M 2191.62 524.12
  Q 2198.01 476.63 2184.06 431.54
  C 2163.88 366.28 2110.91 318.98 2042.45 311.51
  Q 2034.96 310.70 2022.48 310.64
  Q 1958.67 310.35 1894.67 310.59
  Q 1894.24 310.59 1894.24 311.02
  L 1894.24 678.24
  A 0.48 0.48 0.0 0 0 1894.72 678.72
  Q 1957.36 678.94 2019.99 678.72
  Q 2033.14 678.68 2039.97 678.04
  C 2123.31 670.33 2180.79 604.70 2191.62 524.12
  Z"
/>
<ellipse fill="#ffd400" cx="0.00" cy="0.00" transform="translate(631.27,287.18) rotate(-42.2)" rx="1.04" ry="0.71"/>
<path fill="#ffd400" d="
  M 90.04 318.21
  A 0.75 0.74 64.0 0 1 90.44 317.02
  C 91.22 316.82 92.38 316.42 93.21 316.39
  C 108.71 315.85 123.97 315.17 139.75 315.29
  Q 163.88 315.48 188.00 315.09
  Q 216.12 314.63 243.87 314.77
  A 0.84 0.84 0.0 0 1 244.56 316.08
  L 233.71 331.83
  A 3.28 3.27 -73.4 0 1 231.09 333.25
  L 105.72 335.95
  A 3.33 3.28 -19.4 0 1 103.06 334.70
  L 90.04 318.21
  Z"
/>
<path fill="#ffd400" d="
  M 656.84 348.33
  C 633.75 393.16 610.47 437.87 587.06 482.61
  Q 586.71 483.29 586.45 482.56
  Q 586.41 482.46 586.56 482.02
  Q 606.90 421.33 623.76 359.59
  Q 624.59 356.56 628.37 352.63
  Q 638.60 341.98 649.07 330.55
  A 1.44 1.44 0.0 0 1 651.06 330.42
  L 662.12 339.62
  Q 662.54 339.97 662.17 340.38
  Q 659.35 343.46 656.84 348.33
  Z"
/>
<path fill="#ffd400" d="
  M 598.55 368.36
  A 2.59 2.58 -22.2 0 0 596.46 367.48
  C 568.25 369.07 538.64 377.65 516.06 394.76
  C 492.85 412.36 482.57 435.99 481.54 464.93
  Q 481.52 465.42 481.24 465.82
  C 480.75 466.51 479.95 467.70 479.22 468.11
  Q 459.41 479.48 444.12 495.00
  Q 442.76 496.39 442.76 494.44
  Q 442.75 449.38 442.75 406.25
  C 442.75 404.53 444.47 402.49 446.08 401.50
  Q 510.12 362.05 556.52 332.59
  Q 559.84 330.49 563.37 330.52
  Q 598.62 330.81 633.87 330.51
  Q 639.17 330.47 643.41 330.94
  Q 644.91 331.11 643.88 332.21
  Q 632.81 344.07 624.11 353.62
  C 623.13 354.69 622.05 356.63 621.58 358.25
  C 607.38 407.77 593.14 457.14 575.13 505.46
  Q 574.96 505.90 574.67 506.09
  A 0.37 0.36 79.3 0 1 574.12 505.71
  Q 586.98 437.50 598.47 369.24
  Q 598.60 368.43 598.55 368.36
  Z"
/>
<path fill="#ffd400" d="
  M 158.25 380.72
  Q 149.96 375.24 142.13 369.10
  Q 138.39 366.16 135.41 362.64
  A 0.43 0.43 0.0 0 1 135.66 361.94
  Q 141.32 360.95 147.25 360.97
  Q 177.83 361.06 207.25 361.08
  Q 209.59 361.08 208.11 362.88
  Q 203.06 369.05 197.62 375.12
  C 194.79 378.28 190.06 379.58 185.45 380.03
  Q 172.88 381.26 160.25 381.32
  Q 159.16 381.32 158.25 380.72
  Z"
/>
<path fill="#ffd400" d="
  M 544.37 388.52
  C 546.36 389.61 549.58 390.50 551.11 391.13
  Q 563.73 396.35 571.29 408.41
  A 0.63 0.63 0.0 0 1 570.32 409.20
  L 567.75 406.77
  A 1.87 1.87 0.0 0 0 564.93 407.05
  C 553.73 422.97 538.57 429.31 519.86 422.17
  C 516.76 420.99 514.45 421.93 512.59 424.36
  A 1.64 1.63 59.3 0 1 509.67 423.61
  Q 508.51 415.85 509.51 407.60
  Q 509.82 405.05 511.29 403.07
  Q 513.42 400.18 515.49 398.48
  C 534.78 382.55 560.44 374.56 585.75 370.99
  Q 589.03 370.53 590.92 370.61
  Q 591.71 370.64 591.16 371.20
  Q 589.48 372.90 588.04 373.33
  Q 566.57 379.72 544.46 387.43
  A 0.60 0.60 0.0 0 0 544.37 388.52
  Z
  M 540.90 402.44
  C 534.81 396.06 527.66 396.26 519.95 399.79
  C 517.83 400.77 517.00 402.06 516.68 404.26
  C 514.18 421.76 536.12 427.84 548.22 420.13
  C 548.83 419.74 549.01 419.21 548.94 418.53
  Q 548.89 418.06 549.29 417.80
  Q 556.40 413.24 554.99 404.90
  C 554.57 402.42 553.39 401.91 551.17 401.38
  Q 546.58 400.30 541.38 399.15
  A 0.83 0.83 0.0 0 0 540.43 400.28
  L 541.24 402.22
  Q 541.66 403.24 540.90 402.44
  Z"
/>
<ellipse fill="#ffd400" cx="0.00" cy="0.00" transform="translate(348.37,404.94) rotate(-13.0)" rx="4.76" ry="4.33"/>
<ellipse fill="#ffd400" cx="0.00" cy="0.00" transform="translate(535.04,404.81) rotate(-1.5)" rx="5.04" ry="4.20"/>
<path fill="#ffd400" d="
  M 484.82 463.91
  C 491.09 475.66 492.53 493.45 491.90 506.51
  Q 491.71 510.41 490.45 513.89
  A 0.60 0.60 0.0 0 1 489.33 513.90
  C 488.49 511.73 487.93 509.20 487.79 506.64
  Q 486.87 490.09 483.45 473.86
  C 482.75 470.53 484.12 467.44 484.22 464.05
  A 0.32 0.32 0.0 0 1 484.82 463.91
  Z"
/>
<path fill="#ffd400" d="
  M 705.74 478.20
  C 704.61 480.36 703.83 482.66 702.88 484.84
  A 0.59 0.59 0.0 0 1 702.11 485.15
  Q 693.94 481.65 687.60 475.66
  C 685.28 473.48 681.14 468.17 683.24 465.35
  C 684.90 463.12 689.03 463.69 691.14 464.65
  Q 692.54 465.29 695.27 468.05
  Q 699.68 472.50 704.65 475.39
  Q 706.61 476.53 705.74 478.20
  Z"
/>
<path fill="#ffd400" d="
  M 397.34 467.01
  Q 397.69 465.94 398.34 466.87
  C 399.60 468.71 400.06 470.75 399.58 473.09
  Q 395.91 490.77 395.06 508.82
  C 394.99 510.32 394.44 512.06 394.10 513.49
  A 0.43 0.43 0.0 0 1 393.27 513.50
  C 389.70 500.07 392.70 481.10 397.34 467.01
  Z"
/>
<path fill="#ffd400" d="
  M 711.97 556.57
  C 697.72 561.70 685.63 547.02 680.35 536.03
  Q 675.93 526.85 675.97 516.99
  C 676.00 510.56 678.28 503.00 677.83 496.24
  Q 677.52 491.53 676.57 487.23
  A 0.70 0.70 0.0 0 1 677.57 486.46
  C 692.07 493.94 701.40 505.04 699.81 522.12
  Q 699.12 529.57 698.14 536.98
  Q 696.03 552.93 711.41 555.15
  Q 711.74 555.20 711.94 555.39
  Q 712.20 555.63 712.29 555.92
  A 0.53 0.52 71.4 0 1 711.97 556.57
  Z"
/>
<path fill="#ffd400" d="
  M 692.62 567.81
  C 685.54 562.22 677.02 559.75 669.75 554.54
  Q 655.04 543.96 655.74 526.65
  Q 655.82 524.52 657.70 515.47
  Q 659.26 507.97 659.43 499.99
  A 0.61 0.60 28.8 0 1 660.54 499.67
  C 661.60 501.26 662.40 503.19 662.71 505.23
  Q 664.55 517.41 666.16 529.62
  C 668.06 544.01 677.42 550.09 689.04 556.78
  C 697.14 561.44 701.47 566.16 705.81 574.39
  C 708.67 579.83 711.25 582.92 716.40 585.12
  A 0.40 0.40 0.0 0 1 716.22 585.89
  C 707.14 585.30 699.57 573.31 692.62 567.81
  Z"
/>
<path fill="#ffd400" d="
  M 391.49 523.86
  Q 402.93 513.61 406.03 510.27
  C 417.76 497.65 431.17 513.41 444.44 511.62
  C 455.69 510.10 466.48 499.47 477.31 509.40
  Q 484.21 515.72 490.83 522.35
  A 1.14 1.14 0.0 0 0 492.58 522.19
  L 501.64 508.97
  A 0.56 0.56 0.0 0 1 502.66 509.30
  C 502.30 527.31 487.32 539.91 470.74 543.16
  C 459.87 545.28 450.45 547.92 447.06 559.77
  Q 443.37 572.63 444.15 586.03
  Q 444.59 593.47 451.78 595.53
  C 462.63 598.65 471.56 599.78 483.47 605.01
  Q 495.58 610.33 507.74 615.53
  Q 509.48 616.28 509.40 618.09
  A 1.38 1.38 0.0 0 1 507.83 619.39
  Q 506.08 619.15 504.25 618.55
  Q 480.14 610.72 454.86 609.05
  C 451.08 608.80 447.37 607.53 443.62 606.79
  C 439.76 606.03 434.86 608.68 431.76 608.84
  Q 401.21 610.44 372.52 620.91
  Q 371.97 621.11 371.95 620.52
  Q 371.82 616.62 376.33 614.87
  C 384.83 611.56 393.43 607.33 402.12 603.82
  C 410.97 600.25 421.50 598.16 431.25 595.24
  Q 438.30 593.14 438.64 585.76
  Q 439.02 577.71 437.95 569.77
  C 437.67 567.68 438.55 565.90 438.23 563.93
  Q 435.64 548.31 431.18 536.76
  C 427.27 526.65 418.41 524.01 407.96 524.79
  Q 400.70 525.34 393.45 525.91
  A 0.41 0.40 74.8 0 0 393.12 526.50
  Q 393.19 526.63 393.25 526.76
  Q 393.36 526.98 393.60 526.97
  C 407.33 526.43 422.62 521.68 430.24 537.33
  C 432.88 542.74 434.22 551.54 435.98 558.34
  A 0.25 0.25 0.0 0 1 435.72 558.65
  L 435.40 558.63
  Q 435.22 558.62 435.15 558.45
  C 429.30 543.83 416.68 545.19 404.94 540.95
  C 391.35 536.04 380.54 524.59 380.23 509.58
  Q 380.21 508.89 380.68 509.39
  Q 386.72 515.94 390.96 523.76
  Q 391.16 524.15 391.49 523.86
  Z
  M 489.91 525.82
  C 479.49 525.13 464.02 521.86 456.00 530.81
  Q 455.85 530.97 455.86 531.10
  Q 455.87 531.25 455.99 531.38
  A 0.47 0.47 0.0 0 0 456.66 531.41
  C 461.98 526.35 467.04 525.51 474.79 526.08
  Q 483.10 526.68 488.99 526.89
  Q 489.67 526.92 490.14 526.37
  Q 490.56 525.87 489.91 525.82
  Z"
/>
<path fill="#ffd400" d="
  M 703.45 510.59
  C 708.07 517.19 706.22 533.97 701.42 540.60
  A 0.36 0.36 0.0 0 1 700.77 540.35
  C 701.74 530.28 703.21 520.72 702.95 510.76
  Q 702.92 509.83 703.45 510.59
  Z"
/>
<path fill="#ffd400" d="
  M 709.04 549.90
  C 710.82 544.54 714.00 538.14 716.97 533.33
  Q 717.44 532.57 717.74 533.41
  Q 721.51 543.86 723.67 554.78
  A 0.58 0.58 0.0 0 1 722.66 555.28
  C 719.54 551.72 715.38 553.08 711.25 553.01
  A 2.37 2.37 0.0 0 1 709.04 549.90
  Z"
/>
<path fill="#ffd400" d="
  M 144.45 554.09
  C 143.14 554.10 140.78 554.29 139.49 553.79
  A 0.86 0.86 0.0 0 1 139.23 552.34
  Q 149.01 543.56 158.31 535.30
  Q 160.03 533.77 164.25 533.78
  Q 181.88 533.85 199.50 533.64
  Q 201.85 533.61 204.49 536.26
  Q 211.30 543.09 217.74 550.16
  Q 218.33 550.81 217.48 551.00
  Q 213.75 551.82 209.51 552.05
  Q 177.01 553.82 144.45 554.09
  Z"
/>
<path fill="#ffd400" d="
  M 716.04 578.96
  C 712.32 578.28 707.46 567.31 705.84 563.34
  Q 705.62 562.81 706.19 562.82
  C 716.47 563.03 727.45 565.88 726.24 578.21
  A 1.33 1.31 0.7 0 1 725.01 579.39
  Q 720.24 579.72 716.04 578.96
  Z"
/>
<path fill="#ffd400" d="
  M 710.06 587.67
  C 715.58 589.82 719.16 587.99 724.15 587.84
  Q 725.53 587.80 724.79 588.97
  C 722.54 592.50 717.04 601.91 713.14 603.05
  C 706.88 604.89 700.92 593.78 698.68 589.41
  Q 692.35 577.06 683.25 566.71
  A 0.36 0.36 0.0 0 1 683.65 566.13
  C 688.83 568.15 696.40 576.12 700.22 580.28
  Q 705.31 585.82 710.06 587.67
  Z"
/>
<path fill="#ffd400" d="
  M 641.74 580.61
  Q 643.39 576.71 645.00 573.06
  Q 645.20 572.59 645.43 573.06
  Q 653.03 588.98 660.57 604.93
  Q 670.89 626.76 665.35 650.98
  C 663.61 658.61 659.98 666.61 656.46 674.00
  Q 655.84 675.32 654.74 674.36
  Q 654.57 674.22 654.51 673.47
  Q 654.46 672.94 654.36 672.56
  Q 647.30 647.44 641.52 622.00
  C 638.45 608.46 636.15 593.84 641.74 580.61
  Z"
/>
<path fill="#ffd400" d="
  M 103.58 585.59
  C 109.39 578.95 122.29 579.91 130.75 579.87
  Q 179.50 579.64 227.95 578.01
  Q 230.28 577.93 230.28 580.27
  L 230.26 595.47
  A 1.90 1.89 86.0 0 1 228.63 597.35
  Q 222.20 598.24 215.25 598.35
  Q 154.50 599.35 93.75 600.28
  Q 92.73 600.30 92.29 600.18
  Q 91.23 599.90 91.94 599.06
  Q 97.78 592.20 103.58 585.59
  Z"
/>
<ellipse fill="#ffd400" cx="0.00" cy="0.00" transform="translate(366.32,581.04) rotate(125.6)" rx="0.93" ry="0.39"/>
<path fill="#ffd400" d="
  M 501.99 623.76
  Q 482.19 617.16 461.23 616.42
  C 431.52 615.38 400.53 614.19 372.97 627.54
  A 0.47 0.47 0.0 0 1 372.36 626.87
  Q 373.53 624.99 376.06 623.94
  Q 392.59 617.03 410.48 615.27
  Q 443.98 611.96 477.28 616.12
  C 484.04 616.97 505.24 620.33 509.09 625.70
  A 0.37 0.37 0.0 0 1 508.69 626.27
  C 506.37 625.64 503.63 624.31 501.99 623.76
  Z"
/>
<path fill="#ffd400" d="
  M 57.10 647.86
  L 66.63 632.21
  A 4.26 4.25 15.0 0 1 70.18 630.16
  C 101.31 629.51 132.54 629.40 163.75 628.58
  Q 187.45 627.96 210.87 628.45
  A 0.68 0.67 23.6 0 1 211.33 629.61
  L 193.61 646.84
  A 4.53 4.52 22.8 0 1 190.41 648.14
  Q 161.69 648.06 132.37 648.84
  C 108.42 649.47 84.43 649.26 60.47 649.11
  C 59.25 649.10 58.16 649.25 57.18 648.41
  A 0.42 0.42 0.0 0 1 57.10 647.86
  Z"
/>
<path fill="#ffd400" d="
  M 380.31 632.07
  C 377.98 635.08 373.16 643.96 376.52 647.01
  Q 376.96 647.41 376.75 647.96
  Q 375.59 650.95 377.26 653.73
  A 1.86 1.85 -61.1 0 1 377.52 654.64
  C 377.59 658.65 377.44 667.03 382.51 667.95
  C 386.49 668.68 389.12 665.02 393.02 669.38
  Q 393.47 669.88 392.83 670.09
  Q 385.55 672.48 381.57 679.10
  A 0.34 0.33 53.0 0 1 380.96 679.01
  Q 378.11 668.81 375.57 658.52
  C 372.83 647.44 372.14 639.83 379.49 631.53
  Q 379.84 631.14 380.25 631.45
  Q 380.40 631.56 380.43 631.73
  Q 380.45 631.89 380.31 632.07
  Z"
/>
<path fill="#ffd400" d="
  M 167.58 895.11
  Q 154.97 867.37 133.78 845.47
  Q 105.56 816.30 76.43 788.07
  Q 61.05 773.17 49.65 755.07
  Q 33.26 729.06 37.61 699.22
  C 39.03 689.54 43.24 679.33 47.16 669.90
  Q 48.19 667.41 48.51 670.09
  C 51.96 698.99 63.13 724.21 82.55 745.96
  C 104.77 770.85 132.11 795.69 154.49 819.48
  C 168.39 834.25 182.08 852.53 187.16 872.91
  C 190.99 888.28 190.24 907.00 187.97 922.99
  Q 186.94 930.21 184.24 937.38
  Q 183.16 940.26 180.82 938.27
  Q 180.42 937.93 180.09 935.99
  Q 176.50 914.73 167.58 895.11
  Z"
/>
<path fill="#ffd400" d="
  M 164.00 696.69
  Q 123.01 698.03 82.00 698.42
  Q 73.89 698.49 66.10 698.96
  A 3.00 2.99 82.2 0 1 62.99 696.59
  L 59.49 679.99
  A 1.02 1.00 76.8 0 1 60.22 678.80
  Q 60.80 678.66 61.75 678.65
  C 90.47 678.38 119.32 678.32 148.02 677.27
  Q 159.11 676.87 175.22 678.32
  C 179.38 678.70 180.97 679.91 180.29 684.39
  Q 179.55 689.24 178.72 693.94
  A 2.34 2.33 -87.8 0 1 176.66 695.86
  Q 170.33 696.48 164.00 696.69
  Z"
/>
<path fill="#ffd400" d="
  M 391.36 710.91
  C 389.79 719.91 384.20 728.56 378.69 736.21
  A 0.46 0.46 0.0 0 1 377.87 735.86
  Q 380.37 722.57 381.92 708.91
  C 382.71 702.00 384.11 697.07 389.10 692.91
  A 1.32 1.32 0.0 0 1 391.24 693.70
  Q 392.82 702.64 391.36 710.91
  Z"
/>
<path fill="#ffd400" d="
  M 493.76 692.80
  C 497.35 695.36 500.06 700.38 500.62 704.86
  Q 502.54 720.36 505.22 735.77
  Q 505.49 737.29 504.64 736.00
  Q 499.72 728.51 494.89 720.32
  C 490.30 712.53 490.57 702.52 491.94 693.56
  A 1.16 1.16 0.0 0 1 493.76 692.80
  Z"
/>
<path fill="#ffd400" d="
  M 401.53 713.03
  Q 396.12 725.10 390.40 737.02
  C 379.48 759.78 369.92 784.34 371.47 810.06
  C 371.93 817.57 374.01 825.76 375.79 833.50
  Q 377.59 841.35 376.20 850.07
  A 0.69 0.69 0.0 0 1 374.83 850.07
  C 374.06 844.99 374.65 839.96 372.18 834.78
  C 367.91 825.84 361.80 819.61 361.74 808.90
  C 361.65 792.33 368.22 775.28 374.71 760.61
  Q 387.24 732.30 402.45 705.32
  Q 402.78 704.75 402.84 705.41
  Q 403.18 709.33 401.53 713.03
  Z"
/>
<path fill="#ffd400" d="
  M 509.32 839.78
  Q 508.12 844.92 508.46 850.36
  A 0.47 0.47 0.0 0 1 507.74 850.78
  Q 507.04 850.33 506.90 849.26
  Q 505.80 840.81 507.19 834.26
  Q 508.91 826.12 510.75 818.00
  Q 513.40 806.28 510.74 790.26
  C 506.34 763.69 495.41 742.62 484.27 719.21
  C 482.19 714.84 481.08 711.27 480.56 706.80
  A 0.38 0.38 0.0 0 1 481.27 706.58
  Q 496.42 734.06 509.01 763.07
  Q 516.85 781.11 518.97 790.48
  C 520.93 799.13 522.61 808.98 520.08 817.29
  C 518.19 823.47 511.18 831.87 509.32 839.78
  Z"
/>
<path fill="#ffd400" d="
  M 398.23 741.03
  Q 397.38 743.71 395.82 746.02
  Q 394.75 747.60 393.49 746.70
  A 1.40 1.37 -68.2 0 1 392.93 745.36
  Q 395.09 731.87 402.65 721.14
  Q 402.95 720.72 403.28 720.64
  A 0.29 0.29 0.0 0 1 403.63 720.98
  Q 401.37 731.15 398.23 741.03
  Z"
/>
<path fill="#ffd400" d="
  M 399.98 747.13
  Q 404.74 734.23 407.02 720.88
  A 0.54 0.53 -49.2 0 1 408.06 720.80
  Q 413.37 737.27 409.57 754.21
  C 407.82 761.98 402.67 771.02 394.28 772.49
  C 386.29 773.89 383.48 766.68 385.02 760.26
  Q 386.36 754.65 388.47 749.45
  A 0.51 0.50 -45.4 0 1 389.40 749.44
  C 393.15 758.26 398.09 752.25 399.98 747.13
  Z"
/>
<path fill="#ffd400" d="
  M 480.31 721.27
  C 485.36 727.97 489.30 736.62 490.49 745.22
  A 1.31 1.31 0.0 0 1 488.58 746.55
  Q 486.56 745.46 485.70 742.77
  Q 482.34 732.26 479.74 721.53
  Q 479.38 720.04 480.31 721.27
  Z"
/>
<path fill="#ffd400" d="
  M 483.32 748.22
  C 484.27 750.72 488.07 757.30 491.29 753.05
  Q 492.50 751.44 493.83 749.84
  Q 494.13 749.47 494.39 749.88
  Q 499.62 758.34 498.05 766.74
  C 496.78 773.50 490.49 774.03 485.31 771.35
  C 469.30 763.06 470.77 735.38 475.08 721.67
  Q 475.29 720.98 475.73 721.56
  Q 476.65 722.78 476.89 724.24
  Q 478.92 736.56 483.32 748.22
  Z"
/>
<path fill="#ffd400" d="
  M 1210.28 828.89
  A 71.59 71.59 0.0 0 1 1138.69 900.48
  A 71.59 71.59 0.0 0 1 1067.10 828.89
  A 71.59 71.59 0.0 0 1 1138.69 757.30
  A 71.59 71.59 0.0 0 1 1210.28 828.89
  Z
  M 1138.3786 890.2792
  A 61.39 61.19 90.3 0 0 1199.8892 829.2104
  A 61.39 61.19 90.3 0 0 1139.0214 767.5008
  A 61.39 61.19 90.3 0 0 1077.5108 828.5696
  A 61.39 61.19 90.3 0 0 1138.3786 890.2792
  Z"
/>
<path fill="#ffd400" d="
  M 1964.20 843.53
  L 1907.53 843.51
  Q 1905.80 843.51 1905.83 841.78
  L 1905.99 834.19
  A 0.57 0.56 0.5 0 1 1906.56 833.64
  L 1974.97 833.61
  A 0.35 0.35 0.0 0 1 1975.32 833.95
  C 1976.96 868.67 1954.91 894.65 1920.78 899.58
  C 1897.99 902.87 1874.39 896.87 1857.60 881.13
  C 1828.32 853.68 1828.23 804.06 1857.63 776.55
  C 1889.32 746.89 1944.41 751.71 1967.04 790.52
  Q 1967.26 790.90 1966.89 791.13
  L 1958.56 796.07
  Q 1958.11 796.33 1957.85 795.89
  Q 1941.20 768.59 1909.50 767.54
  C 1885.37 766.73 1863.42 778.82 1852.69 800.37
  C 1839.19 827.51 1846.68 862.86 1872.51 879.91
  C 1893.24 893.60 1924.93 894.31 1945.20 879.22
  Q 1962.05 866.69 1964.73 844.13
  Q 1964.80 843.53 1964.20 843.53
  Z"
/>
<path fill="#ffd400" d="
  M 874.94 888.27
  L 939.59 888.27
  A 0.31 0.31 0.0 0 1 939.90 888.58
  L 940.00 897.94
  A 0.31 0.31 0.0 0 1 939.69 898.25
  L 864.48 898.25
  A 0.31 0.31 0.0 0 1 864.17 897.94
  L 864.17 759.86
  A 0.31 0.31 0.0 0 1 864.48 759.55
  L 874.32 759.49
  A 0.31 0.31 0.0 0 1 874.63 759.80
  L 874.63 887.96
  A 0.31 0.31 0.0 0 0 874.94 888.27
  Z"
/>
<path fill="#ffd400" d="
  M 1398.73 890.18
  C 1419.12 890.11 1435.10 879.94 1438.16 858.79
  Q 1438.60 855.73 1438.61 849.68
  Q 1438.64 804.91 1438.62 760.10
  Q 1438.62 759.51 1439.21 759.51
  L 1448.48 759.51
  Q 1449.11 759.52 1449.11 760.15
  Q 1449.18 806.33 1449.06 852.48
  C 1448.98 882.11 1427.67 899.94 1399.26 900.34
  C 1369.97 900.75 1347.59 882.96 1347.53 852.24
  Q 1347.45 806.18 1347.52 760.09
  Q 1347.52 759.52 1348.09 759.52
  L 1357.44 759.51
  Q 1358.07 759.51 1358.07 760.13
  Q 1357.90 833.15 1358.06 853.73
  C 1358.25 877.83 1376.20 890.26 1398.73 890.18
  Z"
/>
<path fill="#ffd400" d="
  M 1604.57 898.25
  L 1594.67 898.25
  A 0.32 0.32 0.0 0 1 1594.35 897.93
  L 1594.32 759.84
  A 0.32 0.32 0.0 0 1 1594.64 759.52
  L 1603.27 759.49
  A 0.32 0.32 0.0 0 1 1603.54 759.63
  L 1684.90 878.01
  A 0.32 0.32 0.0 0 0 1685.48 877.83
  L 1685.48 759.83
  A 0.32 0.32 0.0 0 1 1685.80 759.51
  L 1695.65 759.51
  A 0.32 0.32 0.0 0 1 1695.97 759.83
  L 1695.97 897.93
  A 0.32 0.32 0.0 0 1 1695.65 898.25
  L 1686.82 898.25
  A 0.32 0.32 0.0 0 1 1686.55 898.11
  L 1605.44 779.85
  A 0.32 0.32 0.0 0 0 1604.86 780.03
  L 1604.89 897.93
  A 0.32 0.32 0.0 0 1 1604.57 898.25
  Z"
/>
<path fill="#ffd400" d="
  M 2125.26 823.31
  L 2187.76 823.32
  A 0.47 0.47 0.0 0 1 2188.23 823.79
  L 2188.15 832.79
  A 0.47 0.47 0.0 0 1 2187.68 833.26
  L 2125.26 833.24
  A 0.47 0.47 0.0 0 0 2124.79 833.71
  L 2124.79 887.80
  A 0.47 0.47 0.0 0 0 2125.26 888.27
  L 2193.66 888.27
  A 0.47 0.47 0.0 0 1 2194.13 888.74
  L 2194.16 897.78
  A 0.47 0.47 0.0 0 1 2193.69 898.25
  L 2114.74 898.25
  A 0.47 0.47 0.0 0 1 2114.27 897.78
  L 2114.27 760.01
  A 0.47 0.47 0.0 0 1 2114.74 759.54
  L 2192.70 759.51
  A 0.47 0.47 0.0 0 1 2193.17 759.98
  L 2193.16 769.01
  A 0.47 0.47 0.0 0 1 2192.69 769.48
  L 2125.26 769.42
  A 0.47 0.47 0.0 0 0 2124.79 769.89
  L 2124.79 822.84
  A 0.47 0.47 0.0 0 0 2125.26 823.31
  Z"
/>
<path fill="#ffd400" d="
  M 473.00 867.59
  C 498.57 846.03 470.19 820.95 461.99 800.23
  C 458.21 790.67 458.15 780.86 457.81 771.09
  A 0.31 0.31 0.0 0 1 458.40 770.93
  Q 463.55 780.32 469.73 788.83
  Q 478.43 800.84 479.52 802.75
  C 490.03 821.13 497.73 856.29 473.45 868.29
  A 0.42 0.42 0.0 0 1 473.00 867.59
  Z"
/>
<path fill="#ffd400" d="
  M 393.85 837.50
  C 394.16 821.20 399.96 806.58 409.82 793.76
  Q 418.13 782.94 424.89 771.04
  A 0.13 0.12 59.0 0 1 425.12 771.10
  Q 425.73 783.70 422.31 795.58
  C 418.10 810.22 407.48 821.50 401.97 835.73
  Q 394.94 853.83 409.20 866.58
  A 0.55 0.55 0.0 0 1 409.02 867.52
  Q 408.88 867.57 408.40 867.32
  C 397.73 861.67 393.62 849.41 393.85 837.50
  Z"
/>
<path fill="#ffd400" d="
  M 396.03 779.15
  C 384.43 790.48 379.16 804.93 379.30 820.91
  A 0.35 0.35 0.0 0 1 378.63 821.05
  C 373.09 808.20 373.10 784.69 381.03 772.73
  Q 381.40 772.18 381.78 772.73
  C 385.44 778.10 389.74 778.82 395.46 777.99
  A 0.68 0.68 0.0 0 1 396.03 779.15
  Z"
/>
<path fill="#ffd400" d="
  M 501.68 801.41
  C 498.90 793.00 494.17 785.88 487.93 779.72
  Q 486.62 778.42 488.46 778.26
  C 493.07 777.86 498.73 778.57 501.04 773.48
  Q 502.04 771.25 503.01 773.50
  Q 513.05 796.78 505.36 821.06
  A 0.44 0.44 0.0 0 1 504.50 820.99
  C 503.59 814.97 503.98 808.35 501.68 801.41
  Z"
/>
<path fill="#ffd400" d="
  M 425.00 835.69
  C 424.43 821.12 433.51 809.04 439.69 794.28
  A 0.30 0.30 0.0 0 1 440.26 794.41
  C 439.67 807.97 432.15 824.46 425.34 835.78
  Q 425.02 836.31 425.00 835.69
  Z"
/>
<path fill="#ffd400" d="
  M 454.24 815.59
  Q 458.35 823.93 458.80 833.31
  Q 459.02 837.68 457.10 833.74
  C 451.54 822.30 444.20 812.11 444.57 797.76
  Q 444.59 797.10 444.91 797.68
  Q 449.79 806.57 454.24 815.59
  Z"
/>
<path fill="#ffd400" d="
  M 518.56 824.26
  C 521.97 815.94 525.50 807.61 526.67 800.03
  Q 526.77 799.38 527.16 799.91
  Q 532.29 806.91 537.24 814.02
  Q 538.89 816.38 537.08 818.54
  Q 524.29 833.84 513.60 851.00
  A 0.49 0.49 0.0 0 1 512.70 850.81
  C 511.43 841.86 515.23 832.40 518.56 824.26
  Z"
/>
<path fill="#ffd400" d="
  M 367.06 830.69
  C 369.10 835.88 372.44 846.00 370.45 851.37
  Q 370.06 852.43 369.50 851.45
  Q 359.04 833.15 345.24 817.22
  A 1.06 1.04 42.3 0 1 345.17 815.94
  L 356.15 800.17
  Q 356.63 799.48 356.75 800.31
  C 358.24 810.82 363.19 820.87 367.06 830.69
  Z"
/>
<path fill="#ffd400" d="
  M 442.35 837.86
  Q 441.59 836.51 440.79 837.84
  Q 433.67 849.71 428.61 862.57
  A 0.49 0.49 0.0 0 1 427.71 862.61
  C 425.67 858.40 427.94 851.13 430.27 847.25
  Q 432.92 842.82 441.47 835.79
  A 1.00 0.99 38.3 0 1 442.56 835.67
  Q 444.23 836.51 446.15 838.59
  Q 453.58 846.68 455.56 857.50
  Q 456.05 860.16 455.58 861.52
  Q 454.94 863.41 454.15 861.58
  Q 448.89 849.42 442.35 837.86
  Z"
/>
<path fill="#ffd400" d="
  M 445.31 914.42
  Q 444.02 917.32 442.41 919.43
  A 1.15 1.15 0.0 0 1 440.45 919.20
  C 433.92 904.68 429.95 887.59 432.87 871.78
  Q 435.10 859.76 440.29 848.13
  A 1.32 1.32 0.0 0 1 442.65 848.03
  Q 460.53 880.09 445.31 914.42
  Z"
/>
</svg>
