<svg id="Layer_1" enable-background="new 0 0 100 100" height="512" viewBox="0 0 100 100" width="512" xmlns="http://www.w3.org/2000/svg"><g id="_x33_4.Messenger"><path id="Icon_78_" d="m50 10c-22.1 0-40 16.6-40 37.1 0 11.7 5.8 22.1 14.9 28.9l.2 13c0 .7.8 1.1 1.4.8l12.5-7c3.5.9 7.2 1.4 11.1 1.4 22.1 0 40-16.6 40-37.1s-18.1-37.1-40.1-37.1zm2.9 49.2-8.5-8.9c-.5-.5-1.3-.6-1.9-.3l-15 8.1c-.6.3-1.1-.4-.7-.9l17.7-18.8c.5-.5 1.4-.5 1.9 0l8.5 9.1c.5.5 1.3.7 1.9.3l14.7-8c.6-.3 1.1.4.7.9l-17.4 18.5c-.5.5-1.4.5-1.9 0z"/></g></svg>