<?xml version="1.0" encoding="utf-8"?>
<!-- Generator: Adobe Illustrator 26.5.0, SVG Export Plug-In . SVG Version: 6.00 Build 0)  -->
<svg version="1.1" id="Layer_1" xmlns="http://www.w3.org/2000/svg" xmlns:xlink="http://www.w3.org/1999/xlink" x="0px" y="0px"
	 viewBox="0 0 512 512" style="enable-background:new 0 0 512 512;" xml:space="preserve">
<style type="text/css">
	.st0{fill:#D80000;}
	.st1{fill:#FFFFFF;}
</style>
<path class="st0" d="M384,0c-58.8,0-106.7,47.9-106.7,106.7S325.2,213.3,384,213.3s106.7-47.9,106.7-106.7S442.8,0,384,0z"/>
<path class="st0" d="M384,0c-58.8,0-106.7,47.9-106.7,106.7S325.2,213.3,384,213.3V0z"/>
<path class="st1" d="M298.7,426.7c0,47.1-38.2,85.3-85.3,85.3S128,473.8,128,426.7s38.2-85.3,85.3-85.3S298.7,379.5,298.7,426.7z"/>
<path class="st1" d="M362.8,254.3c-72.3-10.3-128.2-72.5-128.2-147.6c0-21.3,4.6-41.6,12.7-59.9c-10.9-2.6-22.3-4.1-34-4.1
	C131,42.7,64,109.7,64,192v59.5c0,42.2-18.5,82.1-50.9,109.5C4.8,368.1,0,378.4,0,389.3c0,20.6,16.7,37.3,37.3,37.3h352
	c20.6,0,37.3-16.7,37.3-37.3c0-10.9-4.8-21.3-13.2-28.5C381.9,334.1,363.6,295.5,362.8,254.3L362.8,254.3z"/>
<path class="st1" d="M210.7,426.7H128c0,46.2,36.8,83.9,82.7,85.3V426.7z"/>
<path class="st1" d="M210.7,42.7C129.6,44.1,64,110.5,64,192v59.5c0,42.2-18.5,82.1-50.9,109.5C4.8,368.1,0,378.4,0,389.3
	c0,20.6,16.7,37.3,37.3,37.3H128h82.7V42.7z"/>
</svg>
