<svg id="Layer_1" height="512" viewBox="0 0 48 48" width="512" xmlns="http://www.w3.org/2000/svg" xmlns:xlink="http://www.w3.org/1999/xlink" data-name="Layer 1"><linearGradient id="linear-gradient" gradientUnits="userSpaceOnUse" x1="24" x2="24" y1="18.892" y2="47.949"><stop offset="0" stop-color="#bb723c"/><stop offset="1" stop-color="#543426"/></linearGradient><linearGradient id="linear-gradient-2" gradientUnits="userSpaceOnUse" x1="40.276" x2="40.276" y1="14.822" y2="25.178"><stop offset="0" stop-color="#c2763e"/><stop offset="1" stop-color="#8a552e"/></linearGradient><linearGradient id="linear-gradient-3" x1="31.452" x2="31.452" xlink:href="#linear-gradient-2" y1="3" y2="15.949"/><linearGradient id="linear-gradient-4" x1="16.548" x2="16.548" xlink:href="#linear-gradient-2" y1="3" y2="15.949"/><linearGradient id="linear-gradient-5" x1="7.724" x2="7.724" xlink:href="#linear-gradient-2" y1="14.822" y2="25.178"/><path d="m30.771 45a8.744 8.744 0 0 1 -5.035-1.583 3.047 3.047 0 0 0 -3.472 0 8.744 8.744 0 0 1 -5.035 1.583c-.193 0-.389-.006-.586-.019a8.9 8.9 0 0 1 -8.216-8.361 8.811 8.811 0 0 1 4.97-8.368 3.327 3.327 0 0 0 1.867-2.575 8.769 8.769 0 0 1 3.706-6.106 8.815 8.815 0 0 1 10.06 0 8.769 8.769 0 0 1 3.706 6.106 3.328 3.328 0 0 0 1.864 2.575 8.81 8.81 0 0 1 4.971 8.368 8.9 8.9 0 0 1 -8.217 8.361q-.292.019-.583.019z" fill="url(#linear-gradient)"/><path d="m40.032 25.178a4.277 4.277 0 0 1 -1.1-.145 4.427 4.427 0 0 1 -2.836-2.39 5.5 5.5 0 0 1 -.34-3.856 5.114 5.114 0 0 1 4.769-3.965 4.284 4.284 0 0 1 1.1.145 4.975 4.975 0 0 1 3.175 6.245 5.114 5.114 0 0 1 -4.77 3.966z" fill="url(#linear-gradient-2)"/><path d="m31.145 15.949a4.721 4.721 0 0 1 -.822-.072c-2.986-.526-4.91-3.827-4.287-7.357.564-3.199 2.971-5.52 5.723-5.52a4.721 4.721 0 0 1 .822.072c2.986.527 4.91 3.827 4.287 7.357-.563 3.2-2.971 5.52-5.723 5.52z" fill="url(#linear-gradient-3)"/><path d="m16.855 15.949c-2.752 0-5.16-2.321-5.723-5.52-.623-3.53 1.3-6.83 4.287-7.357a4.721 4.721 0 0 1 .822-.072c2.752 0 5.159 2.321 5.723 5.52.623 3.53-1.3 6.831-4.287 7.357a4.721 4.721 0 0 1 -.822.072z" fill="url(#linear-gradient-4)"/><path d="m7.968 25.178a5.114 5.114 0 0 1 -4.768-3.966 4.975 4.975 0 0 1 3.176-6.245 4.284 4.284 0 0 1 1.1-.145 5.114 5.114 0 0 1 4.769 3.966 5.5 5.5 0 0 1 -.34 3.855 4.427 4.427 0 0 1 -2.836 2.39 4.282 4.282 0 0 1 -1.101.145z" fill="url(#linear-gradient-5)"/></svg>