<svg id="Layer_1" enable-background="new 0 0 512 512" height="512" viewBox="0 0 512 512" width="512" xmlns="http://www.w3.org/2000/svg" xmlns:xlink="http://www.w3.org/1999/xlink"><linearGradient id="lg1"><stop offset=".0168" stop-color="#ccc"/><stop offset="1" stop-color="#f2f2f2"/></linearGradient><linearGradient id="SVGID_1_" gradientTransform="matrix(1 0 0 -1 0 512)" gradientUnits="userSpaceOnUse" x1="187.79" x2="187.79" xlink:href="#lg1" y1="5.766" y2="511"/><linearGradient id="SVGID_2_" gradientTransform="matrix(1 0 0 -1 0 512)" gradientUnits="userSpaceOnUse" x1="271.393" x2="271.393" y1="346.379" y2="458.167"><stop offset="0" stop-color="#0969db"/><stop offset="1" stop-color="#4f8aff"/></linearGradient><linearGradient id="lg2"><stop offset="0" stop-color="#41262f"/><stop offset="1" stop-color="#543843"/></linearGradient><linearGradient id="SVGID_3_" gradientTransform="matrix(1 0 0 -1 0 512)" gradientUnits="userSpaceOnUse" x1="112.806" x2="112.806" xlink:href="#lg2" y1="452.741" y2="463.592"/><linearGradient id="SVGID_4_" gradientTransform="matrix(1 0 0 -1 0 512)" gradientUnits="userSpaceOnUse" x1="112.806" x2="112.806" xlink:href="#lg2" y1="405.241" y2="416.092"/><linearGradient id="SVGID_5_" gradientTransform="matrix(1 0 0 -1 0 512)" gradientUnits="userSpaceOnUse" x1="112.806" x2="112.806" xlink:href="#lg2" y1="357.738" y2="368.589"/><linearGradient id="SVGID_6_" gradientTransform="matrix(1 0 0 -1 0 512)" gradientUnits="userSpaceOnUse" x1="164.602" x2="164.602" xlink:href="#lg2" y1="310.236" y2="321.087"/><linearGradient id="SVGID_7_" gradientTransform="matrix(1 0 0 -1 0 512)" gradientUnits="userSpaceOnUse" x1="99.398" x2="99.398" xlink:href="#lg2" y1="262.733" y2="273.584"/><linearGradient id="SVGID_8_" gradientTransform="matrix(1 0 0 -1 0 512)" gradientUnits="userSpaceOnUse" x1="85.776" x2="85.776" xlink:href="#lg2" y1="215.233" y2="226.084"/><linearGradient id="SVGID_9_" gradientTransform="matrix(1 0 0 -1 0 512)" gradientUnits="userSpaceOnUse" x1="89.731" x2="89.731" xlink:href="#lg2" y1="167.731" y2="178.582"/><linearGradient id="SVGID_10_" gradientTransform="matrix(1 0 0 -1 0 512)" gradientUnits="userSpaceOnUse" x1="114.885" x2="114.885" xlink:href="#lg2" y1="120.228" y2="131.079"/><linearGradient id="SVGID_11_" gradientTransform="matrix(1 0 0 -1 0 512)" gradientUnits="userSpaceOnUse" x1="129.766" x2="129.766" xlink:href="#lg2" y1="72.725" y2="83.576"/><linearGradient id="SVGID_12_" gradientTransform="matrix(1 0 0 -1 0 512)" gradientUnits="userSpaceOnUse" x1="437.096" x2="437.096" xlink:href="#lg1" y1="119.867" y2="440.317"/><linearGradient id="SVGID_13_" gradientTransform="matrix(1 0 0 -1 0 512)" gradientUnits="userSpaceOnUse" x1="475.374" x2="475.374" xlink:href="#lg2" y1="250.325" y2="328.734"/><linearGradient id="lg3"><stop offset="0" stop-color="#f9403e"/><stop offset="1" stop-color="#f77953"/></linearGradient><linearGradient id="SVGID_14_" gradientTransform="matrix(1 0 0 -1 0 512)" gradientUnits="userSpaceOnUse" x1="358.558" x2="358.558" xlink:href="#lg3" y1="142.259" y2="401.126"/><linearGradient id="SVGID_15_" gradientTransform="matrix(1 0 0 -1 0 512)" gradientUnits="userSpaceOnUse" x1="222.604" x2="222.604" xlink:href="#lg1" y1="135.731" y2="284.811"/><linearGradient id="SVGID_16_" gradientTransform="matrix(1 0 0 -1 0 512)" gradientUnits="userSpaceOnUse" x1="158.663" x2="158.663" xlink:href="#lg3" y1="149.959" y2="234.057"/><linearGradient id="SVGID_17_" gradientTransform="matrix(1 0 0 -1 0 512)" gradientUnits="userSpaceOnUse" x1="258.746" x2="258.746" y1="1" y2="155.607"><stop offset="0" stop-color="#f79808"/><stop offset="1" stop-color="#ecbd0b"/></linearGradient><linearGradient id="SVGID_18_" gradientTransform="matrix(1 0 0 -1 0 512)" gradientUnits="userSpaceOnUse" x1="291.715" x2="291.715" xlink:href="#lg3" y1="65.538" y2="124.247"/><linearGradient id="SVGID_19_" gradientTransform="matrix(1 0 0 -1 0 512)" gradientUnits="userSpaceOnUse" x1="212.858" x2="212.858" xlink:href="#lg2" y1="225.608" y2="252.332"/><linearGradient id="SVGID_20_" gradientTransform="matrix(1 0 0 -1 0 512)" gradientUnits="userSpaceOnUse" x1="222.607" x2="222.607" xlink:href="#lg2" y1="196.906" y2="223.632"/><linearGradient id="SVGID_21_" gradientTransform="matrix(1 0 0 -1 0 512)" gradientUnits="userSpaceOnUse" x1="232.35" x2="232.35" xlink:href="#lg2" y1="168.206" y2="194.931"/><g id="_x31_3_Publications"><g><path d="m372.266 47.127v412.979c0 25.484-20.642 46.128-46.126 46.128h-276.7c-20.702 0-38.254-13.646-44.028-32.481-1.4-4.316-2.099-8.864-2.099-13.646v-412.98c.001-25.484 20.643-46.127 46.128-46.127h276.7c4.957 0 9.68.759 14.111 2.158 18.602 6.007 32.014 23.443 32.014 43.969z" fill="url(#SVGID_1_)"/><path d="m223.167 53.833h96.451v111.788h-96.451z" fill="url(#SVGID_2_)"/><g><path d="m161.031 59.259h-96.451c-2.999 0-5.426-2.429-5.426-5.426s2.427-5.426 5.426-5.426h96.451c2.999 0 5.426 2.429 5.426 5.426s-2.427 5.426-5.426 5.426z" fill="url(#SVGID_3_)"/></g><g><path d="m161.031 106.759h-96.451c-2.999 0-5.426-2.429-5.426-5.426s2.427-5.426 5.426-5.426h96.451c2.999 0 5.426 2.429 5.426 5.426s-2.427 5.426-5.426 5.426z" fill="url(#SVGID_4_)"/></g><g><path d="m161.031 154.262h-96.451c-2.999 0-5.426-2.429-5.426-5.426s2.427-5.426 5.426-5.426h96.451c2.999 0 5.426 2.429 5.426 5.426s-2.427 5.426-5.426 5.426z" fill="url(#SVGID_5_)"/></g><g><path d="m264.625 201.764h-200.045c-2.999 0-5.426-2.429-5.426-5.426s2.427-5.426 5.426-5.426h200.045c2.999 0 5.426 2.429 5.426 5.426s-2.427 5.426-5.426 5.426z" fill="url(#SVGID_6_)"/></g><g><path d="m134.216 249.267h-69.636c-2.999 0-5.426-2.429-5.426-5.426s2.427-5.426 5.426-5.426h69.636c2.999 0 5.426 2.429 5.426 5.426s-2.427 5.426-5.426 5.426z" fill="url(#SVGID_7_)"/></g><g><path d="m106.972 296.767h-42.392c-2.999 0-5.426-2.429-5.426-5.426s2.427-5.426 5.426-5.426h42.393c2.999 0 5.426 2.429 5.426 5.426-.002 2.997-2.428 5.426-5.427 5.426z" fill="url(#SVGID_8_)"/></g><g><path d="m114.882 344.269h-50.302c-2.999 0-5.426-2.429-5.426-5.426s2.427-5.426 5.426-5.426h50.302c2.999 0 5.426 2.429 5.426 5.426s-2.427 5.426-5.426 5.426z" fill="url(#SVGID_9_)"/></g><g><path d="m165.191 391.772h-100.611c-2.999 0-5.426-2.429-5.426-5.426s2.427-5.426 5.426-5.426h100.611c2.999 0 5.426 2.429 5.426 5.426-.001 2.997-2.427 5.426-5.426 5.426z" fill="url(#SVGID_10_)"/></g><g><path d="m194.952 439.275h-130.372c-2.999 0-5.426-2.429-5.426-5.426s2.427-5.426 5.426-5.426h130.372c2.999 0 5.426 2.429 5.426 5.426-.001 2.996-2.428 5.426-5.426 5.426z" fill="url(#SVGID_11_)"/></g><path d="m416.131 89.328 91.168 268.439c4.615 13.59-2.667 28.365-16.258 32.98-13.59 4.616-28.365-2.669-32.98-16.258l-91.169-268.439c-4.616-13.59 2.668-28.365 16.258-32.981 13.584-4.613 28.365 2.668 32.981 16.259z" fill="url(#SVGID_12_)"/><path d="m494.049 247.511c-4.674 6.419-11.303 11.442-19.398 14.164l-25.887-76.264c8.093-2.722 16.397-2.791 24.003-.558 12.281 3.489 22.607 12.769 27.073 25.816 4.396 12.978 1.815 26.585-5.791 36.842z" fill="url(#SVGID_13_)"/><path d="m456.383 369.741c-9.42-5.792-18.49-10.885-27.213-15.352-51.215-25.957-92.173-29.515-135.224-19.258l-33.213-97.894c40.4-18.072 70.682-45.842 95.453-97.545 4.256-8.862 8.303-18.421 12.281-28.818z" fill="url(#SVGID_14_)"/><path d="m260.962 238.071 30.835 90.79c2.846 8.38-1.648 17.495-10.028 20.341l-77.181 26.212c-8.38 2.846-17.495-1.648-20.341-10.028l-30.835-90.79c-2.846-8.38 1.648-17.495 10.028-20.341l77.181-26.212c8.379-2.845 17.495 1.648 20.341 10.028z" fill="url(#SVGID_15_)"/><path d="m154.549 277.943c-16.564 15.345-24.337 35.326-18.296 53.113s24.374 28.901 46.858 30.984z" fill="url(#SVGID_16_)"/><path d="m260.595 356.393 41.486 122.152c4.36 12.84-2.513 26.782-15.353 31.143-12.84 4.36-26.782-2.513-31.143-15.353l-41.485-122.151z" fill="url(#SVGID_17_)"/><path d="m310.035 408.218c5.33 15.693-3.076 32.886-18.851 38.243l-19.391-57.097c15.775-5.357 32.885 3.077 38.242 18.854z" fill="url(#SVGID_18_)"/><g><path d="m184.35 282.71c-.959-2.837.556-5.921 3.397-6.883l46.737-15.871c2.845-.959 5.918.559 6.883 3.391.959 2.837-.556 5.921-3.397 6.883l-46.737 15.871c-2.866.972-5.926-.578-6.883-3.391z" fill="url(#SVGID_19_)"/></g><g><path d="m194.098 311.412c-.959-2.837.556-5.918 3.397-6.883l46.737-15.874c2.856-.959 5.923.559 6.883 3.391.959 2.838-.556 5.918-3.397 6.883l-46.737 15.874c-2.865.972-5.925-.578-6.883-3.391z" fill="url(#SVGID_20_)"/></g><g><path d="m203.842 340.112c-.959-2.837.556-5.918 3.397-6.883l46.737-15.874c2.856-.959 5.923.559 6.883 3.391.959 2.837-.556 5.918-3.397 6.883l-46.737 15.874c-2.866.973-5.926-.578-6.883-3.391z" fill="url(#SVGID_21_)"/></g></g></g></svg>