<?xml version="1.0" encoding="utf-8"?>
<!-- Generator: Adobe Illustrator 26.5.0, SVG Export Plug-In . SVG Version: 6.00 Build 0)  -->
<svg version="1.1" id="Layer_1" xmlns="http://www.w3.org/2000/svg" xmlns:xlink="http://www.w3.org/1999/xlink" x="0px" y="0px"
	 viewBox="0 0 512 512" style="enable-background:new 0 0 512 512;" xml:space="preserve">
<style type="text/css">
	.st0{fill:#65676B;}
</style>
<path class="st0" d="M494.5,172L378.6,56.1c-9.6-9.6-19.3-14.4-28.8-14.4c-13.1,0-28.5,10-28.5,38.1v39.5
	c-84.2,3.7-162.8,38.2-222.8,98.2C35,281,0,365.5,0,455.3c0,6.5,4.1,12.2,10.2,14.2c1.6,0.5,3.2,0.8,4.7,0.8c4.6,0,9.1-2.1,12-6
	c70.8-94.3,177.4-150,294.3-154.4v38.8c0,28.2,15.3,38.1,28.5,38.1h0c9.6,0,19.3-4.8,28.8-14.4l115.9-115.9
	c11.3-11.3,17.5-26.3,17.5-42.3C512,198.3,505.8,183.3,494.5,172L494.5,172z M473.3,235.4L357.4,351.3c-2.2,2.2-4.1,3.6-5.4,4.5
	c-0.4-1.6-0.7-3.9-0.7-7v-54.1c0-8.3-6.7-15-15-15c-66.6,0-130.3,15.3-189.3,45.4c-42.3,21.6-81,50.7-113.8,85.4
	C55.1,262.7,182.7,149,336.3,149c8.3,0,15-6.7,15-15V79.8c0-3.1,0.3-5.4,0.7-7c1.4,0.9,3.2,2.3,5.4,4.5l115.9,115.9
	c5.6,5.6,8.7,13.1,8.7,21.1C482,222.3,478.9,229.8,473.3,235.4L473.3,235.4z"/>
</svg>
