<?xml version="1.0" encoding="UTF-8" standalone="no"?>
<svg xmlns="http://www.w3.org/2000/svg" version="1.2" baseProfile="tiny" viewBox="0.00 0.00 1448.00 1448.00">
<g stroke-width="2.00" fill="none" stroke-linecap="butt">
<path stroke="#e8808d" vector-effect="non-scaling-stroke" d="
  M 628.82 635.69
  Q 557.54 635.89 527.50 635.73
  C 520.84 635.69 516.37 639.31 516.50 645.96
  Q 516.54 648.48 516.66 650.99
  Q 523.89 812.56 531.33 974.11
  C 532.22 993.55 544.15 1011.56 563.25 1016.65
  Q 568.62 1018.09 579.88 1018.09
  Q 738.48 1018.09 897.08 1018.09
  Q 906.70 1018.09 911.33 1017.04
  C 927.01 1013.50 939.73 1000.62 944.08 985.55
  Q 945.75 979.78 946.44 965.76
  Q 954.18 807.72 962.05 649.69
  Q 962.35 643.66 961.03 641.01
  Q 958.44 635.80 951.23 635.80
  Q 900.48 635.82 849.57 635.71
  Q 849.04 635.71 849.02 635.17
  C 847.03 584.63 817.37 533.42 766.78 518.22
  C 754.36 514.49 743.54 514.34 728.25 515.21
  Q 719.82 515.69 712.29 518.03
  C 660.85 534.03 632.34 582.85 629.46 635.08
  Q 629.43 635.69 628.82 635.69"
/>
<path stroke="#e8808d" vector-effect="non-scaling-stroke" d="
  M 528.29 1088.72
  C 527.13 1088.25 525.70 1087.22 524.78 1086.94
  Q 517.29 1084.63 510.32 1081.14
  C 502.48 1077.21 502.51 1065.73 511.00 1062.86
  Q 522.15 1059.08 532.21 1066.31
  A 1.53 1.51 62.6 0 0 533.10 1066.60
  C 537.22 1066.62 539.70 1061.61 536.04 1059.16
  C 524.50 1051.42 503.62 1050.42 497.60 1065.83
  C 493.38 1076.62 500.22 1086.63 510.38 1090.16
  C 519.00 1093.15 535.81 1097.42 533.76 1109.45
  C 532.50 1116.83 524.51 1119.67 517.74 1119.24
  Q 508.21 1118.63 501.25 1113.42
  Q 498.63 1111.46 497.72 1111.18
  C 493.78 1109.98 490.75 1115.09 493.88 1117.86
  C 503.57 1126.45 518.96 1130.34 531.20 1124.29
  C 547.47 1116.26 544.06 1095.14 528.29 1088.72"
/>
<path stroke="#e8808d" vector-effect="non-scaling-stroke" d="
  M 548.80 1056.36
  L 548.64 1056.12
  Q 548.55 1055.99 548.55 1056.15
  Q 548.54 1089.39 548.57 1122.63
  Q 548.57 1124.54 549.15 1125.49
  C 550.48 1127.68 554.04 1127.96 555.64 1126.10
  Q 556.58 1125.01 556.61 1122.65
  Q 556.70 1115.36 556.61 1108.06
  Q 556.52 1100.98 557.81 1097.83
  Q 560.94 1090.22 570.20 1090.69
  C 579.52 1091.17 581.64 1097.16 581.73 1105.75
  Q 581.81 1113.87 581.78 1122.00
  Q 581.78 1124.67 582.75 1125.91
  C 584.53 1128.18 589.76 1127.46 589.78 1124.25
  Q 589.86 1114.24 589.89 1104.21
  C 589.91 1097.08 589.03 1091.50 583.70 1087.31
  Q 571.25 1077.54 557.13 1086.01
  Q 556.63 1086.31 556.63 1085.73
  Q 556.58 1072.78 556.66 1059.83
  Q 556.68 1056.90 556.08 1055.76
  C 554.67 1053.10 550.30 1053.46 548.90 1056.36
  Q 548.86 1056.44 548.80 1056.36"
/>
<path stroke="#e8808d" vector-effect="non-scaling-stroke" d="
  M 960.17 1122.47
  C 959.72 1117.14 951.87 1119.69 951.86 1112.25
  Q 951.82 1086.87 951.80 1061.48
  C 951.79 1055.04 943.38 1054.85 943.35 1061.80
  Q 943.22 1086.40 943.36 1111.00
  Q 943.42 1122.61 953.35 1126.52
  C 956.72 1127.85 960.52 1126.59 960.17 1122.47"
/>
<path stroke="#e8808d" vector-effect="non-scaling-stroke" d="
  M 981.73 1120.65
  C 979.65 1117.33 972.76 1118.95 972.75 1113.25
  Q 972.71 1087.25 972.75 1061.25
  C 972.76 1055.23 964.25 1054.85 964.25 1061.75
  Q 964.25 1084.44 964.26 1107.15
  C 964.26 1116.94 965.44 1123.90 975.34 1126.62
  C 977.59 1127.24 979.50 1127.78 981.06 1126.03
  Q 983.44 1123.36 981.73 1120.65"
/>
<path stroke="#e8808d" vector-effect="non-scaling-stroke" d="
  M 857.88 1072.38
  Q 847.38 1074.85 839.28 1069.07
  C 834.56 1065.70 830.63 1058.78 824.77 1057.97
  C 820.26 1057.34 818.23 1060.61 818.23 1064.84
  Q 818.23 1093.80 818.20 1122.75
  C 818.20 1126.95 823.57 1128.44 825.93 1125.89
  Q 827.25 1124.46 827.25 1121.25
  Q 827.25 1095.75 827.24 1070.24
  A 0.38 0.38 0.0 0 1 827.91 1070.00
  C 840.64 1085.50 861.62 1085.45 874.86 1070.42
  A 0.41 0.40 -24.1 0 1 875.57 1070.69
  Q 875.51 1095.95 875.54 1121.50
  Q 875.54 1123.81 876.10 1124.90
  C 877.40 1127.41 881.00 1127.82 882.91 1125.88
  Q 884.29 1124.46 884.29 1121.73
  Q 884.30 1092.03 884.30 1062.18
  A 1.34 1.34 0.0 0 0 884.05 1061.40
  C 876.92 1051.41 869.22 1065.43 862.83 1069.76
  Q 859.56 1071.98 857.88 1072.38"
/>
<path stroke="#e8808d" vector-effect="non-scaling-stroke" d="
  M 643.2449 1104.1439
  A 23.21 22.59 -1.2 0 0 619.5669 1082.0450
  A 23.21 22.59 -1.2 0 0 596.8351 1105.1161
  A 23.21 22.59 -1.2 0 0 620.5131 1127.2150
  A 23.21 22.59 -1.2 0 0 643.2449 1104.1439"
/>
<path stroke="#e8808d" vector-effect="non-scaling-stroke" d="
  M 657.97 1086.78
  L 657.72 1084.73
  Q 657.65 1084.16 657.22 1083.79
  C 654.96 1081.81 650.00 1082.00 649.97 1085.75
  Q 649.85 1099.21 649.91 1145.67
  Q 649.91 1148.37 650.88 1149.61
  C 652.71 1151.95 658.01 1151.15 657.99 1147.72
  Q 657.94 1135.17 657.99 1122.40
  Q 657.99 1121.75 658.51 1122.14
  Q 668.99 1130.01 680.74 1125.97
  C 692.92 1121.79 700.32 1107.66 694.42 1095.58
  C 687.68 1081.77 671.09 1077.77 658.58 1087.04
  Q 658.05 1087.43 657.97 1086.78"
/>
<path stroke="#e8808d" vector-effect="non-scaling-stroke" d="
  M 733.12 1083.94
  C 724.25 1079.73 712.08 1082.47 706.81 1091.55
  C 699.38 1104.38 702.67 1122.47 718.73 1126.30
  Q 730.41 1129.09 740.75 1123.59
  C 744.08 1121.82 743.65 1116.30 739.98 1116.15
  Q 738.83 1116.10 736.22 1117.27
  C 727.05 1121.36 712.36 1120.25 711.27 1107.59
  A 0.50 0.49 -2.7 0 1 711.76 1107.06
  Q 725.83 1106.74 739.69 1106.90
  C 742.12 1106.93 744.48 1106.42 744.66 1103.72
  Q 745.10 1097.10 741.85 1091.74
  Q 738.72 1086.59 733.12 1083.94"
/>
<path stroke="#e8808d" vector-effect="non-scaling-stroke" d="
  M 763.14 1115.35
  Q 760.26 1112.23 759.87 1107.89
  Q 759.79 1106.99 760.70 1106.97
  Q 776.02 1106.70 790.01 1107.07
  C 791.86 1107.12 793.25 1104.61 793.24 1102.76
  C 793.18 1089.17 783.31 1081.12 770.27 1082.10
  Q 758.75 1082.98 753.63 1094.70
  Q 748.97 1105.36 754.12 1116.00
  Q 755.94 1119.76 758.60 1122.01
  Q 761.54 1124.48 765.35 1125.71
  Q 777.40 1129.59 788.63 1123.86
  C 794.34 1120.94 791.30 1114.17 786.61 1116.35
  Q 778.18 1120.28 769.92 1118.83
  Q 765.65 1118.08 763.14 1115.35"
/>
<path stroke="#e8808d" vector-effect="non-scaling-stroke" d="
  M 928.35 1122.34
  Q 928.32 1126.64 931.96 1127.27
  C 935.49 1127.88 936.83 1124.90 936.84 1121.76
  Q 936.89 1105.74 936.87 1089.71
  C 936.87 1087.15 936.90 1084.73 934.15 1083.73
  Q 930.58 1082.43 927.99 1087.13
  Q 927.83 1087.41 927.57 1087.21
  C 920.17 1081.52 911.10 1080.65 902.68 1084.84
  C 892.09 1090.13 886.67 1103.46 892.31 1114.60
  C 898.95 1127.73 916.01 1131.22 927.76 1122.05
  Q 928.36 1121.58 928.35 1122.34"
/>
<path stroke="#e8808d" vector-effect="non-scaling-stroke" d="
  M 800.06 577.47
  C 776.97 544.07 734.75 532.65 699.87 556.11
  C 674.34 573.29 660.49 605.05 659.59 635.30
  Q 659.57 635.75 660.02 635.75
  L 818.49 635.75
  Q 818.99 635.75 818.97 635.25
  Q 817.97 603.37 800.06 577.47"
/>
<path stroke="#e8808d" vector-effect="non-scaling-stroke" d="
  M 819.14 865.64
  C 809.02 831.62 763.23 815.27 732.53 805.13
  C 710.15 797.74 679.94 780.97 688.40 751.78
  Q 691.58 740.81 698.93 734.36
  C 714.62 720.59 733.25 718.86 753.19 722.07
  Q 776.40 725.80 796.20 739.06
  C 797.73 740.08 799.96 740.73 801.13 739.12
  Q 802.80 736.84 807.41 729.12
  C 809.87 725.01 812.24 722.69 807.23 719.53
  Q 773.62 698.37 735.00 698.51
  C 710.59 698.59 686.54 708.80 672.58 729.13
  C 657.88 750.55 658.86 777.85 675.71 797.76
  Q 683.70 807.20 694.20 813.78
  Q 699.74 817.25 712.15 822.52
  Q 727.10 828.87 733.50 830.97
  C 757.29 838.80 790.41 849.74 796.59 877.45
  C 801.00 897.24 788.61 914.75 770.80 922.34
  Q 748.75 931.74 724.98 927.73
  Q 695.16 922.70 670.55 902.49
  C 668.63 900.91 666.09 899.56 664.34 901.82
  Q 661.84 905.06 655.84 914.37
  C 654.07 917.12 652.55 918.08 655.46 920.51
  Q 671.78 934.18 688.33 941.11
  C 716.00 952.70 750.54 956.93 778.75 945.47
  C 805.35 934.68 822.03 910.78 821.45 881.75
  Q 821.27 872.80 819.14 865.64"
/>
<path stroke="#e8808d" vector-effect="non-scaling-stroke" d="
  M 635.2256 1105.2821
  A 15.18 14.57 2.5 0 0 620.6955 1090.0639
  A 15.18 14.57 2.5 0 0 604.8944 1103.9579
  A 15.18 14.57 2.5 0 0 619.4245 1119.1761
  A 15.18 14.57 2.5 0 0 635.2256 1105.2821"
/>
<path stroke="#e8808d" vector-effect="non-scaling-stroke" d="
  M 688.3396 1104.7161
  A 15.20 14.55 0.4 0 0 673.2416 1090.0604
  A 15.20 14.55 0.4 0 0 657.9404 1104.5039
  A 15.20 14.55 0.4 0 0 673.0384 1119.1596
  A 15.20 14.55 0.4 0 0 688.3396 1104.7161"
/>
<path stroke="#e8808d" vector-effect="non-scaling-stroke" d="
  M 712.46 1099.31
  L 736.00 1099.27
  A 0.11 0.11 0.0 0 0 736.11 1099.16
  L 736.11 1099.10
  A 11.78 9.07 -0.1 0 0 724.31 1090.05
  L 724.11 1090.05
  A 11.78 9.07 -0.1 0 0 712.35 1099.14
  L 712.35 1099.20
  A 0.11 0.11 0.0 0 0 712.46 1099.31"
/>
<path stroke="#e8808d" vector-effect="non-scaling-stroke" d="
  M 761.10 1099.39
  L 784.52 1099.23
  A 0.15 0.15 0.0 0 0 784.67 1099.08
  L 784.67 1098.98
  A 11.75 9.01 -0.4 0 0 772.86 1090.05
  L 772.64 1090.05
  A 11.75 9.01 -0.4 0 0 760.95 1099.14
  L 760.95 1099.24
  A 0.15 0.15 0.0 0 0 761.10 1099.39"
/>
<path stroke="#e8808d" vector-effect="non-scaling-stroke" d="
  M 928.2177 1104.4351
  A 15.18 14.52 -1.0 0 0 912.7866 1090.1822
  A 15.18 14.52 -1.0 0 0 897.8623 1104.9649
  A 15.18 14.52 -1.0 0 0 913.2934 1119.2178
  A 15.18 14.52 -1.0 0 0 928.2177 1104.4351"
/>
</g>
<path fill="#d0011b" d="
  M 1083.21 528.97
  L 1083.21 1129.27
  A 50.74 50.74 0.0 0 1 1032.47 1180.01
  L 432.21 1180.01
  A 50.74 50.74 0.0 0 1 381.47 1129.27
  L 381.47 528.97
  A 50.74 50.74 0.0 0 1 432.21 478.23
  L 1032.47 478.23
  A 50.74 50.74 0.0 0 1 1083.21 528.97
  Z
  M 628.82 635.69
  Q 557.54 635.89 527.50 635.73
  C 520.84 635.69 516.37 639.31 516.50 645.96
  Q 516.54 648.48 516.66 650.99
  Q 523.89 812.56 531.33 974.11
  C 532.22 993.55 544.15 1011.56 563.25 1016.65
  Q 568.62 1018.09 579.88 1018.09
  Q 738.48 1018.09 897.08 1018.09
  Q 906.70 1018.09 911.33 1017.04
  C 927.01 1013.50 939.73 1000.62 944.08 985.55
  Q 945.75 979.78 946.44 965.76
  Q 954.18 807.72 962.05 649.69
  Q 962.35 643.66 961.03 641.01
  Q 958.44 635.80 951.23 635.80
  Q 900.48 635.82 849.57 635.71
  Q 849.04 635.71 849.02 635.17
  C 847.03 584.63 817.37 533.42 766.78 518.22
  C 754.36 514.49 743.54 514.34 728.25 515.21
  Q 719.82 515.69 712.29 518.03
  C 660.85 534.03 632.34 582.85 629.46 635.08
  Q 629.43 635.69 628.82 635.69
  Z
  M 528.29 1088.72
  C 527.13 1088.25 525.70 1087.22 524.78 1086.94
  Q 517.29 1084.63 510.32 1081.14
  C 502.48 1077.21 502.51 1065.73 511.00 1062.86
  Q 522.15 1059.08 532.21 1066.31
  A 1.53 1.51 62.6 0 0 533.10 1066.60
  C 537.22 1066.62 539.70 1061.61 536.04 1059.16
  C 524.50 1051.42 503.62 1050.42 497.60 1065.83
  C 493.38 1076.62 500.22 1086.63 510.38 1090.16
  C 519.00 1093.15 535.81 1097.42 533.76 1109.45
  C 532.50 1116.83 524.51 1119.67 517.74 1119.24
  Q 508.21 1118.63 501.25 1113.42
  Q 498.63 1111.46 497.72 1111.18
  C 493.78 1109.98 490.75 1115.09 493.88 1117.86
  C 503.57 1126.45 518.96 1130.34 531.20 1124.29
  C 547.47 1116.26 544.06 1095.14 528.29 1088.72
  Z
  M 548.80 1056.36
  L 548.64 1056.12
  Q 548.55 1055.99 548.55 1056.15
  Q 548.54 1089.39 548.57 1122.63
  Q 548.57 1124.54 549.15 1125.49
  C 550.48 1127.68 554.04 1127.96 555.64 1126.10
  Q 556.58 1125.01 556.61 1122.65
  Q 556.70 1115.36 556.61 1108.06
  Q 556.52 1100.98 557.81 1097.83
  Q 560.94 1090.22 570.20 1090.69
  C 579.52 1091.17 581.64 1097.16 581.73 1105.75
  Q 581.81 1113.87 581.78 1122.00
  Q 581.78 1124.67 582.75 1125.91
  C 584.53 1128.18 589.76 1127.46 589.78 1124.25
  Q 589.86 1114.24 589.89 1104.21
  C 589.91 1097.08 589.03 1091.50 583.70 1087.31
  Q 571.25 1077.54 557.13 1086.01
  Q 556.63 1086.31 556.63 1085.73
  Q 556.58 1072.78 556.66 1059.83
  Q 556.68 1056.90 556.08 1055.76
  C 554.67 1053.10 550.30 1053.46 548.90 1056.36
  Q 548.86 1056.44 548.80 1056.36
  Z
  M 960.17 1122.47
  C 959.72 1117.14 951.87 1119.69 951.86 1112.25
  Q 951.82 1086.87 951.80 1061.48
  C 951.79 1055.04 943.38 1054.85 943.35 1061.80
  Q 943.22 1086.40 943.36 1111.00
  Q 943.42 1122.61 953.35 1126.52
  C 956.72 1127.85 960.52 1126.59 960.17 1122.47
  Z
  M 981.73 1120.65
  C 979.65 1117.33 972.76 1118.95 972.75 1113.25
  Q 972.71 1087.25 972.75 1061.25
  C 972.76 1055.23 964.25 1054.85 964.25 1061.75
  Q 964.25 1084.44 964.26 1107.15
  C 964.26 1116.94 965.44 1123.90 975.34 1126.62
  C 977.59 1127.24 979.50 1127.78 981.06 1126.03
  Q 983.44 1123.36 981.73 1120.65
  Z
  M 857.88 1072.38
  Q 847.38 1074.85 839.28 1069.07
  C 834.56 1065.70 830.63 1058.78 824.77 1057.97
  C 820.26 1057.34 818.23 1060.61 818.23 1064.84
  Q 818.23 1093.80 818.20 1122.75
  C 818.20 1126.95 823.57 1128.44 825.93 1125.89
  Q 827.25 1124.46 827.25 1121.25
  Q 827.25 1095.75 827.24 1070.24
  A 0.38 0.38 0.0 0 1 827.91 1070.00
  C 840.64 1085.50 861.62 1085.45 874.86 1070.42
  A 0.41 0.40 -24.1 0 1 875.57 1070.69
  Q 875.51 1095.95 875.54 1121.50
  Q 875.54 1123.81 876.10 1124.90
  C 877.40 1127.41 881.00 1127.82 882.91 1125.88
  Q 884.29 1124.46 884.29 1121.73
  Q 884.30 1092.03 884.30 1062.18
  A 1.34 1.34 0.0 0 0 884.05 1061.40
  C 876.92 1051.41 869.22 1065.43 862.83 1069.76
  Q 859.56 1071.98 857.88 1072.38
  Z
  M 643.2449 1104.1439
  A 23.21 22.59 -1.2 0 0 619.5669 1082.0450
  A 23.21 22.59 -1.2 0 0 596.8351 1105.1161
  A 23.21 22.59 -1.2 0 0 620.5131 1127.2150
  A 23.21 22.59 -1.2 0 0 643.2449 1104.1439
  Z
  M 657.97 1086.78
  L 657.72 1084.73
  Q 657.65 1084.16 657.22 1083.79
  C 654.96 1081.81 650.00 1082.00 649.97 1085.75
  Q 649.85 1099.21 649.91 1145.67
  Q 649.91 1148.37 650.88 1149.61
  C 652.71 1151.95 658.01 1151.15 657.99 1147.72
  Q 657.94 1135.17 657.99 1122.40
  Q 657.99 1121.75 658.51 1122.14
  Q 668.99 1130.01 680.74 1125.97
  C 692.92 1121.79 700.32 1107.66 694.42 1095.58
  C 687.68 1081.77 671.09 1077.77 658.58 1087.04
  Q 658.05 1087.43 657.97 1086.78
  Z
  M 733.12 1083.94
  C 724.25 1079.73 712.08 1082.47 706.81 1091.55
  C 699.38 1104.38 702.67 1122.47 718.73 1126.30
  Q 730.41 1129.09 740.75 1123.59
  C 744.08 1121.82 743.65 1116.30 739.98 1116.15
  Q 738.83 1116.10 736.22 1117.27
  C 727.05 1121.36 712.36 1120.25 711.27 1107.59
  A 0.50 0.49 -2.7 0 1 711.76 1107.06
  Q 725.83 1106.74 739.69 1106.90
  C 742.12 1106.93 744.48 1106.42 744.66 1103.72
  Q 745.10 1097.10 741.85 1091.74
  Q 738.72 1086.59 733.12 1083.94
  Z
  M 763.14 1115.35
  Q 760.26 1112.23 759.87 1107.89
  Q 759.79 1106.99 760.70 1106.97
  Q 776.02 1106.70 790.01 1107.07
  C 791.86 1107.12 793.25 1104.61 793.24 1102.76
  C 793.18 1089.17 783.31 1081.12 770.27 1082.10
  Q 758.75 1082.98 753.63 1094.70
  Q 748.97 1105.36 754.12 1116.00
  Q 755.94 1119.76 758.60 1122.01
  Q 761.54 1124.48 765.35 1125.71
  Q 777.40 1129.59 788.63 1123.86
  C 794.34 1120.94 791.30 1114.17 786.61 1116.35
  Q 778.18 1120.28 769.92 1118.83
  Q 765.65 1118.08 763.14 1115.35
  Z
  M 928.35 1122.34
  Q 928.32 1126.64 931.96 1127.27
  C 935.49 1127.88 936.83 1124.90 936.84 1121.76
  Q 936.89 1105.74 936.87 1089.71
  C 936.87 1087.15 936.90 1084.73 934.15 1083.73
  Q 930.58 1082.43 927.99 1087.13
  Q 927.83 1087.41 927.57 1087.21
  C 920.17 1081.52 911.10 1080.65 902.68 1084.84
  C 892.09 1090.13 886.67 1103.46 892.31 1114.60
  C 898.95 1127.73 916.01 1131.22 927.76 1122.05
  Q 928.36 1121.58 928.35 1122.34
  Z"
/>
<path fill="#ffffff" d="
  M 629.46 635.08
  C 632.34 582.85 660.85 534.03 712.29 518.03
  Q 719.82 515.69 728.25 515.21
  C 743.54 514.34 754.36 514.49 766.78 518.22
  C 817.37 533.42 847.03 584.63 849.02 635.17
  Q 849.04 635.71 849.57 635.71
  Q 900.48 635.82 951.23 635.80
  Q 958.44 635.80 961.03 641.01
  Q 962.35 643.66 962.05 649.69
  Q 954.18 807.72 946.44 965.76
  Q 945.75 979.78 944.08 985.55
  C 939.73 1000.62 927.01 1013.50 911.33 1017.04
  Q 906.70 1018.09 897.08 1018.09
  Q 738.48 1018.09 579.88 1018.09
  Q 568.62 1018.09 563.25 1016.65
  C 544.15 1011.56 532.22 993.55 531.33 974.11
  Q 523.89 812.56 516.66 650.99
  Q 516.54 648.48 516.50 645.96
  C 516.37 639.31 520.84 635.69 527.50 635.73
  Q 557.54 635.89 628.82 635.69
  Q 629.43 635.69 629.46 635.08
  Z
  M 800.06 577.47
  C 776.97 544.07 734.75 532.65 699.87 556.11
  C 674.34 573.29 660.49 605.05 659.59 635.30
  Q 659.57 635.75 660.02 635.75
  L 818.49 635.75
  Q 818.99 635.75 818.97 635.25
  Q 817.97 603.37 800.06 577.47
  Z
  M 819.14 865.64
  C 809.02 831.62 763.23 815.27 732.53 805.13
  C 710.15 797.74 679.94 780.97 688.40 751.78
  Q 691.58 740.81 698.93 734.36
  C 714.62 720.59 733.25 718.86 753.19 722.07
  Q 776.40 725.80 796.20 739.06
  C 797.73 740.08 799.96 740.73 801.13 739.12
  Q 802.80 736.84 807.41 729.12
  C 809.87 725.01 812.24 722.69 807.23 719.53
  Q 773.62 698.37 735.00 698.51
  C 710.59 698.59 686.54 708.80 672.58 729.13
  C 657.88 750.55 658.86 777.85 675.71 797.76
  Q 683.70 807.20 694.20 813.78
  Q 699.74 817.25 712.15 822.52
  Q 727.10 828.87 733.50 830.97
  C 757.29 838.80 790.41 849.74 796.59 877.45
  C 801.00 897.24 788.61 914.75 770.80 922.34
  Q 748.75 931.74 724.98 927.73
  Q 695.16 922.70 670.55 902.49
  C 668.63 900.91 666.09 899.56 664.34 901.82
  Q 661.84 905.06 655.84 914.37
  C 654.07 917.12 652.55 918.08 655.46 920.51
  Q 671.78 934.18 688.33 941.11
  C 716.00 952.70 750.54 956.93 778.75 945.47
  C 805.35 934.68 822.03 910.78 821.45 881.75
  Q 821.27 872.80 819.14 865.64
  Z"
/>
<path fill="#d0011b" d="
  M 699.87 556.11
  C 734.75 532.65 776.97 544.07 800.06 577.47
  Q 817.97 603.37 818.97 635.25
  Q 818.99 635.75 818.49 635.75
  L 660.02 635.75
  Q 659.57 635.75 659.59 635.30
  C 660.49 605.05 674.34 573.29 699.87 556.11
  Z"
/>
<path fill="#d0011b" d="
  M 732.53 805.13
  C 763.23 815.27 809.02 831.62 819.14 865.64
  Q 821.27 872.80 821.45 881.75
  C 822.03 910.78 805.35 934.68 778.75 945.47
  C 750.54 956.93 716.00 952.70 688.33 941.11
  Q 671.78 934.18 655.46 920.51
  C 652.55 918.08 654.07 917.12 655.84 914.37
  Q 661.84 905.06 664.34 901.82
  C 666.09 899.56 668.63 900.91 670.55 902.49
  Q 695.16 922.70 724.98 927.73
  Q 748.75 931.74 770.80 922.34
  C 788.61 914.75 801.00 897.24 796.59 877.45
  C 790.41 849.74 757.29 838.80 733.50 830.97
  Q 727.10 828.87 712.15 822.52
  Q 699.74 817.25 694.20 813.78
  Q 683.70 807.20 675.71 797.76
  C 658.86 777.85 657.88 750.55 672.58 729.13
  C 686.54 708.80 710.59 698.59 735.00 698.51
  Q 773.62 698.37 807.23 719.53
  C 812.24 722.69 809.87 725.01 807.41 729.12
  Q 802.80 736.84 801.13 739.12
  C 799.96 740.73 797.73 740.08 796.20 739.06
  Q 776.40 725.80 753.19 722.07
  C 733.25 718.86 714.62 720.59 698.93 734.36
  Q 691.58 740.81 688.40 751.78
  C 679.94 780.97 710.15 797.74 732.53 805.13
  Z"
/>
<path fill="#ffffff" d="
  M 528.29 1088.72
  C 544.06 1095.14 547.47 1116.26 531.20 1124.29
  C 518.96 1130.34 503.57 1126.45 493.88 1117.86
  C 490.75 1115.09 493.78 1109.98 497.72 1111.18
  Q 498.63 1111.46 501.25 1113.42
  Q 508.21 1118.63 517.74 1119.24
  C 524.51 1119.67 532.50 1116.83 533.76 1109.45
  C 535.81 1097.42 519.00 1093.15 510.38 1090.16
  C 500.22 1086.63 493.38 1076.62 497.60 1065.83
  C 503.62 1050.42 524.50 1051.42 536.04 1059.16
  C 539.70 1061.61 537.22 1066.62 533.10 1066.60
  A 1.53 1.51 62.6 0 1 532.21 1066.31
  Q 522.15 1059.08 511.00 1062.86
  C 502.51 1065.73 502.48 1077.21 510.32 1081.14
  Q 517.29 1084.63 524.78 1086.94
  C 525.70 1087.22 527.13 1088.25 528.29 1088.72
  Z"
/>
<path fill="#ffffff" d="
  M 548.90 1056.36
  C 550.30 1053.46 554.67 1053.10 556.08 1055.76
  Q 556.68 1056.90 556.66 1059.83
  Q 556.58 1072.78 556.63 1085.73
  Q 556.63 1086.31 557.13 1086.01
  Q 571.25 1077.54 583.70 1087.31
  C 589.03 1091.50 589.91 1097.08 589.89 1104.21
  Q 589.86 1114.24 589.78 1124.25
  C 589.76 1127.46 584.53 1128.18 582.75 1125.91
  Q 581.78 1124.67 581.78 1122.00
  Q 581.81 1113.87 581.73 1105.75
  C 581.64 1097.16 579.52 1091.17 570.20 1090.69
  Q 560.94 1090.22 557.81 1097.83
  Q 556.52 1100.98 556.61 1108.06
  Q 556.70 1115.36 556.61 1122.65
  Q 556.58 1125.01 555.64 1126.10
  C 554.04 1127.96 550.48 1127.68 549.15 1125.49
  Q 548.57 1124.54 548.57 1122.63
  Q 548.54 1089.39 548.55 1056.15
  Q 548.55 1055.99 548.64 1056.12
  L 548.80 1056.36
  Q 548.86 1056.44 548.90 1056.36
  Z"
/>
<path fill="#ffffff" d="
  M 951.86 1112.25
  C 951.87 1119.69 959.72 1117.14 960.17 1122.47
  C 960.52 1126.59 956.72 1127.85 953.35 1126.52
  Q 943.42 1122.61 943.36 1111.00
  Q 943.22 1086.40 943.35 1061.80
  C 943.38 1054.85 951.79 1055.04 951.80 1061.48
  Q 951.82 1086.87 951.86 1112.25
  Z"
/>
<path fill="#ffffff" d="
  M 972.75 1113.25
  C 972.76 1118.95 979.65 1117.33 981.73 1120.65
  Q 983.44 1123.36 981.06 1126.03
  C 979.50 1127.78 977.59 1127.24 975.34 1126.62
  C 965.44 1123.90 964.26 1116.94 964.26 1107.15
  Q 964.25 1084.44 964.25 1061.75
  C 964.25 1054.85 972.76 1055.23 972.75 1061.25
  Q 972.71 1087.25 972.75 1113.25
  Z"
/>
<path fill="#ffffff" d="
  M 857.88 1072.38
  Q 859.56 1071.98 862.83 1069.76
  C 869.22 1065.43 876.92 1051.41 884.05 1061.40
  A 1.34 1.34 0.0 0 1 884.30 1062.18
  Q 884.30 1092.03 884.29 1121.73
  Q 884.29 1124.46 882.91 1125.88
  C 881.00 1127.82 877.40 1127.41 876.10 1124.90
  Q 875.54 1123.81 875.54 1121.50
  Q 875.51 1095.95 875.57 1070.69
  A 0.41 0.40 -24.1 0 0 874.86 1070.42
  C 861.62 1085.45 840.64 1085.50 827.91 1070.00
  A 0.38 0.38 0.0 0 0 827.24 1070.24
  Q 827.25 1095.75 827.25 1121.25
  Q 827.25 1124.46 825.93 1125.89
  C 823.57 1128.44 818.20 1126.95 818.20 1122.75
  Q 818.23 1093.80 818.23 1064.84
  C 818.23 1060.61 820.26 1057.34 824.77 1057.97
  C 830.63 1058.78 834.56 1065.70 839.28 1069.07
  Q 847.38 1074.85 857.88 1072.38
  Z"
/>
<path fill="#ffffff" d="
  M 643.2449 1104.1439
  A 23.21 22.59 -1.2 0 1 620.5131 1127.2150
  A 23.21 22.59 -1.2 0 1 596.8351 1105.1161
  A 23.21 22.59 -1.2 0 1 619.5669 1082.0450
  A 23.21 22.59 -1.2 0 1 643.2449 1104.1439
  Z
  M 635.2256 1105.2821
  A 15.18 14.57 2.5 0 0 620.6955 1090.0639
  A 15.18 14.57 2.5 0 0 604.8944 1103.9579
  A 15.18 14.57 2.5 0 0 619.4245 1119.1761
  A 15.18 14.57 2.5 0 0 635.2256 1105.2821
  Z"
/>
<path fill="#ffffff" d="
  M 658.58 1087.04
  C 671.09 1077.77 687.68 1081.77 694.42 1095.58
  C 700.32 1107.66 692.92 1121.79 680.74 1125.97
  Q 668.99 1130.01 658.51 1122.14
  Q 657.99 1121.75 657.99 1122.40
  Q 657.94 1135.17 657.99 1147.72
  C 658.01 1151.15 652.71 1151.95 650.88 1149.61
  Q 649.91 1148.37 649.91 1145.67
  Q 649.85 1099.21 649.97 1085.75
  C 650.00 1082.00 654.96 1081.81 657.22 1083.79
  Q 657.65 1084.16 657.72 1084.73
  L 657.97 1086.78
  Q 658.05 1087.43 658.58 1087.04
  Z
  M 688.3396 1104.7161
  A 15.20 14.55 0.4 0 0 673.2416 1090.0604
  A 15.20 14.55 0.4 0 0 657.9404 1104.5039
  A 15.20 14.55 0.4 0 0 673.0384 1119.1596
  A 15.20 14.55 0.4 0 0 688.3396 1104.7161
  Z"
/>
<path fill="#ffffff" d="
  M 741.85 1091.74
  Q 745.10 1097.10 744.66 1103.72
  C 744.48 1106.42 742.12 1106.93 739.69 1106.90
  Q 725.83 1106.74 711.76 1107.06
  A 0.50 0.49 -2.7 0 0 711.27 1107.59
  C 712.36 1120.25 727.05 1121.36 736.22 1117.27
  Q 738.83 1116.10 739.98 1116.15
  C 743.65 1116.30 744.08 1121.82 740.75 1123.59
  Q 730.41 1129.09 718.73 1126.30
  C 702.67 1122.47 699.38 1104.38 706.81 1091.55
  C 712.08 1082.47 724.25 1079.73 733.12 1083.94
  Q 738.72 1086.59 741.85 1091.74
  Z
  M 712.46 1099.31
  L 736.00 1099.27
  A 0.11 0.11 0.0 0 0 736.11 1099.16
  L 736.11 1099.10
  A 11.78 9.07 -0.1 0 0 724.31 1090.05
  L 724.11 1090.05
  A 11.78 9.07 -0.1 0 0 712.35 1099.14
  L 712.35 1099.20
  A 0.11 0.11 0.0 0 0 712.46 1099.31
  Z"
/>
<path fill="#ffffff" d="
  M 769.92 1118.83
  Q 778.18 1120.28 786.61 1116.35
  C 791.30 1114.17 794.34 1120.94 788.63 1123.86
  Q 777.40 1129.59 765.35 1125.71
  Q 761.54 1124.48 758.60 1122.01
  Q 755.94 1119.76 754.12 1116.00
  Q 748.97 1105.36 753.63 1094.70
  Q 758.75 1082.98 770.27 1082.10
  C 783.31 1081.12 793.18 1089.17 793.24 1102.76
  C 793.25 1104.61 791.86 1107.12 790.01 1107.07
  Q 776.02 1106.70 760.70 1106.97
  Q 759.79 1106.99 759.87 1107.89
  Q 760.26 1112.23 763.14 1115.35
  Q 765.65 1118.08 769.92 1118.83
  Z
  M 761.10 1099.39
  L 784.52 1099.23
  A 0.15 0.15 0.0 0 0 784.67 1099.08
  L 784.67 1098.98
  A 11.75 9.01 -0.4 0 0 772.86 1090.05
  L 772.64 1090.05
  A 11.75 9.01 -0.4 0 0 760.95 1099.14
  L 760.95 1099.24
  A 0.15 0.15 0.0 0 0 761.10 1099.39
  Z"
/>
<path fill="#ffffff" d="
  M 927.76 1122.05
  C 916.01 1131.22 898.95 1127.73 892.31 1114.60
  C 886.67 1103.46 892.09 1090.13 902.68 1084.84
  C 911.10 1080.65 920.17 1081.52 927.57 1087.21
  Q 927.83 1087.41 927.99 1087.13
  Q 930.58 1082.43 934.15 1083.73
  C 936.90 1084.73 936.87 1087.15 936.87 1089.71
  Q 936.89 1105.74 936.84 1121.76
  C 936.83 1124.90 935.49 1127.88 931.96 1127.27
  Q 928.32 1126.64 928.35 1122.34
  Q 928.36 1121.58 927.76 1122.05
  Z
  M 928.2177 1104.4351
  A 15.18 14.52 -1.0 0 0 912.7866 1090.1822
  A 15.18 14.52 -1.0 0 0 897.8623 1104.9649
  A 15.18 14.52 -1.0 0 0 913.2934 1119.2178
  A 15.18 14.52 -1.0 0 0 928.2177 1104.4351
  Z"
/>
<path fill="#d0011b" d="
  M 712.46 1099.31
  A 0.11 0.11 0.0 0 1 712.35 1099.20
  L 712.35 1099.14
  A 11.78 9.07 -0.1 0 1 724.11 1090.05
  L 724.31 1090.05
  A 11.78 9.07 -0.1 0 1 736.11 1099.10
  L 736.11 1099.16
  A 0.11 0.11 0.0 0 1 736.00 1099.27
  L 712.46 1099.31
  Z"
/>
<path fill="#d0011b" d="
  M 761.10 1099.39
  A 0.15 0.15 0.0 0 1 760.95 1099.24
  L 760.95 1099.14
  A 11.75 9.01 -0.4 0 1 772.64 1090.05
  L 772.86 1090.05
  A 11.75 9.01 -0.4 0 1 784.67 1098.98
  L 784.67 1099.08
  A 0.15 0.15 0.0 0 1 784.52 1099.23
  L 761.10 1099.39
  Z"
/>
<ellipse fill="#d0011b" cx="0.00" cy="0.00" transform="translate(620.06,1104.62) rotate(2.5)" rx="15.18" ry="14.57"/>
<ellipse fill="#d0011b" cx="0.00" cy="0.00" transform="translate(673.14,1104.61) rotate(0.4)" rx="15.20" ry="14.55"/>
<ellipse fill="#d0011b" cx="0.00" cy="0.00" transform="translate(913.04,1104.70) rotate(-1.0)" rx="15.18" ry="14.52"/>
</svg>
