<?xml version="1.0" encoding="UTF-8" standalone="no"?>
<svg xmlns="http://www.w3.org/2000/svg" version="1.2" baseProfile="tiny" viewBox="0.00 0.00 1448.00 1448.00">
<g stroke-width="2.00" fill="none" stroke-linecap="butt">
<path stroke="#f7a696" vector-effect="non-scaling-stroke" d="
  M 631.97 635.72
  Q 581.78 635.81 531.59 635.74
  C 526.72 635.74 523.08 636.69 520.74 640.83
  C 519.20 643.56 519.57 648.35 519.69 651.00
  Q 526.94 809.14 534.04 967.28
  Q 534.60 979.58 536.12 985.06
  C 540.27 1000.03 551.29 1012.60 566.46 1016.68
  Q 571.60 1018.06 581.68 1018.06
  Q 740.48 1018.08 899.29 1018.06
  Q 910.74 1018.06 916.08 1016.64
  C 931.28 1012.59 943.45 999.76 947.52 984.84
  Q 948.99 979.44 949.70 965.02
  Q 957.45 807.16 965.30 649.31
  C 965.80 639.15 962.40 635.76 951.97 635.76
  Q 902.37 635.74 853.00 635.75
  A 0.73 0.73 0.0 0 1 852.27 635.05
  C 850.32 586.33 823.66 539.62 777.55 520.75
  Q 767.25 516.53 755.19 515.16
  C 749.72 514.54 743.29 514.84 737.41 514.87
  Q 729.57 514.92 724.15 515.99
  C 674.59 525.84 641.58 570.77 634.39 618.52
  Q 633.15 626.77 632.62 635.11
  Q 632.58 635.72 631.97 635.72"
/>
<path stroke="#f7a696" vector-effect="non-scaling-stroke" d="
  M 591.74 1114.74
  C 581.40 1116.27 572.29 1112.54 564.31 1106.25
  A 1.06 1.06 0.0 0 0 562.79 1106.47
  L 558.44 1112.66
  Q 558.10 1113.13 558.54 1113.51
  Q 566.93 1120.77 579.00 1123.40
  C 592.43 1126.32 608.38 1122.75 613.65 1109.18
  C 617.25 1099.90 614.71 1090.80 606.96 1084.85
  C 601.03 1080.29 593.77 1077.51 586.11 1075.07
  C 579.90 1073.10 570.58 1069.49 570.35 1061.63
  C 570.14 1054.34 576.73 1049.65 583.34 1048.98
  Q 595.21 1047.78 604.94 1054.73
  A 1.33 1.33 0.0 0 0 606.81 1054.41
  L 610.68 1048.84
  A 1.19 1.18 -56.3 0 0 610.35 1047.17
  C 598.43 1039.53 581.13 1035.84 568.98 1045.24
  Q 561.40 1051.10 560.71 1059.52
  C 559.50 1074.07 572.83 1081.18 584.83 1084.64
  Q 593.26 1087.06 597.45 1089.53
  C 611.37 1097.73 606.37 1112.59 591.74 1114.74"
/>
<path stroke="#f7a696" vector-effect="non-scaling-stroke" d="
  M 633.30 1076.25
  L 633.25 1040.11
  A 0.60 0.60 0.0 0 0 632.65 1039.51
  L 624.81 1039.49
  A 1.04 1.04 0.0 0 0 623.77 1040.53
  L 623.77 1123.81
  Q 623.77 1124.35 624.32 1124.35
  L 632.64 1124.28
  Q 633.24 1124.28 633.24 1123.68
  Q 633.30 1110.08 633.38 1096.50
  Q 633.43 1088.69 639.63 1084.17
  C 647.65 1078.31 659.50 1081.44 662.84 1090.53
  Q 663.97 1093.61 663.95 1103.10
  Q 663.92 1113.44 664.00 1123.83
  Q 664.00 1124.38 664.55 1124.37
  L 672.72 1124.28
  A 0.68 0.68 0.0 0 0 673.39 1123.61
  Q 673.60 1110.82 673.39 1097.99
  C 673.24 1088.19 670.14 1080.99 661.74 1075.67
  Q 648.61 1067.36 633.78 1076.52
  Q 633.30 1076.82 633.30 1076.25"
/>
<path stroke="#f7a696" vector-effect="non-scaling-stroke" d="
  M 734.2298 1097.4225
  A 26.49 26.15 0.2 0 0 707.8313 1071.1802
  A 26.49 26.15 0.2 0 0 681.2502 1097.2375
  A 26.49 26.15 0.2 0 0 707.6487 1123.4798
  A 26.49 26.15 0.2 0 0 734.2298 1097.4225"
/>
<path stroke="#f7a696" vector-effect="non-scaling-stroke" d="
  M 753.07 1118.25
  Q 760.70 1123.98 769.55 1124.08
  C 797.43 1124.39 806.75 1086.90 781.66 1074.27
  Q 767.48 1067.14 753.06 1077.23
  Q 752.55 1077.59 752.56 1076.97
  L 752.60 1072.85
  A 1.50 1.49 0.4 0 0 751.10 1071.34
  L 744.35 1071.36
  A 0.91 0.90 90.0 0 0 743.45 1072.27
  L 743.44 1149.77
  A 0.59 0.58 90.0 0 0 744.02 1150.36
  L 751.94 1150.41
  Q 752.54 1150.41 752.54 1149.81
  L 752.54 1118.52
  Q 752.54 1117.85 753.07 1118.25"
/>
<path stroke="#f7a696" vector-effect="non-scaling-stroke" d="
  M 815.56 1100.69
  Q 833.76 1100.50 851.97 1100.65
  C 853.87 1100.66 856.02 1100.06 856.00 1097.93
  C 855.89 1084.29 846.45 1072.42 832.71 1071.21
  C 810.15 1069.23 797.33 1097.07 811.48 1113.80
  C 822.05 1126.31 841.85 1126.45 853.99 1116.36
  Q 855.31 1115.27 854.36 1113.86
  L 850.69 1108.40
  A 0.77 0.77 0.0 0 0 849.53 1108.26
  C 838.95 1118.11 819.64 1116.93 815.07 1101.35
  Q 814.88 1100.69 815.56 1100.69"
/>
<path stroke="#f7a696" vector-effect="non-scaling-stroke" d="
  M 874.91 1101.16
  A 0.42 0.41 81.2 0 1 875.30 1100.62
  Q 894.24 1100.66 913.00 1100.59
  Q 914.48 1100.59 915.79 1099.32
  A 1.43 1.40 -20.1 0 0 916.20 1098.46
  Q 916.42 1096.43 915.90 1093.78
  C 913.73 1082.74 905.93 1073.09 894.49 1071.43
  C 866.35 1067.35 854.20 1106.57 878.91 1120.03
  C 889.46 1125.77 903.07 1124.18 912.71 1117.48
  Q 913.45 1116.96 914.60 1115.32
  A 0.86 0.86 0.0 0 0 914.62 1114.35
  L 910.71 1108.41
  A 0.77 0.77 0.0 0 0 909.54 1108.27
  C 898.65 1118.47 879.84 1116.70 874.91 1101.16"
/>
<path stroke="#f7a696" vector-effect="non-scaling-stroke" d="
  M 767.81 548.67
  Q 740.46 537.69 713.33 550.49
  C 681.12 565.69 663.80 601.08 662.75 635.48
  A 0.26 0.26 0.0 0 0 663.01 635.75
  L 821.74 635.75
  A 0.51 0.50 88.9 0 0 822.24 635.22
  C 821.00 599.76 802.08 562.43 767.81 548.67"
/>
<path stroke="#f7a696" vector-effect="non-scaling-stroke" d="
  M 708.44 819.58
  Q 729.37 828.67 752.97 836.51
  C 769.42 841.97 788.18 852.59 796.32 868.02
  C 803.32 881.29 801.84 896.79 792.59 908.40
  C 779.07 925.38 752.88 930.74 732.59 928.35
  C 709.44 925.62 690.01 915.16 671.82 901.15
  A 2.93 2.93 0.0 0 0 667.65 901.76
  Q 662.55 908.85 657.51 916.55
  Q 656.27 918.45 658.16 920.08
  Q 677.23 936.49 699.28 944.14
  C 724.30 952.83 751.60 955.33 777.20 947.11
  C 806.12 937.82 824.12 913.75 824.74 883.50
  C 825.69 836.69 772.86 817.32 735.80 805.06
  C 723.53 801.00 709.78 794.62 700.31 784.81
  C 689.98 774.12 687.18 759.39 693.72 745.98
  C 701.99 729.03 720.96 720.90 738.91 720.54
  C 759.86 720.12 782.61 727.60 800.06 739.20
  Q 802.99 741.15 804.67 738.70
  C 806.59 735.90 809.05 731.01 812.62 726.02
  C 814.52 723.38 813.21 721.35 810.71 719.73
  Q 776.62 697.57 735.51 698.66
  C 704.21 699.48 672.79 718.52 666.54 751.10
  C 660.54 782.37 681.26 807.78 708.44 819.58"
/>
<path stroke="#f7a696" vector-effect="non-scaling-stroke" d="
  M 724.90 1097.32
  A 17.17 17.17 0.0 0 0 707.73 1080.15
  A 17.17 17.17 0.0 0 0 690.56 1097.32
  A 17.17 17.17 0.0 0 0 707.73 1114.49
  A 17.17 17.17 0.0 0 0 724.90 1097.32"
/>
<path stroke="#f7a696" vector-effect="non-scaling-stroke" d="
  M 787.10 1097.76
  A 17.23 17.23 0.0 0 0 769.87 1080.53
  A 17.23 17.23 0.0 0 0 752.64 1097.76
  A 17.23 17.23 0.0 0 0 769.87 1114.99
  A 17.23 17.23 0.0 0 0 787.10 1097.76"
/>
<path stroke="#f7a696" vector-effect="non-scaling-stroke" d="
  M 846.03 1090.77
  C 840.08 1076.88 822.00 1076.59 815.54 1090.84
  A 0.50 0.50 0.0 0 0 815.99 1091.55
  L 845.53 1091.53
  A 0.54 0.54 0.0 0 0 846.03 1090.77"
/>
<path stroke="#f7a696" vector-effect="non-scaling-stroke" d="
  M 905.85 1090.12
  C 898.59 1077.39 882.42 1076.35 875.62 1090.41
  A 0.79 0.79 0.0 0 0 876.33 1091.54
  L 905.03 1091.54
  Q 906.67 1091.54 905.85 1090.12"
/>
</g>
<path fill="#ee4d2d" d="
  M 1083.21 1129.29
  A 50.72 50.72 0.0 0 1 1032.49 1180.01
  L 432.19 1180.01
  A 50.72 50.72 0.0 0 1 381.47 1129.29
  L 381.47 528.97
  A 50.72 50.72 0.0 0 1 432.19 478.25
  L 1032.49 478.25
  A 50.72 50.72 0.0 0 1 1083.21 528.97
  L 1083.21 1129.29
  Z
  M 631.97 635.72
  Q 581.78 635.81 531.59 635.74
  C 526.72 635.74 523.08 636.69 520.74 640.83
  C 519.20 643.56 519.57 648.35 519.69 651.00
  Q 526.94 809.14 534.04 967.28
  Q 534.60 979.58 536.12 985.06
  C 540.27 1000.03 551.29 1012.60 566.46 1016.68
  Q 571.60 1018.06 581.68 1018.06
  Q 740.48 1018.08 899.29 1018.06
  Q 910.74 1018.06 916.08 1016.64
  C 931.28 1012.59 943.45 999.76 947.52 984.84
  Q 948.99 979.44 949.70 965.02
  Q 957.45 807.16 965.30 649.31
  C 965.80 639.15 962.40 635.76 951.97 635.76
  Q 902.37 635.74 853.00 635.75
  A 0.73 0.73 0.0 0 1 852.27 635.05
  C 850.32 586.33 823.66 539.62 777.55 520.75
  Q 767.25 516.53 755.19 515.16
  C 749.72 514.54 743.29 514.84 737.41 514.87
  Q 729.57 514.92 724.15 515.99
  C 674.59 525.84 641.58 570.77 634.39 618.52
  Q 633.15 626.77 632.62 635.11
  Q 632.58 635.72 631.97 635.72
  Z
  M 591.74 1114.74
  C 581.40 1116.27 572.29 1112.54 564.31 1106.25
  A 1.06 1.06 0.0 0 0 562.79 1106.47
  L 558.44 1112.66
  Q 558.10 1113.13 558.54 1113.51
  Q 566.93 1120.77 579.00 1123.40
  C 592.43 1126.32 608.38 1122.75 613.65 1109.18
  C 617.25 1099.90 614.71 1090.80 606.96 1084.85
  C 601.03 1080.29 593.77 1077.51 586.11 1075.07
  C 579.90 1073.10 570.58 1069.49 570.35 1061.63
  C 570.14 1054.34 576.73 1049.65 583.34 1048.98
  Q 595.21 1047.78 604.94 1054.73
  A 1.33 1.33 0.0 0 0 606.81 1054.41
  L 610.68 1048.84
  A 1.19 1.18 -56.3 0 0 610.35 1047.17
  C 598.43 1039.53 581.13 1035.84 568.98 1045.24
  Q 561.40 1051.10 560.71 1059.52
  C 559.50 1074.07 572.83 1081.18 584.83 1084.64
  Q 593.26 1087.06 597.45 1089.53
  C 611.37 1097.73 606.37 1112.59 591.74 1114.74
  Z
  M 633.30 1076.25
  L 633.25 1040.11
  A 0.60 0.60 0.0 0 0 632.65 1039.51
  L 624.81 1039.49
  A 1.04 1.04 0.0 0 0 623.77 1040.53
  L 623.77 1123.81
  Q 623.77 1124.35 624.32 1124.35
  L 632.64 1124.28
  Q 633.24 1124.28 633.24 1123.68
  Q 633.30 1110.08 633.38 1096.50
  Q 633.43 1088.69 639.63 1084.17
  C 647.65 1078.31 659.50 1081.44 662.84 1090.53
  Q 663.97 1093.61 663.95 1103.10
  Q 663.92 1113.44 664.00 1123.83
  Q 664.00 1124.38 664.55 1124.37
  L 672.72 1124.28
  A 0.68 0.68 0.0 0 0 673.39 1123.61
  Q 673.60 1110.82 673.39 1097.99
  C 673.24 1088.19 670.14 1080.99 661.74 1075.67
  Q 648.61 1067.36 633.78 1076.52
  Q 633.30 1076.82 633.30 1076.25
  Z
  M 734.2298 1097.4225
  A 26.49 26.15 0.2 0 0 707.8313 1071.1802
  A 26.49 26.15 0.2 0 0 681.2502 1097.2375
  A 26.49 26.15 0.2 0 0 707.6487 1123.4798
  A 26.49 26.15 0.2 0 0 734.2298 1097.4225
  Z
  M 753.07 1118.25
  Q 760.70 1123.98 769.55 1124.08
  C 797.43 1124.39 806.75 1086.90 781.66 1074.27
  Q 767.48 1067.14 753.06 1077.23
  Q 752.55 1077.59 752.56 1076.97
  L 752.60 1072.85
  A 1.50 1.49 0.4 0 0 751.10 1071.34
  L 744.35 1071.36
  A 0.91 0.90 90.0 0 0 743.45 1072.27
  L 743.44 1149.77
  A 0.59 0.58 90.0 0 0 744.02 1150.36
  L 751.94 1150.41
  Q 752.54 1150.41 752.54 1149.81
  L 752.54 1118.52
  Q 752.54 1117.85 753.07 1118.25
  Z
  M 815.56 1100.69
  Q 833.76 1100.50 851.97 1100.65
  C 853.87 1100.66 856.02 1100.06 856.00 1097.93
  C 855.89 1084.29 846.45 1072.42 832.71 1071.21
  C 810.15 1069.23 797.33 1097.07 811.48 1113.80
  C 822.05 1126.31 841.85 1126.45 853.99 1116.36
  Q 855.31 1115.27 854.36 1113.86
  L 850.69 1108.40
  A 0.77 0.77 0.0 0 0 849.53 1108.26
  C 838.95 1118.11 819.64 1116.93 815.07 1101.35
  Q 814.88 1100.69 815.56 1100.69
  Z
  M 874.91 1101.16
  A 0.42 0.41 81.2 0 1 875.30 1100.62
  Q 894.24 1100.66 913.00 1100.59
  Q 914.48 1100.59 915.79 1099.32
  A 1.43 1.40 -20.1 0 0 916.20 1098.46
  Q 916.42 1096.43 915.90 1093.78
  C 913.73 1082.74 905.93 1073.09 894.49 1071.43
  C 866.35 1067.35 854.20 1106.57 878.91 1120.03
  C 889.46 1125.77 903.07 1124.18 912.71 1117.48
  Q 913.45 1116.96 914.60 1115.32
  A 0.86 0.86 0.0 0 0 914.62 1114.35
  L 910.71 1108.41
  A 0.77 0.77 0.0 0 0 909.54 1108.27
  C 898.65 1118.47 879.84 1116.70 874.91 1101.16
  Z"
/>
<path fill="#ffffff" d="
  M 632.62 635.11
  Q 633.15 626.77 634.39 618.52
  C 641.58 570.77 674.59 525.84 724.15 515.99
  Q 729.57 514.92 737.41 514.87
  C 743.29 514.84 749.72 514.54 755.19 515.16
  Q 767.25 516.53 777.55 520.75
  C 823.66 539.62 850.32 586.33 852.27 635.05
  A 0.73 0.73 0.0 0 0 853.00 635.75
  Q 902.37 635.74 951.97 635.76
  C 962.40 635.76 965.80 639.15 965.30 649.31
  Q 957.45 807.16 949.70 965.02
  Q 948.99 979.44 947.52 984.84
  C 943.45 999.76 931.28 1012.59 916.08 1016.64
  Q 910.74 1018.06 899.29 1018.06
  Q 740.48 1018.08 581.68 1018.06
  Q 571.60 1018.06 566.46 1016.68
  C 551.29 1012.60 540.27 1000.03 536.12 985.06
  Q 534.60 979.58 534.04 967.28
  Q 526.94 809.14 519.69 651.00
  C 519.57 648.35 519.20 643.56 520.74 640.83
  C 523.08 636.69 526.72 635.74 531.59 635.74
  Q 581.78 635.81 631.97 635.72
  Q 632.58 635.72 632.62 635.11
  Z
  M 767.81 548.67
  Q 740.46 537.69 713.33 550.49
  C 681.12 565.69 663.80 601.08 662.75 635.48
  A 0.26 0.26 0.0 0 0 663.01 635.75
  L 821.74 635.75
  A 0.51 0.50 88.9 0 0 822.24 635.22
  C 821.00 599.76 802.08 562.43 767.81 548.67
  Z
  M 708.44 819.58
  Q 729.37 828.67 752.97 836.51
  C 769.42 841.97 788.18 852.59 796.32 868.02
  C 803.32 881.29 801.84 896.79 792.59 908.40
  C 779.07 925.38 752.88 930.74 732.59 928.35
  C 709.44 925.62 690.01 915.16 671.82 901.15
  A 2.93 2.93 0.0 0 0 667.65 901.76
  Q 662.55 908.85 657.51 916.55
  Q 656.27 918.45 658.16 920.08
  Q 677.23 936.49 699.28 944.14
  C 724.30 952.83 751.60 955.33 777.20 947.11
  C 806.12 937.82 824.12 913.75 824.74 883.50
  C 825.69 836.69 772.86 817.32 735.80 805.06
  C 723.53 801.00 709.78 794.62 700.31 784.81
  C 689.98 774.12 687.18 759.39 693.72 745.98
  C 701.99 729.03 720.96 720.90 738.91 720.54
  C 759.86 720.12 782.61 727.60 800.06 739.20
  Q 802.99 741.15 804.67 738.70
  C 806.59 735.90 809.05 731.01 812.62 726.02
  C 814.52 723.38 813.21 721.35 810.71 719.73
  Q 776.62 697.57 735.51 698.66
  C 704.21 699.48 672.79 718.52 666.54 751.10
  C 660.54 782.37 681.26 807.78 708.44 819.58
  Z"
/>
<path fill="#ee4d2d" d="
  M 767.81 548.67
  C 802.08 562.43 821.00 599.76 822.24 635.22
  A 0.51 0.50 88.9 0 1 821.74 635.75
  L 663.01 635.75
  A 0.26 0.26 0.0 0 1 662.75 635.48
  C 663.80 601.08 681.12 565.69 713.33 550.49
  Q 740.46 537.69 767.81 548.67
  Z"
/>
<path fill="#ee4d2d" d="
  M 708.44 819.58
  C 681.26 807.78 660.54 782.37 666.54 751.10
  C 672.79 718.52 704.21 699.48 735.51 698.66
  Q 776.62 697.57 810.71 719.73
  C 813.21 721.35 814.52 723.38 812.62 726.02
  C 809.05 731.01 806.59 735.90 804.67 738.70
  Q 802.99 741.15 800.06 739.20
  C 782.61 727.60 759.86 720.12 738.91 720.54
  C 720.96 720.90 701.99 729.03 693.72 745.98
  C 687.18 759.39 689.98 774.12 700.31 784.81
  C 709.78 794.62 723.53 801.00 735.80 805.06
  C 772.86 817.32 825.69 836.69 824.74 883.50
  C 824.12 913.75 806.12 937.82 777.20 947.11
  C 751.60 955.33 724.30 952.83 699.28 944.14
  Q 677.23 936.49 658.16 920.08
  Q 656.27 918.45 657.51 916.55
  Q 662.55 908.85 667.65 901.76
  A 2.93 2.93 0.0 0 1 671.82 901.15
  C 690.01 915.16 709.44 925.62 732.59 928.35
  C 752.88 930.74 779.07 925.38 792.59 908.40
  C 801.84 896.79 803.32 881.29 796.32 868.02
  C 788.18 852.59 769.42 841.97 752.97 836.51
  Q 729.37 828.67 708.44 819.58
  Z"
/>
<path fill="#ffffff" d="
  M 564.31 1106.25
  C 572.29 1112.54 581.40 1116.27 591.74 1114.74
  C 606.37 1112.59 611.37 1097.73 597.45 1089.53
  Q 593.26 1087.06 584.83 1084.64
  C 572.83 1081.18 559.50 1074.07 560.71 1059.52
  Q 561.40 1051.10 568.98 1045.24
  C 581.13 1035.84 598.43 1039.53 610.35 1047.17
  A 1.19 1.18 -56.3 0 1 610.68 1048.84
  L 606.81 1054.41
  A 1.33 1.33 0.0 0 1 604.94 1054.73
  Q 595.21 1047.78 583.34 1048.98
  C 576.73 1049.65 570.14 1054.34 570.35 1061.63
  C 570.58 1069.49 579.90 1073.10 586.11 1075.07
  C 593.77 1077.51 601.03 1080.29 606.96 1084.85
  C 614.71 1090.80 617.25 1099.90 613.65 1109.18
  C 608.38 1122.75 592.43 1126.32 579.00 1123.40
  Q 566.93 1120.77 558.54 1113.51
  Q 558.10 1113.13 558.44 1112.66
  L 562.79 1106.47
  A 1.06 1.06 0.0 0 1 564.31 1106.25
  Z"
/>
<path fill="#ffffff" d="
  M 633.78 1076.52
  Q 648.61 1067.36 661.74 1075.67
  C 670.14 1080.99 673.24 1088.19 673.39 1097.99
  Q 673.60 1110.82 673.39 1123.61
  A 0.68 0.68 0.0 0 1 672.72 1124.28
  L 664.55 1124.37
  Q 664.00 1124.38 664.00 1123.83
  Q 663.92 1113.44 663.95 1103.10
  Q 663.97 1093.61 662.84 1090.53
  C 659.50 1081.44 647.65 1078.31 639.63 1084.17
  Q 633.43 1088.69 633.38 1096.50
  Q 633.30 1110.08 633.24 1123.68
  Q 633.24 1124.28 632.64 1124.28
  L 624.32 1124.35
  Q 623.77 1124.35 623.77 1123.81
  L 623.77 1040.53
  A 1.04 1.04 0.0 0 1 624.81 1039.49
  L 632.65 1039.51
  A 0.60 0.60 0.0 0 1 633.25 1040.11
  L 633.30 1076.25
  Q 633.30 1076.82 633.78 1076.52
  Z"
/>
<path fill="#ffffff" d="
  M 734.2298 1097.4225
  A 26.49 26.15 0.2 0 1 707.6487 1123.4798
  A 26.49 26.15 0.2 0 1 681.2502 1097.2375
  A 26.49 26.15 0.2 0 1 707.8313 1071.1802
  A 26.49 26.15 0.2 0 1 734.2298 1097.4225
  Z
  M 724.90 1097.32
  A 17.17 17.17 0.0 0 0 707.73 1080.15
  A 17.17 17.17 0.0 0 0 690.56 1097.32
  A 17.17 17.17 0.0 0 0 707.73 1114.49
  A 17.17 17.17 0.0 0 0 724.90 1097.32
  Z"
/>
<path fill="#ffffff" d="
  M 752.54 1118.52
  L 752.54 1149.81
  Q 752.54 1150.41 751.94 1150.41
  L 744.02 1150.36
  A 0.59 0.58 90.0 0 1 743.44 1149.77
  L 743.45 1072.27
  A 0.91 0.90 -90.0 0 1 744.35 1071.36
  L 751.10 1071.34
  A 1.50 1.49 0.4 0 1 752.60 1072.85
  L 752.56 1076.97
  Q 752.55 1077.59 753.06 1077.23
  Q 767.48 1067.14 781.66 1074.27
  C 806.75 1086.90 797.43 1124.39 769.55 1124.08
  Q 760.70 1123.98 753.07 1118.25
  Q 752.54 1117.85 752.54 1118.52
  Z
  M 787.10 1097.76
  A 17.23 17.23 0.0 0 0 769.87 1080.53
  A 17.23 17.23 0.0 0 0 752.64 1097.76
  A 17.23 17.23 0.0 0 0 769.87 1114.99
  A 17.23 17.23 0.0 0 0 787.10 1097.76
  Z"
/>
<path fill="#ffffff" d="
  M 815.07 1101.35
  C 819.64 1116.93 838.95 1118.11 849.53 1108.26
  A 0.77 0.77 0.0 0 1 850.69 1108.40
  L 854.36 1113.86
  Q 855.31 1115.27 853.99 1116.36
  C 841.85 1126.45 822.05 1126.31 811.48 1113.80
  C 797.33 1097.07 810.15 1069.23 832.71 1071.21
  C 846.45 1072.42 855.89 1084.29 856.00 1097.93
  C 856.02 1100.06 853.87 1100.66 851.97 1100.65
  Q 833.76 1100.50 815.56 1100.69
  Q 814.88 1100.69 815.07 1101.35
  Z
  M 846.03 1090.77
  C 840.08 1076.88 822.00 1076.59 815.54 1090.84
  A 0.50 0.50 0.0 0 0 815.99 1091.55
  L 845.53 1091.53
  A 0.54 0.54 0.0 0 0 846.03 1090.77
  Z"
/>
<path fill="#ffffff" d="
  M 874.91 1101.16
  C 879.84 1116.70 898.65 1118.47 909.54 1108.27
  A 0.77 0.77 0.0 0 1 910.71 1108.41
  L 914.62 1114.35
  A 0.86 0.86 0.0 0 1 914.60 1115.32
  Q 913.45 1116.96 912.71 1117.48
  C 903.07 1124.18 889.46 1125.77 878.91 1120.03
  C 854.20 1106.57 866.35 1067.35 894.49 1071.43
  C 905.93 1073.09 913.73 1082.74 915.90 1093.78
  Q 916.42 1096.43 916.20 1098.46
  A 1.43 1.40 -20.1 0 1 915.79 1099.32
  Q 914.48 1100.59 913.00 1100.59
  Q 894.24 1100.66 875.30 1100.62
  A 0.42 0.41 81.2 0 0 874.91 1101.16
  Z
  M 905.85 1090.12
  C 898.59 1077.39 882.42 1076.35 875.62 1090.41
  A 0.79 0.79 0.0 0 0 876.33 1091.54
  L 905.03 1091.54
  Q 906.67 1091.54 905.85 1090.12
  Z"
/>
<circle fill="#ee4d2d" cx="707.73" cy="1097.32" r="17.17"/>
<path fill="#ee4d2d" d="
  M 815.54 1090.84
  C 822.00 1076.59 840.08 1076.88 846.03 1090.77
  A 0.54 0.54 0.0 0 1 845.53 1091.53
  L 815.99 1091.55
  A 0.50 0.50 0.0 0 1 815.54 1090.84
  Z"
/>
<path fill="#ee4d2d" d="
  M 905.85 1090.12
  Q 906.67 1091.54 905.03 1091.54
  L 876.33 1091.54
  A 0.79 0.79 0.0 0 1 875.62 1090.41
  C 882.42 1076.35 898.59 1077.39 905.85 1090.12
  Z"
/>
<circle fill="#ee4d2d" cx="769.87" cy="1097.76" r="17.23"/>
</svg>
