<svg enable-background="new 0 0 512 512" height="512" viewBox="0 0 512 512" width="512" xmlns="http://www.w3.org/2000/svg" xmlns:xlink="http://www.w3.org/1999/xlink"><linearGradient id="SVGID_1_" gradientUnits="userSpaceOnUse" x1="256" x2="256" y1="508.343" y2="99.651"><stop offset="0" stop-color="#f9403e"/><stop offset="1" stop-color="#f77953"/></linearGradient><linearGradient id="lg1"><stop offset=".0168" stop-color="#ccc"/><stop offset="1" stop-color="#f2f2f2"/></linearGradient><linearGradient id="SVGID_2_" gradientUnits="userSpaceOnUse" x1="187.58" x2="187.58" xlink:href="#lg1" y1="194.499" y2="148.971"/><linearGradient id="SVGID_3_" gradientUnits="userSpaceOnUse" x1="319.458" x2="319.458" xlink:href="#lg1" y1="194.499" y2="148.971"/><linearGradient id="SVGID_4_" gradientUnits="userSpaceOnUse" x1="253.518" x2="253.518" y1="173.579" y2="3.657"><stop offset="0" stop-color="#41262f"/><stop offset="1" stop-color="#543843"/></linearGradient><g id="_x30_1_Shopping_Bag"><g><path d="m400.152 508.343h-288.304c-31.99 0-56.668-28.008-52.686-59.736l37.931-302.472c3.33-26.572 25.919-46.484 52.687-46.484h212.442c26.767 0 49.356 19.912 52.686 46.484l37.931 302.472c3.982 31.728-20.696 59.736-52.687 59.736z" fill="url(#SVGID_1_)"/><path d="m210.345 171.735c0 12.636-10.129 22.764-22.764 22.764-12.637 0-22.765-10.129-22.765-22.764 0-12.636 10.129-22.764 22.765-22.764 12.635 0 22.764 10.129 22.764 22.764z" fill="url(#SVGID_2_)"/><path d="m342.223 171.735c0 12.636-10.129 22.764-22.764 22.764-12.637 0-22.765-10.129-22.765-22.764 0-12.636 10.129-22.764 22.765-22.764s22.764 10.129 22.764 22.764z" fill="url(#SVGID_3_)"/><g><path d="m319.458 173.579c-2.936 0-5.313-2.379-5.313-5.313v-93.357c0-33.5-27.082-60.627-60.627-60.627-33.431 0-60.627 27.198-60.627 60.627v93.358c0 2.934-2.376 5.313-5.313 5.313s-5.313-2.379-5.313-5.313v-93.358c0-39.289 31.963-71.252 71.252-71.252 39.377 0 71.252 31.825 71.252 71.252v93.358c.001 2.933-2.375 5.312-5.311 5.312z" fill="url(#SVGID_4_)"/></g></g></g></svg>