<?xml version="1.0" encoding="utf-8"?>
<!-- Generator: Adobe Illustrator 26.5.0, SVG Export Plug-In . SVG Version: 6.00 Build 0)  -->
<svg version="1.1" id="svg1995" xmlns:svg="http://www.w3.org/2000/svg"
	 xmlns="http://www.w3.org/2000/svg" xmlns:xlink="http://www.w3.org/1999/xlink" x="0px" y="0px" viewBox="0 0 682.7 682.7"
	 style="enable-background:new 0 0 682.7 682.7;" xml:space="preserve">
<style type="text/css">
	.st0{clip-path:url(#SVGID_00000103965737998791470420000009956161538881331129_);}
	.st1{fill:none;stroke:#7E8083;stroke-width:53.3333;stroke-linecap:round;stroke-linejoin:round;stroke-miterlimit:13.3333;}
	.st2{fill:#7E8083;}
</style>
<g id="g2001" transform="matrix(1.3333333,0,0,-1.3333333,0,682.66667)">
	<g id="g2003">
		<g>
			<defs>
				<rect id="SVGID_1_" x="-85.3" y="-85.3" width="682.7" height="682.7"/>
			</defs>
			<clipPath id="SVGID_00000144338056776251955770000010983505206743318168_">
				<use xlink:href="#SVGID_1_"  style="overflow:visible;"/>
			</clipPath>
			<g id="g2005" style="clip-path:url(#SVGID_00000144338056776251955770000010983505206743318168_);">
				<g id="g2011" transform="translate(256,20)">
					<path id="path2013" class="st1" d="M0,0c-130.3,0-236,105.7-236,236S-130.3,472,0,472s236-105.7,236-236S130.3,0,0,0z"/>
				</g>
				<g id="g2015" transform="translate(172,195)">
					<path id="path2017" class="st1" d="M0,0c0,0,30.5-48,84-48s84,48,84,48"/>
				</g>
				<g id="g2019" transform="translate(318,322)">
					<path id="path2021" class="st2" d="M0,0c0-13.8,11.2-25,25-25S50-13.8,50,0S38.8,25,25,25S0,13.8,0,0 M-150,25
						c13.8,0,25-11.2,25-25s-11.2-25-25-25s-25,11.2-25,25S-163.8,25-150,25"/>
				</g>
			</g>
		</g>
	</g>
</g>
</svg>
