<svg enable-background="new 0 0 512 512" height="512" viewBox="0 0 512 512" width="512" xmlns="http://www.w3.org/2000/svg" xmlns:xlink="http://www.w3.org/1999/xlink"><radialGradient id="XMLID_2_" cx="255" cy="157.505" gradientUnits="userSpaceOnUse" r="519.919"><stop offset=".2989" stop-color="#fdf02f"/><stop offset=".7432" stop-color="#fc8202"/></radialGradient><g id="_x30_1_x2C__happy_x2C__emoji_x2C__emotion_x2C__smiley_x2C__feelings"><g id="XMLID_2987_"><path id="XMLID_2988_" d="m255 510c-140.93 0-255-114.049-255-255 0-140.931 114.05-255 255-255 140.931 0 255 114.05 255 255 0 140.932-114.049 255-255 255z" fill="url(#XMLID_2_)"/><path id="XMLID_2989_" d="m375 285h-240c0 21.858 5.847 42.349 16.058 60l103.942 17 103.942-17c10.211-17.651 16.058-38.142 16.058-60z" fill="#e7ffff"/><path id="XMLID_2992_" d="m151.058 345c20.749 35.867 59.526 60 103.942 60s83.193-24.133 103.942-60z" fill="#562912"/><g id="XMLID_2993_"><path id="XMLID_2994_" d="m240 180h-30c0-16.542-13.458-30-30-30s-30 13.458-30 30h-30c0-33.084 26.916-60 60-60s60 26.916 60 60z" fill="#562912"/></g><g id="XMLID_2995_"><path id="XMLID_2996_" d="m390 180h-30c0-16.542-13.458-30-30-30s-30 13.458-30 30h-30c0-33.084 26.916-60 60-60s60 26.916 60 60z" fill="#562912"/></g></g></g></svg>