<?xml version="1.0" encoding="UTF-8" standalone="no"?>
<svg xmlns="http://www.w3.org/2000/svg" version="1.2" baseProfile="tiny" viewBox="0.00 0.00 1448.00 1448.00">
<g stroke-width="2.00" fill="none" stroke-linecap="butt">
<path stroke="#090909" vector-effect="non-scaling-stroke" d="
  M 927.79 478.25
  L 925.03 479.01
  Q 924.62 479.12 924.53 479.53
  Q 924.39 480.18 923.73 480.85
  Q 920.72 483.91 917.70 486.93
  Q 917.52 487.12 917.26 487.12
  Q 917.06 487.12 916.86 487.15
  Q 916.39 487.24 916.05 487.58
  L 911.69 491.94
  Q 911.51 492.12 911.26 492.12
  L 910.98 492.12
  Q 910.65 492.12 910.41 492.33
  Q 905.78 496.54 900.74 500.23
  Q 898.18 502.11 894.31 506.27
  Q 893.37 507.29 891.24 508.67
  Q 889.59 509.74 888.33 511.37
  A 2.02 1.95 5.8 0 1 887.54 511.99
  Q 884.98 513.09 883.29 515.36
  Q 882.90 515.89 882.26 516.03
  L 881.55 516.19
  Q 881.10 516.29 880.82 516.65
  Q 879.21 518.77 877.11 520.32
  Q 874.04 522.59 873.12 523.49
  Q 870.43 526.14 867.82 528.86
  Q 867.57 529.12 867.21 529.12
  L 866.79 529.12
  Q 866.26 529.12 865.95 529.56
  Q 864.73 531.30 863.03 532.44
  Q 861.11 533.73 860.03 534.74
  Q 858.43 536.22 856.53 537.31
  Q 855.07 538.14 852.08 541.60
  Q 851.76 541.97 851.27 542.05
  Q 850.99 542.10 850.73 542.17
  Q 850.29 542.30 849.88 542.72
  C 847.31 545.37 844.40 548.83 841.27 550.73
  Q 840.16 551.40 839.23 552.30
  Q 837.75 553.72 836.31 554.67
  Q 834.00 556.18 832.33 558.59
  A 1.04 1.04 0.0 0 1 831.68 559.01
  Q 828.05 559.71 829.02 562.86
  Q 830.08 566.35 829.14 568.38"
/>
<path stroke="#890931" vector-effect="non-scaling-stroke" d="
  M 829.14 568.38
  Q 827.12 558.24 826.85 548.11
  Q 826.84 547.55 826.28 547.55
  L 810.37 547.54"
/>
<path stroke="#898989" vector-effect="non-scaling-stroke" d="
  M 810.37 547.54
  Q 810.40 547.63 810.43 547.71"
/>
<path stroke="#098580" vector-effect="non-scaling-stroke" d="
  M 810.43 547.71
  Q 808.79 539.16 809.09 530.43
  Q 809.15 528.51 807.23 528.51
  L 733.49 528.51
  Q 732.90 528.51 732.90 529.10
  L 732.88 698.22"
/>
<path stroke="#090909" vector-effect="non-scaling-stroke" d="
  M 732.88 698.22
  Q 731.54 685.89 731.84 673.54
  A 0.43 0.43 0.0 0 0 731.09 673.25
  Q 729.41 675.10 727.46 676.93
  C 726.25 678.06 724.55 678.81 723.19 680.14
  Q 721.64 681.64 720.15 682.62
  Q 717.84 684.12 716.12 686.37
  Q 715.85 686.72 715.42 686.82
  C 713.31 687.35 712.30 689.60 710.55 690.72
  Q 708.58 691.97 707.82 692.75
  Q 704.72 695.91 701.50 698.97
  Q 701.33 699.13 701.09 699.14
  Q 700.95 699.14 700.81 699.14
  Q 700.59 699.13 700.44 699.28
  L 696.09 703.48
  A 0.77 0.73 20.0 0 1 695.63 703.68
  Q 693.49 703.85 693.23 706.28
  Q 692.87 709.78 695.15 710.98
  C 696.87 711.88 699.19 710.61 700.65 712.63"
/>
<path stroke="#890931" vector-effect="non-scaling-stroke" d="
  M 700.65 712.63
  L 692.03 712.06"
/>
<path stroke="#898989" vector-effect="non-scaling-stroke" d="
  M 692.03 712.06
  Q 692.07 712.08 692.11 712.11"
/>
<path stroke="#098580" vector-effect="non-scaling-stroke" d="
  M 692.11 712.11
  L 692.09 695.32
  Q 692.09 694.78 691.56 694.69
  Q 653.49 688.20 617.97 701.64
  Q 608.53 705.22 599.97 710.29
  Q 569.45 728.39 551.38 759.68
  Q 548.07 765.43 542.33 778.58
  Q 540.97 781.70 540.26 783.81
  Q 538.55 788.88 538.46 789.12
  Q 536.97 792.95 536.08 796.96
  C 534.70 803.11 533.08 809.59 532.32 815.51
  Q 529.53 837.25 532.44 860.00
  Q 533.05 864.77 536.19 877.42"
/>
<path stroke="#090909" vector-effect="non-scaling-stroke" d="
  M 536.19 877.42
  Q 534.41 877.40 534.58 875.79
  Q 534.69 874.65 533.99 875.52
  Q 533.55 876.06 532.81 875.88
  A 0.77 0.76 -63.1 0 0 532.03 876.14
  Q 528.79 880.19 526.09 882.00
  Q 523.31 883.85 521.86 885.60
  A 0.80 0.79 -70.3 0 1 521.28 885.88
  Q 521.09 885.88 520.91 885.88
  Q 520.45 885.88 520.14 886.21
  Q 518.52 887.91 516.84 889.53
  Q 516.21 890.14 513.82 891.73
  Q 512.23 892.79 511.07 894.41
  Q 510.86 894.70 510.58 894.80
  Q 510.41 894.86 510.23 894.90
  Q 509.79 894.99 509.45 895.30
  L 496.92 906.51
  A 1.61 1.59 11.6 0 1 496.52 906.77
  Q 494.65 907.65 493.19 909.06
  Q 491.66 910.52 490.21 911.49
  Q 487.84 913.05 486.09 915.40
  Q 485.79 915.79 485.31 915.88
  C 484.78 915.97 484.25 916.19 483.84 916.59
  Q 480.79 919.59 477.76 922.59
  Q 477.00 923.33 474.89 924.70
  Q 473.50 925.60 472.45 926.96
  Q 472.14 927.36 471.69 927.58
  Q 468.75 928.99 466.85 931.69
  Q 466.72 931.88 466.49 931.88
  L 466.03 931.88
  Q 465.47 931.88 465.08 932.28
  Q 463.05 934.35 460.99 936.39
  C 460.28 937.11 459.68 936.73 458.90 937.51
  Q 455.28 941.08 451.71 944.69
  Q 451.52 944.88 451.25 944.88
  L 450.94 944.88
  Q 450.51 944.88 450.21 945.19
  L 446.79 948.58
  Q 446.51 948.86 446.11 948.87
  Q 445.96 948.87 445.80 948.89
  Q 445.50 948.94 445.23 949.20
  Q 443.65 950.72 442.11 952.26
  Q 441.30 953.07 438.93 954.64
  Q 437.14 955.83 435.82 957.73
  Q 435.72 957.88 435.53 957.88
  L 435.04 957.88
  A 1.17 1.16 -66.8 0 0 434.23 958.21
  C 431.52 960.88 428.53 964.51 425.33 966.47
  Q 424.20 967.17 423.22 968.08
  Q 421.57 969.60 420.21 970.53
  Q 417.96 972.06 416.23 974.20
  Q 415.92 974.57 415.48 974.77
  Q 412.83 975.92 411.13 978.32
  C 410.73 978.89 410.17 979.03 409.53 979.15
  A 1.30 1.23 15.1 0 0 408.90 979.49
  Q 405.68 982.74 402.42 985.92
  C 401.20 987.11 399.57 987.73 398.19 989.06
  Q 396.53 990.66 395.22 991.55
  Q 392.81 993.16 390.96 995.51
  A 1.36 1.35 -75.9 0 1 390.13 996.01
  Q 389.14 996.19 388.59 996.84
  Q 386.38 999.46 383.79 1000.84
  Q 383.43 1001.03 383.29 1001.28
  Q 383.11 1001.61 383.12 1002.08
  A 0.43 0.43 0.0 0 1 382.48 1002.47
  Q 381.85 1002.12 381.46 1000.20"
/>
<path stroke="#807c9f" vector-effect="non-scaling-stroke" d="
  M 848.61 617.25
  Q 848.07 617.15 848.32 617.44"
/>
<path stroke="#ff80a7" vector-effect="non-scaling-stroke" d="
  M 848.32 617.44
  Q 829.74 601.91 819.87 579.75
  Q 812.97 564.27 810.37 547.54"
/>
<path stroke="#80fbf7" vector-effect="non-scaling-stroke" d="
  M 810.43 547.71
  L 751.68 547.73
  Q 751.16 547.73 751.15 548.26
  Q 751.07 695.50 751.19 842.75
  Q 751.20 859.01 747.86 874.93
  Q 746.77 880.09 744.47 884.28
  Q 728.66 913.09 695.43 917.69
  C 691.97 918.17 688.28 917.93 684.67 917.90
  Q 680.18 917.85 676.65 917.14
  C 659.15 913.58 644.94 905.52 635.47 889.94"
/>
<path stroke="#807c9f" vector-effect="non-scaling-stroke" d="
  M 635.47 889.94
  Q 635.18 889.12 635.86 889.24"
/>
<path stroke="#007c77" vector-effect="non-scaling-stroke" d="
  M 635.86 889.24
  Q 639.19 891.71 643.02 893.23
  Q 648.18 895.28 653.51 896.77
  C 664.07 899.70 678.23 899.34 688.66 896.09
  Q 714.04 888.20 726.43 864.73
  Q 728.90 860.06 730.07 854.20
  Q 732.86 840.26 732.87 826.75
  Q 732.91 762.48 732.88 698.22"
/>
<path stroke="#007c77" vector-effect="non-scaling-stroke" d="
  M 536.19 877.42
  Q 539.89 890.40 546.62 903.39
  Q 557.80 924.97 575.76 940.80"
/>
<path stroke="#808080" vector-effect="non-scaling-stroke" d="
  M 575.76 940.80
  Q 576.45 942.06 577.80 942.76"
/>
<path stroke="#800028" vector-effect="non-scaling-stroke" d="
  M 577.80 942.76
  Q 580.28 946.97 583.56 950.45
  Q 609.52 977.96 644.94 989.88
  Q 653.54 992.78 664.31 994.68
  C 686.60 998.60 707.17 998.23 729.76 992.32
  C 769.65 981.89 800.32 950.69 815.08 912.40
  Q 826.54 882.68 826.61 850.75
  Q 826.78 775.87 826.81 700.67
  A 0.56 0.56 0.0 0 1 827.73 700.24
  C 856.06 724.02 895.10 734.81 931.65 736.77
  Q 932.77 736.83 932.78 735.70
  Q 932.78 735.55 933.00 735.08
  Q 933.15 734.74 933.15 734.41
  Q 933.04 697.27 932.82 660.21
  Q 932.82 659.82 932.43 659.78
  L 914.41 657.58"
/>
<path stroke="#007c77" vector-effect="non-scaling-stroke" d="
  M 914.41 657.58
  L 914.55 641.34
  A 0.91 0.90 1.3 0 0 913.67 640.43
  Q 890.82 639.70 869.77 630.33
  Q 857.35 624.80 848.61 617.25"
/>
<path stroke="#800028" vector-effect="non-scaling-stroke" d="
  M 848.61 617.25
  Q 833.69 594.74 829.14 568.38"
/>
<path stroke="#80fbf7" vector-effect="non-scaling-stroke" d="
  M 848.32 617.44
  Q 873.26 650.52 914.46 657.70"
/>
<path stroke="#ff80a7" vector-effect="non-scaling-stroke" d="
  M 914.46 657.70
  L 914.56 716.67
  Q 914.56 717.17 914.06 717.17
  Q 901.47 717.08 889.18 714.56
  Q 889.00 714.52 878.73 712.65
  Q 872.63 711.53 866.82 709.25
  C 865.82 708.86 864.80 709.35 863.66 708.93
  Q 860.15 707.62 851.54 704.60
  Q 835.63 699.01 820.33 688.91
  Q 814.30 684.94 809.11 680.18
  A 0.40 0.40 0.0 0 0 808.44 680.48
  Q 808.55 753.72 808.35 826.49
  Q 808.31 839.80 807.72 846.47
  Q 804.36 884.86 784.48 917.63
  Q 779.16 926.41 772.75 933.80
  Q 736.58 975.48 680.26 977.80
  Q 657.30 978.75 632.01 972.04
  C 628.31 971.05 624.84 969.60 621.19 968.23
  Q 597.44 959.35 577.80 942.76"
/>
<path stroke="#80fbf7" vector-effect="non-scaling-stroke" d="
  M 575.76 940.80
  Q 546.64 899.40 549.39 847.75
  Q 551.98 799.10 581.22 761.70
  Q 605.81 730.24 644.73 717.61
  C 646.07 717.17 647.38 717.15 648.90 716.69
  Q 655.75 714.62 663.97 713.21
  Q 664.36 713.14 664.78 713.25
  Q 665.37 713.39 665.62 713.36
  Q 678.91 711.49 692.11 712.11"
/>
<path stroke="#ff80a7" vector-effect="non-scaling-stroke" d="
  M 692.03 712.06
  L 691.97 776.20
  Q 691.97 776.68 691.50 776.60
  Q 672.34 773.29 651.99 779.12
  Q 646.34 780.74 643.19 782.78
  Q 642.79 783.04 642.32 783.08
  C 641.67 783.13 641.54 783.06 640.97 783.40
  Q 621.09 795.11 613.64 815.90
  Q 610.30 825.20 609.90 835.46
  Q 609.26 851.91 616.04 867.42
  C 620.82 878.34 627.18 883.03 635.47 889.94"
/>
<path stroke="#800028" vector-effect="non-scaling-stroke" d="
  M 635.86 889.24
  Q 635.19 888.48 634.25 886.27
  Q 625.29 865.08 629.75 843.25
  C 636.24 811.59 663.24 795.03 694.26 794.88
  Q 699.03 794.85 709.82 796.19
  Q 710.34 796.26 710.34 795.73
  L 710.34 714.27
  Q 710.34 713.78 709.86 713.73
  L 700.65 712.63"
/>
<path stroke="#807c9f" vector-effect="non-scaling-stroke" d="
  M 914.41 657.58
  Q 914.44 657.64 914.46 657.70"
/>
<path stroke="#808080" vector-effect="non-scaling-stroke" d="
  M 797.16 1029.27
  Q 797.88 1028.26 797.78 1026.96
  A 0.51 0.51 0.0 0 0 797.27 1026.48
  L 721.55 1026.65
  Q 721.14 1026.65 721.14 1027.07
  L 721.21 1049.73
  A 0.53 0.52 -90.0 0 0 721.73 1050.26
  L 744.74 1050.25
  A 0.50 0.50 0.0 0 1 745.24 1050.75
  L 745.25 1132.26
  Q 745.25 1132.77 745.76 1132.77
  L 769.92 1132.76
  Q 770.36 1132.76 770.36 1132.33
  L 770.37 1051.33
  A 0.55 0.54 0.0 0 1 770.92 1050.79
  L 788.99 1050.88
  A 1.11 1.11 0.0 0 0 790.04 1050.12
  Q 792.98 1041.05 796.20 1032.19
  Q 796.56 1031.20 796.77 1030.16
  Q 796.87 1029.67 797.16 1029.27"
/>
<path stroke="#808080" vector-effect="non-scaling-stroke" d="
  M 535.21 1050.25
  A 0.47 0.47 0.0 0 1 535.68 1050.72
  L 535.69 1132.28
  A 0.47 0.47 0.0 0 0 536.16 1132.75
  L 560.32 1132.77
  A 0.47 0.47 0.0 0 0 560.79 1132.30
  L 560.81 1051.32
  A 0.47 0.47 0.0 0 1 561.28 1050.85
  L 579.87 1050.84
  A 0.47 0.47 0.0 0 0 580.31 1050.52
  L 588.38 1027.20
  A 0.47 0.47 0.0 0 0 587.94 1026.58
  L 512.10 1026.59
  A 0.47 0.47 0.0 0 0 511.63 1027.06
  L 511.64 1049.80
  A 0.47 0.47 0.0 0 0 512.11 1050.27
  L 535.21 1050.25"
/>
<path stroke="#808080" vector-effect="non-scaling-stroke" d="
  M 661.05 1075.96
  A 0.32 0.32 0.0 0 1 660.50 1075.74
  L 660.50 1026.93
  A 0.32 0.32 0.0 0 0 660.18 1026.61
  L 634.58 1026.59
  A 0.32 0.32 0.0 0 0 634.26 1026.91
  L 634.26 1132.38
  A 0.32 0.32 0.0 0 0 634.58 1132.70
  L 659.48 1132.46
  A 0.32 0.32 0.0 0 0 659.80 1132.14
  L 659.52 1107.08
  A 0.32 0.32 0.0 0 1 659.63 1106.83
  L 667.51 1099.99
  A 0.32 0.32 0.0 0 1 667.99 1100.07
  L 688.53 1132.61
  A 0.32 0.32 0.0 0 0 688.80 1132.76
  L 714.84 1132.80
  A 0.32 0.32 0.0 0 0 715.11 1132.30
  L 682.12 1082.49
  A 0.32 0.32 0.0 0 1 682.17 1082.09
  L 711.80 1054.10
  A 0.32 0.32 0.0 0 0 711.58 1053.55
  L 682.58 1053.54
  A 0.32 0.32 0.0 0 0 682.35 1053.64
  L 661.05 1075.96"
/>
<path stroke="#090909" vector-effect="non-scaling-stroke" d="
  M 890.60 1121.77
  Q 889.54 1126.92 890.64 1132.49"
/>
<path stroke="#808080" vector-effect="non-scaling-stroke" d="
  M 890.64 1132.49
  Q 890.69 1132.60 890.75 1132.72
  Q 890.75 1132.72 891.00 1132.72
  L 915.41 1132.44
  Q 916.25 1132.43 916.24 1131.59
  L 915.84 1107.52
  A 1.16 1.14 69.3 0 1 916.23 1106.63
  L 923.66 1100.15
  Q 924.14 1099.73 924.48 1100.27
  L 944.72 1132.33
  Q 945.01 1132.78 945.56 1132.78
  L 970.86 1132.79
  Q 971.80 1132.79 971.28 1132.00
  L 938.61 1082.66
  A 0.57 0.57 0.0 0 1 938.69 1081.93
  L 968.14 1054.14
  Q 968.77 1053.55 967.91 1053.55
  L 939.32 1053.54
  Q 938.83 1053.54 938.49 1053.90
  L 917.55 1075.81
  A 0.42 0.42 0.0 0 1 916.83 1075.52
  L 916.83 1027.20
  Q 916.83 1026.56 916.20 1026.56
  L 891.27 1026.60
  Q 890.66 1026.60 890.66 1027.21
  L 890.60 1121.77"
/>
<path stroke="#898989" vector-effect="non-scaling-stroke" d="
  M 890.64 1132.49
  L 890.60 1121.77"
/>
<path stroke="#808080" vector-effect="non-scaling-stroke" d="
  M 607.1658 1053.6297
  A 13.50 12.59 90.4 0 0 619.8497 1040.2179
  A 13.50 12.59 90.4 0 0 607.3542 1026.6303
  A 13.50 12.59 90.4 0 0 594.6703 1040.0421
  A 13.50 12.59 90.4 0 0 607.1658 1053.6297"
/>
<path stroke="#808080" vector-effect="non-scaling-stroke" d="
  M 834.66 1134.99
  L 842.11 1134.76"
/>
<path stroke="#800028" vector-effect="non-scaling-stroke" d="
  M 842.11 1134.76
  C 862.49 1135.67 879.27 1117.01 882.03 1098.46
  C 885.64 1074.11 868.51 1048.55 842.20 1048.22"
/>
<path stroke="#808080" vector-effect="non-scaling-stroke" d="
  M 842.20 1048.22
  Q 841.43 1048.38 840.44 1048.16"
/>
<path stroke="#007c77" vector-effect="non-scaling-stroke" d="
  M 840.44 1048.16
  C 834.59 1048.08 828.34 1047.46 822.90 1048.64
  C 805.42 1052.43 792.98 1065.18 789.31 1082.50
  Q 786.33 1096.62 792.17 1109.60
  C 799.84 1126.63 815.64 1136.27 834.66 1134.99"
/>
<path stroke="#80fbf7" vector-effect="non-scaling-stroke" d="
  M 840.44 1048.16
  Q 824.60 1047.00 812.41 1055.65
  C 795.86 1067.38 789.54 1090.17 797.63 1108.80
  Q 808.04 1132.79 834.66 1134.99"
/>
<path stroke="#ff80a7" vector-effect="non-scaling-stroke" d="
  M 842.11 1134.76
  C 860.33 1131.41 873.39 1118.88 877.42 1101.11
  Q 879.44 1092.23 877.76 1083.76
  Q 872.00 1054.78 842.20 1048.22"
/>
<path stroke="#808080" vector-effect="non-scaling-stroke" d="
  M 619.79 1062.35
  A 0.35 0.35 0.0 0 0 619.44 1062.00
  L 595.04 1062.00
  A 0.35 0.35 0.0 0 0 594.69 1062.35
  L 594.69 1132.43
  A 0.35 0.35 0.0 0 0 595.04 1132.78
  L 619.44 1132.78
  A 0.35 0.35 0.0 0 0 619.79 1132.43
  L 619.79 1062.35"
/>
<path stroke="#808080" vector-effect="non-scaling-stroke" d="
  M 831.54 1073.01
  Q 825.61 1075.23 821.92 1079.85
  C 816.85 1086.20 816.35 1094.94 820.68 1101.81
  C 829.01 1115.02 847.57 1112.87 853.33 1098.78
  Q 857.03 1089.75 851.19 1080.10
  Q 850.70 1079.29 849.73 1078.82"
/>
<path stroke="#898989" vector-effect="non-scaling-stroke" d="
  M 849.73 1078.82
  Q 848.95 1076.61 846.67 1075.77"
/>
<path stroke="#808080" vector-effect="non-scaling-stroke" d="
  M 846.67 1075.77
  Q 843.81 1073.66 840.34 1072.97"
/>
<path stroke="#898989" vector-effect="non-scaling-stroke" d="
  M 840.34 1072.97
  Q 835.69 1071.52 831.54 1073.01"
/>
<path stroke="#090909" vector-effect="non-scaling-stroke" d="
  M 840.34 1072.97
  L 831.54 1073.01"
/>
<path stroke="#090909" vector-effect="non-scaling-stroke" d="
  M 846.67 1075.77
  Q 847.67 1077.94 849.73 1078.82"
/>
</g>
<path fill="#121212" d="
  M 927.79 478.25
  L 925.03 479.01
  Q 924.62 479.12 924.53 479.53
  Q 924.39 480.18 923.73 480.85
  Q 920.72 483.91 917.70 486.93
  Q 917.52 487.12 917.26 487.12
  Q 917.06 487.12 916.86 487.15
  Q 916.39 487.24 916.05 487.58
  L 911.69 491.94
  Q 911.51 492.12 911.26 492.12
  L 910.98 492.12
  Q 910.65 492.12 910.41 492.33
  Q 905.78 496.54 900.74 500.23
  Q 898.18 502.11 894.31 506.27
  Q 893.37 507.29 891.24 508.67
  Q 889.59 509.74 888.33 511.37
  A 2.02 1.95 5.8 0 1 887.54 511.99
  Q 884.98 513.09 883.29 515.36
  Q 882.90 515.89 882.26 516.03
  L 881.55 516.19
  Q 881.10 516.29 880.82 516.65
  Q 879.21 518.77 877.11 520.32
  Q 874.04 522.59 873.12 523.49
  Q 870.43 526.14 867.82 528.86
  Q 867.57 529.12 867.21 529.12
  L 866.79 529.12
  Q 866.26 529.12 865.95 529.56
  Q 864.73 531.30 863.03 532.44
  Q 861.11 533.73 860.03 534.74
  Q 858.43 536.22 856.53 537.31
  Q 855.07 538.14 852.08 541.60
  Q 851.76 541.97 851.27 542.05
  Q 850.99 542.10 850.73 542.17
  Q 850.29 542.30 849.88 542.72
  C 847.31 545.37 844.40 548.83 841.27 550.73
  Q 840.16 551.40 839.23 552.30
  Q 837.75 553.72 836.31 554.67
  Q 834.00 556.18 832.33 558.59
  A 1.04 1.04 0.0 0 1 831.68 559.01
  Q 828.05 559.71 829.02 562.86
  Q 830.08 566.35 829.14 568.38
  Q 827.12 558.24 826.85 548.11
  Q 826.84 547.55 826.28 547.55
  L 810.37 547.54
  Q 810.40 547.63 810.43 547.71
  Q 808.79 539.16 809.09 530.43
  Q 809.15 528.51 807.23 528.51
  L 733.49 528.51
  Q 732.90 528.51 732.90 529.10
  L 732.88 698.22
  Q 731.54 685.89 731.84 673.54
  A 0.43 0.43 0.0 0 0 731.09 673.25
  Q 729.41 675.10 727.46 676.93
  C 726.25 678.06 724.55 678.81 723.19 680.14
  Q 721.64 681.64 720.15 682.62
  Q 717.84 684.12 716.12 686.37
  Q 715.85 686.72 715.42 686.82
  C 713.31 687.35 712.30 689.60 710.55 690.72
  Q 708.58 691.97 707.82 692.75
  Q 704.72 695.91 701.50 698.97
  Q 701.33 699.13 701.09 699.14
  Q 700.95 699.14 700.81 699.14
  Q 700.59 699.13 700.44 699.28
  L 696.09 703.48
  A 0.77 0.73 20.0 0 1 695.63 703.68
  Q 693.49 703.85 693.23 706.28
  Q 692.87 709.78 695.15 710.98
  C 696.87 711.88 699.19 710.61 700.65 712.63
  L 692.03 712.06
  Q 692.07 712.08 692.11 712.11
  L 692.09 695.32
  Q 692.09 694.78 691.56 694.69
  Q 653.49 688.20 617.97 701.64
  Q 608.53 705.22 599.97 710.29
  Q 569.45 728.39 551.38 759.68
  Q 548.07 765.43 542.33 778.58
  Q 540.97 781.70 540.26 783.81
  Q 538.55 788.88 538.46 789.12
  Q 536.97 792.95 536.08 796.96
  C 534.70 803.11 533.08 809.59 532.32 815.51
  Q 529.53 837.25 532.44 860.00
  Q 533.05 864.77 536.19 877.42
  Q 534.41 877.40 534.58 875.79
  Q 534.69 874.65 533.99 875.52
  Q 533.55 876.06 532.81 875.88
  A 0.77 0.76 -63.1 0 0 532.03 876.14
  Q 528.79 880.19 526.09 882.00
  Q 523.31 883.85 521.86 885.60
  A 0.80 0.79 -70.3 0 1 521.28 885.88
  Q 521.09 885.88 520.91 885.88
  Q 520.45 885.88 520.14 886.21
  Q 518.52 887.91 516.84 889.53
  Q 516.21 890.14 513.82 891.73
  Q 512.23 892.79 511.07 894.41
  Q 510.86 894.70 510.58 894.80
  Q 510.41 894.86 510.23 894.90
  Q 509.79 894.99 509.45 895.30
  L 496.92 906.51
  A 1.61 1.59 11.6 0 1 496.52 906.77
  Q 494.65 907.65 493.19 909.06
  Q 491.66 910.52 490.21 911.49
  Q 487.84 913.05 486.09 915.40
  Q 485.79 915.79 485.31 915.88
  C 484.78 915.97 484.25 916.19 483.84 916.59
  Q 480.79 919.59 477.76 922.59
  Q 477.00 923.33 474.89 924.70
  Q 473.50 925.60 472.45 926.96
  Q 472.14 927.36 471.69 927.58
  Q 468.75 928.99 466.85 931.69
  Q 466.72 931.88 466.49 931.88
  L 466.03 931.88
  Q 465.47 931.88 465.08 932.28
  Q 463.05 934.35 460.99 936.39
  C 460.28 937.11 459.68 936.73 458.90 937.51
  Q 455.28 941.08 451.71 944.69
  Q 451.52 944.88 451.25 944.88
  L 450.94 944.88
  Q 450.51 944.88 450.21 945.19
  L 446.79 948.58
  Q 446.51 948.86 446.11 948.87
  Q 445.96 948.87 445.80 948.89
  Q 445.50 948.94 445.23 949.20
  Q 443.65 950.72 442.11 952.26
  Q 441.30 953.07 438.93 954.64
  Q 437.14 955.83 435.82 957.73
  Q 435.72 957.88 435.53 957.88
  L 435.04 957.88
  A 1.17 1.16 -66.8 0 0 434.23 958.21
  C 431.52 960.88 428.53 964.51 425.33 966.47
  Q 424.20 967.17 423.22 968.08
  Q 421.57 969.60 420.21 970.53
  Q 417.96 972.06 416.23 974.20
  Q 415.92 974.57 415.48 974.77
  Q 412.83 975.92 411.13 978.32
  C 410.73 978.89 410.17 979.03 409.53 979.15
  A 1.30 1.23 15.1 0 0 408.90 979.49
  Q 405.68 982.74 402.42 985.92
  C 401.20 987.11 399.57 987.73 398.19 989.06
  Q 396.53 990.66 395.22 991.55
  Q 392.81 993.16 390.96 995.51
  A 1.36 1.35 -75.9 0 1 390.13 996.01
  Q 389.14 996.19 388.59 996.84
  Q 386.38 999.46 383.79 1000.84
  Q 383.43 1001.03 383.29 1001.28
  Q 383.11 1001.61 383.12 1002.08
  A 0.43 0.43 0.0 0 1 382.48 1002.47
  Q 381.85 1002.12 381.46 1000.20
  Q 381.38 763.36 381.50 526.50
  Q 381.51 515.40 388.26 503.93
  Q 399.63 484.60 420.30 479.68
  Q 426.26 478.26 438.32 478.26
  Q 683.05 478.20 927.79 478.25
  Z"
/>
<path fill="#000000" d="
  M 927.79 478.25
  Q 981.26 478.20 1034.75 478.27
  Q 1042.61 478.28 1050.72 481.52
  C 1066.41 487.79 1077.91 500.87 1081.84 517.36
  Q 1083.21 523.12 1083.21 534.01
  Q 1083.24 829.97 1083.21 1125.92
  Q 1083.21 1135.32 1081.96 1140.72
  C 1077.55 1159.65 1062.68 1174.28 1044.04 1178.71
  Q 1038.40 1180.04 1028.35 1180.04
  Q 732.67 1180.07 437.00 1180.05
  Q 426.38 1180.05 420.62 1178.69
  C 397.65 1173.28 381.40 1152.92 381.40 1129.00
  Q 381.39 1064.61 381.46 1000.20
  Q 381.85 1002.12 382.48 1002.47
  A 0.43 0.43 0.0 0 0 383.12 1002.08
  Q 383.11 1001.61 383.29 1001.28
  Q 383.43 1001.03 383.79 1000.84
  Q 386.38 999.46 388.59 996.84
  Q 389.14 996.19 390.13 996.01
  A 1.36 1.35 -75.9 0 0 390.96 995.51
  Q 392.81 993.16 395.22 991.55
  Q 396.53 990.66 398.19 989.06
  C 399.57 987.73 401.20 987.11 402.42 985.92
  Q 405.68 982.74 408.90 979.49
  A 1.30 1.23 15.1 0 1 409.53 979.15
  C 410.17 979.03 410.73 978.89 411.13 978.32
  Q 412.83 975.92 415.48 974.77
  Q 415.92 974.57 416.23 974.20
  Q 417.96 972.06 420.21 970.53
  Q 421.57 969.60 423.22 968.08
  Q 424.20 967.17 425.33 966.47
  C 428.53 964.51 431.52 960.88 434.23 958.21
  A 1.17 1.16 -66.8 0 1 435.04 957.88
  L 435.53 957.88
  Q 435.72 957.88 435.82 957.73
  Q 437.14 955.83 438.93 954.64
  Q 441.30 953.07 442.11 952.26
  Q 443.65 950.72 445.23 949.20
  Q 445.50 948.94 445.80 948.89
  Q 445.96 948.87 446.11 948.87
  Q 446.51 948.86 446.79 948.58
  L 450.21 945.19
  Q 450.51 944.88 450.94 944.88
  L 451.25 944.88
  Q 451.52 944.88 451.71 944.69
  Q 455.28 941.08 458.90 937.51
  C 459.68 936.73 460.28 937.11 460.99 936.39
  Q 463.05 934.35 465.08 932.28
  Q 465.47 931.88 466.03 931.88
  L 466.49 931.88
  Q 466.72 931.88 466.85 931.69
  Q 468.75 928.99 471.69 927.58
  Q 472.14 927.36 472.45 926.96
  Q 473.50 925.60 474.89 924.70
  Q 477.00 923.33 477.76 922.59
  Q 480.79 919.59 483.84 916.59
  C 484.25 916.19 484.78 915.97 485.31 915.88
  Q 485.79 915.79 486.09 915.40
  Q 487.84 913.05 490.21 911.49
  Q 491.66 910.52 493.19 909.06
  Q 494.65 907.65 496.52 906.77
  A 1.61 1.59 11.6 0 0 496.92 906.51
  L 509.45 895.30
  Q 509.79 894.99 510.23 894.90
  Q 510.41 894.86 510.58 894.80
  Q 510.86 894.70 511.07 894.41
  Q 512.23 892.79 513.82 891.73
  Q 516.21 890.14 516.84 889.53
  Q 518.52 887.91 520.14 886.21
  Q 520.45 885.88 520.91 885.88
  Q 521.09 885.88 521.28 885.88
  A 0.80 0.79 -70.3 0 0 521.86 885.60
  Q 523.31 883.85 526.09 882.00
  Q 528.79 880.19 532.03 876.14
  A 0.77 0.76 -63.1 0 1 532.81 875.88
  Q 533.55 876.06 533.99 875.52
  Q 534.69 874.65 534.58 875.79
  Q 534.41 877.40 536.19 877.42
  Q 539.89 890.40 546.62 903.39
  Q 557.80 924.97 575.76 940.80
  Q 576.45 942.06 577.80 942.76
  Q 580.28 946.97 583.56 950.45
  Q 609.52 977.96 644.94 989.88
  Q 653.54 992.78 664.31 994.68
  C 686.60 998.60 707.17 998.23 729.76 992.32
  C 769.65 981.89 800.32 950.69 815.08 912.40
  Q 826.54 882.68 826.61 850.75
  Q 826.78 775.87 826.81 700.67
  A 0.56 0.56 0.0 0 1 827.73 700.24
  C 856.06 724.02 895.10 734.81 931.65 736.77
  Q 932.77 736.83 932.78 735.70
  Q 932.78 735.55 933.00 735.08
  Q 933.15 734.74 933.15 734.41
  Q 933.04 697.27 932.82 660.21
  Q 932.82 659.82 932.43 659.78
  L 914.41 657.58
  L 914.55 641.34
  A 0.91 0.90 1.3 0 0 913.67 640.43
  Q 890.82 639.70 869.77 630.33
  Q 857.35 624.80 848.61 617.25
  Q 833.69 594.74 829.14 568.38
  Q 830.08 566.35 829.02 562.86
  Q 828.05 559.71 831.68 559.01
  A 1.04 1.04 0.0 0 0 832.33 558.59
  Q 834.00 556.18 836.31 554.67
  Q 837.75 553.72 839.23 552.30
  Q 840.16 551.40 841.27 550.73
  C 844.40 548.83 847.31 545.37 849.88 542.72
  Q 850.29 542.30 850.73 542.17
  Q 850.99 542.10 851.27 542.05
  Q 851.76 541.97 852.08 541.60
  Q 855.07 538.14 856.53 537.31
  Q 858.43 536.22 860.03 534.74
  Q 861.11 533.73 863.03 532.44
  Q 864.73 531.30 865.95 529.56
  Q 866.26 529.12 866.79 529.12
  L 867.21 529.12
  Q 867.57 529.12 867.82 528.86
  Q 870.43 526.14 873.12 523.49
  Q 874.04 522.59 877.11 520.32
  Q 879.21 518.77 880.82 516.65
  Q 881.10 516.29 881.55 516.19
  L 882.26 516.03
  Q 882.90 515.89 883.29 515.36
  Q 884.98 513.09 887.54 511.99
  A 2.02 1.95 5.8 0 0 888.33 511.37
  Q 889.59 509.74 891.24 508.67
  Q 893.37 507.29 894.31 506.27
  Q 898.18 502.11 900.74 500.23
  Q 905.78 496.54 910.41 492.33
  Q 910.65 492.12 910.98 492.12
  L 911.26 492.12
  Q 911.51 492.12 911.69 491.94
  L 916.05 487.58
  Q 916.39 487.24 916.86 487.15
  Q 917.06 487.12 917.26 487.12
  Q 917.52 487.12 917.70 486.93
  Q 920.72 483.91 923.73 480.85
  Q 924.39 480.18 924.53 479.53
  Q 924.62 479.12 925.03 479.01
  L 927.79 478.25
  Z
  M 797.16 1029.27
  Q 797.88 1028.26 797.78 1026.96
  A 0.51 0.51 0.0 0 0 797.27 1026.48
  L 721.55 1026.65
  Q 721.14 1026.65 721.14 1027.07
  L 721.21 1049.73
  A 0.53 0.52 -90.0 0 0 721.73 1050.26
  L 744.74 1050.25
  A 0.50 0.50 0.0 0 1 745.24 1050.75
  L 745.25 1132.26
  Q 745.25 1132.77 745.76 1132.77
  L 769.92 1132.76
  Q 770.36 1132.76 770.36 1132.33
  L 770.37 1051.33
  A 0.55 0.54 0.0 0 1 770.92 1050.79
  L 788.99 1050.88
  A 1.11 1.11 0.0 0 0 790.04 1050.12
  Q 792.98 1041.05 796.20 1032.19
  Q 796.56 1031.20 796.77 1030.16
  Q 796.87 1029.67 797.16 1029.27
  Z
  M 535.21 1050.25
  A 0.47 0.47 0.0 0 1 535.68 1050.72
  L 535.69 1132.28
  A 0.47 0.47 0.0 0 0 536.16 1132.75
  L 560.32 1132.77
  A 0.47 0.47 0.0 0 0 560.79 1132.30
  L 560.81 1051.32
  A 0.47 0.47 0.0 0 1 561.28 1050.85
  L 579.87 1050.84
  A 0.47 0.47 0.0 0 0 580.31 1050.52
  L 588.38 1027.20
  A 0.47 0.47 0.0 0 0 587.94 1026.58
  L 512.10 1026.59
  A 0.47 0.47 0.0 0 0 511.63 1027.06
  L 511.64 1049.80
  A 0.47 0.47 0.0 0 0 512.11 1050.27
  L 535.21 1050.25
  Z
  M 661.05 1075.96
  A 0.32 0.32 0.0 0 1 660.50 1075.74
  L 660.50 1026.93
  A 0.32 0.32 0.0 0 0 660.18 1026.61
  L 634.58 1026.59
  A 0.32 0.32 0.0 0 0 634.26 1026.91
  L 634.26 1132.38
  A 0.32 0.32 0.0 0 0 634.58 1132.70
  L 659.48 1132.46
  A 0.32 0.32 0.0 0 0 659.80 1132.14
  L 659.52 1107.08
  A 0.32 0.32 0.0 0 1 659.63 1106.83
  L 667.51 1099.99
  A 0.32 0.32 0.0 0 1 667.99 1100.07
  L 688.53 1132.61
  A 0.32 0.32 0.0 0 0 688.80 1132.76
  L 714.84 1132.80
  A 0.32 0.32 0.0 0 0 715.11 1132.30
  L 682.12 1082.49
  A 0.32 0.32 0.0 0 1 682.17 1082.09
  L 711.80 1054.10
  A 0.32 0.32 0.0 0 0 711.58 1053.55
  L 682.58 1053.54
  A 0.32 0.32 0.0 0 0 682.35 1053.64
  L 661.05 1075.96
  Z
  M 890.60 1121.77
  Q 889.54 1126.92 890.64 1132.49
  Q 890.69 1132.60 890.75 1132.72
  Q 890.75 1132.72 891.00 1132.72
  L 915.41 1132.44
  Q 916.25 1132.43 916.24 1131.59
  L 915.84 1107.52
  A 1.16 1.14 69.3 0 1 916.23 1106.63
  L 923.66 1100.15
  Q 924.14 1099.73 924.48 1100.27
  L 944.72 1132.33
  Q 945.01 1132.78 945.56 1132.78
  L 970.86 1132.79
  Q 971.80 1132.79 971.28 1132.00
  L 938.61 1082.66
  A 0.57 0.57 0.0 0 1 938.69 1081.93
  L 968.14 1054.14
  Q 968.77 1053.55 967.91 1053.55
  L 939.32 1053.54
  Q 938.83 1053.54 938.49 1053.90
  L 917.55 1075.81
  A 0.42 0.42 0.0 0 1 916.83 1075.52
  L 916.83 1027.20
  Q 916.83 1026.56 916.20 1026.56
  L 891.27 1026.60
  Q 890.66 1026.60 890.66 1027.21
  L 890.60 1121.77
  Z
  M 607.1658 1053.6297
  A 13.50 12.59 90.4 0 0 619.8497 1040.2179
  A 13.50 12.59 90.4 0 0 607.3542 1026.6303
  A 13.50 12.59 90.4 0 0 594.6703 1040.0421
  A 13.50 12.59 90.4 0 0 607.1658 1053.6297
  Z
  M 834.66 1134.99
  L 842.11 1134.76
  C 862.49 1135.67 879.27 1117.01 882.03 1098.46
  C 885.64 1074.11 868.51 1048.55 842.20 1048.22
  Q 841.43 1048.38 840.44 1048.16
  C 834.59 1048.08 828.34 1047.46 822.90 1048.64
  C 805.42 1052.43 792.98 1065.18 789.31 1082.50
  Q 786.33 1096.62 792.17 1109.60
  C 799.84 1126.63 815.64 1136.27 834.66 1134.99
  Z
  M 619.79 1062.35
  A 0.35 0.35 0.0 0 0 619.44 1062.00
  L 595.04 1062.00
  A 0.35 0.35 0.0 0 0 594.69 1062.35
  L 594.69 1132.43
  A 0.35 0.35 0.0 0 0 595.04 1132.78
  L 619.44 1132.78
  A 0.35 0.35 0.0 0 0 619.79 1132.43
  L 619.79 1062.35
  Z"
/>
<path fill="#00f7ee" d="
  M 810.43 547.71
  L 751.68 547.73
  Q 751.16 547.73 751.15 548.26
  Q 751.07 695.50 751.19 842.75
  Q 751.20 859.01 747.86 874.93
  Q 746.77 880.09 744.47 884.28
  Q 728.66 913.09 695.43 917.69
  C 691.97 918.17 688.28 917.93 684.67 917.90
  Q 680.18 917.85 676.65 917.14
  C 659.15 913.58 644.94 905.52 635.47 889.94
  Q 635.18 889.12 635.86 889.24
  Q 639.19 891.71 643.02 893.23
  Q 648.18 895.28 653.51 896.77
  C 664.07 899.70 678.23 899.34 688.66 896.09
  Q 714.04 888.20 726.43 864.73
  Q 728.90 860.06 730.07 854.20
  Q 732.86 840.26 732.87 826.75
  Q 732.91 762.48 732.88 698.22
  L 732.90 529.10
  Q 732.90 528.51 733.49 528.51
  L 807.23 528.51
  Q 809.15 528.51 809.09 530.43
  Q 808.79 539.16 810.43 547.71
  Z"
/>
<path fill="#ff004f" d="
  M 829.14 568.38
  Q 833.69 594.74 848.61 617.25
  Q 848.07 617.15 848.32 617.44
  Q 829.74 601.91 819.87 579.75
  Q 812.97 564.27 810.37 547.54
  L 826.28 547.55
  Q 826.84 547.55 826.85 548.11
  Q 827.12 558.24 829.14 568.38
  Z"
/>
<path fill="#ffffff" d="
  M 810.43 547.71
  Q 810.40 547.63 810.37 547.54
  Q 812.97 564.27 819.87 579.75
  Q 829.74 601.91 848.32 617.44
  Q 873.26 650.52 914.46 657.70
  L 914.56 716.67
  Q 914.56 717.17 914.06 717.17
  Q 901.47 717.08 889.18 714.56
  Q 889.00 714.52 878.73 712.65
  Q 872.63 711.53 866.82 709.25
  C 865.82 708.86 864.80 709.35 863.66 708.93
  Q 860.15 707.62 851.54 704.60
  Q 835.63 699.01 820.33 688.91
  Q 814.30 684.94 809.11 680.18
  A 0.40 0.40 0.0 0 0 808.44 680.48
  Q 808.55 753.72 808.35 826.49
  Q 808.31 839.80 807.72 846.47
  Q 804.36 884.86 784.48 917.63
  Q 779.16 926.41 772.75 933.80
  Q 736.58 975.48 680.26 977.80
  Q 657.30 978.75 632.01 972.04
  C 628.31 971.05 624.84 969.60 621.19 968.23
  Q 597.44 959.35 577.80 942.76
  Q 576.45 942.06 575.76 940.80
  Q 546.64 899.40 549.39 847.75
  Q 551.98 799.10 581.22 761.70
  Q 605.81 730.24 644.73 717.61
  C 646.07 717.17 647.38 717.15 648.90 716.69
  Q 655.75 714.62 663.97 713.21
  Q 664.36 713.14 664.78 713.25
  Q 665.37 713.39 665.62 713.36
  Q 678.91 711.49 692.11 712.11
  Q 692.07 712.08 692.03 712.06
  L 691.97 776.20
  Q 691.97 776.68 691.50 776.60
  Q 672.34 773.29 651.99 779.12
  Q 646.34 780.74 643.19 782.78
  Q 642.79 783.04 642.32 783.08
  C 641.67 783.13 641.54 783.06 640.97 783.40
  Q 621.09 795.11 613.64 815.90
  Q 610.30 825.20 609.90 835.46
  Q 609.26 851.91 616.04 867.42
  C 620.82 878.34 627.18 883.03 635.47 889.94
  C 644.94 905.52 659.15 913.58 676.65 917.14
  Q 680.18 917.85 684.67 917.90
  C 688.28 917.93 691.97 918.17 695.43 917.69
  Q 728.66 913.09 744.47 884.28
  Q 746.77 880.09 747.86 874.93
  Q 751.20 859.01 751.19 842.75
  Q 751.07 695.50 751.15 548.26
  Q 751.16 547.73 751.68 547.73
  L 810.43 547.71
  Z"
/>
<path fill="#00f7ee" d="
  M 848.61 617.25
  Q 857.35 624.80 869.77 630.33
  Q 890.82 639.70 913.67 640.43
  A 0.91 0.90 1.3 0 1 914.55 641.34
  L 914.41 657.58
  Q 914.44 657.64 914.46 657.70
  Q 873.26 650.52 848.32 617.44
  Q 848.07 617.15 848.61 617.25
  Z"
/>
<path fill="#ff004f" d="
  M 914.41 657.58
  L 932.43 659.78
  Q 932.82 659.82 932.82 660.21
  Q 933.04 697.27 933.15 734.41
  Q 933.15 734.74 933.00 735.08
  Q 932.78 735.55 932.78 735.70
  Q 932.77 736.83 931.65 736.77
  C 895.10 734.81 856.06 724.02 827.73 700.24
  A 0.56 0.56 0.0 0 0 826.81 700.67
  Q 826.78 775.87 826.61 850.75
  Q 826.54 882.68 815.08 912.40
  C 800.32 950.69 769.65 981.89 729.76 992.32
  C 707.17 998.23 686.60 998.60 664.31 994.68
  Q 653.54 992.78 644.94 989.88
  Q 609.52 977.96 583.56 950.45
  Q 580.28 946.97 577.80 942.76
  Q 597.44 959.35 621.19 968.23
  C 624.84 969.60 628.31 971.05 632.01 972.04
  Q 657.30 978.75 680.26 977.80
  Q 736.58 975.48 772.75 933.80
  Q 779.16 926.41 784.48 917.63
  Q 804.36 884.86 807.72 846.47
  Q 808.31 839.80 808.35 826.49
  Q 808.55 753.72 808.44 680.48
  A 0.40 0.40 0.0 0 1 809.11 680.18
  Q 814.30 684.94 820.33 688.91
  Q 835.63 699.01 851.54 704.60
  Q 860.15 707.62 863.66 708.93
  C 864.80 709.35 865.82 708.86 866.82 709.25
  Q 872.63 711.53 878.73 712.65
  Q 889.00 714.52 889.18 714.56
  Q 901.47 717.08 914.06 717.17
  Q 914.56 717.17 914.56 716.67
  L 914.46 657.70
  Q 914.44 657.64 914.41 657.58
  Z"
/>
<path fill="#000000" d="
  M 732.88 698.22
  Q 732.91 762.48 732.87 826.75
  Q 732.86 840.26 730.07 854.20
  Q 728.90 860.06 726.43 864.73
  Q 714.04 888.20 688.66 896.09
  C 678.23 899.34 664.07 899.70 653.51 896.77
  Q 648.18 895.28 643.02 893.23
  Q 639.19 891.71 635.86 889.24
  Q 635.19 888.48 634.25 886.27
  Q 625.29 865.08 629.75 843.25
  C 636.24 811.59 663.24 795.03 694.26 794.88
  Q 699.03 794.85 709.82 796.19
  Q 710.34 796.26 710.34 795.73
  L 710.34 714.27
  Q 710.34 713.78 709.86 713.73
  L 700.65 712.63
  C 699.19 710.61 696.87 711.88 695.15 710.98
  Q 692.87 709.78 693.23 706.28
  Q 693.49 703.85 695.63 703.68
  A 0.77 0.73 20.0 0 0 696.09 703.48
  L 700.44 699.28
  Q 700.59 699.13 700.81 699.14
  Q 700.95 699.14 701.09 699.14
  Q 701.33 699.13 701.50 698.97
  Q 704.72 695.91 707.82 692.75
  Q 708.58 691.97 710.55 690.72
  C 712.30 689.60 713.31 687.35 715.42 686.82
  Q 715.85 686.72 716.12 686.37
  Q 717.84 684.12 720.15 682.62
  Q 721.64 681.64 723.19 680.14
  C 724.55 678.81 726.25 678.06 727.46 676.93
  Q 729.41 675.10 731.09 673.25
  A 0.43 0.43 0.0 0 1 731.84 673.54
  Q 731.54 685.89 732.88 698.22
  Z"
/>
<path fill="#00f7ee" d="
  M 692.11 712.11
  Q 678.91 711.49 665.62 713.36
  Q 665.37 713.39 664.78 713.25
  Q 664.36 713.14 663.97 713.21
  Q 655.75 714.62 648.90 716.69
  C 647.38 717.15 646.07 717.17 644.73 717.61
  Q 605.81 730.24 581.22 761.70
  Q 551.98 799.10 549.39 847.75
  Q 546.64 899.40 575.76 940.80
  Q 557.80 924.97 546.62 903.39
  Q 539.89 890.40 536.19 877.42
  Q 533.05 864.77 532.44 860.00
  Q 529.53 837.25 532.32 815.51
  C 533.08 809.59 534.70 803.11 536.08 796.96
  Q 536.97 792.95 538.46 789.12
  Q 538.55 788.88 540.26 783.81
  Q 540.97 781.70 542.33 778.58
  Q 548.07 765.43 551.38 759.68
  Q 569.45 728.39 599.97 710.29
  Q 608.53 705.22 617.97 701.64
  Q 653.49 688.20 691.56 694.69
  Q 692.09 694.78 692.09 695.32
  L 692.11 712.11
  Z"
/>
<path fill="#ff004f" d="
  M 692.03 712.06
  L 700.65 712.63
  L 709.86 713.73
  Q 710.34 713.78 710.34 714.27
  L 710.34 795.73
  Q 710.34 796.26 709.82 796.19
  Q 699.03 794.85 694.26 794.88
  C 663.24 795.03 636.24 811.59 629.75 843.25
  Q 625.29 865.08 634.25 886.27
  Q 635.19 888.48 635.86 889.24
  Q 635.18 889.12 635.47 889.94
  C 627.18 883.03 620.82 878.34 616.04 867.42
  Q 609.26 851.91 609.90 835.46
  Q 610.30 825.20 613.64 815.90
  Q 621.09 795.11 640.97 783.40
  C 641.54 783.06 641.67 783.13 642.32 783.08
  Q 642.79 783.04 643.19 782.78
  Q 646.34 780.74 651.99 779.12
  Q 672.34 773.29 691.50 776.60
  Q 691.97 776.68 691.97 776.20
  L 692.03 712.06
  Z"
/>
<path fill="#ffffff" d="
  M 796.77 1030.16
  Q 796.56 1031.20 796.20 1032.19
  Q 792.98 1041.05 790.04 1050.12
  A 1.11 1.11 0.0 0 1 788.99 1050.88
  L 770.92 1050.79
  A 0.55 0.54 0.0 0 0 770.37 1051.33
  L 770.36 1132.33
  Q 770.36 1132.76 769.92 1132.76
  L 745.76 1132.77
  Q 745.25 1132.77 745.25 1132.26
  L 745.24 1050.75
  A 0.50 0.50 0.0 0 0 744.74 1050.25
  L 721.73 1050.26
  A 0.53 0.52 -90.0 0 1 721.21 1049.73
  L 721.14 1027.07
  Q 721.14 1026.65 721.55 1026.65
  L 797.27 1026.48
  A 0.51 0.51 0.0 0 1 797.78 1026.96
  Q 797.88 1028.26 797.16 1029.27
  Q 796.87 1029.67 796.77 1030.16
  Z"
/>
<path fill="#ffffff" d="
  M 535.21 1050.25
  L 512.11 1050.27
  A 0.47 0.47 0.0 0 1 511.64 1049.80
  L 511.63 1027.06
  A 0.47 0.47 0.0 0 1 512.10 1026.59
  L 587.94 1026.58
  A 0.47 0.47 0.0 0 1 588.38 1027.20
  L 580.31 1050.52
  A 0.47 0.47 0.0 0 1 579.87 1050.84
  L 561.28 1050.85
  A 0.47 0.47 0.0 0 0 560.81 1051.32
  L 560.79 1132.30
  A 0.47 0.47 0.0 0 1 560.32 1132.77
  L 536.16 1132.75
  A 0.47 0.47 0.0 0 1 535.69 1132.28
  L 535.68 1050.72
  A 0.47 0.47 0.0 0 0 535.21 1050.25
  Z"
/>
<path fill="#ffffff" d="
  M 661.05 1075.96
  L 682.35 1053.64
  A 0.32 0.32 0.0 0 1 682.58 1053.54
  L 711.58 1053.55
  A 0.32 0.32 0.0 0 1 711.80 1054.10
  L 682.17 1082.09
  A 0.32 0.32 0.0 0 0 682.12 1082.49
  L 715.11 1132.30
  A 0.32 0.32 0.0 0 1 714.84 1132.80
  L 688.80 1132.76
  A 0.32 0.32 0.0 0 1 688.53 1132.61
  L 667.99 1100.07
  A 0.32 0.32 0.0 0 0 667.51 1099.99
  L 659.63 1106.83
  A 0.32 0.32 0.0 0 0 659.52 1107.08
  L 659.80 1132.14
  A 0.32 0.32 0.0 0 1 659.48 1132.46
  L 634.58 1132.70
  A 0.32 0.32 0.0 0 1 634.26 1132.38
  L 634.26 1026.91
  A 0.32 0.32 0.0 0 1 634.58 1026.59
  L 660.18 1026.61
  A 0.32 0.32 0.0 0 1 660.50 1026.93
  L 660.50 1075.74
  A 0.32 0.32 0.0 0 0 661.05 1075.96
  Z"
/>
<path fill="#ffffff" d="
  M 890.64 1132.49
  L 890.60 1121.77
  L 890.66 1027.21
  Q 890.66 1026.60 891.27 1026.60
  L 916.20 1026.56
  Q 916.83 1026.56 916.83 1027.20
  L 916.83 1075.52
  A 0.42 0.42 0.0 0 0 917.55 1075.81
  L 938.49 1053.90
  Q 938.83 1053.54 939.32 1053.54
  L 967.91 1053.55
  Q 968.77 1053.55 968.14 1054.14
  L 938.69 1081.93
  A 0.57 0.57 0.0 0 0 938.61 1082.66
  L 971.28 1132.00
  Q 971.80 1132.79 970.86 1132.79
  L 945.56 1132.78
  Q 945.01 1132.78 944.72 1132.33
  L 924.48 1100.27
  Q 924.14 1099.73 923.66 1100.15
  L 916.23 1106.63
  A 1.16 1.14 69.3 0 0 915.84 1107.52
  L 916.24 1131.59
  Q 916.25 1132.43 915.41 1132.44
  L 891.00 1132.72
  Q 890.75 1132.72 890.75 1132.72
  Q 890.69 1132.60 890.64 1132.49
  Z"
/>
<ellipse fill="#ffffff" cx="0.00" cy="0.00" transform="translate(607.26,1040.13) rotate(90.4)" rx="13.50" ry="12.59"/>
<path fill="#00f7ee" d="
  M 840.44 1048.16
  Q 824.60 1047.00 812.41 1055.65
  C 795.86 1067.38 789.54 1090.17 797.63 1108.80
  Q 808.04 1132.79 834.66 1134.99
  C 815.64 1136.27 799.84 1126.63 792.17 1109.60
  Q 786.33 1096.62 789.31 1082.50
  C 792.98 1065.18 805.42 1052.43 822.90 1048.64
  C 828.34 1047.46 834.59 1048.08 840.44 1048.16
  Z"
/>
<path fill="#ff004f" d="
  M 842.11 1134.76
  C 860.33 1131.41 873.39 1118.88 877.42 1101.11
  Q 879.44 1092.23 877.76 1083.76
  Q 872.00 1054.78 842.20 1048.22
  C 868.51 1048.55 885.64 1074.11 882.03 1098.46
  C 879.27 1117.01 862.49 1135.67 842.11 1134.76
  Z"
/>
<path fill="#ffffff" d="
  M 840.44 1048.16
  Q 841.43 1048.38 842.20 1048.22
  Q 872.00 1054.78 877.76 1083.76
  Q 879.44 1092.23 877.42 1101.11
  C 873.39 1118.88 860.33 1131.41 842.11 1134.76
  L 834.66 1134.99
  Q 808.04 1132.79 797.63 1108.80
  C 789.54 1090.17 795.86 1067.38 812.41 1055.65
  Q 824.60 1047.00 840.44 1048.16
  Z
  M 831.54 1073.01
  Q 825.61 1075.23 821.92 1079.85
  C 816.85 1086.20 816.35 1094.94 820.68 1101.81
  C 829.01 1115.02 847.57 1112.87 853.33 1098.78
  Q 857.03 1089.75 851.19 1080.10
  Q 850.70 1079.29 849.73 1078.82
  Q 848.95 1076.61 846.67 1075.77
  Q 843.81 1073.66 840.34 1072.97
  Q 835.69 1071.52 831.54 1073.01
  Z"
/>
<rect fill="#ffffff" x="594.69" y="1062.00" width="25.10" height="70.78" rx="0.35"/>
<path fill="#121212" d="
  M 840.34 1072.97
  L 831.54 1073.01
  Q 835.69 1071.52 840.34 1072.97
  Z"
/>
<path fill="#000000" d="
  M 831.54 1073.01
  L 840.34 1072.97
  Q 843.81 1073.66 846.67 1075.77
  Q 847.67 1077.94 849.73 1078.82
  Q 850.70 1079.29 851.19 1080.10
  Q 857.03 1089.75 853.33 1098.78
  C 847.57 1112.87 829.01 1115.02 820.68 1101.81
  C 816.35 1094.94 816.85 1086.20 821.92 1079.85
  Q 825.61 1075.23 831.54 1073.01
  Z"
/>
<path fill="#121212" d="
  M 846.67 1075.77
  Q 848.95 1076.61 849.73 1078.82
  Q 847.67 1077.94 846.67 1075.77
  Z"
/>
<path fill="#121212" d="
  M 890.60 1121.77
  L 890.64 1132.49
  Q 889.54 1126.92 890.60 1121.77
  Z"
/>
</svg>
